<?xml version="1.0" encoding="UTF-8" standalone="no"?>
<!-- Generator: Adobe Illustrator 25.2.3, SVG Export Plug-In . SVG Version: 6.00 Build 0)  -->

<svg
   version="1.1"
   id="Layer_3"
   x="0px"
   y="0px"
   viewBox="0 0 128 128"
   style="enable-background:new 0 0 128 128;"
   xml:space="preserve"
   sodipodi:docname="emoji_u1fad8.svg"
   inkscape:version="1.2.2 (732a01da63, 2022-12-09)"
   xmlns:inkscape="http://www.inkscape.org/namespaces/inkscape"
   xmlns:sodipodi="http://sodipodi.sourceforge.net/DTD/sodipodi-0.dtd"
   xmlns="http://www.w3.org/2000/svg"
   xmlns:svg="http://www.w3.org/2000/svg"><defs
   id="defs40628" /><sodipodi:namedview
   id="namedview40626"
   pagecolor="#ffffff"
   bordercolor="#000000"
   borderopacity="0.25"
   inkscape:showpageshadow="2"
   inkscape:pageopacity="0.0"
   inkscape:pagecheckerboard="0"
   inkscape:deskcolor="#d1d1d1"
   showgrid="false"
   inkscape:zoom="4.2421875"
   inkscape:cx="47.381215"
   inkscape:cy="63.882136"
   inkscape:window-width="1366"
   inkscape:window-height="697"
   inkscape:window-x="-8"
   inkscape:window-y="-8"
   inkscape:window-maximized="1"
   inkscape:current-layer="Layer_3" />
<path
   id="path40597"
   style="fill:#a62714;fill-opacity:1"
   d="M 57.326172 8.4960938 C 55.690776 8.4852093 53.811554 8.6516468 52.773438 8.9882812 C 45.611587 10.201582 39.653984 18.393433 33 23.160156 C 25.620007 28.450151 12.309603 26.919699 5.5996094 38.679688 C 3.5188499 42.333195 3.1076464 46.070885 3.8730469 49.392578 C 4.085042 50.634521 4.572122 52.898759 5.6503906 55 C 7.6003887 58.789996 11.430554 63.42008 18.810547 65.080078 C 29.720536 67.530076 42.730794 63.560617 55.300781 55.140625 C 67.870769 46.720633 74.699451 32.74077 72.189453 21.800781 C 69.859455 11.660791 63.540855 9.040312 58.880859 8.5703125 C 58.42336 8.5253125 57.889609 8.4998437 57.326172 8.4960938 z " />

<path
   style="fill:#FBCB89;"
   d="M41.47,20.55c-1.14-0.2-2.13,2.5-7.25,5.85c-6.92,4.53-11.13,3.71-10.63,6.02  c0.4,1.85,4.36,3.02,9.64,1.32C42.21,30.85,44.27,21.05,41.47,20.55z"
   id="path40601" />


<path
   id="path40607"
   style="fill:#a62714;fill-opacity:1"
   d="M 90.044922 29.150391 C 86.422425 29.106797 80.644996 30.243364 77 34.630859 C 72.420005 40.140854 72.369298 48.950552 73.029297 54.060547 C 73.689296 59.170542 77.589694 75.540945 84.429688 82.710938 C 84.568584 82.856536 84.715977 82.993593 84.857422 83.136719 C 89.058524 88.498096 95.120465 93.806795 103.2793 95.330078 C 118.19928 98.120075 125.4407 84.899209 124.2207 74.699219 C 122.9407 63.979229 117.89905 63.030536 109.53906 52.560547 C 106.43907 48.670551 104.89921 40.639682 100.69922 34.929688 C 96.969222 29.849693 94.190778 29.510937 91.300781 29.210938 C 91.268279 29.207547 91.237363 29.216497 91.205078 29.214844 C 90.847573 29.180859 90.468042 29.155483 90.044922 29.150391 z " />



<path
   style="fill:#FBCB89;"
   d="M95.95,43.47c-0.81,0.66-1.93,5.59,3.15,13.94c5.93,9.75,11.06,8.05,11.5,7.01  c0.44-1.04-3.54-4.34-5.31-6.78c-3.17-4.37-4.16-6.53-6.22-10.62C98.18,45.25,96.82,42.76,95.95,43.47z"
   id="path40615" />
<path
   id="path40617"
   style="fill:#a62714;fill-opacity:1"
   d="M 29.625 73.820312 C 29.314318 73.825506 28.999687 73.838438 28.679688 73.859375 C 21.609695 74.319375 17.429998 78.309925 15.75 81.669922 C 15.189384 82.791154 14.629388 84.194969 14.275391 85.734375 C 14.219565 85.977142 14.167465 86.221527 14.123047 86.470703 C 14.081763 86.689293 14.046293 86.942693 14.007812 87.203125 C 13.978398 87.402197 13.945258 87.579091 13.919922 87.800781 C 13.509922 91.360778 13.920941 97.429693 16.960938 102.67969 C 19.540935 107.12968 23.770318 110.62024 29.570312 113.24023 C 33.140309 114.86023 37.710944 116.20977 43.960938 117.50977 C 62.170919 121.28976 84.249768 116.16905 86.509766 99.039062 C 87.429765 92.089069 83.40945 86.640935 79.939453 83.960938 C 78.98038 83.218978 78.007988 82.64388 77.060547 82.197266 C 76.127837 81.716481 75.110592 81.358783 74.021484 81.134766 C 72.560135 80.785568 71.328855 80.7042 70.498047 80.703125 C 64.70773 80.281551 57.989625 80.830078 56.039062 80.830078 C 44.578761 80.830078 39.256153 73.659305 29.625 73.820312 z " />

<path
   style="fill:#FBCB89;"
   d="M42.44,81.42c-1.12,1.15,2.07,7.48,10.02,7.95s11.02-4.62,10.02-5.28c-0.59-0.39-6.86-0.16-9.88-0.47  C47.38,83.1,43.09,80.76,42.44,81.42z"
   id="path40621" />

</svg>
