<?xml version="1.0" encoding="UTF-8" standalone="no"?>
<!-- Generator: Adobe Illustrator 25.2.3, SVG Export Plug-In . SVG Version: 6.00 Build 0)  -->

<svg
   version="1.1"
   id="Layer_2"
   x="0px"
   y="0px"
   viewBox="0 0 128 128"
   style="enable-background:new 0 0 128 128;"
   xml:space="preserve"
   sodipodi:docname="emoji_u1fa95.svg"
   inkscape:version="1.2.2 (732a01da63, 2022-12-09)"
   xmlns:inkscape="http://www.inkscape.org/namespaces/inkscape"
   xmlns:sodipodi="http://sodipodi.sourceforge.net/DTD/sodipodi-0.dtd"
   xmlns="http://www.w3.org/2000/svg"
   xmlns:svg="http://www.w3.org/2000/svg"><defs
   id="defs77">
	
	
	
	
	
	
	
	
	
	
	
	
	
	
	
	
	
	
	
	
	
	
	
	
	
	
	
	
</defs><sodipodi:namedview
   id="namedview75"
   pagecolor="#ffffff"
   bordercolor="#000000"
   borderopacity="0.25"
   inkscape:showpageshadow="2"
   inkscape:pageopacity="0.0"
   inkscape:pagecheckerboard="0"
   inkscape:deskcolor="#d1d1d1"
   showgrid="false"
   inkscape:zoom="2.9996795"
   inkscape:cx="88.176085"
   inkscape:cy="66.007051"
   inkscape:window-width="1366"
   inkscape:window-height="697"
   inkscape:window-x="-8"
   inkscape:window-y="-8"
   inkscape:window-maximized="1"
   inkscape:current-layer="Layer_2" />
<path
   style="fill:#b0bec5"
   d="m 99.88,12.81 1.37,1.96 c 0.45,0.65 0.24,1.81 -0.21,2.2 -0.45,0.39 -1.62,0.86 -2.27,0.49 l -2.12,-1.2 c -0.94,-0.53 -1.12,-1.82 -0.36,-2.59 l 1.06,-1.08 c 0.73,-0.73 1.94,-0.63 2.53,0.22 z"
   id="path2" /><path
   style="fill:#b0bec5"
   d="m 109.44,5.06 1.37,1.96 c 0.45,0.65 0.26,1.62 -0.14,2.2 -0.4,0.58 -1.69,0.85 -2.33,0.49 l -2.12,-1.2 C 105.28,7.98 105.1,6.69 105.86,5.92 l 1.06,-1.08 c 0.72,-0.73 1.93,-0.63 2.52,0.22 z"
   id="path4" /><path
   style="fill:#b0bec5"
   d="m 108.6967,27.154862 -1.37,-1.96 c -0.45,-0.65 -0.38,-1.53 0.18,-2.1 l 0.31,-0.31 c 0.52,-0.53 1.34,-0.64 1.99,-0.28 l 2.12,1.2 c 0.94,0.53 1.12,1.82 0.36,2.59 l -1.06,1.08 c -0.73,0.73 -1.94,0.63 -2.53,-0.22 z"
   id="path8" /><path
   style="fill:#b0bec5"
   d="m 118.6867,19.824862 -1.37,-1.96 c -0.45,-0.65 -0.38,-1.53 0.18,-2.1 l 0.31,-0.31 c 0.52,-0.53 1.34,-0.64 1.99,-0.28 l 2.12,1.2 c 0.94,0.53 1.12,1.82 0.36,2.59 l -1.06,1.08 c -0.73,0.73 -1.94,0.63 -2.53,-0.22 z"
   id="path10" /><path
   style="fill:#c87d5e"
   d="m 120.12,8.74 c -2.18,-2.91 -6.3,-4.42 -9.48,-3.09 -0.88,0.37 -1.7,0.96 -2.14,1.8 -0.44,0.84 -0.47,1.84 -0.57,2.8 -0.13,1.26 -0.28,2.72 -1.27,3.46 -2.34,1.72 -4.25,-0.12 -4.25,-0.12 0,0 -2.03,0.36 -3.25,2.84 -0.52,1.07 -0.77,2.59 -1.22,3.7 C 97.78,20.55 97.3,21 97.3,21 l -50.41,43.63 7.77,6.91 47.31,-45.25 c 0,0 0,0 0,0 1.82,-1.53 2.61,-1.19 4.26,-1.51 1.98,-0.38 3.78,-1.44 5.06,-2.96 -0.54,-1.02 -0.76,-2.28 -0.24,-3.25 0.7,-1.3 2.43,-1.62 3.95,-1.57 1.52,0.05 3.14,0.31 4.48,-0.33 1.34,-0.64 2.13,-2.12 2.17,-3.64 0.04,-1.51 -0.59,-3.04 -1.53,-4.29 z"
   id="path14" /><line
   style="fill:none"
   x1="56.360001"
   y1="65.089996"
   x2="9.6599998"
   y2="110.07"
   id="line16" /><g
   id="g20">
		<circle
   style="fill:#c87d5e"
   cx="35.349998"
   cy="90.010002"
   r="31.469999"
   id="circle18" />
	</g><polygon
   style="fill:#b0bec5"
   points="54.71,106.61 50.97,110.25 54.92,114.66 58.72,111.08 "
   id="polygon22" /><polygon
   style="fill:#b0bec5"
   points="60.66,96.45 66.11,96.96 66.77,91.77 62.11,91.34 "
   id="polygon24" /><polygon
   style="fill:#b0bec5"
   points="40.62,115 35.39,115.55 35.35,121.48 40.57,120.99 "
   id="polygon26" /><path
   style="fill:#b0bec5"
   d="m 18.23,116.42 4.58,2.64 1.81,-4.26 c -1.38,-0.67 -3.26,-1.61 -4.66,-2.38 z"
   id="path28" /><polygon
   style="fill:#b0bec5"
   points="58.78,76.25 60.28,81.26 65.12,79.78 63.11,74.93 "
   id="polygon30" /><g
   id="g36">
		<path
   style="fill:#ffcc80"
   d="M 33.6,116.5 C 23.33,116.5 14.06,111.25 8.78,102.46 0.57,88.79 5.02,71 18.69,62.79 c 4.5,-2.7 9.64,-4.13 14.86,-4.13 10.27,0 19.54,5.25 24.82,14.04 8.21,13.67 3.76,31.47 -9.91,39.68 -4.5,2.7 -9.64,4.12 -14.86,4.12 z"
   id="path32" />
		<path
   style="fill:#b0bec5"
   d="m 33.55,57.79 v 1.74 c 9.96,0 18.96,5.09 24.07,13.62 3.86,6.42 4.98,13.96 3.17,21.23 -1.82,7.27 -6.35,13.4 -12.78,17.25 -4.36,2.62 -9.35,4.01 -14.41,4.01 -9.96,0 -18.96,-5.09 -24.08,-13.62 C 5.66,95.6 4.54,88.06 6.36,80.79 c 1.82,-7.27 6.35,-13.4 12.78,-17.25 4.36,-2.62 9.35,-4 14.41,-4.01 v -1.74 m 0,0 c -5.22,0 -10.5,1.37 -15.3,4.25 -14.11,8.47 -18.68,26.77 -10.22,40.87 5.59,9.31 15.45,14.46 25.57,14.46 5.22,0 10.5,-1.37 15.3,-4.25 C 63.01,104.65 67.58,86.35 59.11,72.25 53.53,62.94 43.66,57.79 33.55,57.79 Z"
   id="path34" />
	</g><circle
   style="fill:#fef6e0"
   cx="32.43"
   cy="86.309998"
   id="circle38"
   r="25.530001" /><path
   style="fill:#b0bec5"
   d="M 9.17,88.83 C 8.89,84.45 10.14,78.5 14.5,72.55 c 1.77,-2.41 2.48,-4.81 0.01,-6.49 L 13.55,65.41 C 4.42,73.81 2.37,85.79 4.96,95.29 l 1.59,-0.42 c 2.67,-0.71 2.79,-3.28 2.62,-6.04 z"
   id="path40" /><line
   style="fill:none;stroke:#cfd8dc;stroke-width:0.5;stroke-miterlimit:10"
   x1="23.790001"
   y1="87.580002"
   x2="17.85"
   y2="95.290001"
   id="line42" /><line
   style="fill:none;stroke:#cfd8dc;stroke-width:0.5;stroke-miterlimit:10"
   x1="21.42"
   y1="98.360001"
   x2="28.33"
   y2="92.089996"
   id="line44" /><line
   style="fill:none;stroke:#cfd8dc;stroke-width:0.5;stroke-miterlimit:10"
   x1="20.360001"
   y1="96.959999"
   x2="26.809999"
   y2="90.589996"
   id="line46" /><line
   style="fill:none;stroke:#cfd8dc;stroke-width:0.5;stroke-miterlimit:10"
   x1="19.040001"
   y1="96.169998"
   x2="25.299999"
   y2="89.080002"
   id="line48" /><path
   style="fill:#b0bec5"
   d="m 15.18,109.22 -5.66,-5.23 1.3,-4.08 5.63,-5.99 c 0.37,-0.43 1.02,-0.46 1.43,-0.06 l 4.81,4.74 c 0.4,0.39 0.38,1.04 -0.03,1.42 l -6.61,5.92 z"
   id="path50" /><g
   id="g60">
		<polyline
   style="fill:none;stroke:#cfd8dc;stroke-width:0.5;stroke-miterlimit:10"
   points="23.79,87.58 101.21,19.37     101.72,16.97   "
   id="polyline52" />
		<polyline
   style="fill:none;stroke:#cfd8dc;stroke-width:0.5;stroke-miterlimit:10"
   points="25.3,89.08 102.81,19.83 112.32,9.02       "
   id="polyline54" />
		<polyline
   style="fill:none;stroke:#cfd8dc;stroke-width:0.5;stroke-miterlimit:10"
   points="26.81,90.59 103.64,20.84     117.22,13.39   "
   id="polyline56" />
		<polyline
   style="fill:none;stroke:#cfd8dc;stroke-width:0.5;stroke-miterlimit:10"
   points="28.33,92.09 104.63,22.04     107.17,21.47   "
   id="polyline58" />
	</g><line
   style="fill:none;stroke:#784d30;stroke-width:2.6114;stroke-miterlimit:10"
   x1="21.379999"
   y1="85.18"
   x2="31.48"
   y2="95.230003"
   id="line62" /><circle
   style="fill:#b0bec5"
   cx="101.72"
   cy="16.969999"
   id="circle64"
   r="1.53" /><circle
   style="fill:#b0bec5"
   cx="107.17"
   cy="21.469999"
   id="circle66"
   r="1.53" /><circle
   style="fill:#b0bec5"
   cx="112.32"
   cy="9.0200005"
   id="circle68"
   r="1.53" /><circle
   style="fill:#b0bec5"
   cx="117.22"
   cy="13.39"
   id="circle70"
   r="1.53" />
</svg>
