<?xml version="1.0" encoding="UTF-8" standalone="no"?>
<!-- Generator: Adobe Illustrator 25.2.3, SVG Export Plug-In . SVG Version: 6.00 Build 0)  -->

<svg
   version="1.1"
   id="Layer_1"
   x="0px"
   y="0px"
   viewBox="0 0 128 128"
   style="enable-background:new 0 0 128 128;"
   xml:space="preserve"
   sodipodi:docname="emoji_u1f9f7.svg"
   inkscape:version="1.2.2 (732a01da63, 2022-12-09)"
   xmlns:inkscape="http://www.inkscape.org/namespaces/inkscape"
   xmlns:sodipodi="http://sodipodi.sourceforge.net/DTD/sodipodi-0.dtd"
   xmlns="http://www.w3.org/2000/svg"
   xmlns:svg="http://www.w3.org/2000/svg"><defs
   id="defs14384" /><sodipodi:namedview
   id="namedview14382"
   pagecolor="#ffffff"
   bordercolor="#000000"
   borderopacity="0.25"
   inkscape:showpageshadow="2"
   inkscape:pageopacity="0.0"
   inkscape:pagecheckerboard="0"
   inkscape:deskcolor="#d1d1d1"
   showgrid="false"
   inkscape:zoom="1.4998398"
   inkscape:cx="52.672293"
   inkscape:cy="104.67785"
   inkscape:window-width="1366"
   inkscape:window-height="697"
   inkscape:window-x="-8"
   inkscape:window-y="-8"
   inkscape:window-maximized="1"
   inkscape:current-layer="Layer_1" />
<g
   id="g14379">
	
	<path
   style="fill:#82AEC0;"
   d="M108.91,32.49c-6.29,10.36-48.28,54.8-79.34,78.35c0.57-1.13,0.15-12.93-12.37-13.55   c-0.44-0.02-0.88,0.03-1.31,0.07c1.1-1.45,36.84-46.97,73.03-72.56L86,20.71C54.2,43.35,21.3,78.16,7.12,100.36   c-5.98,9.36-2.48,17.74,2.98,20.76c6.13,3.39,13.68,1.72,20.43-2.67c32.44-21.1,75.77-72,82.67-83.35L108.91,32.49z M20.16,103.36   c3.86,1.22,4.46,5.22,4.21,7.9c-0.27,2.84-3.08,5.87-7.17,5.87c-4.03,0-7.31-3.23-7.4-7.24C9.5,108.08,11.61,100.65,20.16,103.36z"
   id="path14359" />
	
	
	
	
	
	<path
   style="fill:#2f7889;fill-opacity:1"
   d="M101.15,47.45l-2.91-3.31c0,0-1.82-7.96-2.47-12.23c-0.61-3.97,1.74-3.88,4.11-3.43   c4.34,0.82,8.87,1.85,9.99,1.05c3.64-2.58,4.85-6.93,1.77-10.71c-2.01-2.47-5.79-4.83-8.58-0.63c-3.51,5.28-3.39,10.85-13.89,9.84   c-3.5-0.34-7.25-1.53-9.33-3.15c-0.64-0.5-1.66-0.28-1.05-0.83c0,0,3.78-3.29,6.67-5.59c3.41-2.71,5.72-5.61,9.64-9.37   c4.78-4.58,14.87-6.93,23.3,2.44c7.15,7.95,7.05,16.59,1.96,21.62c-2.25,2.22-4.95,4.69-6.84,6.67c-2.77,2.91-5.64,6.53-7.49,8.08   C105.05,48.73,103.12,49.33,101.15,47.45z"
   id="path14371" />
	
	
	
</g>
</svg>
