<?xml version="1.0" encoding="UTF-8" standalone="no"?>
<!-- Generator: Adobe Illustrator 25.2.3, SVG Export Plug-In . SVG Version: 6.00 Build 0)  -->

<svg
   version="1.1"
   id="Layer_2"
   x="0px"
   y="0px"
   viewBox="0 0 128 128"
   style="enable-background:new 0 0 128 128;"
   xml:space="preserve"
   sodipodi:docname="emoji_u1f9e8.svg"
   inkscape:version="1.2.2 (732a01da63, 2022-12-09)"
   xmlns:inkscape="http://www.inkscape.org/namespaces/inkscape"
   xmlns:sodipodi="http://sodipodi.sourceforge.net/DTD/sodipodi-0.dtd"
   xmlns="http://www.w3.org/2000/svg"
   xmlns:svg="http://www.w3.org/2000/svg"><defs
   id="defs36231" /><sodipodi:namedview
   id="namedview36229"
   pagecolor="#ffffff"
   bordercolor="#000000"
   borderopacity="0.25"
   inkscape:showpageshadow="2"
   inkscape:pageopacity="0.0"
   inkscape:pagecheckerboard="0"
   inkscape:deskcolor="#d1d1d1"
   showgrid="false"
   inkscape:zoom="4.2421875"
   inkscape:cx="75.197053"
   inkscape:cy="69.06814"
   inkscape:window-width="1366"
   inkscape:window-height="697"
   inkscape:window-x="-8"
   inkscape:window-y="-8"
   inkscape:window-maximized="1"
   inkscape:current-layer="Layer_2" />
<path
   id="path36206"
   style="fill:#FE180A;"
   d="M 62.232422 25.515625 C 59.829868 25.511985 58.284139 26.294689 57.400391 26.789062 C 55.950393 27.599062 55.279842 28.950393 54.589844 29.900391 C 46.949858 40.500369 6.9197618 96.319694 5.0097656 99.929688 C 1.6097724 106.36967 6.1204798 115.26064 11.730469 119.14062 C 15.220316 121.55668 18.082421 122.54857 19.609375 122.94922 C 19.616906 122.95119 19.623395 122.95313 19.630859 122.95508 C 19.692974 122.97559 23.284586 124.15803 26.199219 124.03906 C 30.299215 123.87906 32.480469 122.09961 32.480469 122.09961 L 74.583984 61.304688 C 74.588129 61.302217 74.619141 61.289062 74.619141 61.289062 L 81.873047 51.201172 C 82.665514 50.438255 83.332656 49.754611 83.630859 49.320312 C 84.900857 47.480316 87.420134 40.420685 76.160156 31.720703 C 69.82642 26.826963 65.32142 25.520305 62.232422 25.515625 z " />
<path
   style="fill:#A42615;"
   d="M59.31,29.43c-2.54,2.4-1.16,8.31,7.01,13.82c8.41,5.68,13.95,4.87,15.56,2.67  c1.69-2.32-2.2-8.54-7.61-12.55C68.59,29.16,62.07,26.82,59.31,29.43z"
   id="path36208" />

<path
   id="path36212"
   style="fill:#FDB700;"
   d="M 54.490234 30.019531 C 53.520235 31.19953 46.900391 40.589844 46.900391 40.589844 C 46.900391 40.589844 45.950553 44.649772 52.560547 51.259766 C 55.870544 54.569762 58.210861 56.260626 60.130859 57.390625 C 62.080857 58.530624 63.509766 59.130859 63.509766 59.130859 L 63.523438 59.126953 L 63.519531 59.130859 C 63.519531 59.130859 66.429299 60.460079 69.029297 61.080078 C 73.389293 62.110077 74.619141 61.289062 74.619141 61.289062 L 81.880859 51.189453 C 81.880859 51.189453 79.050466 52.280781 76.230469 52.050781 C 73.300472 51.800782 69.660156 50.130859 69.660156 50.130859 L 69.648438 50.146484 L 69.650391 50.119141 C 69.650391 50.119141 63.160074 46.790151 58.830078 41.910156 C 53.220084 35.580163 54.220235 32.029529 54.490234 30.019531 z " />

<path
   id="path36216"
   style="fill:#FDB900;"
   d="M 8.6191406 94.470703 L 6.140625 98.169922 C 6.140625 98.169922 5.6793809 102.92016 11.609375 108.91016 C 13.819373 111.14015 16.119377 112.7707 18.109375 113.9707 C 21.360832 115.93533 23.774054 116.69415 23.859375 116.7207 C 23.860911 116.72118 23.890625 116.73047 23.890625 116.73047 C 23.980362 116.76255 26.874589 117.79324 29.089844 118 C 32.75984 118.35 35.300781 118.0293 35.300781 118.0293 L 37.330078 115.08984 C 37.330078 115.08984 33.909997 115.67937 30.75 115.35938 C 27.590003 115.03938 25.570312 114.23047 25.570312 114.23047 L 25.564453 114.23828 C 25.336009 114.15764 23.22734 113.39903 20.900391 111.9707 C 18.270393 110.3507 15.399764 107.94031 13.509766 105.82031 C 7.8997712 99.510319 8.6191406 94.470703 8.6191406 94.470703 z " />

<path
   style="fill:#D8A26D;"
   d="M67.62,36.8c-0.21,1.12,0.64,2.41,2.09,3.31c1.44,0.91,3.26,0.16,3.37-0.64  c0.11-0.8,0.55-9.36,4.01-9.78c3.48-0.43,5.08,6.63,11.82,8.45c4.84,1.3,6.36,0.05,6.36,0.05l-0.64-3.85c0,0-2.02,1.28-6.04-0.96  c-4.22-2.35-6.15-8.88-12.24-8.29c-6.31,0.61-7.22,7.65-7.65,8.88C68.26,35.19,67.69,36.42,67.62,36.8z"
   id="path36220" />
<path
   style="fill:#ed6c30;fill-opacity:1"
   d="M81.38,14.91c0.48,0.97,11.9,19.06,11.9,19.06s0.08,23.16,0.08,23.97c0,1.45,0.97,2.01,2.09,0.64  c0.62-0.76,9.65-15.76,9.65-15.76s15.28,6.27,16.41,6.84c1.13,0.56,1.77-0.16,1.13-1.53c-0.64-1.37-10.7-19.38-10.7-19.38  s9.81-13.99,10.37-15.12s-0.24-1.85-1.29-1.37c-1.05,0.48-13.19,6.51-13.19,6.51s-4.43-12.82-4.75-13.59  c-0.56-1.37-1.45-1.61-1.85,0.08s-4.42,15.68-4.42,15.68s-12.87-6.76-13.99-7.24S80.9,13.95,81.38,14.91z"
   id="path36222" />
<path
   style="fill:#fcc21b;fill-opacity:1"
   d="M90.39,21.99l6.92,10.05l-0.16,16.41l6.27-11.18l11.66,6.03l-8.04-13.43l5.15-8.36  c0,0-6.59,3.7-6.76,3.3s-2.9-8.61-2.9-8.61l-2.73,9.57L90.39,21.99z"
   id="path36224" />
<path
   style="fill:#e2a804;fill-opacity:1"
   d="M93.29,38.71l-0.02-4.03c0,0,2.41-0.35,4.66-2.7c1.96-2.06,3.43-4.82,5.13-2.41  c1.28,1.82-1.55,5.01-3.85,6.68C95.69,38.83,93.29,38.71,93.29,38.71z"
   id="path36226" />
</svg>
