<?xml version="1.0" encoding="UTF-8" standalone="no"?>
<!-- Generator: Adobe Illustrator 25.2.3, SVG Export Plug-In . SVG Version: 6.00 Build 0)  -->

<svg
   version="1.1"
   id="_x31_"
   x="0px"
   y="0px"
   viewBox="0 0 128 128"
   style="enable-background:new 0 0 128 128;"
   xml:space="preserve"
   sodipodi:docname="hamsa.svg"
   inkscape:version="1.2.2 (732a01da63, 2022-12-09)"
   xmlns:inkscape="http://www.inkscape.org/namespaces/inkscape"
   xmlns:sodipodi="http://sodipodi.sourceforge.net/DTD/sodipodi-0.dtd"
   xmlns="http://www.w3.org/2000/svg"
   xmlns:svg="http://www.w3.org/2000/svg"><defs
   id="defs23420">
	
	
	
	
	
	
	
	
	
</defs><sodipodi:namedview
   id="namedview23418"
   pagecolor="#ffffff"
   bordercolor="#000000"
   borderopacity="0.25"
   inkscape:showpageshadow="2"
   inkscape:pageopacity="0.0"
   inkscape:pagecheckerboard="0"
   inkscape:deskcolor="#d1d1d1"
   showgrid="false"
   inkscape:zoom="2.1210938"
   inkscape:cx="27.108655"
   inkscape:cy="84.390422"
   inkscape:window-width="1366"
   inkscape:window-height="697"
   inkscape:window-x="-8"
   inkscape:window-y="-8"
   inkscape:window-maximized="1"
   inkscape:current-layer="_x31_" />

<g
   id="g24323"><path
     style="fill:#4857ac;fill-opacity:1"
     d="m 114.51,61.13 c -0.6,-1.45 -2.25,-3.15 -4.37,-4 -3.78,-1.52 -9.67,-2.73 -16.65,2.91 L 92.7,27.88 c 0,-3.45 -1.19,-6.5 -3.55,-8.34 -4.88,-3.79 -9.46,-2.46 -12.17,-0.96 -1.57,0.87 -2.63,2.46 -2.63,2.46 0,0 0.1,-2.75 0.1,-4.95 C 74.45,13.89 74.29,4 63.99,4 53.69,4 53.55,13.36 53.55,15.76 l 0.08,4.93 c 0,0 -1.16,-1.58 -3.15,-2.5 -2.8,-1.28 -7.11,-2.17 -11.65,1.35 -2.36,1.84 -3.55,4.89 -3.55,8.34 L 34.5,60.04 C 27.52,54.4 21.63,55.62 17.85,57.13 c -2.12,0.85 -3.93,2.85 -4.37,4 -0.48,1.24 -0.58,2.55 0.72,3.14 3.28,1.49 9.34,5.98 12.36,17.45 2.42,9.26 4.72,42.28 37.43,42.28 32.71,0 35.01,-33.02 37.44,-42.28 3.02,-11.46 9.12,-15.87 12.36,-17.45 1.2,-0.58 1.32,-1.69 0.72,-3.14 z"
     id="path23379" /><path
     style="fill:#2f2f2f;fill-opacity:1"
     d="m 77.34,62.29 c 0,0 -3.93,0 -3.93,0 0,-4.74 0,-30.49 0,-36.11 0,-2.66 0.49,-4.87 1.72,-6.21 2.55,-2.77 6.9,-2.88 6.9,-2.88 0,0 -1.49,0.85 -2.06,1.41 -1.47,1.44 -2.08,3.34 -2.45,5.25 -0.38,1.97 -0.18,33.97 -0.18,38.54 z"
     id="path23383" /><path
     style="fill:#2f2f2f;fill-opacity:1"
     d="m 50.86,62.29 c 0,0 3.93,0 3.93,0 0,-4.74 0,-30.49 0,-36.11 0,-2.66 -0.49,-4.87 -1.72,-6.21 -2.55,-2.77 -6.9,-2.88 -6.9,-2.88 0,0 1.49,0.85 2.06,1.41 1.47,1.44 2.08,3.34 2.45,5.25 0.37,1.97 0.18,33.97 0.18,38.54 z"
     id="path23385" /><path
     style="fill:#2f2f2f;fill-opacity:1"
     d="m 85.24,64.75 c -1.589151,0.425812 -4.33103,-6.5 -21.25,-6.5 -13.924457,0 -19.985657,8.019549 -21.85,7.52 -1.686981,-0.452025 -1.192162,-5.29665 -7.58,-8.53 l -0.07,2.81 c 3.56,4.24 4.54,9.65 4.55,9.72 0.285066,1.995459 0.06989,4.154357 0.53,4.42 0.443888,0.256279 1.054633,-0.984528 2.91,-3.37 0.07,-0.09 7.63,-8.63 21.51,-8.63 13.88,0 20.572692,7.149559 20.62,7.22 1.687256,2.512302 1.979917,3.611788 2.60046,3.253517 0.597616,-0.345034 0.217736,-1.522588 0.74954,-4.013517 0.197924,-0.927059 1.86,-5.14 5.53,-8.6 L 93.37,55.2 c -7.111188,4.239687 -6.540849,9.124188 -8.13,9.55 z"
     id="path23407"
     sodipodi:nodetypes="zssccsssssssccz" /></g><g
   id="g47070"
   transform="matrix(0.386185,0,0,0.386185,39.356519,61.405202)"
   style="stroke-width:2.58943"><path
     id="path46868"
     style="fill:#ffffff;stroke-width:2.58943"
     d="m 97.929688,64.056641 c -0.32836,-0.04309 -0.65672,-0.04484 -0.980469,0.0039 -3.849996,0.609999 -6.105891,5.733153 -6.72589,8.25315 -1.309999,5.319995 -2.222473,15.047166 -6.09247,18.817162 C 68.650875,106.31084 37.929913,103.87053 29.169922,82.560547 27.649923,78.850551 26.839684,72.74906 23.179688,70.539062 21.909689,69.789063 19.090389,70.280001 17.900391,71 16.160392,72.049999 14.52078,74.080001 13.050781,75.5 11.086539,77.382056 9.3627402,79.928409 6.7246094,80.322266 16.370818,94.039957 39.996964,107.75 62.599609,107.75 c 21.730965,0 44.408701,-12.67326 54.699221,-25.841797 -4.89536,-3.226639 -9.64449,-11.366233 -13.07813,-13.988281 -1.63625,-1.233749 -3.9925,-3.56168 -6.291012,-3.863281 z"
     sodipodi:nodetypes="sccccccccsccs" /><path
     d="M 121.56,64 C 110.91,42.17 89.9,29.16 68.32,27.38 c -9.27,-0.74 -18.08,0.35 -26.15,3.1 -14.8,5.08 -27.08,15.77 -35.09,31 -2.24,4.23 -5.04,9.1 -5.24,14.04 -0.09,2.29 0.66,4.22 3.03,4.73 3.76,0.82 5.79,-2.46 8.18,-4.75 1.47,-1.42 3.11,-3.45 4.85,-4.5 1.19,-0.72 4.01,-1.21 5.28,-0.46 3.66,2.21 4.47,8.31 5.99,12.02 8.76,21.31 39.48,23.75 54.96,8.57 C 88,87.36 91.26209,79.180681 92.22709,75.260681 93.19209,71.340681 93.1,64.67 96.95,64.06 c 2.59,-0.39 5.4,2.45 7.27,3.86 4.4,3.36 10.96,15.82 17.22,15.33 1.68,-0.12 3.8,-2.71 4.15,-4.19 1.16,-4.89 -3,-12.94 -4.03,-15.06 z"
     style="fill:#2f2f2f;stroke-width:2.58943"
     id="path46870"
     sodipodi:nodetypes="ccccccccccczccccc" /><path
     d="M 57.34,61.27 C 54.9,67.9 44.7,70.61 39.96,65.16 36.24,60.9 37.62,55.12 41.55,51.61 c 7.1,-6.34 18.95,1.09 15.79,9.66"
     style="fill:#ffffff;stroke-width:2.58943"
     id="path46872" /></g></svg>
