<?xml version="1.0" encoding="UTF-8" standalone="no"?>
<!-- Generator: Adobe Illustrator 24.1.2, SVG Export Plug-In . SVG Version: 6.00 Build 0)  -->

<svg
   version="1.1"
   id="eyes"
   x="0px"
   y="0px"
   viewBox="0 0 128 128"
   style="enable-background:new 0 0 128 128;"
   xml:space="preserve"
   sodipodi:docname="emoji_u1f440.svg"
   inkscape:version="1.3.2 (091e20e, 2023-11-25, custom)"
   xmlns:inkscape="http://www.inkscape.org/namespaces/inkscape"
   xmlns:sodipodi="http://sodipodi.sourceforge.net/DTD/sodipodi-0.dtd"
   xmlns="http://www.w3.org/2000/svg"
   xmlns:svg="http://www.w3.org/2000/svg"><defs
   id="defs47257">
	
	

		
	
		
	
			
			
			<linearGradient
   id="SVGID_2_"
   gradientUnits="userSpaceOnUse"
   x1="82.209297"
   y1="46.6759"
   x2="82.209297"
   y2="82.082802">
				<stop
   offset="0"
   style="stop-color:#424242"
   id="stop47241" />
				<stop
   offset="1"
   style="stop-color:#212121"
   id="stop47243" />
			</linearGradient>
			
		
			
			<linearGradient
   id="SVGID_1_"
   gradientUnits="userSpaceOnUse"
   x1="22.5233"
   y1="46.6759"
   x2="22.5233"
   y2="82.082802">
				<stop
   offset="0"
   style="stop-color:#424242"
   id="stop47222" />
				<stop
   offset="1"
   style="stop-color:#212121"
   id="stop47224" />
			</linearGradient>
			
		
				
				
			
				
				
			</defs><sodipodi:namedview
   id="namedview47255"
   pagecolor="#ffffff"
   bordercolor="#000000"
   borderopacity="0.25"
   inkscape:showpageshadow="2"
   inkscape:pageopacity="0.0"
   inkscape:pagecheckerboard="0"
   inkscape:deskcolor="#d1d1d1"
   showgrid="false"
   inkscape:zoom="4.2421875"
   inkscape:cx="61.760589"
   inkscape:cy="83.565378"
   inkscape:window-width="1920"
   inkscape:window-height="991"
   inkscape:window-x="-9"
   inkscape:window-y="-9"
   inkscape:window-maximized="1"
   inkscape:current-layer="eyes" />
<g
   id="g53722"
   transform="matrix(0.94126686,0,0,0.94126686,132.06499,3.7589211)"
   style="stroke-width:1.0624"><path
     d="m -100.76241,97.515352 c -15.10386,0.13808 -27.48294,-13.0299 -27.65115,-33.19497 -0.16817,-20.240451 11.9418,-33.697599 27.04563,-33.835733 15.070222,-0.138146 27.482959,13.029907 27.651137,33.270356 0.168177,20.202767 -11.941785,33.622227 -27.045617,33.760347 z"
     style="clip-rule:evenodd;fill:#fafafa;fill-opacity:1;fill-rule:nonzero;stroke-width:1.0624;stroke-linecap:round;stroke-linejoin:round;stroke-miterlimit:1.5"
     id="path53637"
     sodipodi:nodetypes="ccccc" /><path
     d="m -43.861797,97.515352 c 15.103857,0.13808 27.482937,-13.0299 27.651147,-33.19497 0.16817,-20.240451 -11.9418,-33.697599 -27.045627,-33.835733 -15.07022,-0.138146 -27.48296,13.029907 -27.65114,33.270356 -0.16818,20.202767 11.94179,33.622227 27.04562,33.760347 z"
     style="clip-rule:evenodd;fill:#fafafa;fill-opacity:1;fill-rule:nonzero;stroke-width:1.0624;stroke-linecap:round;stroke-linejoin:round;stroke-miterlimit:1.5"
     id="path53708"
     sodipodi:nodetypes="ccccc" /></g>
<g
   id="g53726"
   transform="matrix(0.94126686,0,0,0.94126686,117.14837,3.7589214)"
   style="stroke-width:1.0624"><path
     d="m -101.33657,72.130268 c -4.49,0.03352 -8.16999,-3.577151 -8.21999,-8.059061 -0.05,-4.498664 3.54999,-8.167966 8.03999,-8.201476 4.479987,-0.03351 8.169981,3.57715 8.219981,8.075815 0.05,4.490288 -3.549994,8.151212 -8.039981,8.184722 z"
     style="clip-rule:evenodd;fill:#2f2f2f;fill-rule:nonzero;stroke-width:1.06239;stroke-linecap:round;stroke-linejoin:round;stroke-miterlimit:1.5"
     id="path41638"
     sodipodi:nodetypes="scccs" /><path
     d="m -43.287647,72.130268 c 4.489997,0.03352 8.169997,-3.577151 8.219997,-8.059061 0.05,-4.498664 -3.55,-8.167966 -8.039997,-8.201476 -4.48,-0.03351 -8.17,3.57715 -8.22,8.075815 -0.05,4.490288 3.55,8.151212 8.04,8.184722 z"
     style="clip-rule:evenodd;fill:#2f2f2f;fill-rule:nonzero;stroke-width:1.0624;stroke-linecap:round;stroke-linejoin:round;stroke-miterlimit:1.5"
     id="path53710"
     sodipodi:nodetypes="scccs" /></g></svg>
