<?xml version="1.0" encoding="UTF-8" standalone="no"?>
<svg
   width="128"
   height="128"
   version="1.1"
   id="svg21309"
   sodipodi:docname="emoji_u1f62d.svg"
   inkscape:version="1.2.2 (732a01da63, 2022-12-09)"
   xmlns:inkscape="http://www.inkscape.org/namespaces/inkscape"
   xmlns:sodipodi="http://sodipodi.sourceforge.net/DTD/sodipodi-0.dtd"
   xmlns="http://www.w3.org/2000/svg"
   xmlns:svg="http://www.w3.org/2000/svg">
  <defs
     id="defs21313" />
  <sodipodi:namedview
     id="namedview21311"
     pagecolor="#ffffff"
     bordercolor="#000000"
     borderopacity="0.25"
     inkscape:showpageshadow="2"
     inkscape:pageopacity="0.0"
     inkscape:pagecheckerboard="0"
     inkscape:deskcolor="#d1d1d1"
     showgrid="false"
     inkscape:zoom="4.2421875"
     inkscape:cx="54.80663"
     inkscape:cy="72.839779"
     inkscape:window-width="1366"
     inkscape:window-height="697"
     inkscape:window-x="-8"
     inkscape:window-y="-8"
     inkscape:window-maximized="1"
     inkscape:current-layer="svg21309" />
  <path
     d="M.34 93.41c0 13.86 28.59 25.08 63.88 25.08 35.29 0 63.88-11.22 63.88-25.08 0-13.84-1.47-83.8-63.88-83.8C1.82 9.62.34 79.58.34 93.41z"
     fill="#fcc21b"
     id="path21293" />
  <path
     d="M96.97 71.53c-4.53-4.44-11.02-8.49-17.66-8.7-5.35-.17-9.66 2.78-15.08 2.78s-9.73-2.95-15.08-2.78c-6.64.21-13.13 4.26-17.66 8.7-5.44 5.34-8.92 13.38-6.48 20.86.57 1.74 1.64 3.57 2.93 4.92 1.64 1.71 4.39 3.22 6.71 3.83 4.63 1.21 9.5.32 13.85-1.45 4.38-1.78 7.88-5.39 15.74-5.39 7.85 0 11.36 3.61 15.74 5.39 4.34 1.76 9.22 2.65 13.85 1.45 2.32-.61 5.07-2.13 6.71-3.83 1.29-1.35 2.36-3.18 2.93-4.92 2.42-7.48-1.06-15.53-6.5-20.86z"
     fill="#ed6c30"
     id="path21299" />
  <path
     style="font-variation-settings:'opsz' 12, 'wght' 400;fill:#b2ebf2;stroke:none;stroke-width:6;stroke-linecap:round"
     d="M 35.690245,50.447586 V 113.85635 H 50.381392 V 46.909759 Z"
     id="path21486" />
  <path
     style="font-variation-settings:'opsz' 12, 'wght' 400;fill:#b2ebf2;stroke:none;stroke-width:6;stroke-linecap:round"
     d="M 92.529754,50.447586 V 113.85635 H 77.838607 V 46.909759 Z"
     id="path21490" />
  <g
     fill="#2f2f2f"
     id="g21297">
    <path
       d="M98.46 52c-.5 1.13-1.7 1.72-2.86 1.52-.21-.04-.42-.1-.61-.19-7.83-3.49-18.47-3.39-18.57-3.39-1.21.02-2.24-.78-2.57-1.92-.33-1.15.16-2.37 1.18-2.98 9.01-5.41 21.72-7.26 22.25-7.33 1.45-.2 2.78.8 2.98 2.24.2 1.44-.81 2.77-2.24 2.98-.07.01-5.28.76-11.12 2.65 3.25.47 6.94 1.48 10.24 2.94 1.32.59 1.92 2.16 1.32 3.48zM29.76 52c.5 1.13 1.7 1.72 2.86 1.52.21-.04.42-.1.61-.19 7.83-3.49 18.47-3.39 18.57-3.39 1.21.02 2.24-.78 2.57-1.92.33-1.15-.16-2.37-1.18-2.98-9.01-5.41-21.72-7.26-22.25-7.33-1.45-.2-2.78.8-2.98 2.24-.2 1.44.81 2.77 2.24 2.98.07.01 5.28.76 11.12 2.65-3.25.47-6.94 1.48-10.24 2.94A2.65 2.65 0 0 0 29.76 52z"
       id="path21295" />
  </g>
  <path
     id="path21548"
     style="font-variation-settings:'opsz' 12, 'wght' 400;fill:#b2ebf2;stroke:none;stroke-width:6;stroke-linecap:round"
     d="m 64.219999,103.40513 c -27.677355,-9e-5 -50.113314,0.81313 -50.109375,9.98122 0.0034,9.16636 22.437215,9.9769 50.109375,9.97681 27.67216,9e-5 50.105971,-0.81045 50.109381,-9.97681 0.004,-9.16809 -22.432025,-9.98131 -50.109381,-9.98122 z"
     sodipodi:nodetypes="ccccc" />
</svg>
