<?xml version="1.0" encoding="UTF-8" standalone="no"?><!DOCTYPE svg PUBLIC "-//W3C//DTD SVG 1.1//EN" "http://www.w3.org/Graphics/SVG/1.1/DTD/svg11.dtd"><svg width="100%" height="100%" viewBox="0 0 2225 2225" version="1.1" xmlns="http://www.w3.org/2000/svg" xmlns:xlink="http://www.w3.org/1999/xlink" xml:space="preserve" xmlns:serif="http://www.serif.com/" style="fill-rule:evenodd;clip-rule:evenodd;stroke-linejoin:round;stroke-miterlimit:2;"><path id="path20" d="M1107.47,150c-1081.77,0 -1107.47,1212.85 -1107.47,1452.95c0,240.104 495.833,434.55 1107.47,434.55c611.804,0 1107.46,-194.617 1107.46,-434.55c0,-240.104 -25.521,-1452.95 -1107.46,-1452.95Z" style="fill:url(#_Linear1);fill-rule:nonzero;"/><path id="path22" d="M1674.65,1622.35c-53.646,25.559 -121.183,8.684 -180.904,0c-166.321,-24.183 -312.5,-25.171 -382.637,-25.171c-70.142,0 -216.321,0.988 -382.642,25.171c-59.721,8.684 -127.254,25.559 -180.9,0c-68.058,-32.379 -17.883,-148.471 89.233,-226.925c64.759,-47.412 218.925,-139.446 474.309,-139.446c255.379,0 409.545,92.013 474.304,139.446c107.116,78.454 157.116,194.546 89.237,226.925Z" style="fill:url(#_Linear2);fill-rule:nonzero;"/><g id="g26"><path id="path4" d="M1711.43,1075.21c-6.817,19.771 -26.4,32.438 -47.225,30.559c-3.646,-0.35 -7.292,-1.042 -10.937,-2.259c-140.796,-48.437 -324.65,-30.729 -326.213,-30.554c-21.008,2.084 -39.933,-10.071 -47.396,-29.166c-7.466,-19.271 -0.696,-41.146 15.796,-53.3c147.746,-107.117 364.583,-158.509 373.613,-160.417c24.825,-5.729 49.304,9.55 55.033,34.2c5.558,24.479 -9.721,49.133 -34.2,54.862c-1.217,0.175 -90.104,21.18 -188.367,62.675c56.942,3.296 122.221,15.105 181.421,35.242c23.958,8.333 36.633,34.375 28.475,58.158Z" style="fill:#2f2f2f;"/><path id="path6" d="M504.138,1075.21c6.941,20.313 26.733,32.292 47.22,30.559c3.646,-0.35 7.292,-1.042 10.938,-2.259c140.8,-48.437 324.654,-30.729 326.217,-30.554c21.004,2.084 39.929,-10.071 47.395,-29.166c7.463,-19.271 0.692,-41.146 -15.8,-53.3c-147.741,-107.117 -364.583,-158.509 -373.612,-160.417c-24.825,-5.729 -49.304,9.55 -55.034,34.2c-5.554,24.479 9.721,49.133 34.2,54.862c1.217,0.175 90.105,21.18 188.371,62.675c-56.946,3.296 -122.225,15.105 -181.425,35.242c-18.479,6.258 -30.991,23.704 -30.991,43.213c-0,5.087 0.854,10.141 2.52,14.945Z" style="fill:#2f2f2f;"/></g><path id="path48" d="M808.783,1376.68l-8.679,37.813c5.296,-22.534 8.679,-37.813 8.679,-37.813Zm571.184,14.688c5.191,8.908 8.487,15.992 8.487,15.992c0,-0 -3.125,-6.809 -8.487,-15.992Z" style="fill:url(#_Linear3);"/><path id="path4877" d="M590.743,1691.71l0,140.886c0,193.275 -426.335,53.977 -426.335,258.191c-0,167.198 337.992,124.711 957.928,124.711c619.936,-0 895.143,54.671 895.143,-128.57c0,-183.241 -423.898,-61.058 -423.898,-239.745l0,-166.413c0,-189.628 -133.161,-297.034 -486.889,-297.034c-353.728,-0 -515.949,103.759 -515.949,307.974Z" style="fill:url(#_Linear4);"/><path id="path6996" d="M941.87,1588.43c-42.72,0.008 -77.349,52.532 -77.349,117.324c0,64.791 34.629,117.316 77.349,117.323c42.72,-0.008 77.349,-52.532 77.35,-117.324c-0.001,-64.791 -34.63,-117.316 -77.35,-117.323Zm338.374,176.539c-42.719,0.008 -77.348,52.532 -77.349,117.324c0.001,64.791 34.63,117.316 77.349,117.323c42.732,0.017 77.379,-52.514 77.38,-117.323c-0.001,-64.81 -34.648,-117.342 -77.38,-117.324Z" style="fill:url(#_Linear5);"/><defs><linearGradient id="_Linear1" x1="0" y1="0" x2="1" y2="0" gradientUnits="userSpaceOnUse" gradientTransform="matrix(1.15561e-13,1887.26,-1887.26,1.15561e-13,1128.83,150.159)"><stop offset="0" style="stop-color:#6fa13a;stop-opacity:1"/><stop offset="0.52" style="stop-color:#d9bf2d;stop-opacity:1"/><stop offset="1" style="stop-color:#ffca28;stop-opacity:1"/></linearGradient><linearGradient id="_Linear2" x1="0" y1="0" x2="1" y2="0" gradientUnits="userSpaceOnUse" gradientTransform="matrix(2.32949e-14,-380.434,380.434,2.32949e-14,1082.67,1634.75)"><stop offset="0" style="stop-color:#ed6c30;stop-opacity:1"/><stop offset="1" style="stop-color:#d55215;stop-opacity:1"/></linearGradient><linearGradient id="_Linear3" x1="0" y1="0" x2="1" y2="0" gradientUnits="userSpaceOnUse" gradientTransform="matrix(20.4312,904.421,-904.421,20.4312,1080.19,1320.06)"><stop offset="0" style="stop-color:#709d2f;stop-opacity:0.06"/><stop offset="0.08" style="stop-color:#6c9d2f;stop-opacity:1"/><stop offset="1" style="stop-color:#849d2f;stop-opacity:1"/></linearGradient><linearGradient id="_Linear4" x1="0" y1="0" x2="1" y2="0" gradientUnits="userSpaceOnUse" gradientTransform="matrix(8.25947e-14,-1348.87,1348.87,8.25947e-14,1232.94,2032.07)"><stop offset="0" style="stop-color:#b1c937;stop-opacity:1"/><stop offset="1" style="stop-color:#4aa12b;stop-opacity:1"/></linearGradient><linearGradient id="_Linear5" x1="0" y1="0" x2="1" y2="0" gradientUnits="userSpaceOnUse" gradientTransform="matrix(3.06828e-14,-501.087,501.087,3.06828e-14,1357.62,1953.72)"><stop offset="0" style="stop-color:#618c26;stop-opacity:1"/><stop offset="1" style="stop-color:#8da12b;stop-opacity:1"/></linearGradient></defs></svg>