<?xml version="1.0" encoding="UTF-8" standalone="no"?>
<!-- Generator: Adobe Illustrator 25.2.3, SVG Export Plug-In . SVG Version: 6.00 Build 0)  -->

<svg
   version="1.1"
   id="Layer_3"
   x="0px"
   y="0px"
   viewBox="0 0 128 128"
   style="enable-background:new 0 0 128 128;"
   xml:space="preserve"
   sodipodi:docname="emoji_u1f9ef.svg"
   inkscape:version="1.2.2 (732a01da63, 2022-12-09)"
   xmlns:inkscape="http://www.inkscape.org/namespaces/inkscape"
   xmlns:sodipodi="http://sodipodi.sourceforge.net/DTD/sodipodi-0.dtd"
   xmlns="http://www.w3.org/2000/svg"
   xmlns:svg="http://www.w3.org/2000/svg"><defs
   id="defs11535">
	

		
		
		
		
		
		
		
		
		
		
		
		
		
		
		
	</defs><sodipodi:namedview
   id="namedview11533"
   pagecolor="#ffffff"
   bordercolor="#000000"
   borderopacity="0.25"
   inkscape:showpageshadow="2"
   inkscape:pageopacity="0.0"
   inkscape:pagecheckerboard="0"
   inkscape:deskcolor="#d1d1d1"
   showgrid="false"
   inkscape:zoom="2.9996795"
   inkscape:cx="58.506249"
   inkscape:cy="67.673895"
   inkscape:window-width="1366"
   inkscape:window-height="697"
   inkscape:window-x="-8"
   inkscape:window-y="-8"
   inkscape:window-maximized="1"
   inkscape:current-layer="Layer_3" />
<path
   style="fill:none;stroke:#424242;stroke-width:5.9729;stroke-miterlimit:10"
   d="m 59.59,21.74 c 0,0 -5.42,-0.19 -8.92,0.18 -8.19,0.87 -15.2,5.89 -14.05,26.17 1.22,21.45 4.09,59.55 4.09,59.55"
   id="path11477" /><path
   style="fill:#db3427"
   d="M 72.87,38.76 V 29.59 H 59.21 v 9.17 c 0,1.93 -3.1,2.94 -5.1,3.9 -7.32,3.54 -10.39,9.35 -10.39,17.28 v 53.69 c 0,2.24 2.96,10.36 22.31,10.36 19.35,0 22.31,-8.12 22.31,-10.36 V 59.95 c 0,-8.46 -3.74,-14.59 -12.08,-17.97 -1.91,-0.79 -3.39,-1.29 -3.39,-3.22 z"
   id="path11479" /><path
   style="fill:#ba2626"
   d="m 59.21,33.95 c 0,2.96 1.72,6.24 6.83,6.24 5.11,0 6.83,-3.28 6.83,-6.24 z"
   id="path11481" /><path
   style="fill:#fafafa"
   d="m 52.77,54.9 v 28.11 c 0,0.44 0.32,0.82 0.75,0.89 8.68,1.49 16.71,1.57 25.04,0.01 0.43,-0.08 0.74,-0.46 0.74,-0.89 V 54.88 c 0,-0.54 -0.47,-0.95 -1,-0.89 -7.72,0.94 -16.74,1.12 -24.51,0.03 -0.54,-0.08 -1.02,0.34 -1.02,0.88 z"
   id="path11483" /><path
   style="fill:#9e9e9e"
   d="m 60.93,25.33 c -1.81,0.04 -5.11,0.13 -7.38,0.23 -0.74,0.03 -1.37,-0.53 -1.42,-1.27 L 51.7,19.3 c -0.05,-0.76 0.53,-1.42 1.3,-1.46 2.42,-0.12 5.84,-0.2 7.73,-0.25 0.77,-0.02 1.39,0.6 1.39,1.37 l 0.14,5 c 0,0.75 -0.59,1.36 -1.33,1.37 z"
   id="path11500" /><g
   id="g11506">
			<path
   style="fill:#424242"
   d="m 60.68,21.84 c -2.59,-3.1 -1.25,-6.41 0.52,-7.25 L 85.12,4.05 c 0.29,-0.13 0.64,0.01 0.74,0.31 1.15,3.33 -0.43,7.04 -3.71,8.49 l -19.7,8.69 c -0.59,0.25 0.82,3.41 -1.77,0.3 z"
   id="path11504" />
		</g><path
   style="fill:#424242"
   d="M 88.43,27.81 C 88.36,27.78 62.46,15.86 62.46,15.86 l -0.61,1.54 9.07,4.17 c -0.12,0.18 -0.23,0.36 -0.33,0.56 -1.04,2.3 0.35,4.05 2.81,4.92 2.64,0.93 9.51,4.04 11.1,4.57 1.88,0.62 2.84,-0.02 3.65,-0.94 0.64,-0.74 1.6,-2.26 0.28,-2.87 z"
   id="path11508" /><g
   id="g11518">
			<circle
   style="fill:#db3427"
   cx="66.040001"
   cy="27.85"
   r="10.11"
   id="circle11512" />
			<circle
   style="fill:#fafafa"
   cx="66.059998"
   cy="27.85"
   r="6.4899998"
   id="circle11514" />
			<path
   style="fill:#212121"
   d="m 66.06,21.54 c -0.38,0 -1.44,5.74 -1.44,6.2 0,0.75 0.65,1.35 1.44,1.35 0.8,0 1.44,-0.61 1.44,-1.35 0,-0.46 -1.06,-6.2 -1.44,-6.2 z"
   id="path11516" />
		</g><g
   id="g11524">
			<path
   style="fill:#424242"
   d="m 65.96,93.41 c -11.64,0 -20.63,-1.85 -22.59,-2.26 0,0 -0.62,-0.27 -2.1,-0.32 l -0.49,-5.59 c 0,0 0.19,-0.02 1.22,-0.02 1.02,0 1.92,0.34 1.92,0.34 0.09,0.02 9.93,2.28 22.04,2.28 12.11,0 21.46,-2.08 21.55,-2.1 l 0.55,-0.14 c 0.42,-0.09 0.83,0.17 0.87,0.56 l 0.19,4.38 c 0.03,0.32 -0.19,0.61 -0.53,0.68 l -0.33,0.08 c -0.41,0.09 -9.4,2.11 -22.3,2.11 z"
   id="path11522" />
		</g><path
   style="fill:#9e9e9e"
   d="m 35.94,99.01 -0.49,-7.22 c -0.02,-0.24 0.19,-0.42 0.42,-0.4 3.25,0.35 5.51,-0.15 6.41,-0.41 0.23,-0.07 0.46,0.1 0.48,0.34 l 0.49,7.2 c 0.01,0.15 -0.06,0.29 -0.2,0.36 -0.75,0.39 -3.44,1.55 -6.85,0.46 -0.14,-0.03 -0.25,-0.17 -0.26,-0.33 z"
   id="path11526" />
<g
   id="g11658"
   transform="matrix(0.19531198,0,0,0.19531198,53.384274,57.521197)"
   style="stroke-width:5.12001"><path
     d="m 98.59,51.16 c -4.23,0.92 -7.88,3.28 -9.59,7.35 -1.03,2.47 -2.47,8.85 -6.42,7.2 -1.89,-0.78 -1.86,-3.49 -1.64,-5.18 0.47,-3.47 2.03,-6.64 3.1,-9.94 1.1,-3.42 2.05,-6.86 2.73,-10.4 C 89.05,28.47 88.42,14.97 80.13,5.6 78.73,4 75.2,0.3 72.87,0.22 c -1.44,-0.04 -0.02,1.66 0.38,2.23 0.81,1.17 1.49,2.44 2.01,3.77 6.13,15.64 -8.98,27.55 -18.91,36.82 -4.76,4.45 -8.56,9.17 -11.98,14.68 -0.34,0.53 -1.09,2.31 -2.06,1.94 -1.15,-0.44 -1.27,-3.07 -1.63,-4.05 -0.68,-1.88 -1.73,-3.93 -3.08,-5.4 -2.61,-2.86 -6.26,-4.79 -10.21,-4.53 -0.15,0.01 -0.58,0.08 -1.11,0.2 -0.83,0.18 -3.05,0.47 -2.45,1.81 0.31,0.69 1.22,0.63 1.87,0.82 8.34,2.56 8.15,11.3 6.8,18.32 -2.44,12.78 -9.2,24.86 -4.4,38 5.66,15.49 23.38,25.16 39.46,22.5 4.39,-0.72 9.45,-2.14 13.39,-4.26 4.19,-2.26 8.78,-5.35 12.05,-8.83 4.21,-4.47 6.89,-10.2 7.68,-16.27 0.93,-7.02 -1.31,-13.64 -3.35,-20.27 -2.46,-8 -5.29,-21.06 4.93,-24.97 0.5,-0.2 1.5,-0.35 1.85,-0.88 1.3,-1.94 -4.94,-0.81 -5.52,-0.69 z"
     style="fill:#ed6c30;stroke-width:5.12001"
     id="path11654" /><path
     d="m 68.13,106.07 c 2.12,1.78 5.09,0.91 7.09,-0.61 1.07,-0.81 1.99,-1.85 2.59,-3.06 0.25,-0.52 0.54,-1.18 0.54,-1.77 0,-0.79 -0.47,-1.57 -0.27,-2.38 1.68,-0.33 3.76,4.5 3.97,5.62 1.68,8.83 -6.64,16.11 -14.67,17.52 -13.55,2.37 -21.34,-9.5 -19.78,-20.04 0.97,-6.56 5.37,-11.07 9.85,-15.57 3.71,-3.73 7.15,-6.93 8.35,-11.78 0.21,-0.86 0.16,-2.18 -0.09,-3.03 -0.21,-0.73 -0.61,-1.4 -0.63,-2.19 -0.06,-1.66 1.55,0.51 1.92,0.93 4.46,5.03 5.73,12.46 4.54,18.96 -0.77,4.2 -3.77,7.2 -4.82,11.22 -0.61,2.29 -0.55,4.52 1.41,6.18 z"
     style="fill:#fcc21b;stroke-width:5.12001"
     id="path11656" /></g></svg>
