<?xml version="1.0" encoding="UTF-8" standalone="no"?>
<svg
   width="128"
   height="128"
   version="1.1"
   id="svg27936"
   sodipodi:docname="emoji_u1f62c.svg"
   inkscape:version="1.2.2 (732a01da63, 2022-12-09)"
   xmlns:inkscape="http://www.inkscape.org/namespaces/inkscape"
   xmlns:sodipodi="http://sodipodi.sourceforge.net/DTD/sodipodi-0.dtd"
   xmlns="http://www.w3.org/2000/svg"
   xmlns:svg="http://www.w3.org/2000/svg">
  <defs
     id="defs27940" />
  <sodipodi:namedview
     id="namedview27938"
     pagecolor="#ffffff"
     bordercolor="#000000"
     borderopacity="0.25"
     inkscape:showpageshadow="2"
     inkscape:pageopacity="0.0"
     inkscape:pagecheckerboard="0"
     inkscape:deskcolor="#d1d1d1"
     showgrid="false"
     inkscape:zoom="4.2421876"
     inkscape:cx="71.543277"
     inkscape:cy="73.075505"
     inkscape:window-width="1366"
     inkscape:window-height="697"
     inkscape:window-x="-8"
     inkscape:window-y="-8"
     inkscape:window-maximized="1"
     inkscape:current-layer="svg27936" />
  <path
     d="m 64,10.64 c -62.12,0 -63.59,69.65 -63.59,83.44 0,13.77 28.47,24.94 63.59,24.94 35.12,0 63.59,-11.17 63.59,-24.94 0,-13.79 -1.46,-83.44 -63.59,-83.44 z"
     fill="#fcc21b"
     id="path27920" />
  <g
     id="g8674">
    <ellipse
       cx="43.950001"
       cy="54.290001"
       rx="7.9200001"
       ry="9.6300001"
       fill="#2f2f2f"
       id="ellipse27922" />
    <ellipse
       cx="84.029999"
       cy="54.290001"
       rx="7.9200001"
       ry="9.6300001"
       fill="#2f2f2f"
       id="ellipse27924" />
  </g>
  <path
     d="M 95,99.43 H 33 c -7.7,0 -14,-6.3 -14,-14 0,-7.7 6.3,-14 14,-14 h 62 c 7.7,0 14,6.3 14,14 0,7.7 -6.3,14 -14,14 z"
     fill="#ffffff"
     id="path27926" />
  <path
     id="path41416"
     style="color:#000000;clip-rule:nonzero;fill:#e6e6e6;fill-rule:nonzero;stroke-width:1;stroke-linecap:round;stroke-linejoin:miter;stroke-miterlimit:2;-inkscape-stroke:none"
     d="M 19.177734 83.314453 C 19.071428 84.006422 19 84.709188 19 85.429688 C 19 86.150849 19.071236 86.8543 19.177734 87.546875 L 108.82227 87.546875 C 108.92876 86.8543 109 86.150849 109 85.429688 C 109 84.709188 108.92857 84.006422 108.82227 83.314453 L 19.177734 83.314453 z " />
  <path
     id="path42688"
     style="color:#000000;clip-rule:nonzero;fill:#e6e6e6;fill-rule:nonzero;stroke-width:1;stroke-linecap:round;stroke-linejoin:miter;stroke-miterlimit:2;-inkscape-stroke:none"
     d="M 37.839844 71.429688 L 37.839844 99.429688 L 42.072266 99.429688 L 42.072266 71.429688 L 37.839844 71.429688 z M 61.882812 71.429688 L 61.882812 99.429688 L 66.115234 99.429688 L 66.115234 71.429688 L 61.882812 71.429688 z M 85.927734 71.429688 L 85.927734 99.429688 L 90.160156 99.429688 L 90.160156 71.429688 L 85.927734 71.429688 z " />
</svg>
