<?xml version="1.0" encoding="UTF-8" standalone="no"?>
<!-- Generator: Adobe Illustrator 25.2.3, SVG Export Plug-In . SVG Version: 6.00 Build 0)  -->

<svg
   version="1.1"
   id="Layer_3"
   x="0px"
   y="0px"
   viewBox="0 0 128 128"
   style="enable-background:new 0 0 128 128;"
   xml:space="preserve"
   sodipodi:docname="emoji_u1f95c.svg"
   inkscape:version="1.2.2 (732a01da63, 2022-12-09)"
   xmlns:inkscape="http://www.inkscape.org/namespaces/inkscape"
   xmlns:sodipodi="http://sodipodi.sourceforge.net/DTD/sodipodi-0.dtd"
   xmlns="http://www.w3.org/2000/svg"
   xmlns:svg="http://www.w3.org/2000/svg"><defs
   id="defs14694" /><sodipodi:namedview
   id="namedview14692"
   pagecolor="#ffffff"
   bordercolor="#000000"
   borderopacity="0.25"
   inkscape:showpageshadow="2"
   inkscape:pageopacity="0.0"
   inkscape:pagecheckerboard="0"
   inkscape:deskcolor="#d1d1d1"
   showgrid="false"
   inkscape:zoom="4.2421875"
   inkscape:cx="48.913444"
   inkscape:cy="63.882136"
   inkscape:window-width="1366"
   inkscape:window-height="697"
   inkscape:window-x="-8"
   inkscape:window-y="-8"
   inkscape:window-maximized="1"
   inkscape:current-layer="Layer_3" />
<path
   style="fill:#F3AE38;"
   d="M71.38,14.81c-16.74,11.23-23.25,33.4-27.17,36.4c-9.22,7.04-26,7.88-36.4,26.16  c-9.27,16.3-2.18,30.53,5.03,37.07s21.64,1.51,21.64,1.51s23.65-13.75,23.65-15.09S74.4,75.52,81.95,67.81s37.07-22.14,37.07-22.14  s5.3-22.8,4.03-26.33C121.53,15.14,98.38-3.31,71.38,14.81z"
   id="path14661" />
<path
   style="fill:#D97A08;"
   d="M71.26,68C59.81,83.16,58.94,95.72,44.9,105.58s-32.05,8.85-32.05,8.85s9.69,10.48,28.11,6.18  c20.58-4.81,26.83-18.36,33.88-31.91c3.08-5.91,3.7-8.5,5.17-9.98c1.48-1.48,19.34-8.62,26.98-13.8s14.95-14.83,16.63-25.75  c1.97-12.81-0.59-19.84-0.59-19.84s-0.73,16.78-11.11,26.61C100.22,57.04,78.36,58.62,71.26,68z"
   id="path14663" />



<path
   style="fill:#D97A08;"
   d="M15.7,106.14c0.66,2.02,3.27,1.73,5.04,1.18c2.9-0.9,4.01-2.68,3.64-4.17s-2.87-2.02-5.32-0.98  C17.49,102.84,15.05,104.14,15.7,106.14z"
   id="path14671" />
<path
   style="fill:#D97A08;"
   d="M29.18,101.76c1.33,1.75,3.61,1.38,7.1-1.3c2.71-2.08,3.78-4.89,2.58-6.34  c-1.2-1.45-2.54-0.29-5.46,1.88C30.69,98.01,28.08,100.32,29.18,101.76z"
   id="path14673" />
<path
   style="fill:#D97A08;"
   d="M31.96,89.73c1.14,1.77,3.82,1.08,6.56-1.12c2.55-2.05,3.57-4.14,2.01-5.82  c-1.49-1.61-4.07,0.69-5.44,1.77C33.42,85.88,30.6,87.62,31.96,89.73z"
   id="path14675" />
<path
   style="fill:#D97A08;"
   d="M45.01,87.15c-2.44,2.31-3.98,4.42-2.09,6.04c1.89,1.62,4.7-1.07,5.86-2.17  c1.16-1.11,3.7-3.83,2.01-5.69C49.11,83.48,46.17,86.05,45.01,87.15z"
   id="path14677" />
<path
   style="fill:#D97A08;"
   d="M52.41,68.89c-1.61,1.98-4,4.43-2.86,6.01c1.19,1.64,4.13,1.06,6.69-2.22  c1.61-2.07,2.17-4.98,0.78-6.18C55.64,65.3,53.83,67.15,52.41,68.89z"
   id="path14679" />
<path
   style="fill:#D97A08;"
   d="M69.7,56.26c0.99,2.28,4.51,1.1,7.11-0.42c2.6-1.53,4.71-3.54,3.8-5.32  c-0.83-1.63-3.74-1.53-6.79,0.29C70.76,52.62,68.85,54.31,69.7,56.26z"
   id="path14681" />
<path
   style="fill:#D97A08;"
   d="M90.83,47.92c1.07,1.85,3.59,1.22,6.43-0.9c2.79-2.08,4.05-4.06,2.79-5.85  c-1.27-1.79-3.52-0.19-6.1,1.66C91.44,44.61,89.79,46.14,90.83,47.92z"
   id="path14683" />
<path
   style="fill:#D97A08;"
   d="M103.52,41.2c1.44,1.36,3.67,0.11,5.88-2.23c2.32-2.45,2.89-4.4,1.78-5.6c-1.1-1.2-3.1-0.4-5.7,2.33  C103.07,38.23,102.28,40.03,103.52,41.2z"
   id="path14685" />
<path
   style="fill:#D97A08;"
   d="M103.99,25.02c-2.03,2.61-4.24,4.66-2.33,6.34c1.43,1.26,4.25-0.32,6.2-2.91  c1.75-2.33,2.26-5.74,0.62-6.46C106.84,21.28,105.87,22.61,103.99,25.02z"
   id="path14687" />
<path
   style="fill:#D97A08;"
   d="M113.94,24.63c-0.78,2.76-2.41,4.45-0.8,5.91c1.9,1.74,4.54-0.53,5.48-4.64  c0.86-3.79,0.13-5.58-1.74-5.51C115.01,20.45,114.58,22.39,113.94,24.63z"
   id="path14689" />
</svg>
