<?xml version="1.0" encoding="UTF-8" standalone="no"?>
<!-- Generator: Adobe Illustrator 24.1.2, SVG Export Plug-In . SVG Version: 6.00 Build 0)  -->

<svg
   version="1.1"
   id="Layer_3"
   x="0px"
   y="0px"
   viewBox="0 0 128 128"
   style="enable-background:new 0 0 128 128;"
   xml:space="preserve"
   sodipodi:docname="emoji_u1f99d.svg"
   inkscape:version="1.2.2 (732a01da63, 2022-12-09)"
   xmlns:inkscape="http://www.inkscape.org/namespaces/inkscape"
   xmlns:sodipodi="http://sodipodi.sourceforge.net/DTD/sodipodi-0.dtd"
   xmlns="http://www.w3.org/2000/svg"
   xmlns:svg="http://www.w3.org/2000/svg"><defs
   id="defs35554" /><sodipodi:namedview
   id="namedview35552"
   pagecolor="#ffffff"
   bordercolor="#000000"
   borderopacity="0.25"
   inkscape:showpageshadow="2"
   inkscape:pageopacity="0.0"
   inkscape:pagecheckerboard="0"
   inkscape:deskcolor="#d1d1d1"
   showgrid="false"
   inkscape:zoom="4.2421875"
   inkscape:cx="62.585635"
   inkscape:cy="65.532228"
   inkscape:window-width="1366"
   inkscape:window-height="697"
   inkscape:window-x="-8"
   inkscape:window-y="-8"
   inkscape:window-maximized="1"
   inkscape:current-layer="Layer_3" />
<path
   style="fill:#B0B0B0;"
   d="M9.93,67.23c0,0,3.52-5.7,9.01-11.76c2.01-2.21,5.07-5.49,5.21-6.76c0.14-1.27-2.11-8.09-3.24-13.73  c-0.94-4.71-1.41-10.7,0.28-12.53c1.69-1.83,11.23,0.04,16.89,2.82c5.8,2.84,8.77,5.34,9.57,5.35c1,0.01,6.9-4.65,16.05-4.5  s15.63,4.36,16.89,4.36s5.34-3.04,10.98-5.98c6.62-3.45,14.36-3.73,15.91-2.6c1.55,1.13,0.56,9.29-0.56,13.51  c-1.44,5.39-3.87,11.47-3.73,12.6c0.14,1.13,2.6,2.32,7.53,7.81c3.89,4.34,8.66,12.81,8.66,12.81L66.67,79.48L9.93,67.23z"
   id="path35529" />
<path
   style="fill:#DEDEDE;"
   d="M5.71,75.12c0,0.84,8.73,5.63,8.73,5.63s-10.42,3.8-10.42,4.5c0,1.13,15.91,16.75,31.53,22.1  c13.02,4.46,40.22,9.99,61.94-1.2c18.86-9.71,25.06-17.25,25.06-18.37s-8.45-5.63-8.45-5.63s8.87-6.05,8.87-6.9  c0-0.84-3.52-7.04-4.65-8.87s-4.5-7.18-5.91-7.74c-1.41-0.56-27.73-11.54-36.46-5.49c-4.56,3.16-5.21,6.76-5.21,10.28  c0,6.2,0.56,11.54,0.56,11.54s-2.11-2.32-5.77-2.39c-3.45-0.07-5.42,1.9-5.42,1.9s1.06-8.66,0.92-11.9  c-0.14-3.24-0.84-7.32-6.48-10.42c-8.07-4.44-28.19,3.62-34.35,7.11c-4.22,2.39-8.87,5.56-10.42,7.95S5.71,74.13,5.71,75.12z"
   id="path35531" />
<path
   style="fill:#5D6268;"
   d="M30.63,44.33c0.32,0,2.8-2.54,5.44-4.69c2.78-2.27,5.91-4.55,5.91-4.79c0-0.47-11.64-9.01-14.92-6.48  S29.88,44.33,30.63,44.33z"
   id="path35533" />
<path
   style="fill:#5D6268;"
   d="M86.66,34.66c-0.03,0.33,3.2,2.21,5.73,4.5c2.53,2.3,5.02,4.65,5.35,4.6  c0.66-0.09,6.29-12.86,3.66-15.11S86.75,33.73,86.66,34.66z"
   id="path35535" />
<path
   style="fill:#464C4F;"
   d="M43.02,102.52c1.82-0.71,1.5-7.6,4.6-14.27c3.1-6.66,6.66-9.95,8.73-11.36  c2.06-1.41,3.66-1.88,4.79-3.38c1.13-1.5,1.01-8.48-0.09-10.93c-1.5-3.33-5.63-7.93-13.8-7.37c-8.17,0.56-14.92,9.1-18.68,12.67  c-3.75,3.57-9.48,7.41-9.39,14.73c0.09,7.32,6.19,12.39,9.95,15.11C32.88,100.46,40.39,103.55,43.02,102.52z"
   id="path35537" />
<path
   style="fill:#464C4F;"
   d="M71.17,75.02c-1.69-1.13-1.03-6.19-0.94-8.54c0.09-2.35,1.03-8.35,7.41-10.04s9.76,0.84,13.61,3.47  c3.85,2.63,7.79,6.15,10.51,8.07c6.1,4.32,11.26,9.76,9.95,15.58c-1.31,5.82-5.11,9.45-10.98,13.61c-6.1,4.32-11.73,7.88-13.7,6.66  s-1.31-11.26-5.73-18.21C76.9,78.68,73.15,76.34,71.17,75.02z"
   id="path35539" />





<g
   id="g35380"
   transform="translate(0.85290976,-11.78893)"
   style="fill:#1f1f1f;fill-opacity:1"><path
     d="m 52.92,81.07 c 0,4.59 -3.31,8.3 -7.38,8.3 -4.07,0 -7.38,-3.72 -7.38,-8.3 0,-4.6 3.31,-8.31 7.38,-8.31 4.07,-0.01 7.38,3.71 7.38,8.31 z"
     style="fill:#1f1f1f;fill-opacity:1"
     id="path35376"
     sodipodi:nodetypes="ssscs" /><path
     d="m 75.26,81.07 c 0,4.59 3.3,8.3 7.38,8.3 4.07,0 7.38,-3.72 7.38,-8.3 0,-4.6 -3.31,-8.31 -7.38,-8.31 -4.07,-0.01 -7.38,3.71 -7.38,8.31 z"
     style="fill:#1f1f1f;fill-opacity:1"
     id="path35378"
     sodipodi:nodetypes="ssscs" /></g><path
   d="m 65.33291,98.875401 c -0.77,0 -1.39,-0.62 -1.39,-1.39 V 89.3354 c 0,-0.77 0.62,-1.39 1.39,-1.39 0.77,0 1.39,0.62 1.39,1.39 v 8.150001 c 0,0.77 -0.62,1.39 -1.39,1.39 z"
   style="fill:#2f2f2f"
   id="path35382"
   sodipodi:nodetypes="sssssss" /><g
   id="g35388"
   transform="translate(0.85290976,-9.1219789)"><path
     d="m 57.49,111.26738 c -0.43,0 -0.89,-0.02 -1.36,-0.06 -5.66,-0.5 -8.15,-4.89 -8.68,-7.15 -0.21,-0.92 0.36,-1.84 1.28,-2.05 0.92,-0.22 1.83,0.35 2.05,1.27 0.05,0.21 1.11,4.12 5.65,4.53 4.75,0.43 6.59,-2.06 6.67,-2.17 0.55,-0.76 1.6,-0.95 2.37,-0.42 0.77,0.53 0.97,1.57 0.45,2.35 -0.11,0.16 -2.57,3.7 -8.43,3.7 z"
     style="fill:#2f2f2f"
     id="path35384"
     sodipodi:nodetypes="sccccccscs" /><path
     d="m 71.52,111.26738 c -5.86,0 -8.32,-3.54 -8.43,-3.7 -0.53,-0.78 -0.32,-1.85 0.46,-2.38 0.79,-0.53 1.85,-0.32 2.38,0.46 0.06,0.08 1.93,2.57 6.65,2.15 4.63,-0.41 5.64,-4.48 5.65,-4.52 0.22,-0.92 1.14,-1.49 2.05,-1.28 0.92,0.22 1.49,1.13 1.28,2.05 -0.53,2.25 -3.03,6.65 -8.68,7.15 -0.48,0.05 -0.93,0.07 -1.36,0.07 z"
     style="fill:#2f2f2f"
     id="path35386"
     sodipodi:nodetypes="sccccccccs" /></g><g
   id="g35394"
   transform="translate(0.85290976,-9.1219789)"><path
     d="m 59.22,98.397379 c 0.08,1.05 0.79,2.150001 1.89,2.820001 0.88,0.55 2.13,0.82 3.36,0.82 1.22,0 2.47,-0.27 3.35,-0.82 1.1,-0.68 1.81,-1.770001 1.89,-2.820001 0.08,-1 -0.15,-2.02 -1.24,-2.72 -0.6,-0.39 -1.35,-0.65 -2.12,-0.79 -0.29,-0.05 -1.05,-0.18 -1.85,-0.18 -0.79,0 -1.62,0.12 -1.92,0.18 -0.77,0.14 -1.52,0.4 -2.12,0.79 -1.08,0.71 -1.32,1.72 -1.24,2.72 z"
     style="fill:#2f2f2f"
     id="path35390"
     sodipodi:nodetypes="ccsccccsccc" /><path
     d="m 64.43,103.52738 c -1.54,0 -3.04,-0.38 -4.11,-1.04 -1.47,-0.91 -2.47,-2.43 -2.59,-3.970001 -0.17,-2.24 0.96,-3.45 1.92,-4.08 0.74,-0.47 1.66,-0.82 2.66,-1 0.4,-0.08 1.31,-0.2 2.18,-0.2 0.94,0 1.8,0.14 2.12,0.2 1,0.18 1.92,0.53 2.65,1 0.97,0.63 2.1,1.85 1.92,4.09 -0.12,1.530001 -1.11,3.050001 -2.59,3.970001 -1.07,0.66 -2.57,1.04 -4.11,1.04 h -0.05 z m 0.07,-7.330001 c -0.68,0 -1.41,0.11 -1.64,0.15 -0.62,0.12 -1.19,0.32 -1.59,0.58 -0.39,0.25 -0.62,0.57 -0.56,1.35 0.05,0.6 0.51,1.25 1.19,1.67 0.61,0.380001 1.56,0.600001 2.55,0.600001 v 1.49 l 0.02,-1.49 v 0 c 0,0 1.98,-0.23 2.58,-0.600001 0.67,-0.41 1.15,-1.08 1.19,-1.67 0.07,-0.78 -0.17,-1.1 -0.56,-1.35 -0.4,-0.26 -0.97,-0.46 -1.58,-0.58 -0.17,-0.02 -0.88,-0.15 -1.6,-0.15 z"
     style="fill:#2f2f2f"
     id="path35392"
     sodipodi:nodetypes="cccccsccccsccscccccccsccccs" /></g></svg>
