<svg id="eFzBMYdmqpe1" xmlns="http://www.w3.org/2000/svg" xmlns:xlink="http://www.w3.org/1999/xlink" viewBox="0 0 64 64" shape-rendering="geometricPrecision" text-rendering="geometricPrecision" project-id="8672b6992ab543eb81441606960bdcda" export-id="a779487d7cb14e9d8d287432834f49d8" cached="false"><g><path d="M32.59,31.44c2.6-3.05,5.21-4.95,6.86-6.1" fill="none" stroke="#782144" stroke-width="2"/><g><path d="M33.08,34.75C38.65,29,46.52,23.68,53.32,22.37" fill="none" stroke="#a02c5a" stroke-width="3" stroke-linecap="round"/><path d="M29.67,31.7c4.66-6.07,8.07-13.35,9.26-20.01" fill="none" stroke="#a02c5a" stroke-width="3" stroke-linecap="round"/></g></g><g transform="matrix(.9917 0.1284-.1284 0.9917-.000001 0)"><circle r="4.42" transform="translate(44.52 19.38)" fill="#165016"/><circle r="5.2" transform="translate(50.8 14.28)" fill="#165016"/><circle r="3.73" transform="translate(46.36 24.33)" fill="#165016"/><ellipse rx="5.33" ry="4.84" transform="translate(52.67 22.26)" fill="#165016"/></g><ellipse rx="5.08" ry="4.74" transform="translate(36.04 20.41)" fill="#217821"/><circle r="5.5" transform="matrix(.9917 0.1284-.1284 0.9917 56.215008 21.253799)" fill="#165016"/><ellipse rx="6.15" ry="5.61" transform="translate(35.24 13.13)" fill="#217821"/><circle r="5.61" transform="translate(39.65 7.65)" fill="#217821"/><ellipse rx="3.53" ry="3.87" transform="matrix(.9917 0.1284-.1284 0.9917 55.362455 25.580044)" fill="#165016"/><path d="M33.08,34.75C38.65,29,46.52,23.68,53.32,22.37" opacity="0.65" fill="none" stroke="#a02c5a" stroke-width="2" stroke-linecap="round"/><circle r="4.81" transform="translate(40.32 18.2)" fill="#217821"/><circle r="4.48" transform="translate(42.92 11.72)" fill="#217821"/><g><path d="M29.67,31.7c4.66-6.07,8.07-13.35,9.26-20.01" opacity="0.64" fill="none" stroke="#a02c5a" stroke-width="2" stroke-linecap="round"/><path d="M60.08,10.14c0,5.1-2.73,7.61-6.81,9.74C50.7,21.22,49.19,32.67,48,32.67c-1.26,0-2.86-10.66-7.03-12.29-5.13-2-8.35-5.75-8.35-10.72c0-6.88,6.8-12.46,15.18-12.46s12.28,6.05,12.28,12.93v.01Z" transform="matrix(.8346 0.8281-.8584 0.8034-7.71-5.43)" fill="#782144" stroke-width="0.85" stroke-linecap="round" stroke-linejoin="round" stroke-miterlimit="2"/><path d="M49.63,-2.69c.01.31.32.6.53.75c5.29,4.03,6.13,6.57,6.13,11.95c0,3.49-2.8,7.79-5.34,10.64-2.54,2.86-2.15,6.49-3.16,11.8-.01.04-.01.07-.02.12.08.07.15.11.23.11c1.19,0,2.52-10.66,5.34-11.41c5.94-1.58,9.64-6.5,9.64-11.6c0-6.37-5.83-11.62-13.34-12.36h-.01Z" transform="matrix(.8346 0.8281-.8584 0.8034-7.71-5.43)" fill="#782144" stroke-width="0.85" stroke-linecap="round" stroke-linejoin="round" stroke-miterlimit="2"/><g><path d="M20.07,47.77c1.52,1.78,4.07,4.07,7.88,5.08" fill="none" stroke="#50162d" stroke-width="3" stroke-linecap="round"/><path d="M21.34,37.73c3.56,5.46,3.81,4.83,6.35,6.61" fill="none" stroke="#50162d" stroke-width="3" stroke-linecap="round"/></g></g></svg>
