<?xml version="1.0" encoding="UTF-8" standalone="no"?>
<!-- Generator: Adobe Illustrator 25.2.3, SVG Export Plug-In . SVG Version: 6.00 Build 0)  -->

<svg
   version="1.1"
   id="Layer_3"
   x="0px"
   y="0px"
   viewBox="0 0 128 128"
   style="enable-background:new 0 0 128 128;"
   xml:space="preserve"
   sodipodi:docname="emoji_u1f9f5.svg"
   inkscape:version="1.2.2 (732a01da63, 2022-12-09)"
   xmlns:inkscape="http://www.inkscape.org/namespaces/inkscape"
   xmlns:sodipodi="http://sodipodi.sourceforge.net/DTD/sodipodi-0.dtd"
   xmlns="http://www.w3.org/2000/svg"
   xmlns:svg="http://www.w3.org/2000/svg"><defs
   id="defs18618">
	
	
	

		
		
		<linearGradient
   id="SVGID_1_"
   gradientUnits="userSpaceOnUse"
   x1="77.471802"
   y1="63.264099"
   x2="89.206703"
   y2="63.264099">
			<stop
   offset="0.0381"
   style="stop-color:#0091EA"
   id="stop18463" />
			<stop
   offset="1"
   style="stop-color:#01579B"
   id="stop18465" />
		</linearGradient>
		
		
		
			<radialGradient
   id="SVGID_2_"
   cx="43.638199"
   cy="105.5395"
   r="9.0256996"
   gradientTransform="matrix(0.8601,-0.4656,0.9849,1.8193,-97.3977,-67.0419)"
   gradientUnits="userSpaceOnUse">
			<stop
   offset="0.5902"
   style="stop-color:#784D30;stop-opacity:0"
   id="stop18472" />
			<stop
   offset="0.834"
   style="stop-color:#784D30"
   id="stop18474" />
		</radialGradient>
		
		
		
		
		
		
	</defs><sodipodi:namedview
   id="namedview18616"
   pagecolor="#ffffff"
   bordercolor="#000000"
   borderopacity="0.25"
   inkscape:showpageshadow="2"
   inkscape:pageopacity="0.0"
   inkscape:pagecheckerboard="0"
   inkscape:deskcolor="#d1d1d1"
   showgrid="false"
   inkscape:zoom="2.9996795"
   inkscape:cx="75.67475"
   inkscape:cy="51.338817"
   inkscape:window-width="1366"
   inkscape:window-height="697"
   inkscape:window-x="-8"
   inkscape:window-y="-8"
   inkscape:window-maximized="1"
   inkscape:current-layer="Layer_3" />
<path
   style="fill:#e6a467"
   d="m 28.93,111.74 c 0,0 -2.91,-4.72 0,-8.61 l 68.72,-1.75 c 0,0 5.43,3.11 1.62,10.36 -2.28,4.32 -15.74,7.38 -35.17,7.38 -19.43,0 -33.34,-4.09 -35.17,-7.38 z"
   id="path18459" /><path
   style="fill:#f7cf92"
   d="m 28.83,103.12 c 0,-1.61 10.11,-9.97 10.11,-9.97 6.36,-3.13 44.25,-2.35 50.12,0 0,0 10.11,8.06 10.11,9.97 0,3.21 -15.86,7.26 -35.28,7.26 -19.42,0 -35.06,-4.04 -35.06,-7.26 z"
   id="path18461" /><path
   style="fill:#0091ea;fill-opacity:1"
   d="m 38.94,29.23 v 62.23 c 0,1.15 0.67,2.2 1.73,2.67 2.75,1.23 9.32,3.17 23.33,3.17 14.01,0 20.58,-1.94 23.33,-3.17 1.05,-0.47 1.73,-1.52 1.73,-2.67 V 29.23 Z"
   id="path18468" /><path
   style="fill:#0d47a1"
   d="m 38.94,31.02 v -2.09 l 50.12,2.09 c 0,3.46 -11.22,6.27 -25.06,6.27 -13.84,0 -25.06,-2.81 -25.06,-6.27 z"
   id="path18470" /><g
   id="g18481">
			<path
   style="fill:#0091ea"
   d="m 73.81,125 c -7.7,0 -14.74,-1.01 -20.87,-3.03 C 42.51,118.54 35.29,112.36 32.62,104.57 28.34,92.09 37.71,69 42.75,56.6 c 1.29,-3.17 2.3,-5.67 2.71,-7.04 0.23,-0.78 1.05,-1.22 1.82,-0.99 0.78,0.23 1.22,1.05 0.99,1.82 -0.45,1.51 -1.49,4.07 -2.8,7.31 -4.89,12.05 -13.99,34.47 -10.06,45.92 4.35,12.68 24.29,23.74 58.69,16.81 0.79,-0.15 1.8,-0.15 2.14,0.58 0.38,0.81 -0.35,1.57 -1.15,1.73 C 87.6,124.25 80.46,125 73.81,125 Z"
   id="path18479" />
		</g><path
   style="fill:#c87d5e"
   d="m 38.94,29.23 c 0,0 -5.82,-3 -10.08,-7.4 l 69.41,0.92 c -2.68,3.97 -9.22,8.11 -9.22,8.11 0,0 -4.55,2.25 -25.49,2.25 -20.94,0 -24.62,-3.88 -24.62,-3.88 z"
   id="path18483" /><path
   style="fill:#e6a467"
   d="m 28.86,21.83 c -2.82,-2.33 -1.3,-10.02 0.51,-11.01 5.75,-3.15 58.88,-4.13 68.75,-0.45 3.44,1.29 3.05,8.66 1.08,11.46 -2.55,3.61 -15.74,5.82 -35.17,5.82 -19.43,0 -30.85,-2.25 -35.17,-5.82 z"
   id="path18485" /><ellipse
   style="fill:#f7cf92"
   cx="64"
   cy="12.02"
   rx="35.169998"
   ry="7.02"
   id="ellipse18487" /><ellipse
   style="fill:#784d30"
   cx="64"
   cy="10.78"
   rx="8.1400003"
   ry="2.47"
   id="ellipse18489" /><g
   id="g18558">
		<g
   id="g18556">
			<linearGradient
   id="SVGID_3_"
   gradientUnits="userSpaceOnUse"
   x1="39.280499"
   y1="38.467701"
   x2="60.863899"
   y2="38.467701">
				<stop
   offset="0.019"
   style="stop-color:#40C4FF;stop-opacity:0"
   id="stop18493" />
				<stop
   offset="0.4896"
   style="stop-color:#40C4FF"
   id="stop18495" />
				<stop
   offset="0.9942"
   style="stop-color:#40C4FF;stop-opacity:1.624770e-05"
   id="stop18497" />
			</linearGradient>
			
			<linearGradient
   id="SVGID_4_"
   gradientUnits="userSpaceOnUse"
   x1="39.223701"
   y1="46.931599"
   x2="60.863899"
   y2="46.931599">
				<stop
   offset="0.019"
   style="stop-color:#40C4FF;stop-opacity:0"
   id="stop18502" />
				<stop
   offset="0.4896"
   style="stop-color:#40C4FF"
   id="stop18504" />
				<stop
   offset="0.9942"
   style="stop-color:#40C4FF;stop-opacity:1.624770e-05"
   id="stop18506" />
			</linearGradient>
			
			<linearGradient
   id="SVGID_5_"
   gradientUnits="userSpaceOnUse"
   x1="39.167"
   y1="55.3955"
   x2="60.863998"
   y2="55.3955">
				<stop
   offset="0.019"
   style="stop-color:#40C4FF;stop-opacity:0"
   id="stop18511" />
				<stop
   offset="0.4896"
   style="stop-color:#40C4FF"
   id="stop18513" />
				<stop
   offset="0.9942"
   style="stop-color:#40C4FF;stop-opacity:1.624770e-05"
   id="stop18515" />
			</linearGradient>
			
			<linearGradient
   id="SVGID_6_"
   gradientUnits="userSpaceOnUse"
   x1="39.110199"
   y1="63.859299"
   x2="60.864101"
   y2="63.859299">
				<stop
   offset="0.019"
   style="stop-color:#40C4FF;stop-opacity:0"
   id="stop18520" />
				<stop
   offset="0.4896"
   style="stop-color:#40C4FF"
   id="stop18522" />
				<stop
   offset="0.9942"
   style="stop-color:#40C4FF;stop-opacity:1.624770e-05"
   id="stop18524" />
			</linearGradient>
			
			<linearGradient
   id="SVGID_7_"
   gradientUnits="userSpaceOnUse"
   x1="39.053398"
   y1="72.323196"
   x2="60.864201"
   y2="72.323196">
				<stop
   offset="0.019"
   style="stop-color:#40C4FF;stop-opacity:0"
   id="stop18529" />
				<stop
   offset="0.4896"
   style="stop-color:#40C4FF"
   id="stop18531" />
				<stop
   offset="0.9942"
   style="stop-color:#40C4FF;stop-opacity:1.624770e-05"
   id="stop18533" />
			</linearGradient>
			
			<linearGradient
   id="SVGID_8_"
   gradientUnits="userSpaceOnUse"
   x1="38.9967"
   y1="80.787102"
   x2="60.8643"
   y2="80.787102">
				<stop
   offset="0.019"
   style="stop-color:#40C4FF;stop-opacity:0"
   id="stop18538" />
				<stop
   offset="0.4896"
   style="stop-color:#40C4FF"
   id="stop18540" />
				<stop
   offset="0.9942"
   style="stop-color:#40C4FF;stop-opacity:1.624770e-05"
   id="stop18542" />
			</linearGradient>
			
			<linearGradient
   id="SVGID_9_"
   gradientUnits="userSpaceOnUse"
   x1="38.939899"
   y1="89.2509"
   x2="60.888401"
   y2="89.2509">
				<stop
   offset="0.019"
   style="stop-color:#40C4FF;stop-opacity:0"
   id="stop18547" />
				<stop
   offset="0.4896"
   style="stop-color:#40C4FF"
   id="stop18549" />
				<stop
   offset="0.9942"
   style="stop-color:#40C4FF;stop-opacity:1.624770e-05"
   id="stop18551" />
			</linearGradient>
			
		</g>
	</g><g
   id="g18611">
		<g
   id="g18609">
			<linearGradient
   id="SVGID_10_"
   gradientUnits="userSpaceOnUse"
   x1="68.194397"
   y1="38.433498"
   x2="89.199898"
   y2="38.433498">
				<stop
   offset="0"
   style="stop-color:#01579B;stop-opacity:0"
   id="stop18560" />
				<stop
   offset="1"
   style="stop-color:#01579B"
   id="stop18562" />
			</linearGradient>
			
			<linearGradient
   id="SVGID_11_"
   gradientUnits="userSpaceOnUse"
   x1="68.383598"
   y1="46.9049"
   x2="89.105598"
   y2="46.9049">
				<stop
   offset="0"
   style="stop-color:#01579B;stop-opacity:0"
   id="stop18567" />
				<stop
   offset="1"
   style="stop-color:#01579B"
   id="stop18569" />
			</linearGradient>
			
			<linearGradient
   id="SVGID_12_"
   gradientUnits="userSpaceOnUse"
   x1="68.5728"
   y1="55.378799"
   x2="89.011299"
   y2="55.378799">
				<stop
   offset="0"
   style="stop-color:#01579B;stop-opacity:0"
   id="stop18574" />
				<stop
   offset="1"
   style="stop-color:#01579B"
   id="stop18576" />
			</linearGradient>
			
			<linearGradient
   id="SVGID_13_"
   gradientUnits="userSpaceOnUse"
   x1="68.7621"
   y1="63.854301"
   x2="88.916901"
   y2="63.854301">
				<stop
   offset="0"
   style="stop-color:#01579B;stop-opacity:0"
   id="stop18581" />
				<stop
   offset="1"
   style="stop-color:#01579B"
   id="stop18583" />
			</linearGradient>
			
			<linearGradient
   id="SVGID_14_"
   gradientUnits="userSpaceOnUse"
   x1="68.951302"
   y1="72.330704"
   x2="88.822601"
   y2="72.330704">
				<stop
   offset="0"
   style="stop-color:#01579B;stop-opacity:0"
   id="stop18588" />
				<stop
   offset="1"
   style="stop-color:#01579B"
   id="stop18590" />
			</linearGradient>
			
			<linearGradient
   id="SVGID_15_"
   gradientUnits="userSpaceOnUse"
   x1="69.140503"
   y1="80.807899"
   x2="88.728302"
   y2="80.807899">
				<stop
   offset="0"
   style="stop-color:#01579B;stop-opacity:0"
   id="stop18595" />
				<stop
   offset="1"
   style="stop-color:#01579B"
   id="stop18597" />
			</linearGradient>
			
			<linearGradient
   id="SVGID_16_"
   gradientUnits="userSpaceOnUse"
   x1="69.329697"
   y1="89.2855"
   x2="88.633904"
   y2="89.2855">
				<stop
   offset="0"
   style="stop-color:#01579B;stop-opacity:0"
   id="stop18602" />
				<stop
   offset="1"
   style="stop-color:#01579B"
   id="stop18604" />
			</linearGradient>
			
		</g>
	</g>
<path
   id="path20767"
   style="color:#000000;fill:#0d47a1;stroke-linecap:round;stroke-linejoin:round;-inkscape-stroke:none"
   d="m 89.060547,38.400444 a 1.5,1.5 0 0 0 -0.138672,0.03711 c 0,0 -1.587437,0.949662 -5.787109,1.994141 -4.199674,1.044479 -10.886332,2.109375 -20.703125,2.109375 -9.831859,0 -16.065519,-0.919071 -19.791016,-1.8125 -1.758278,-0.421662 -2.943052,-0.833583 -3.701172,-1.142578 v 3.195312 c 0.798796,0.27392 1.772399,0.568417 3.001953,0.863281 4.008498,0.961297 10.47151,1.896485 20.490235,1.896485 10.033789,0 16.967553,-1.087998 21.427734,-2.197266 2.452799,-0.610023 4.129373,-1.228041 5.201172,-1.679688 z m 0,11.140625 a 1.5,1.5 0 0 0 -0.138672,0.03711 c 0,0 -1.587437,0.949662 -5.787109,1.994141 -4.199674,1.044479 -10.886332,2.109375 -20.703125,2.109375 -9.831859,0 -16.065519,-0.919071 -19.791016,-1.8125 -1.758646,-0.42175 -2.943079,-0.833758 -3.701172,-1.142579 v 3.195313 c 0.798796,0.274488 1.772399,0.57037 3.001953,0.865234 4.008498,0.961297 10.47151,1.894532 20.490235,1.894532 10.033789,0 16.967553,-1.087998 21.427734,-2.197266 2.452799,-0.610023 4.129373,-1.228041 5.201172,-1.679687 z m 0,11.142578 a 1.5,1.5 0 0 0 -0.138672,0.03711 c 0,0 -1.587437,0.949662 -5.787109,1.994141 -4.199674,1.044479 -10.886332,2.109375 -20.703125,2.109375 -9.831859,0 -16.065519,-0.921024 -19.791016,-1.814453 -1.758646,-0.42175 -2.943079,-0.833758 -3.701172,-1.142578 v 3.195312 c 0.798796,0.274488 1.772399,0.57037 3.001953,0.865234 4.008498,0.961297 10.47151,1.896485 20.490235,1.896485 10.033789,0 16.967553,-1.089951 21.427734,-2.199219 2.452931,-0.610056 4.129387,-1.228569 5.201172,-1.679688 z m 0,11.140625 a 1.5,1.5 0 0 0 -0.138672,0.03711 c 0,0 -1.587437,0.949662 -5.787109,1.994141 -4.199674,1.044479 -10.886332,2.109375 -20.703125,2.109375 -9.831859,0 -16.065519,-0.919071 -19.791016,-1.8125 -1.758278,-0.421662 -2.943052,-0.833583 -3.701172,-1.142578 v 3.195312 c 0.798796,0.27392 1.772399,0.568417 3.001953,0.863281 4.008498,0.961297 10.47151,1.896485 20.490235,1.896485 10.033789,0 16.967553,-1.087998 21.427734,-2.197266 2.452799,-0.610023 4.129373,-1.228041 5.201172,-1.679687 z m 0,11.140625 a 1.5,1.5 0 0 0 -0.138672,0.03711 c 0,0 -1.587437,0.949662 -5.787109,1.994141 -4.199674,1.044479 -10.886332,2.109375 -20.703125,2.109375 -9.831859,0 -16.065519,-0.919071 -19.791016,-1.8125 -1.758278,-0.421662 -2.943052,-0.833583 -3.701172,-1.142578 v 3.195312 c 0.798796,0.27392 1.772399,0.568417 3.001953,0.863281 4.008498,0.961297 10.47151,1.896485 20.490235,1.896485 10.033789,0 16.967553,-1.087998 21.427734,-2.197266 2.452799,-0.610023 4.129373,-1.228041 5.201172,-1.679687 z" /></svg>
