<?xml version="1.0" encoding="UTF-8" standalone="no"?>
<svg
   width="128"
   height="128"
   style="enable-background:new 0 0 128 128;"
   version="1.1"
   id="svg13184"
   sodipodi:docname="emoji_u1f602.svg"
   inkscape:version="1.2.2 (732a01da63, 2022-12-09)"
   xmlns:inkscape="http://www.inkscape.org/namespaces/inkscape"
   xmlns:sodipodi="http://sodipodi.sourceforge.net/DTD/sodipodi-0.dtd"
   xmlns="http://www.w3.org/2000/svg"
   xmlns:svg="http://www.w3.org/2000/svg">
  <defs
     id="defs13188" />
  <sodipodi:namedview
     id="namedview13186"
     pagecolor="#ffffff"
     bordercolor="#000000"
     borderopacity="0.25"
     inkscape:showpageshadow="2"
     inkscape:pageopacity="0.0"
     inkscape:pagecheckerboard="0"
     inkscape:deskcolor="#d1d1d1"
     showgrid="false"
     inkscape:zoom="4.2421875"
     inkscape:cx="17.797422"
     inkscape:cy="63.882136"
     inkscape:window-width="1366"
     inkscape:window-height="697"
     inkscape:window-x="-8"
     inkscape:window-y="-8"
     inkscape:window-maximized="1"
     inkscape:current-layer="svg13184" />
  <path
     d="M63.89,9.64C1.58,9.64,0.1,79.5,0.1,93.33c0,13.83,28.56,25.03,63.79,25.03 c35.24,0,63.79-11.21,63.79-25.03C127.68,79.5,126.21,9.64,63.89,9.64z"
     style="fill:#FCC21B;"
     id="path13144" />
  <path
     d="M31.96,54.45c-0.78,1.28-2.44,1.7-3.73,0.93c-1.29-0.77-1.71-2.42-0.96-3.71 c0.18-0.31,4.6-7.62,14.37-7.62c9.78,0,14.2,7.31,14.39,7.62c0.76,1.29,0.32,2.97-0.97,3.73c-0.44,0.26-0.91,0.38-1.39,0.38 c-0.92,0-1.83-0.47-2.34-1.32c-0.13-0.22-3.12-4.96-9.69-4.96C35.07,49.49,32.1,54.24,31.96,54.45z"
     style="fill:#2F2F2F;"
     id="path13174" />
  <path
     d="M100,55.39c-0.43,0.26-0.91,0.38-1.37,0.38c-0.94,0-1.85-0.49-2.36-1.34 c-0.11-0.2-3.08-4.94-9.66-4.94c-6.69,0-9.66,4.89-9.69,4.94c-0.77,1.29-2.43,1.73-3.73,0.96c-1.29-0.76-1.73-2.44-0.96-3.73 c0.18-0.31,4.6-7.62,14.38-7.62c9.77,0,14.18,7.31,14.36,7.62C101.73,52.96,101.29,54.63,100,55.39z"
     style="fill:#2F2F2F;"
     id="path13176" />
  <g
     id="g13182"
     style="fill:#ffffff">
    <path
       d="M106.57,79.41c-1.38-2.21-2.93-6.97-3.17-8.49c-0.41-2.61-1.5-7.34-2.3-11.3 c-0.22-1.07-0.2-2.56,1.15-2.63c1.08-0.03,2.77,0.61,3.76,0.95c2.92,1,5.98,2.69,8.51,4.4c4.62,3.17,7.76,8.25,7.14,13.99 c-0.47,4.24-4.45,7.04-8.05,6.87C111.01,83.1,107.85,81.47,106.57,79.41z"
       style="fill:#ffffff;fill-opacity:1"
       id="path13178" />
    <path
       d="M21.43,79.41c1.38-2.21,2.93-6.97,3.17-8.49c0.41-2.61,1.5-7.34,2.3-11.3 c0.22-1.07,0.2-2.56-1.15-2.63c-1.08-0.03-2.77,0.61-3.76,0.95c-2.92,1-5.98,2.69-8.51,4.4c-4.62,3.17-7.76,8.25-7.14,13.99 c0.47,4.24,4.45,7.04,8.05,6.87C16.99,83.1,20.15,81.47,21.43,79.41z"
       style="fill:#ffffff;fill-opacity:1"
       id="path13180" />
  </g>
  <path
     d="m 96.459619,70.259589 c -3.09,-2.09 -6.98,-0.71 -10.42,0 -9.58,1.98 -18,2.06 -22.04,2.06 -4.04,0 -12.46,-0.08 -22.04,-2.06 -3.44,-0.71 -7.33,-2.09 -10.42,0 -3.92,2.65 -1.03,12.15 5.14,18.57 3.73,3.88 12.61,11.410001 27.32,11.410001 14.71,0 23.59,-7.530001 27.32,-11.410001 6.170001,-6.42 9.050001,-15.92 5.14,-18.57 z"
     style="fill:#ed6c30"
     id="path13315" />
</svg>
