<?xml version="1.0" encoding="UTF-8" standalone="no"?>
<svg
   width="128"
   height="128"
   version="1.1"
   id="svg21309"
   sodipodi:docname="emoji_u1f62d.svg"
   inkscape:version="1.2.2 (732a01da63, 2022-12-09)"
   xmlns:inkscape="http://www.inkscape.org/namespaces/inkscape"
   xmlns:sodipodi="http://sodipodi.sourceforge.net/DTD/sodipodi-0.dtd"
   xmlns="http://www.w3.org/2000/svg"
   xmlns:svg="http://www.w3.org/2000/svg">
  <defs
     id="defs21313" />
  <sodipodi:namedview
     id="namedview21311"
     pagecolor="#ffffff"
     bordercolor="#000000"
     borderopacity="0.25"
     inkscape:showpageshadow="2"
     inkscape:pageopacity="0.0"
     inkscape:pagecheckerboard="0"
     inkscape:deskcolor="#d1d1d1"
     showgrid="false"
     inkscape:zoom="2.8284271"
     inkscape:cx="50.558135"
     inkscape:cy="62.57895"
     inkscape:window-width="1366"
     inkscape:window-height="697"
     inkscape:window-x="-8"
     inkscape:window-y="-8"
     inkscape:window-maximized="1"
     inkscape:current-layer="svg21309" />
  <path
     d="M.34 93.41c0 13.86 28.59 25.08 63.88 25.08 35.29 0 63.88-11.22 63.88-25.08 0-13.84-1.47-83.8-63.88-83.8C1.82 9.62.34 79.58.34 93.41z"
     fill="#fcc21b"
     id="path21293" />
  <path
     d="M96.97 71.53c-4.53-4.44-11.02-8.49-17.66-8.7-5.35-.17-9.66 2.78-15.08 2.78s-9.73-2.95-15.08-2.78c-6.64.21-13.13 4.26-17.66 8.7-5.44 5.34-8.92 13.38-6.48 20.86.57 1.74 1.64 3.57 2.93 4.92 1.64 1.71 4.39 3.22 6.71 3.83 4.63 1.21 9.5.32 13.85-1.45 4.38-1.78 7.88-5.39 15.74-5.39 7.85 0 11.36 3.61 15.74 5.39 4.34 1.76 9.22 2.65 13.85 1.45 2.32-.61 5.07-2.13 6.71-3.83 1.29-1.35 2.36-3.18 2.93-4.92 2.42-7.48-1.06-15.53-6.5-20.86z"
     fill="#ed6c30"
     id="path21299" />
  <g
     id="g26834"
     transform="translate(2.796593,-0.8314876)"
     style="fill:#b2ebf2;fill-opacity:1">
	<path
   style="fill:#b2ebf2;fill-opacity:1"
   d="M 46.88,110.49 46.43,49.36 C 40.625728,46.889675 35.269942,47.966486 31.24,52.44 l -2.16,52.77 c -6.98,0.16 -12.52,2.69 -12.52,5.76 0,1.84 1.99,3.49 5.08,4.54 -0.15,0.4 -0.25,0.81 -0.25,1.23 0,4.19 7.83,7.59 17.49,7.59 9.66,0 17.49,-3.42 17.49,-7.61 0,-2.57 -4.97,-4.86 -9.49,-6.23 z"
   id="path26832"
   sodipodi:nodetypes="ccccscsssc" />

</g>
  <g
     id="g26828"
     transform="translate(-2.3894107,-0.8314876)"
     style="fill:#b2ebf2;fill-opacity:1">
	<path
   style="fill:#b2ebf2;fill-opacity:1"
   d="m 111.74,111 c 0,-3.07 -5.55,-5.62 -12.52,-5.78 L 97.07,52.67 C 92.325983,46.970268 87.060371,47.904811 81.87,49.24 l -0.46,61.25 c -4.53,1.37 -9.49,3.67 -9.49,6.24 0,4.19 7.83,7.6 17.49,7.6 9.66,0 17.49,-3.39 17.49,-7.58 0,-0.42 -0.1,-0.82 -0.25,-1.22 3.1,-1.06 5.09,-2.69 5.09,-4.53 z"
   id="path26826"
   sodipodi:nodetypes="sccccssscs" />

</g>
  <g
     fill="#2f2f2f"
     id="g21297">
    <path
       d="M98.46 52c-.5 1.13-1.7 1.72-2.86 1.52-.21-.04-.42-.1-.61-.19-7.83-3.49-18.47-3.39-18.57-3.39-1.21.02-2.24-.78-2.57-1.92-.33-1.15.16-2.37 1.18-2.98 9.01-5.41 21.72-7.26 22.25-7.33 1.45-.2 2.78.8 2.98 2.24.2 1.44-.81 2.77-2.24 2.98-.07.01-5.28.76-11.12 2.65 3.25.47 6.94 1.48 10.24 2.94 1.32.59 1.92 2.16 1.32 3.48zM29.76 52c.5 1.13 1.7 1.72 2.86 1.52.21-.04.42-.1.61-.19 7.83-3.49 18.47-3.39 18.57-3.39 1.21.02 2.24-.78 2.57-1.92.33-1.15-.16-2.37-1.18-2.98-9.01-5.41-21.72-7.26-22.25-7.33-1.45-.2-2.78.8-2.98 2.24-.2 1.44.81 2.77 2.24 2.98.07.01 5.28.76 11.12 2.65-3.25.47-6.94 1.48-10.24 2.94A2.65 2.65 0 0 0 29.76 52z"
       id="path21295" />
  </g>
</svg>
