<?xml version="1.0" encoding="UTF-8" standalone="no"?>
<svg
   width="128"
   height="128"
   version="1.1"
   id="svg27936"
   sodipodi:docname="emoji_u1f62c.svg"
   inkscape:version="1.2.2 (732a01da63, 2022-12-09)"
   xmlns:inkscape="http://www.inkscape.org/namespaces/inkscape"
   xmlns:sodipodi="http://sodipodi.sourceforge.net/DTD/sodipodi-0.dtd"
   xmlns="http://www.w3.org/2000/svg"
   xmlns:svg="http://www.w3.org/2000/svg">
  <defs
     id="defs27940" />
  <sodipodi:namedview
     id="namedview27938"
     pagecolor="#ffffff"
     bordercolor="#000000"
     borderopacity="0.25"
     inkscape:showpageshadow="2"
     inkscape:pageopacity="0.0"
     inkscape:pagecheckerboard="0"
     inkscape:deskcolor="#d1d1d1"
     showgrid="false"
     inkscape:zoom="2.9996796"
     inkscape:cx="86.17587"
     inkscape:cy="65.006942"
     inkscape:window-width="1366"
     inkscape:window-height="697"
     inkscape:window-x="-8"
     inkscape:window-y="-8"
     inkscape:window-maximized="1"
     inkscape:current-layer="svg27936" />
  <path
     d="m 64,10.64 c -62.12,0 -63.59,69.65 -63.59,83.44 0,13.77 28.47,24.94 63.59,24.94 35.12,0 63.59,-11.17 63.59,-24.94 0,-13.79 -1.46,-83.44 -63.59,-83.44 z"
     fill="#fcc21b"
     id="path27920" />
  <g
     id="g8674">
    <ellipse
       cx="43.950001"
       cy="54.290001"
       rx="7.9200001"
       ry="9.6300001"
       fill="#2f2f2f"
       id="ellipse27922" />
    <ellipse
       cx="84.029999"
       cy="54.290001"
       rx="7.9200001"
       ry="9.6300001"
       fill="#2f2f2f"
       id="ellipse27924" />
  </g>
  <g
     id="g8681">
    <path
       d="M 95,99.43 H 33 c -7.7,0 -14,-6.3 -14,-14 0,-7.7 6.3,-14 14,-14 h 62 c 7.7,0 14,6.3 14,14 0,7.7 -6.3,14 -14,14 z"
       fill="#ffffff"
       id="path27926" />
    <g
       fill="#838383"
       id="g27932"
       style="fill:#2f2f2f;fill-opacity:1"
       transform="translate(0,-2.17)">
      <path
         d="m 47.44,75.17 h 3.12 v 25 h -3.12 z m -15,0 h 3.12 v 25 h -3.12 z m 60.01,0 h 3.12 v 25 h -3.12 z m -15.01,0 h 3.12 v 25 h -3.12 z m -15,0 h 3.12 v 25 h -3.12 z"
         id="path27928"
         style="fill:#2f2f2f;fill-opacity:1" />
      <path
         d="m 20.49,86.04 h 87.01 v 3.12 H 20.49 Z"
         id="path27930"
         style="fill:#2f2f2f;fill-opacity:1" />
    </g>
    <path
       d="m 95,75.43 c 5.51,0 10,4.49 10,10 0,5.51 -4.49,10 -10,10 H 33 c -5.51,0 -10,-4.49 -10,-10 0,-5.51 4.49,-10 10,-10 h 62 m 0,-4 H 33 c -7.7,0 -14,6.3 -14,14 0,7.7 6.3,14 14,14 h 62 c 7.7,0 14,-6.3 14,-14 0,-7.7 -6.3,-14 -14,-14 z"
       fill="#2f2f2f"
       id="path27934" />
  </g>
</svg>
