<?xml version="1.0" encoding="UTF-8" standalone="no"?>
<!-- Generator: Adobe Illustrator 25.2.3, SVG Export Plug-In . SVG Version: 6.00 Build 0)  -->

<svg
   version="1.1"
   id="Layer_3"
   x="0px"
   y="0px"
   viewBox="0 0 128 128"
   style="enable-background:new 0 0 128 128;"
   xml:space="preserve"
   sodipodi:docname="emoji_u1f968.svg"
   inkscape:version="1.2.2 (732a01da63, 2022-12-09)"
   xmlns:inkscape="http://www.inkscape.org/namespaces/inkscape"
   xmlns:sodipodi="http://sodipodi.sourceforge.net/DTD/sodipodi-0.dtd"
   xmlns="http://www.w3.org/2000/svg"
   xmlns:svg="http://www.w3.org/2000/svg"><defs
   id="defs5685" /><sodipodi:namedview
   id="namedview5683"
   pagecolor="#ffffff"
   bordercolor="#000000"
   borderopacity="0.25"
   inkscape:showpageshadow="2"
   inkscape:pageopacity="0.0"
   inkscape:pagecheckerboard="0"
   inkscape:deskcolor="#d1d1d1"
   showgrid="false"
   inkscape:zoom="2.9996795"
   inkscape:cx="68.007264"
   inkscape:cy="63.673468"
   inkscape:window-width="1366"
   inkscape:window-height="697"
   inkscape:window-x="-8"
   inkscape:window-y="-8"
   inkscape:window-maximized="1"
   inkscape:current-layer="Layer_3" />
<path
   id="path5630"
   style="fill:#e07f14;fill-opacity:1"
   d="M 89.375 14.759766 C 87.222274 14.770847 85.030148 14.933438 82.800781 15.210938 C 75.264222 16.149045 68.93771 19.244781 63.982422 24.400391 C 60.759168 21.635855 53.33374 16.380021 42 16.193359 C 37.878012 16.125472 33.244436 16.733678 28.119141 18.380859 C 4.3892112 26.010838 -3.3206604 59.500066 11.029297 81.25 C 16.682469 89.819821 20.820891 93.743419 22.861328 95.380859 C 21.147837 102.15378 25.839844 107.07031 25.839844 107.07031 L 25.904297 106.98438 C 26.279553 107.56784 26.730492 108.12981 27.322266 108.65039 L 27.339844 108.75 C 27.339844 108.75 31.850493 113.6693 37.730469 113.5293 C 43.610445 113.3893 46.070312 109.83984 46.070312 109.83984 C 46.070312 109.83984 54.819974 114.60094 67.669922 114.21094 C 83.558607 113.73418 90.765462 108.35504 91.146484 108.0625 C 91.850559 108.37006 92.584173 108.60251 93.337891 108.79297 C 95.149023 109.39228 97.825136 110.06075 100.58008 109.75 C 107.64004 108.94 111.12906 103.4309 111.78906 98.710938 C 112.47906 93.820954 111.40039 91.550781 111.40039 91.550781 C 111.40039 91.550781 120.29016 81.539077 123.16016 66.369141 C 125.33419 54.877714 123.50807 44.023181 121.54297 38.181641 C 120.43906 33.905944 118.38011 29.827289 114.9707 26.039062 C 107.29262 17.499723 98.703479 14.711746 89.375 14.759766 z M 37.134766 38.658203 C 42.57109 38.404783 47.863188 40.748541 49.933594 42.625 C 49.919986 42.687272 49.903714 42.747922 49.890625 42.810547 C 47.680627 53.380536 50.689611 59.220784 51.849609 61.550781 C 51.978166 61.807895 52.115994 62.050408 52.255859 62.287109 C 49.582939 64.996214 46.636458 68.064713 43.240234 71.460938 C 41.50226 73.198912 39.928742 74.727526 38.294922 76.324219 C 33.031887 71.029599 28.239493 64.377929 27.619141 55.990234 C 27.021031 47.86556 30.228278 42.538812 34.03125 39.113281 C 35.054804 38.853853 36.097038 38.706578 37.134766 38.658203 z M 92.054688 38.949219 C 96.203507 39.040446 99.183268 41.40012 100.66797 42.892578 C 104.46829 49.859069 101.20561 60.018973 99.910156 63.300781 C 98.000164 68.120761 94.660156 73.240234 94.660156 73.240234 C 94.660156 73.240234 94.677369 73.24789 94.677734 73.248047 L 92.078125 76.572266 C 88.443175 73.759445 85.761144 71.679888 85.15625 71.210938 L 80.929688 67.730469 C 80.929688 67.730469 82.709685 63.76991 82.429688 59.669922 C 82.149688 55.569934 79.009766 52.289063 79.009766 52.289062 C 79.009766 52.289063 79.320721 44.100538 85.220703 40.810547 C 87.740696 39.403051 90.033486 38.904775 92.054688 38.949219 z M 67.279297 82.960938 C 67.279297 82.960938 68.4393 84.669925 69.529297 86.169922 C 69.600176 86.267462 69.75511 86.460644 69.839844 86.574219 L 69.820312 86.599609 C 69.820312 86.599609 71.35107 88.630272 73.388672 91.179688 C 72.425223 91.491309 71.050285 91.802252 69.949219 91.849609 C 68.099225 91.929609 65.519531 91.75 65.519531 91.75 C 65.519531 91.75 65.511758 91.761664 65.511719 91.761719 C 64.449831 91.607755 62.675631 91.268085 60.441406 90.640625 L 67.279297 82.960938 z " />









<path
   style="fill:#FFFFFF;"
   d="M93.74,90.43c-0.57,0.67,1.29,4.87,2.25,4.78s3.39-3.06,3.25-4.16  C99.12,90.15,94.31,89.76,93.74,90.43z"
   id="path5650" />
<path
   style="fill:#FDFFFF;"
   d="M65.09,63.6c-0.32,0.65,1.76,5.86,2.52,5.81s4-5.29,3.81-5.95C71.23,62.79,65.47,62.84,65.09,63.6z"
   id="path5652" />
<path
   style="fill:#FDFFFF;"
   d="M53.47,79.22c-0.96-0.79-3.04-1.06-4.14,0.62c-1,1.52-0.71,3.1,0.71,4.1c0.92,0.64,3,0.71,3.86-0.71  C54.65,81.96,54.85,80.36,53.47,79.22z"
   id="path5654" />
<path
   style="fill:#FDFFFF;"
   d="M27.46,75.96c-0.86-0.73-2.73-0.97-3.72,0.57c-0.9,1.4-0.64,2.84,0.64,3.76  c0.83,0.59,2.69,0.66,3.46-0.66C28.52,78.48,28.7,77.01,27.46,75.96z"
   id="path5656" />
<path
   style="fill:#FDFFFF;"
   d="M17.13,61.78c0.85-0.74,1.34-2.69-0.03-3.9c-1.25-1.1-2.68-0.93-3.78,0.2  c-0.71,0.73-1.02,2.89,0.16,3.84C14.51,62.78,15.9,62.85,17.13,61.78z"
   id="path5658" />
<path
   style="fill:#FDFFFF;"
   d="M10.81,73.33c-0.19,0.89,3.37,4.34,4,4.24c0.62-0.1,2.19-6.33,1.67-6.62  C15.95,70.67,10.95,72.67,10.81,73.33z"
   id="path5660" />
<path
   style="fill:#FDFFFF;"
   d="M21.44,31.47c-0.67-0.09-3.48,4.75-3.11,5.33c0.37,0.59,4.99,0.57,5.36,0.01  C24.07,36.25,22.36,31.59,21.44,31.47z"
   id="path5662" />
<path
   style="fill:#FDFFFF;"
   d="M24.95,23.24c-0.26,1.01,4.28,4.52,4.84,4.44c0.78-0.1,3.3-5,2.79-6.1  C32.28,20.95,25.15,22.49,24.95,23.24z"
   id="path5664" />
<path
   style="fill:#FDFFFF;"
   d="M43.48,26.65c0.1,1.77,1.29,2.46,2.54,2.42c1.25-0.04,2.5-1.05,2.38-2.78  c-0.12-1.73-1.69-2.22-2.7-2.14C44.69,24.24,43.4,25.2,43.48,26.65z"
   id="path5666" />
<path
   style="fill:#FDFFFF;"
   d="M63.64,43.46c0,0.78,3.52,4.5,4.76,4.12c0.84-0.25,1.14-6.27,0.24-6.68  C67.73,40.49,63.64,42.72,63.64,43.46z"
   id="path5668" />
<path
   style="fill:#FDFFFF;"
   d="M68.82,27.38c-0.12,0.65,2.92,4.3,3.79,4.06c0.87-0.24,1.89-5.49,1.7-5.88  C74,24.93,69,26.43,68.82,27.38z"
   id="path5670" />
<path
   style="fill:#FDFFFF;"
   d="M93.81,29.82c0.66-0.69-0.64-5.29-1.54-5.33c-0.9-0.04-4.16,3.8-3.33,4.77S93,30.66,93.81,29.82z"
   id="path5672" />
<path
   style="fill:#FDFFFF;"
   d="M106.49,40.15c0.43,1.18,4.96,1.69,5.82,1.03c0.86-0.67-1.52-5.14-2.43-5.33  C108.97,35.65,106.11,39.1,106.49,40.15z"
   id="path5674" />
<path
   style="fill:#FDFFFF;"
   d="M101.26,23.63c-0.54,1.31-0.18,2.67,1.24,3.38c1.43,0.71,2.77-0.12,3.24-1.1  c0.67-1.38,0.05-3-1.1-3.52C103.37,21.81,101.83,22.25,101.26,23.63z"
   id="path5676" />
<path
   style="fill:#FDFFFF;"
   d="M104.9,61.17c-0.4,1.09,1.19,3.52,2.14,3.48s2.81-4.38,2.24-5.1  C108.71,58.84,105.24,60.26,104.9,61.17z"
   id="path5678" />
<path
   style="fill:#FDFFFF;"
   d="M113.09,54.07c-1,1.57-0.43,3.05,0.38,3.81c0.81,0.76,2.95,1.05,3.91-0.67  c0.95-1.71,0.1-3.19-0.81-3.71C115.66,52.98,113.89,52.82,113.09,54.07z"
   id="path5680" />
</svg>
