<?xml version="1.0" encoding="UTF-8" standalone="no"?>
<svg
   width="128"
   height="128"
   version="1.1"
   id="svg586"
   sodipodi:docname="emoji_u1f975.svg"
   inkscape:version="1.2.2 (732a01da63, 2022-12-09)"
   xmlns:inkscape="http://www.inkscape.org/namespaces/inkscape"
   xmlns:sodipodi="http://sodipodi.sourceforge.net/DTD/sodipodi-0.dtd"
   xmlns:xlink="http://www.w3.org/1999/xlink"
   xmlns="http://www.w3.org/2000/svg"
   xmlns:svg="http://www.w3.org/2000/svg">
  <sodipodi:namedview
     id="namedview588"
     pagecolor="#ffffff"
     bordercolor="#000000"
     borderopacity="0.25"
     inkscape:showpageshadow="2"
     inkscape:pageopacity="0.0"
     inkscape:pagecheckerboard="0"
     inkscape:deskcolor="#d1d1d1"
     showgrid="false"
     inkscape:zoom="2.9996795"
     inkscape:cx="47.505074"
     inkscape:cy="70.674216"
     inkscape:window-width="1366"
     inkscape:window-height="697"
     inkscape:window-x="-8"
     inkscape:window-y="-8"
     inkscape:window-maximized="1"
     inkscape:current-layer="svg586" />
  <defs
     id="defs576"><linearGradient
   id="a">
  <stop
     offset="0"
     stop-color="#fc451b"
     id="stop570" />
  <stop
     offset="1"
     stop-color="#fcc21b"
     id="stop572" />
</linearGradient>
<linearGradient
   xlink:href="#a"
   id="b"
   x1="64.22"
   y1="9.62"
   x2="64.22"
   y2="118.5"
   gradientUnits="userSpaceOnUse" />

        
        
    </defs>
  <path
     d="M64.22 9.62C1.81 9.62.34 79.58.34 93.42c0 13.86 28.59 25.08 63.88 25.08 35.28 0 63.88-11.22 63.88-25.08 0-13.84-1.48-83.8-63.88-83.8z"
     fill="url(#b)"
     id="path578" />
  <path
     d="m 37.940722,98.265521 c 2.479111,1.905889 5.606031,0.65425 8.359214,0 7.698948,-1.820549 14.4511,-1.891664 17.69014,-1.891664 3.23904,0 10.00365,0.07112 17.69014,1.891664 2.753184,0.65425 5.880103,1.905889 8.359214,0 3.139377,-2.432139 0.822218,-11.136629 -4.123547,-17.02496 C 82.926001,77.684805 75.787655,70.78664 63.977618,70.78664 c -11.810037,0 -18.935924,6.898165 -21.938265,10.453921 -4.920849,5.902554 -7.238008,14.607043 -4.098631,17.02496 z"
     fill="#ed6c30"
     id="path582"
     style="stroke-width:1" />
  <path
     d="M119.19 68.66c-1.68 4.5-5.13 6.96-7.79 7.39-2.99.48-5.52-.31-7.14-2.22-2.05-2.42-2.34-6.23-.84-10.73 2.73-8.09 3.69-22.88 3.71-23.02.04-.57.39-1.05.94-1.21.53-.19 1.11 0 1.48.43 12.37 14.92 11.36 24.8 9.64 29.36z"
     fill="#fff"
     id="path584"
     style="fill:#b2ebf2;fill-opacity:1" />
  <path
     id="path4296"
     style="clip-rule:evenodd;fill:#2f2f2f;fill-rule:nonzero;stroke-linejoin:round;stroke-miterlimit:2"
     d="m 43.748047,42.290482 a 3.5601326,7.079488 65.166609 0 1 -4.035156,3.476562 3.5601326,7.079488 65.166609 0 1 -4.824219,1.382813 c -0.622951,1.369823 -0.979311,2.938963 -0.982422,4.609375 -0.01,5.349994 3.619614,9.700937 8.099609,9.710937 4.489996,0.01 8.140157,-4.319927 8.160157,-9.669922 0.0087,-4.671028 -2.746134,-8.567249 -6.417969,-9.509765 z m 40.640625,0.03125 c -3.573535,0.993748 -6.269828,4.795938 -6.3125,9.378906 -0.05,5.359995 3.549067,9.729531 8.039062,9.769531 4.489996,0.04 8.170704,-4.271099 8.220704,-9.621094 0.01584,-1.700976 -0.337913,-3.299465 -0.966797,-4.695312 a 7.079488,3.5601326 24.833391 0 1 -4.960938,-1.386719 7.079488,3.5601326 24.833391 0 1 -4.019531,-3.445312 z" />
  <path
     d="m 47.429693,96.093954 c 0,5.907026 0.76,15.306416 10.25,20.036416 1.77,0.89 4.13,1.35 6.55,1.34 v -0.08 0.08 c 2.42,-0.04 4.77,-0.55 6.52,-1.47 9.4,-4.92 9.8,-14.33615 9.8,-20.246416 0,-6.884967 -3.45152,-6.580722 -16.56,-6.580722 -13.10848,0 -16.56,0.442038 -16.56,6.920722 z"
     style="fill:#d7598b"
     id="path5402"
     sodipodi:nodetypes="scccccszs" />
</svg>
