<?xml version="1.0" encoding="UTF-8" standalone="no"?>
<!-- Generator: Adobe Illustrator 24.1.2, SVG Export Plug-In . SVG Version: 6.00 Build 0)  -->

<svg
   version="1.1"
   id="Layer_2"
   x="0px"
   y="0px"
   viewBox="0 0 128 128"
   style="enable-background:new 0 0 128 128;"
   xml:space="preserve"
   sodipodi:docname="emoji_u1f994.svg"
   inkscape:version="1.2.2 (732a01da63, 2022-12-09)"
   xmlns:inkscape="http://www.inkscape.org/namespaces/inkscape"
   xmlns:sodipodi="http://sodipodi.sourceforge.net/DTD/sodipodi-0.dtd"
   xmlns="http://www.w3.org/2000/svg"
   xmlns:svg="http://www.w3.org/2000/svg"><defs
   id="defs17331" /><sodipodi:namedview
   id="namedview17329"
   pagecolor="#ffffff"
   bordercolor="#000000"
   borderopacity="0.25"
   inkscape:showpageshadow="2"
   inkscape:pageopacity="0.0"
   inkscape:pagecheckerboard="0"
   inkscape:deskcolor="#d1d1d1"
   showgrid="false"
   inkscape:zoom="4.2421876"
   inkscape:cx="58.224677"
   inkscape:cy="78.261509"
   inkscape:window-width="1366"
   inkscape:window-height="697"
   inkscape:window-x="-8"
   inkscape:window-y="-8"
   inkscape:window-maximized="1"
   inkscape:current-layer="Layer_2" />
<path
   id="path17274"
   style="fill:#865b52;fill-opacity:1"
   d="M 72.460938 29.070312 C 72.452582 29.071976 72.43832 29.081958 72.429688 29.083984 C 70.688637 29.021087 65.284437 33.17641 63.609375 34.990234 C 61.919377 36.820233 58.679687 40.199219 58.679688 40.199219 C 58.679688 40.199219 56.060638 36.441884 55.005859 35.582031 C 54.161623 34.547198 53.413002 33.720703 53.109375 33.720703 C 52.405469 33.720703 49.021105 37.734714 47.142578 40.025391 C 45.099771 37.802148 42.555398 34.649554 41.990234 34.457031 C 41.393708 33.672746 40.823899 33.150391 40.369141 33.150391 C 38.749539 33.150391 34.154205 43.04686 33.068359 45.429688 C 31.36154 44.035413 28.385672 41.626521 27.351562 41.033203 C 26.37196 40.180287 25.540589 39.588134 25.240234 39.759766 C 24.250235 40.319765 22.990937 45.599925 22.710938 48.419922 C 22.469929 50.847222 22.152656 53.516531 22.046875 54.419922 C 20.652661 54.225882 19.015547 53.944239 18 53.580078 C 16.034968 52.875445 12.154592 50.38223 11.822266 51.585938 C 11.818992 51.588422 11.813785 51.5873 11.810547 51.589844 C 11.140548 52.119843 13.08047 57.359065 14.480469 60.039062 C 16.290467 63.479059 20.25 68.349609 20.25 68.349609 L 45.689453 90.460938 L 61.740234 100.0293 C 61.740234 100.0293 88.909691 109.87961 92.429688 109.59961 C 95.949684 109.31961 111.36039 107.98094 111.65039 106.71094 C 111.73882 106.31578 111.45568 105.61835 111.02344 104.83008 C 111.02375 104.82652 111.0293 104.82392 111.0293 104.82031 C 111.0293 104.39535 109.60017 101.88337 108.29688 99.654297 C 110.0375 98.698966 119.30708 93.551057 119.17969 92.140625 C 119.12405 91.507394 118.77552 90.895821 118.30273 90.335938 C 117.78795 89.429996 116.42457 88.048529 115.21289 86.894531 C 116.58523 84.987124 122.85744 76.19937 122.49023 75.25 C 122.24906 74.633665 121.72589 74.174461 121.07617 73.828125 C 121.05913 73.819042 121.04456 73.807753 121.02734 73.798828 C 120.15229 73.314733 118.3508 72.653175 116.50586 72.015625 C 118.17172 70.195145 123.77952 63.965917 123.53906 62.720703 C 123.41904 62.101292 122.80416 61.571422 121.9375 61.113281 C 120.59003 60.106431 115.57227 59.104635 112.61719 58.152344 C 113.95596 56.786458 117.52787 52.930231 116.7207 51.25 C 116.6036 51.006791 116.30876 50.780656 115.91211 50.566406 C 115.53942 49.840695 107.48132 48.406451 102.65039 47.330078 C 103.81684 45.588738 107.55347 39.888995 106.93945 39.070312 C 106.67083 38.71578 106.10805 38.440472 105.36523 38.21875 C 103.83429 37.315072 93.144676 36.689453 90.490234 36.689453 C 89.798067 36.689453 89.081055 36.733819 88.382812 36.787109 C 88.957795 34.815477 90.1212 30.41021 89.140625 29.919922 C 89.120632 29.909925 89.062867 29.920085 89.03125 29.916016 C 88.258373 29.479106 82.608492 31.452945 79.369141 32.320312 C 77.641567 32.787607 75.999902 33.556086 74.634766 34.144531 C 74.478478 32.213008 73.990312 28.765887 72.460938 29.070312 z " />
<path
   style="fill:#F7BB86;"
   d="M43.96,77.74L30.28,96.09c0,0-0.68,5.09-1.34,6.41c-0.66,1.31-6.29,6.78-3.85,8.56  c2.44,1.78,8.31,1.22,10.23-1.31c2.14-2.82,4.69-8.17,4.69-8.17s6.38-2.25,8.17-4.97c1.78-2.72,2.35-5.26,2.35-6.48  s0.38-4.5,0.28-5.91s-1.41-7.04-1.41-7.04L43.96,77.74z"
   id="path17276" />

<path
   style="fill:#FED3B4;"
   d="M42.45,72.3c0,0-4.2-8.38-13.02-9.5s-13.44,8.09-15.88,9.31s-7.79,0.66-8.54,5.07  s1.78,9.39,6.76,13.05c4.97,3.66,10.79,6.29,20.08,6.38c9.29,0.09,14.29-7.71,15.11-12.86c0.38-2.35,0.38-5.16,0.38-5.16  s6.66-1.78,8.73-9.85c2.06-8.07-5.64-8.6-9.39-4.13C43.3,68.64,42.45,72.3,42.45,72.3z"
   id="path17280" />
<path
   style="fill:#F6BA84;"
   d="M56.11,102.78c0,0-18.3,10.98-16.54,11.9c1.76,0.92,3.1,1.83,7.39,0c4.29-1.83,11.97-7.18,11.97-7.18  s5.28,1.55,10.42,1.76s14.29,0.63,14.29,0.63l4.43-5.49l-27.38-6.26L56.11,102.78z"
   id="path17282" />
<path
   style="fill:#FFD1B7;"
   d="M59.49,90.81c5.84,1.13,12.39,3.24,17.39,5.35c5,2.11,15.79,7.09,15.98,11.97  c0.14,3.66-2.53,5.98-4.58,6.69c-2.34,0.81-10.14,1.9-13.09,0.35c-2.96-1.55-3.73-4.22,0-6.19c3.73-1.97,8.87-1.83,8.52-3.66  c-0.35-1.83-7.39,0.28-13.44-0.28c-5.33-0.5-12.46-1.06-12.46-1.06s-4.61,4.21-7.46,6.76c-3.31,2.96-6.16,5.76-10.35,4.5  c-3.52-1.06-4.79-3.24-3.31-4.65c1.48-1.41,3.45-2.89,4.01-3.59c0.56-0.7,1.41-2.6,1.41-2.6s-1.06-1.13-1.9-2.18  c-0.84-1.06-1.2-1.9-1.2-1.9s5.28-2.89,7.25-4.86c1.97-1.97,3.8-5.42,3.8-5.7S53.87,89.73,59.49,90.81z"
   id="path17284" />

<path
   style="fill:#F27CB6;"
   d="M45.2,74.34c1.23,1.81,3.8,0.56,5.42-1.27s2.47-3.88,1.2-5.28c-1.48-1.62-3.94,0.14-5.07,1.41  C45.62,70.47,44.14,72.79,45.2,74.34z"
   id="path17288" />
<path
   style="fill:#2d2e2f;fill-opacity:1"
   d="M10.5,82.15c0,0,2.96-2.67,3.1-4.08c0.14-1.41-1.41-2.39-4.08-3.1c-2.67-0.7-4.58-0.99-4.86,1.97  c-0.28,2.96,1.76,4.08,1.76,4.08s-0.49,0.84-0.84,1.06s-0.5,0.95-0.35,1.27c0.49,1.06,1.2,0.63,1.62,0.49  c0.42-0.14,0.99-0.77,0.99-0.77s1.34,4.36,4.5,5.42c3.26,1.09,5.98-1.27,6.69-1.97c0.7-0.7,0.35-2.75-1.62-1.83  c-1.68,0.78-1.48,1.69-3.94,1.27S10.5,82.15,10.5,82.15z"
   id="path17290" />
<path
   style="fill:#F47DAD;"
   d="M27.06,106.98c0.76,0.53,0.05,2.3-0.38,2.67c-0.42,0.38-1.45,1.78-2.53,1.03  c-1.08-0.75-0.28-2.49,0.38-3.1S26.12,106.32,27.06,106.98z"
   id="path17292" />
<path
   style="fill:#F47DAD;"
   d="M40.62,110.08c0.94,0.69,0.47,2.16-0.42,2.86c-0.89,0.7-2.45,1.94-3.43,0.89  c-1.13-1.22,0.94-2.91,1.41-3.28C38.65,110.17,39.73,109.42,40.62,110.08z"
   id="path17294" />
<path
   style="fill:#F47DAD;"
   d="M44.43,111.72c0.86,0.74,0.29,1.82-0.52,2.63c-0.89,0.89-2.39,1.69-3.28,0.94  c-0.89-0.75,0.66-2.44,1.27-2.91S43.44,110.87,44.43,111.72z"
   id="path17296" />
<path
   style="fill:#F47DAD;"
   d="M74.69,111.15c-0.71,0.55-2.11,1.97-0.99,3c1.13,1.03,2.82-0.42,3.33-0.99  c0.52-0.56,1.41-1.6,0.56-2.53C76.76,109.7,75.54,110.5,74.69,111.15z"
   id="path17298" />
<path
   style="fill:#F47DAD;"
   d="M77.13,115.61c0.73,0.82,2.11,0.05,3-0.84c0.42-0.42,1.22-1.64,0.33-2.44  c-0.59-0.53-1.88-0.14-2.86,0.84S76.43,114.82,77.13,115.61z"
   id="path17300" />
<path
   style="fill:#9D6C5B;"
   d="M37.03,50.34c-1.48,3.52,2.25,5.07,3.73,2.04c1.48-3.03,2.89-6.34,3.66-9.15  c0.63-2.28-1.06-3.17-2.53-0.84C40.41,44.71,38.08,47.84,37.03,50.34z"
   id="path17302" />
<path
   style="fill:#C5886F;"
   d="M56.81,47.52c-1.93,1.6-6.51,6.85-7.88,8.73c-2.32,3.17,1.69,5.84,3.73,3.03  c2.04-2.82,5.28-8.31,6.34-9.92C60.05,47.73,58.5,46.11,56.81,47.52z"
   id="path17304" />
<path
   style="fill:#6F4B3B;"
   d="M60.33,42.45c-1.33,1.27,0.14,4.08,2.6,2.25c2.46-1.83,3.8-2.96,5.07-4.29  c1.27-1.34,0.35-2.82-1.62-1.9S61.81,41.05,60.33,42.45z"
   id="path17306" />
<path
   style="fill:#9D6C5B;"
   d="M64.56,48.16c-2.96,2.38,0.42,5.91,3.03,3.8c2.6-2.11,7.46-6.83,9.29-8.73s0.71-4.01-1.97-2.25  C72.65,42.45,67.44,45.83,64.56,48.16z"
   id="path17308" />
<path
   style="fill:#C5886F;"
   d="M62.23,63.08c-3.03,2.39-0.09,6.15,3.31,3.31c3.45-2.89,8.31-7.04,10.56-9.36  c1.98-2.04,0.07-3.94-2.53-2.11C71.29,56.51,65.99,60.11,62.23,63.08z"
   id="path17310" />
<path
   style="fill:#9D6C5B;"
   d="M84.83,55.19c-3.66,2.04-1.2,5.21,1.62,3.66c2.21-1.21,9.08-5.7,10.07-6.62s0.39-2.56-1.27-1.97  C93.28,50.97,87.15,53.9,84.83,55.19z"
   id="path17312" />
<path
   style="fill:#6F4B3B;"
   d="M81.73,45.9c-2.89,2.18-0.21,5.56,2.32,3.66c1.93-1.44,7.32-7.18,8.17-8.17s0.07-2.39-1.48-1.34  C89.4,40.97,84.23,44.02,81.73,45.9z"
   id="path17314" />
<path
   style="fill:#C5886F;"
   d="M93.49,59.49c-2.36,1.32-21.07,11.58-23.65,13.3c-3.38,2.25-0.56,6.97,2.75,4.79  c2.71-1.78,21.21-14.46,22.67-15.42C97.71,60.54,96.37,57.87,93.49,59.49z"
   id="path17316" />
<path
   style="fill:#C5886F;"
   d="M83.35,79.06c-3.66,1.55-1.76,5.42,1.41,4.22c3.17-1.2,12.88-5.21,15.13-6.55  c2.25-1.34,1.2-3.73-0.84-3.03C97.01,74.41,87.26,77.4,83.35,79.06z"
   id="path17318" />
<path
   style="fill:#6F4B3B;"
   d="M100.39,63.99c-2.53,1.48-0.63,4.01,1.62,3.03c1.68-0.73,4.5-2.18,5.49-2.89  c0.99-0.7,0.63-2.75-1.41-2.11C104.68,62.46,102.32,62.87,100.39,63.99z"
   id="path17320" />
<path
   style="fill:#C5886F;"
   d="M92.15,87.29c-2.8,0.54-2.09,4.84,0.84,4.36c3.94-0.63,11.17-2.98,12.53-3.31  c1.76-0.42,2.18-3.31-1.34-2.82C101.02,85.98,95.46,86.66,92.15,87.29z"
   id="path17322" />
<path
   style="fill:#C5886F;"
   d="M98.06,95.67c-2.82-0.14-2.96,3.73,0.28,3.73c2.18,0,3.66-0.14,5.14-0.42  c1.82-0.35,1.9-2.53-0.35-2.82C101.66,95.98,99.83,95.76,98.06,95.67z"
   id="path17324" />
<path
   style="fill:#9D6C5B;"
   d="M105.45,76.95c-2.04,0.84-1.06,3.66,1.13,2.96c1.79-0.58,3.59-1.41,5.14-2.25  c1.29-0.7,0.7-2.67-0.92-2.32C109.18,75.68,106.94,76.33,105.45,76.95z"
   id="path17326" />
<ellipse
   style="fill:#2d2e2f;fill-opacity:1;stroke-width:2;stroke-linecap:round;stroke-linejoin:round;paint-order:stroke fill markers"
   id="path18031"
   cx="28.161053"
   cy="74.379662"
   rx="3.0079782"
   ry="3.5972567" /></svg>
