<?xml version="1.0" encoding="UTF-8" standalone="no"?>
<svg
   width="100%"
   height="100%"
   viewBox="0 0 128 128"
   version="1.1"
   xml:space="preserve"
   style="fill-rule:evenodd;clip-rule:evenodd;stroke-linecap:round;stroke-linejoin:round;stroke-miterlimit:1.5;"
   id="svg32800"
   sodipodi:docname="emoji_u1f971.svg"
   inkscape:version="1.2.2 (732a01da63, 2022-12-09)"
   xmlns:inkscape="http://www.inkscape.org/namespaces/inkscape"
   xmlns:sodipodi="http://sodipodi.sourceforge.net/DTD/sodipodi-0.dtd"
   xmlns="http://www.w3.org/2000/svg"
   xmlns:svg="http://www.w3.org/2000/svg"><defs
   id="defs32804">
        
        
    </defs><sodipodi:namedview
   id="namedview32802"
   pagecolor="#ffffff"
   bordercolor="#000000"
   borderopacity="0.25"
   inkscape:showpageshadow="2"
   inkscape:pageopacity="0.0"
   inkscape:pagecheckerboard="0"
   inkscape:deskcolor="#d1d1d1"
   showgrid="false"
   inkscape:zoom="2.9996795"
   inkscape:cx="26.169462"
   inkscape:cy="72.007693"
   inkscape:window-width="1366"
   inkscape:window-height="697"
   inkscape:window-x="-8"
   inkscape:window-y="-8"
   inkscape:window-maximized="1"
   inkscape:current-layer="svg32800" />
    <path
   class="st0"
   d="m 64.06,9.5600001 c -62.5068621,0 -63.94,70.0032759 -63.94,83.8936899 0,13.89041 28.662759,25.13502 63.94,25.13502 35.277242,0 63.94,-11.24461 63.94,-25.13502 C 128,79.563276 126.56686,9.5600001 64.06,9.5600001 Z"
   id="path27560"
   style="fill:#fcc21b;stroke-width:1" />
    <g
   transform="matrix(-1,0,0,0.9999995,121.915,-7.3562236)"
   id="g32778">
            <g
   id="g33770"><g
     transform="matrix(-1,0,0,1.0000005,115.42049,0)"
     id="g32774"
     style="clip-rule:evenodd;fill-rule:evenodd;stroke-linecap:round;stroke-linejoin:round;stroke-miterlimit:1.5">
            <path
   d="m 28.219,61.697091 c 0,0 6.515968,-8.482935 17.391269,-10.000091"
   style="fill:none;stroke:#333333;stroke-width:4.92px"
   id="path32772"
   sodipodi:nodetypes="cc" />
        </g><path
     d="m 28.219,61.697091 c 0,0 6.515968,-8.482935 17.391269,-10.000091"
     style="fill:none;stroke:#333333;stroke-width:4.92px"
     id="path32776"
     sodipodi:nodetypes="cc" /></g>
        </g>
    
    
    <g
   transform="matrix(0.94182667,0,0,1.1005497,3.9209194,-4.9314458)"
   id="g32792"
   style="stroke-width:0.640356">
        <path
   d="m 89.947,61.285 c -6.4,-1.58 -21.022,4.269 -29.462,4.269 -8.44,0 -8.265,-0.439 -17.745,-0.439 -9.48,0 -17.16,6.66 -17.16,14.88 0,8.22 7.68,14.88 17.16,14.88 9.48,0 14.033,-3.49 21.05,-3.49 7.017,0 11.57,3.49 21.05,3.49 9.48,0 17.16,-6.67 17.16,-14.89 0,-8.21 -1.713,-16.147 -12.053,-18.7 z"
   style="fill:#ed6c30;fill-rule:nonzero;stroke-width:0.546825"
   id="path32790" />
    </g>
    
<g
   id="g23143"
   transform="matrix(1.031099,-0.27628214,0.27628214,1.031099,-89.979909,22.591003)"
   style="stroke-width:0.936793"><path
     class="st23"
     d="m 97.3,119.7 c -2.9,0 -5.1,-0.7 -6.6,-1.3 -4.1,-1.7 -9,-4.6 -10.8,-12.5 -0.9,-3.7 -0.5,-8 0.8,-11 0.9,-2.1 2,-3.5 2.9,-4.7 0.8,-1.1 1.5,-2.1 2.1,-3.4 0.6,-1.5 1.9,-4.7 5.3,-4.8 v 0 c 1.5,0 2.8,0.7 3.7,1.8 1.1,1.4 1.4,3.3 1,5.1 -0.2,0.6 -0.4,1.2 -0.6,1.7 0.1,-0.1 0.1,-0.1 0.2,-0.2 0.1,-0.2 1.7,-1.8 2.2,-2.5 0.9,-1.1 7.4,-8.1 8.8,-9.6 1.4,-1.5 2.8,-1.8 3.8,-1.8 1.3,0 2.5,0.5 3.6,1.5 1.4,1.3 1.7,3 1.2,4.7 0.1,0 0.1,-0.1 0.1,-0.1 1,-0.9 2.1,-1.3 3.4,-1.3 1.7,0 3.3,0.9 4.2,2.2 1.4,2 0.7,4.6 -0.8,6.3 1.4,0.2 2.7,1.1 3.6,2.5 1.6,2.5 -0.1,5.5 -1.9,6.8 -0.2,0.1 -0.6,0.4 -1.4,0.9 1.1,0.5 1.9,1.4 2.4,2.5 1.1,2.6 -0.7,5.1 -2.7,6.4 -0.1,0 -5.1,3 -9.2,4.6 0,0 -2.5,1 -5.7,3.2 -2.9,2 -6.1,3 -9.6,3 z"
     id="path23139"
     style="fill:#fac036;stroke-width:0.936793" /><path
     class="st22"
     d="m 110,78.6 c 0.8,0 1.6,0.4 2.2,1 1.5,1.4 0.5,3.4 -0.3,4.4 -0.6,0.8 -9.4,9.1 -9.4,9.1 -0.1,1.1 0.5,1.3 1,1.3 0.2,0 0.4,0 0.4,0 2.5,-2.2 11,-9 12.4,-10.2 0.6,-0.6 1.4,-0.8 2.1,-0.8 1,0 2,0.5 2.6,1.4 1,1.5 -0.1,3.4 -0.9,4.2 -0.8,0.8 -9.6,6.8 -12.9,9 -0.7,1.5 1.1,1.8 1.1,1.8 4,-2.6 9.8,-6.5 11.1,-7.3 0.6,-0.4 1.2,-0.6 1.7,-0.6 1.1,0 2.1,0.7 2.7,1.6 0.9,1.5 -0.4,3.4 -1.4,4.1 -0.6,0.5 -9.6,5.5 -12.2,6.9 -0.5,0.6 -0.6,1 -0.4,1.3 0.2,0.5 0.8,0.6 0.8,0.6 4.4,-2.2 6.9,-3.7 8,-4.3 0.6,-0.3 1.2,-0.5 1.7,-0.5 1.1,0 2,0.6 2.4,1.7 0.7,1.7 -0.8,3.3 -1.9,3.9 -0.8,0.5 -5.4,3 -9,4.5 0,0 -2.6,1.1 -6,3.4 -2.8,2 -5.8,2.6 -8.4,2.6 -2.3,0 -4.3,-0.5 -5.8,-1.1 -4.4,-1.8 -8.1,-4.5 -9.6,-11.1 -0.7,-3.2 -0.5,-7.1 0.7,-9.8 1.6,-3.7 3.7,-5 5,-8.2 0.8,-2.1 1.7,-3.5 3.4,-3.5 0,0 0,0 0,0 1.9,0 3.3,2.1 2.7,4.4 -0.5,2.2 -2,3 -3.6,5.8 0.4,1.2 1.1,1.6 1.7,1.6 0.9,0 1.8,-0.9 1.8,-0.9 1.1,-1.1 2.1,-2.2 3,-3.1 0.1,-0.1 1.7,-1.9 2.3,-2.6 1,-1.1 7.3,-8.1 8.8,-9.6 0.7,-0.7 1.5,-1 2.2,-1 m 0,-4 c -1.3,0 -3.3,0.4 -5.2,2.4 -1.1,1.2 -5.1,5.5 -7.3,8 C 97.2,84.2 96.8,83.4 96.3,82.7 95,81 93.1,80.1 91,80.1 v 0 h -0.1 c -4.7,0.1 -6.4,4.4 -7.1,6 -0.4,1.1 -1,1.9 -1.8,3 -0.9,1.2 -2.1,2.8 -3.1,5.1 -1.5,3.4 -1.8,8.2 -0.9,12.3 2,8.8 7.5,12.1 12,13.9 1.6,0.6 4.1,1.4 7.3,1.4 3.8,0 7.5,-1.2 10.7,-3.3 3,-2.1 5.3,-3 5.3,-3 4.2,-1.7 9.4,-4.7 9.5,-4.8 2.8,-1.6 5.1,-5.1 3.6,-8.8 -0.2,-0.6 -0.6,-1.2 -0.9,-1.7 2.4,-2.2 3.6,-5.9 1.7,-8.9 -0.6,-1 -1.4,-1.8 -2.4,-2.4 0.8,-2 0.9,-4.4 -0.5,-6.4 -1.3,-1.9 -3.6,-3.1 -5.9,-3.1 -0.5,0 -1.1,0.1 -1.6,0.2 -0.3,-1.1 -0.9,-2.1 -1.8,-2.9 -1.5,-1.4 -3.2,-2.1 -5,-2.1 z"
     id="path23141"
     style="fill:#2f2f2f;stroke-width:0.936793" /></g></svg>
