<svg id="eC0gaBj3h5i1" xmlns="http://www.w3.org/2000/svg" xmlns:xlink="http://www.w3.org/1999/xlink" viewBox="0 0 150 150" shape-rendering="geometricPrecision" text-rendering="geometricPrecision" project-id="3da8d5756c744bffa72c5cfbba85db9c" export-id="f07cff65b1b04e4f9981a721df90606b" cached="false"><g><path d="M49.99,24.65c1.12-1.65.54-3.49-.29-4.13-.82-.64-3.11,1.18-4.69,2.41-2.83,2.22-5.71,2-7.51,1.87s-5.75-2.06-7.32-8.67-4.57-7.43-6.36-7.43c-1.8,0-2.99.64-4.27,2.92l-2.39-4.7.9-4.13L30.11,6.54l5.91,13.91l5.91,1.33l8.61-4.7l2.77,5.15-1.8,3.75-1.52-1.33Zm0,0" transform="matrix(2.34375 0 0 2.34375 0 0)" fill="#f6d32d" stroke="#e5a50a" stroke-width="0.5"/><path d="M16.78,2.79l8.68,57.68" transform="matrix(2.34375 0 0 2.34375 0 0)" fill="#e5a50a" stroke="#e5a50a" stroke-width="3"/><path d="M15.88,2.99c7.71.25,14.44.57,16.54,9.91c2.48,11.03,8.68,9.34,11.08,7.69c1.89-1.31,4.7-3.32,6.81-3.32c1.24,0,2.49.84,2.49,2.48c0,1.01-.31,2.19-.7,3.57" transform="matrix(2.34375 0 0 2.34375 0 0)" fill="none" stroke="#e66100" stroke-width="4" stroke-linecap="round"/><path d="M15.88,2.99c7.71.25,14.44.57,16.54,9.91c2.48,11.03,8.68,9.34,11.08,7.69c1.89-1.31,4.7-3.32,6.81-3.32c1.24,0,2.49.84,2.49,2.48c0,1.01-.31,2.19-.7,3.57" transform="matrix(2.34375 0 0 2.34375 0 0)" fill="none" stroke="#ff7800" stroke-width="3" stroke-linecap="round"/><path d="M44.835938,10.054688c-.039063,3.492187-2.632813,6.425781-6.09375,6.890624-3.464844.457032-6.738282-1.699218-7.6875-5.0625C30.105469,8.535156,31.75,4.996094,34.921875,3.5625" fill="#ff7800"/><path d="M21.72,7.24l7.82,45.75" transform="matrix(2.34375 0 0 2.34375 0 0.000001)" fill="none" stroke="#000" stroke-linecap="round"/><path d="M26.44,8.32l7.12,42.07" transform="matrix(2.34375 0 0 2.34375 0 0)" fill="none" stroke="#000" stroke-linecap="round"/><path d="M33.11,20.83L37.12,46.4" transform="matrix(2.34375 0 0 2.34375 0 0)" fill="none" stroke="#000" stroke-linecap="round"/><path d="M38.5,24.39L40.86,41.2" transform="matrix(2.34375 0 0 2.34375 0 0)" fill="none" stroke="#000" stroke-linecap="round"/><path d="M42.89,23.88L44.3,35.64" transform="matrix(2.34375 0 0 2.34375 0 0)" fill="none" stroke="#000" stroke-linecap="round"/><path d="M50.48,22.61c-.2.54-.48,1.12-.77,1.63-6.07,10.85-15.76,21.46-25,33.05l11.75-.06c7.89-13.32,13.4-23.49,17.2-33.12.22-.56.49-1.55.59-2.09" transform="matrix(2.34375 0 0 2.34375 0.000001 0)" fill="#ff7800" stroke="#e66100" stroke-width="0.5"/><path d="M19.18,56.15h19.46v5.27h-19.46v-5.27Zm0,0" transform="matrix(2.34375 0 0 2.34375 0 0)" fill="#e66100" stroke="#c64600" stroke-width="0.5" stroke-linecap="round" stroke-linejoin="round" stroke-miterlimit="2"/><path d="M19.07,4.85c-.318333,1.563333-1.801667,2.603333-3.38,2.37-1.575-.236667-2.69-1.663333-2.54-3.25.148333-1.59,1.515-2.785,3.11-2.72" transform="matrix(2.34375 0 0 2.34375 0.000001-.000001)" fill="none" stroke="#e66100" stroke-width="0.5" stroke-linecap="round" stroke-linejoin="round" stroke-miterlimit="2"/><path d="M50.45,22.68c.09-.19.16-.49.2-.65" transform="matrix(2.34375 0 0 2.34375 0 0)" fill="none" stroke="#e66100" stroke-width="0.5" stroke-linecap="round"/></g></svg>
