<?xml version="1.0" encoding="UTF-8" standalone="no"?>
<svg
   width="100%"
   height="100%"
   viewBox="0 0 128 128"
   version="1.1"
   xml:space="preserve"
   style="fill-rule:evenodd;clip-rule:evenodd;stroke-linejoin:round;stroke-miterlimit:2;"
   id="svg35620"
   sodipodi:docname="emoji_u1f973.svg"
   inkscape:version="1.2.2 (732a01da63, 2022-12-09)"
   xmlns:inkscape="http://www.inkscape.org/namespaces/inkscape"
   xmlns:sodipodi="http://sodipodi.sourceforge.net/DTD/sodipodi-0.dtd"
   xmlns="http://www.w3.org/2000/svg"
   xmlns:svg="http://www.w3.org/2000/svg"><defs
   id="defs35624" /><sodipodi:namedview
   id="namedview35622"
   pagecolor="#ffffff"
   bordercolor="#000000"
   borderopacity="0.25"
   inkscape:showpageshadow="2"
   inkscape:pageopacity="0.0"
   inkscape:pagecheckerboard="0"
   inkscape:deskcolor="#d1d1d1"
   showgrid="false"
   inkscape:zoom="2.9996795"
   inkscape:cx="99.343945"
   inkscape:cy="69.674109"
   inkscape:window-width="1366"
   inkscape:window-height="697"
   inkscape:window-x="-8"
   inkscape:window-y="-8"
   inkscape:window-maximized="1"
   inkscape:current-layer="svg35620" />
    <path
   d="M33.983,64.788C32.983,64.798 32.189,64.998 31.458,65.469L31.456,65.469C31.154,65.664 30.909,65.971 30.785,66.85C30.66,67.73 30.782,69.066 31.237,70.583C31.759,72.323 32.713,74.287 33.975,76.194C40.853,77.316 61.811,79.85 94.143,76.014C95.346,74.164 96.258,72.269 96.763,70.583C97.217,69.066 97.339,67.728 97.215,66.848C97.091,65.968 96.845,65.663 96.546,65.469C95.572,64.841 94.485,64.695 92.944,64.837C91.403,64.978 89.565,65.467 87.625,65.848L87.627,65.846C77.305,67.882 68.27,67.96 64.002,67.96C59.734,67.96 50.702,67.882 40.379,65.846L40.379,65.848C38.439,65.466 36.601,64.978 35.059,64.837C34.701,64.802 34.342,64.785 33.983,64.787L33.983,64.788Z"
   style="fill:white;fill-rule:nonzero;"
   id="path35586" />
    <path
   d="M63.89,9.64C1.58,9.64 0.1,79.5 0.1,93.33C0.1,107.16 28.66,118.36 63.89,118.36C99.13,118.36 127.68,107.15 127.68,93.33C127.68,79.5 126.21,9.64 63.89,9.64Z"
   style="fill:rgb(252,194,27);fill-rule:nonzero;"
   id="path35588" />
    <path
   d="M31.96,51.85C31.188,53.124 29.509,53.542 28.23,52.78C26.954,52.022 26.522,50.352 27.27,49.07C27.45,48.76 31.87,41.45 41.64,41.45C51.42,41.45 55.84,48.76 56.03,49.07C56.273,49.488 56.401,49.962 56.401,50.445C56.401,51.944 55.169,53.178 53.67,53.18C52.75,53.18 51.84,52.71 51.33,51.86C51.2,51.64 48.21,46.9 41.64,46.9C35.07,46.89 32.1,51.64 31.96,51.85ZM100,52.79C99.57,53.05 99.09,53.17 98.63,53.17C97.69,53.17 96.78,52.68 96.27,51.83C96.16,51.63 93.19,46.89 86.61,46.89C79.92,46.89 76.95,51.78 76.92,51.83C76.424,52.632 75.546,53.122 74.603,53.122C73.108,53.122 71.879,51.893 71.879,50.398C71.879,49.929 72,49.468 72.23,49.06C72.41,48.75 76.83,41.44 86.61,41.44C96.38,41.44 100.79,48.75 100.97,49.06C101.73,50.36 101.29,52.03 100,52.79Z"
   style="fill:rgb(47,47,47);fill-rule:nonzero;"
   id="path35590" />
    <path
   d="M 41.526054,17.622696 14.349156,0.90729726 19.141646,32.974175 c 0,0 11.153448,-3.690651 22.384408,-15.351479 z"
   style="fill:#3183ec;stroke-width:0.999999"
   id="path35592" />
    <path
   d="m 35.000494,13.608443 5.95187,3.661088 -22.781518,9.206253 -0.85495,-5.719351 z m -10.858618,-6.67737 5.952668,3.65949 -13.484178,5.449283 -0.85495,-5.720949 z m -9.79272,-6.02377574 5.63545,3.46612804 -4.82605,1.9503961 -0.8094,-5.41732314 z"
   style="fill:#ec6a31;fill-rule:nonzero;stroke-width:0.999999"
   id="path35594" />
    <path
   style="fill:#fd3353;fill-rule:nonzero"
   d="m 39.576013,30.532432 c 1.239,-0.194 2.635,0.198 3.201,-1.602 0.532,-1.693 0.079,-3.767 0.096,-5.536 0.014,-1.143 -0.36,-2.213 -1.095,-2.904 -0.837,-0.788 -1.767,-0.774 -2.78,-0.718 -0.761,0.038 -1.555,-0.119 -2.312,-0.182 -0.783,-0.069 -1.57,0.08 -2.35,0.026 -0.545,-0.049 -0.477,-0.1 -0.844,0.312 -0.214,0.269 -0.394,0.563 -0.537,0.876 -0.701,1.599 -0.091,4.189 0.209,5.853 0.23,1.33 -0.154,3.465 1.091,3.995 0.921,0.399 2.06,0.176 3.012,0.13 0.773,-0.049 1.543,-0.133 2.309,-0.25 z"
   id="path39789" /><path
   style="fill:#fd3353;fill-rule:nonzero"
   d="m 84.658738,107.61936 c -0.691,-0.616 -1.774,-1.243 -2.571,-1.553 -0.891,-0.357 -1.866,-0.673 -2.799,-0.789 -1.314,-0.154 -1.196,0.733 -1.588,2.153 -0.278,0.979 -0.68,1.8 -0.9,2.801 -0.233,1.054 -0.417,2.126 -0.657,3.175 -0.572,2.459 -0.625,3.833 1.485,4.554 1.523,0.517 3.13,0.808 4.68,1.214 0.46,-0.225 0.617,-1.116 0.724,-1.655 0.191,-0.95 0.499,-1.818 0.727,-2.746 0.427,-1.666 0.937,-3.373 1.262,-5.067 0.18,-0.853 0.234,-1.564 -0.363,-2.087 z"
   id="path35596" />
    
    <path
   d="m 95.521812,25.251727 c -1.118,0.153 -2.132,0.278 -3.254,0.58 -1.086,0.302 -1.464,0.764 -1.215,2.117 0.144,0.846 0.172,1.724 0.357,2.561 0.167,0.79 0.478,1.554 0.66,2.353 0.134,0.572 0.112,1.524 0.427,2 0.446,0.661 1.204,0.33 1.784,0.203 0.723,-0.155 1.446,-0.17 2.189,-0.371 0.938,-0.265 1.862,-0.61 2.789,-0.986 0.757998,-0.308 1.838998,-0.577 2.517998,-1.039 0.183,-0.133 0.334,-0.305 0.442,-0.504 0.443,-0.783 0.462,-2.028 0.415,-2.883 -0.06,-1.166 -0.343,-2.435 -0.584,-3.574 -0.383,-1.786 -2.037,-1.315 -3.174998,-1.115 -1.107,0.218 -2.215,0.505 -3.353,0.658 z"
   style="fill:#fd3353;fill-rule:nonzero"
   id="path35600" />
    <path
   d="m 115.38509,51.092556 c -0.795,0.284 -1.764,0.647 -2.428,1.326 -0.593,0.597 -0.36,1.731 -0.305,2.544 0.06,0.911 0.333,1.79 0.624,2.623 0.273,0.763 0.515,1.716 0.912,2.405 0.45,0.792 0.91,0.38 1.51,0.044 0.728,-0.396 1.474,-0.792 2.25,-1.03 1.056,-0.32 2.201,-0.585 3.215,-0.989 0.347,-0.133 0.544,-0.43 0.635,-0.814 0.301,-1.197 -0.42,-3.286 -0.567,-4.193 -0.111,-0.72 -0.31,-1.984 -0.78,-2.474 -0.522,-0.57 -1.279,-0.494 -1.934,-0.436 -1.058,0.097 -2.091,0.617 -3.132,0.994 z"
   style="fill:#50e740;fill-rule:nonzero"
   id="path35602" />
    <g
   transform="matrix(-1.2939,0,0,1,142.92897,0)"
   id="g35606"
   style="fill:#ed6c30;fill-opacity:1">
        <ellipse
   cx="61.337002"
   cy="82.058998"
   rx="4.039"
   ry="6.8060002"
   style="fill:#ed6c30;fill-opacity:1"
   id="ellipse35604" />
    </g>
    <path
   d="m 110.99257,66.283 c 0.441,0.01 0.89,0.045 1.342,0.104 7.23,0.945 12.402,7.726 11.47,15.045 -0.842,6.6 -6.38,11.491 -12.762,11.697 -4.964,-0.673 -4.246,-0.533 -5.106,-0.643 L 63.329573,87.7 c -2.257,-0.254 -3.271,-4.136 -2.98,-6.416 0.29,-2.28 1.361,-5.227 3.613,-4.933 l 18.246,2.383 c 9.125,0.961 13.968,1.652 21.425997,4.142 1.388,0.493 2.422,1.386 3.672,2.174 1.404,0.75 1.656,0.883 3.99,0.931 2.823,-0.286 5.134,-2.472 5.515,-5.463 0.446,-3.495 -1.926,-6.606 -5.379,-7.057 -3.283,-0.428 -4.927,5.94 -6.093,5.73 l -6.781997,-1.229 c 0.012,-5.858 6.158997,-11.835 12.433997,-11.68 z"
   style="fill:#0083bd;fill-rule:nonzero"
   id="path35608" />
    <g
   id="g35612"
   transform="matrix(-1,0,0,1,123.91257,0)">
        <path
   d="m 57.298,76.698 -8.201,1.072 v 11.22 l 8.201,-0.921 z m -14.874,1.943 -0.72,0.093 c -2.85,0.3 -5.257,0.58 -7.481,0.89 v 11.037 l 8.201,-0.92 z m -12.503,1.682 c -2.678,0.51 -5.272,1.17 -8.2,2.096 v 9.645 l 8.2,-0.92 z M 8.572,83.836 6.377,91.15 c 1.953,1.217 4.193,1.9 6.493,1.98 0.931,-0.127 0.956,-0.125 1.535,-0.201 l 2.406,-8.016 c -0.07,0.046 -0.134,0.092 -0.206,0.137 -1.404,0.75 -1.655,0.885 -3.99,0.933 C 11.01,85.82 9.585,85.027 8.572,83.836 Z M 1.894,72.857 c -1.427,2.41 -2.066,5.206 -1.83,7.996 L 7.808,82.74 C 7.439,82.048 7.2,81.295 7.101,80.518 c -0.298,-2.339 0.67,-4.5 2.375,-5.813 z m 18.501,-3.916 -7.179,4.551 c 2.798,0.508 4.282,5.894 5.356,5.7 L 19.93,78.945 25.05,75.7 c -0.667,-2.575 -2.396,-5.007 -4.656,-6.758 z"
   style="fill:#dc7fe1;fill-opacity:1;fill-rule:nonzero"
   id="path35610" />
    </g>
    <g
   id="g35616">
        
    </g>
    <path
   style="fill:#50e740;fill-rule:nonzero"
   d="m 32.630532,92.779276 c -0.798,-0.055 -0.985,0.91 -1.48,1.66 -1.113,1.658 -1.853,3.583 -2.638,5.502 -0.292,0.714004 -1.25,2.387004 -0.94,3.220004 0.255,0.67 1.233,0.836 1.745,1.085 l 2,0.966 c 0.316,0.15 2.259,1.44 2.553,1.228 0.513,-0.355 0.787,-1.464 1.03,-2.08 0.429,-1.141 0.768,-2.315 1.234,-3.456 0.603,-1.474004 1.24,-3.078004 1.539,-4.684004 -0.87,-1.17 -2.047,-1.728 -3.227,-2.462 -0.549,-0.342 -1.195,-0.93 -1.816,-0.98 z"
   id="path39793" /><path
   style="fill:#50e740;fill-rule:nonzero"
   d="m 19.250644,59.100806 c 0.2,-0.143 0.351,-0.305 0.45,-0.477 0.544,-0.894 -0.152,-2.142 -0.458,-3.309 -0.346,-1.39 -0.47,-2.863 -0.917,-4.212 -0.497,-1.461 -1.57,-1.234 -2.423,-0.578 -0.925,0.716 -1.932,1.241 -2.875,1.933 -0.845,0.614 -1.566,1.085 -1.468,2.414 0.09,1.208 0.701,2.228 1.127,3.284 0.8,1.964 1.015,4.599 3.22,3.517 1.237,-0.603 2.205,-1.77 3.344,-2.572 z"
   id="path35618" />
<path
   style="fill:#50e740;fill-rule:nonzero"
   d="m 76.014532,58.909985 c -0.929,0.934 -1.655,1.948 -2.445,3.003 -0.283,0.37 -0.57,0.541 -0.56,1.117 0.001,0.734 0.57,1.902 0.896,2.512 0.82,1.476 1.709,2.74 2.688,4.012 0.521,0.685 1.21,2.183 1.973,2.391 0.647,0.17 1.418,-0.63 1.901,-1.05 0.638,-0.569 1.374,-1.03 1.97,-1.636 0.763,-0.781 1.708,-1.915 2.276,-2.911 0.318,-0.547 0.293,-1.086 0.117,-1.602 -0.156,-0.47 -0.434,-0.922 -0.681,-1.355 -1.285,-2.207 -3.343,-5.222 -5.377,-6.43 -0.962,-0.575 -2.07,1.26 -2.758,1.949 z"
   id="path40523" /><path
   style="fill:#50e740;fill-rule:nonzero"
   d="m 72.554,7.742 c 0.326,0.261 2.6,3.188 2.83,2.878 0.503,-0.722 1.137,-1.304 1.659,-2.027 0.597,-0.838 1.161,-1.732 1.89,-2.407 0.88,-0.813 0.934,-1.616 0.632,-2.375 -0.43,-1.07 -1.587,-2.046 -2.22,-2.825 -0.496,-0.61 -1.112,-1.18 -1.745,-0.923 -0.717,0.3 -1.39,1.114 -1.907,1.757 -0.65,0.805 -1.54,1.6 -2.022,2.545 -0.674,1.28 0.007,2.657 0.883,3.377 z"
   id="path35598" /></svg>
