<?xml version="1.0" encoding="UTF-8" standalone="no"?>
<!-- Generator: Adobe Illustrator 25.2.3, SVG Export Plug-In . SVG Version: 6.00 Build 0)  -->

<svg
   version="1.1"
   id="Layer_4"
   x="0px"
   y="0px"
   viewBox="0 0 128 128"
   style="enable-background:new 0 0 128 128;"
   xml:space="preserve"
   sodipodi:docname="emoji_u1fa79.svg"
   inkscape:version="1.2.2 (732a01da63, 2022-12-09)"
   xmlns:inkscape="http://www.inkscape.org/namespaces/inkscape"
   xmlns:sodipodi="http://sodipodi.sourceforge.net/DTD/sodipodi-0.dtd"
   xmlns="http://www.w3.org/2000/svg"
   xmlns:svg="http://www.w3.org/2000/svg"><defs
   id="defs23924" /><sodipodi:namedview
   id="namedview23922"
   pagecolor="#ffffff"
   bordercolor="#000000"
   borderopacity="0.25"
   inkscape:showpageshadow="2"
   inkscape:pageopacity="0.0"
   inkscape:pagecheckerboard="0"
   inkscape:deskcolor="#d1d1d1"
   showgrid="false"
   inkscape:zoom="2.1210938"
   inkscape:cx="75.668508"
   inkscape:cy="19.801105"
   inkscape:window-width="1366"
   inkscape:window-height="697"
   inkscape:window-x="-8"
   inkscape:window-y="-8"
   inkscape:window-maximized="1"
   inkscape:current-layer="Layer_4" />
<g
   id="g23919"
   transform="translate(0.66000093)">
	<g
   id="g23909">
		<g
   id="g23907">
			
		</g>
	</g>
	<path
   style="fill:#db9f70"
   d="m 114.26,11.54 -0.51,-0.51 c 0,0 -0.01,-0.01 -0.01,-0.01 C 104.38,1.67 89.22,1.68 79.87,11.03 L 12.42,78.46 c 0,0 0,0 -0.01,0.01 -10.12,10.13 -10.12,26.56 0.02,36.68 l 0.51,0.51 c 9.35,9.35 24.52,9.35 33.87,0 l 67.44,-67.44 c 0,0 0,0 0.01,-0.01 10.13,-10.12 10.13,-26.54 0,-36.67 z m -94.21,89.88 c -1.03,1.03 -2.7,1.03 -3.72,0 -1.03,-1.03 -1.03,-2.7 0,-3.72 1.03,-1.03 2.7,-1.03 3.72,0 1.03,1.02 1.03,2.69 0,3.72 z m 1.64,-10.76 c -1.03,1.03 -2.7,1.03 -3.72,0 -1.03,-1.03 -1.03,-2.7 0,-3.72 1.03,-1.03 2.7,-1.03 3.72,0 1.02,1.03 1.02,2.7 0,3.72 z m 7.28,19.7 c -1.03,1.03 -2.7,1.03 -3.72,0 -1.03,-1.03 -1.03,-2.7 0,-3.72 1.03,-1.03 2.7,-1.03 3.72,0 1.03,1.03 1.03,2.69 0,3.72 z M 31.02,100 c -1.03,1.03 -2.7,1.03 -3.72,0 -1.03,-1.03 -1.03,-2.7 0,-3.72 1.03,-1.03 2.7,-1.03 3.72,0 1.03,1.03 1.03,2.69 0,3.72 z m 1.43,-10.98 c -1.03,1.03 -2.7,1.03 -3.72,0 -1.03,-1.03 -1.03,-2.7 0,-3.72 1.03,-1.03 2.7,-1.03 3.72,0 1.03,1.03 1.03,2.69 0,3.72 z m 1.64,-10.75 c -1.03,1.03 -2.7,1.03 -3.72,0 -1.03,-1.03 -1.03,-2.7 0,-3.72 1.03,-1.03 2.7,-1.03 3.72,0 1.02,1.02 1.02,2.69 0,3.72 z m 5.64,30.45 c -1.03,1.03 -2.7,1.03 -3.72,0 -1.03,-1.03 -1.03,-2.7 0,-3.72 1.03,-1.03 2.7,-1.03 3.72,0 1.03,1.02 1.03,2.69 0,3.72 z m 1.64,-10.76 c -1.03,1.03 -2.7,1.03 -3.72,0 -1.03,-1.03 -1.03,-2.7 0,-3.72 1.03,-1.03 2.7,-1.03 3.72,0 1.03,1.03 1.03,2.69 0,3.72 z M 43.41,87.6 c -1.03,1.03 -2.7,1.03 -3.72,0 -1.03,-1.03 -1.03,-2.7 0,-3.72 1.03,-1.03 2.7,-1.03 3.72,0 1.03,1.02 1.03,2.69 0,3.72 z m 8.73,8.72 c -1.03,1.03 -2.7,1.03 -3.72,0 -1.03,-1.03 -1.03,-2.7 0,-3.72 1.03,-1.03 2.7,-1.03 3.72,0 1.03,1.02 1.03,2.69 0,3.72 z M 78.27,34.09 c -1.03,1.03 -2.7,1.03 -3.72,0 -1.03,-1.03 -1.03,-2.7 0,-3.72 1.03,-1.03 2.7,-1.03 3.72,0 1.02,1.02 1.02,2.69 0,3.72 z M 87,42.81 c -1.03,1.03 -2.7,1.03 -3.72,0 -1.03,-1.03 -1.03,-2.7 0,-3.72 1.03,-1.03 2.7,-1.03 3.72,0 1.02,1.02 1.02,2.69 0,3.72 z m 2.03,-10.37 c -1.03,1.03 -2.7,1.03 -3.72,0 -1.03,-1.03 -1.03,-2.7 0,-3.72 1.03,-1.03 2.7,-1.03 3.72,0 1.02,1.03 1.02,2.69 0,3.72 z m 1.63,-10.75 c -1.03,1.03 -2.7,1.03 -3.72,0 -1.03,-1.03 -1.03,-2.7 0,-3.72 1.03,-1.03 2.7,-1.03 3.72,0 1.03,1.02 1.03,2.69 0,3.72 z m 5.66,30.45 c -1.03,1.03 -2.7,1.03 -3.72,0 -1.03,-1.03 -1.03,-2.7 0,-3.72 1.03,-1.03 2.7,-1.03 3.72,0 1.03,1.02 1.03,2.69 0,3.72 z m 1.64,-10.76 c -1.03,1.03 -2.7,1.03 -3.72,0 -1.03,-1.03 -1.03,-2.7 0,-3.72 1.03,-1.03 2.7,-1.03 3.72,0 1.03,1.03 1.03,2.7 0,3.72 z M 99.39,30.4 c -1.03,1.03 -2.7,1.03 -3.72,0 -1.03,-1.03 -1.03,-2.7 0,-3.72 1.03,-1.03 2.7,-1.03 3.72,0 1.02,1.03 1.02,2.7 0,3.72 z m 2.03,-10.36 c -1.03,1.03 -2.7,1.03 -3.72,0 -1.03,-1.03 -1.03,-2.7 0,-3.72 1.03,-1.03 2.7,-1.03 3.72,0 1.03,1.03 1.03,2.7 0,3.72 z m 7.3,19.7 c -1.03,1.03 -2.7,1.03 -3.72,0 -1.03,-1.03 -1.03,-2.7 0,-3.72 1.03,-1.03 2.7,-1.03 3.72,0 1.03,1.02 1.03,2.69 0,3.72 z m 1.64,-10.75 c -1.03,1.03 -2.7,1.03 -3.72,0 -1.03,-1.03 -1.03,-2.7 0,-3.72 1.03,-1.03 2.7,-1.03 3.72,0 1.03,1.02 1.03,2.69 0,3.72 z"
   id="path23911" />
	<g
   id="g23915">
		<path
   style="fill:#99674f"
   d="m 87.15,66.04 c 2.11,-2.32 1.73,-2.95 -2.18,-2.7 -3.23,0.2 -5.3,2.27 -6.58,3.55 L 64.32,80.95 c -1.25,1.25 -3.27,1.25 -4.52,0 C 59.76,80.91 59.72,80.87 59.68,80.83 57.34,78.49 48.25,69.4 48.25,69.4 46.97,68.12 45.5,66.44 43.8,65.94 c -1.39,-0.41 -2.61,-1.02 -5.19,-0.42 -2.22,0.51 1.71,3.84 2.65,4.78 1.52,1.52 13.32,13.32 17.7,17.7 1.68,1.68 4.4,1.68 6.08,0 0.01,-0.01 21.44,-21.22 22.11,-21.96 z"
   id="path23913" />
	</g>
	<path
   style="fill:#fcbf90"
   d="M 87.95,58.87 C 87.92,58.78 68.27,39.24 67.72,38.69 c -1.68,-1.68 -4.4,-1.68 -6.08,0 -1.95,1.95 -20.55,20.38 -20.55,20.38 0,0 -2.52,2.51 0.12,2.95 2.65,0.44 4.38,0.07 6.31,-1.8 4.96,-4.8 14.84,-14.5 14.84,-14.5 1.25,-1.25 3.27,-1.25 4.52,0 2.27,2.27 10.09,10 11.72,11.58 2.04,1.98 4.2,3.16 7.11,3.28 3.76,0.16 2.45,-1.14 2.24,-1.71 z"
   id="path23917" />
</g>
</svg>
