<?xml version="1.0" encoding="UTF-8" standalone="no"?>
<!-- Generator: Adobe Illustrator 25.2.3, SVG Export Plug-In . SVG Version: 6.00 Build 0)  -->

<svg
   version="1.1"
   id="Layer_3"
   x="0px"
   y="0px"
   viewBox="0 0 128 128"
   style="enable-background:new 0 0 128 128;"
   xml:space="preserve"
   sodipodi:docname="emoji_u1f9c1.svg"
   inkscape:version="1.2.2 (732a01da63, 2022-12-09)"
   xmlns:inkscape="http://www.inkscape.org/namespaces/inkscape"
   xmlns:sodipodi="http://sodipodi.sourceforge.net/DTD/sodipodi-0.dtd"
   xmlns="http://www.w3.org/2000/svg"
   xmlns:svg="http://www.w3.org/2000/svg"><defs
   id="defs17392" /><sodipodi:namedview
   id="namedview17390"
   pagecolor="#ffffff"
   bordercolor="#000000"
   borderopacity="0.25"
   inkscape:showpageshadow="2"
   inkscape:pageopacity="0.0"
   inkscape:pagecheckerboard="0"
   inkscape:deskcolor="#d1d1d1"
   showgrid="false"
   inkscape:zoom="2.1210938"
   inkscape:cx="57.98895"
   inkscape:cy="89.104972"
   inkscape:window-width="1366"
   inkscape:window-height="697"
   inkscape:window-x="-8"
   inkscape:window-y="-8"
   inkscape:window-maximized="1"
   inkscape:current-layer="Layer_3" />
<path
   style="fill:#FBB75A;"
   d="M24.25,82.44c0,0-7.09-10.51-7.23-16.52c-0.08-3.32,1.6-7.13,4.88-9.1s7.79-3.28,7.79-3.28  l72.08,0.19c0,0,5.59-0.3,8.07,6.38c2.16,5.82-2.63,16.71-2.63,16.71S70.33,90.32,60.38,89.57S24.25,82.44,24.25,82.44z"
   id="path17329" />
<path
   style="fill:#CF6E21;"
   d="M45.65,57.19l-18.02-3.1c0,0-2.91,1.13-3.94,1.69c-1.03,0.56-1.78,1.03-1.78,1.03  s15.96,15.34,41.76,14.73c36.04-0.84,42.56-16.42,42.56-16.42s-1.22-1.1-2.96-1.43c-2.79-0.53-6.85-0.16-6.85-0.16L45.65,57.19z"
   id="path17331" />
<path
   style="fill:#CF6E21;"
   d="M19.74,75.21l-0.45-2.98c0,0,0.72-0.32,3.61,0.89c7.52,3.14,22.59,8.96,38.06,8.96  c20.05,0,35.45-6.5,43.15-10.57c3.52-1.86,4.93-2.24,4.93-2.24l-1.83,9.13L61.88,93.32L22.93,81.78L19.74,75.21z"
   id="path17333" />
<path
   style="fill:#A9E7FF;"
   d="M32.69,78.59l-9.2-1.03l-5.4-3.43c0,0,4.42,8.24,5.17,12.18s5.38,25.97,5.38,25.97  s6.33,11.61,34.16,11.54c29.89-0.07,39.51-13.05,39.51-13.05l2.87-24.33l2.01-7.07l2.16-8.39l-10.32,5.54l-7.32,4.97h-8.54  l-8.73,3.66l-9.76-0.84l-7.04,3.19l-9.57-4.13l-7.79,0.94L32.69,78.59z"
   id="path17335" />
<path
   style="fill:#4EC0F5;"
   d="M40.67,88.16c-3.57-0.52-3.57,4.32-3.1,8.26c0.47,3.94,2.21,23.85,2.21,23.85s1.38,0.68,3.45,1.23  c1.67,0.45,3.92,0.92,3.92,0.92s-1.97-23.28-2.06-25.43S44.52,88.72,40.67,88.16z"
   id="path17337" />
<path
   style="fill:#4EC0F5;"
   d="M58.03,91.82c-2.81-0.13-4.32,2.35-3.94,7.79s1.31,23.93,1.31,23.93s1.68,0.26,3.55,0.35  c1.88,0.09,3.86-0.07,3.86-0.07s-0.66-20.65-0.75-23.46S62.07,92.01,58.03,91.82z"
   id="path17339" />
<path
   style="fill:#4EC0F5;"
   d="M24.25,82.44c-2.07,0.07-1.78,2.18-0.94,5.84c0.84,3.66,3,15.56,3.38,17.43  c0.38,1.88,1.31,6.19,1.31,6.19s1.4,1.75,2.1,2.38c0.83,0.75,2.22,1.83,2.22,1.83S28.47,90.32,28,87.97  C27.53,85.63,26.87,82.34,24.25,82.44z"
   id="path17341" />
<path
   style="fill:#4EC0F5;"
   d="M75.58,90.88c-4.61,0.1-4.04,6.57-4.04,7.98c0,1.41,0.28,24.5,0.28,24.5s2.44-0.19,3.75-0.38  s3.65-0.63,3.65-0.63s0.11-21.99,0.11-24.05C79.34,96.23,80,90.79,75.58,90.88z"
   id="path17343" />
<path
   style="fill:#4EC0F5;"
   d="M91.45,85.63c-3.73,0.29-3.94,4.5-4.04,9.01c-0.09,4.5-0.26,25.53-0.26,25.53s2.18-0.79,3.45-1.31  c1.58-0.66,2.82-1.36,2.82-1.36s0.94-22.38,0.94-24.54S95.19,85.33,91.45,85.63z"
   id="path17345" />
<path
   style="fill:#4EC0F5;"
   d="M99.54,113.51c0.81-0.6,2.79-2.73,2.79-2.73s2.82-17.64,3.19-20.37c0.38-2.72,1.76-11.11,1.76-11.11  s-0.94-0.47-2.25,0c-1.31,0.47-3.03,2.59-3.31,7C101.44,90.72,99.54,113.13,99.54,113.51z"
   id="path17347" />
<path
   style="fill:#D9EFF2;"
   d="M99.7,77.18c-3.85,1.69-8.26,7.13-8.26,7.13s-3.75-2.83-8.07-1.69c-4.97,1.31-7.79,6.66-7.79,6.66  s-5.44-3.85-9.1-3.66c-3.66,0.19-8.26,4.5-8.26,4.5s-5.91-4.41-9.48-4.97c-3.57-0.56-8.26,1.41-8.26,1.41s-4.6-5.54-8.63-6.57  s-7.41,1.13-7.41,1.13s-1.97-3.66-3.85-4.69s-3.64-0.88-3.19-3.28c0.28-1.5,2.56-1.26,3.75-0.75c3.28,1.41,4.13,4.22,4.13,4.22  s2.25-1.5,7.51-0.38c5.78,1.24,8.54,6.01,8.54,6.01s3.28-1.95,7.23-1.69c5.63,0.38,9.01,5.16,9.01,5.16s3.94-4.04,8.63-4.22  s8.54,2.53,8.54,2.53s1.13-3.57,8.07-5.16c5.37-1.23,8.45,1.03,8.45,1.03s1.88-4.41,7.04-6.1c4.12-1.35,6.38-0.38,6.38-0.38  s0.19-3.38,3.1-4.32c1.33-0.43,2.52,0.06,2.3,1.5c-0.19,1.22-1.44,0.41-2.39,2.44c-0.7,1.5-1.5,4.04-1.5,4.04  S102.86,75.79,99.7,77.18z"
   id="path17349" />
<path
   style="fill:#FFE9C8;"
   d="M61.6,3.97c-0.48,0.79,1.13,4.6-0.84,7.98c-1.97,3.38-5.91,5.44-10.61,5.63s-6.92,1.22-9.2,3.47  c-2.54,2.51-2.53,6.19-2.53,6.19s-4.02,1.49-5.54,4.97c-1.6,3.66-0.56,6.66-0.56,6.66s-5.88,1.83-7.23,7.23  c-1.03,4.13-0.48,7.38,2.05,9.54s21.13,10.73,39.43,9.14s36.6-12.29,36.7-15.2c0.09-2.91,0.56-7.51-3.57-9.85  c-4.13-2.35-6.95-2.06-6.95-2.06s1.41-6.29,0.19-8.35s-2.63-3.38-4.97-4.6c-2.35-1.22-3.47-1.13-3.47-1.13s0.33-5.19-2.31-6.9  c-2.25-1.46-4.63-2.3-10.45-4.83c-4.33-1.89-5.82-4.41-6.66-5.44C64.23,5.38,62.16,3.04,61.6,3.97z"
   id="path17351" />
<path
   style="fill:#FFCB86;"
   d="M46.11,29.41c-0.21,0.73,3.78,3.01,8.63,3.85c6.01,1.03,18.32,0.43,25.53-2.53  c6.85-2.82,6.84-6.47,6.29-8.92c-0.84-3.75-4.41-5.07-4.41-5.07s-1.78,3.38-4.6,4.6c-2.82,1.22-9.64,3.28-14.55,4.32  C57.66,26.78,46.3,28.75,46.11,29.41z"
   id="path17353" />
<path
   style="fill:#FFCB86;"
   d="M37.48,44.99c0,0.77,7.49,3.95,17.83,5.35c16.61,2.25,29.75-2.06,34.54-5.63s5.35-5.73,5.16-9.57  s-2.06-5.82-2.06-5.82s-1.03,2.82-4.04,5.54c-3,2.72-10.14,5.35-16.99,6.85c-6.85,1.5-14.83,2.25-20.08,2.72  C47.16,44.84,37.48,44.24,37.48,44.99z"
   id="path17355" />
<path
   style="fill:#FFCF86;"
   d="M102.99,43.49c0,0,0.84,2.82,0.84,4.97c0,2.16-0.66,4.69-1.31,5.73  c-0.66,1.03-7.88,10.98-28.81,13.14c-20.93,2.16-32.1-2.25-37.92-5.16c-5.82-2.91-10.14-7.23-10.14-8.26c0-1.14,3.66,2.25,9.2,4.13  c3.99,1.35,20.46,6.38,37.54,2.53s24.78-8.73,27.12-11.36S102.43,44.24,102.99,43.49z"
   id="path17357" />
<path
   style="fill:#A681CB;"
   d="M40.06,34.57c1.45,2.03,2.67,4.29,4.43,3.24c1.76-1.06,0.35-3.17-0.99-5.21s-2.75-4.29-4.43-3.1  C37.39,30.7,39.01,33.09,40.06,34.57z"
   id="path17359" />
<path
   style="fill:#49C0F5;"
   d="M68.01,24.93c-1.18,0.87-0.72,2.75,1.37,5.56c2.04,2.75,3.48,4.58,4.96,3.52  c1.6-1.15,0.39-3.27-1.51-5.88S69.59,23.77,68.01,24.93z"
   id="path17361" />
<path
   style="fill:#A681CB;"
   d="M77.79,52.03c-1.09,2.59-2.72,5.74-0.53,6.41c2.32,0.7,2.99-2.53,4.19-5.07  c1.2-2.53,1.72-4.34,0.21-5.07C79.76,47.38,78.92,49.35,77.79,52.03z"
   id="path17363" />
<path
   style="fill:#ED4889;"
   d="M45.06,41.82c-1.27,2.6-2.35,5.04-0.63,5.84c1.97,0.92,2.89-0.7,4.26-3.63  c1.22-2.59,2.15-4.75,0.53-5.46C47.12,37.67,46.15,39.58,45.06,41.82z"
   id="path17365" />
<path
   style="fill:#72E38D;"
   d="M42.88,55.27c-1.55,1.55,0.07,3.17,1.76,4.58c1.69,1.41,4.22,3.1,5.56,1.62  c1.5-1.66-1.48-3.21-3.06-4.5C45.16,55.34,44.22,53.92,42.88,55.27z"
   id="path17367" />
<path
   style="fill:#72E38D;"
   d="M68.78,7.54c-2.11-0.21-2.04,3.1-1.97,5s0,4.01,1.9,4.08c1.97,0.07,1.83-2.53,1.76-4.58  C70.4,10,70.82,7.74,68.78,7.54z"
   id="path17369" />
<path
   style="fill:#FD6660;"
   d="M77.72,27.67c-1.17,0.68-1.13,2.39,0.77,5.56c1.68,2.81,3.24,5,5.07,3.87  c2.21-1.36-0.14-3.59-1.48-5.77S80.04,26.33,77.72,27.67z"
   id="path17371" />
<path
   id="path17373"
   style="fill:#ED4889;"
   d="M 55.078125 23.888672 C 54.469512 23.903496 53.832812 24.026563 53.289062 24.289062 C 51.932677 24.945928 51.072586 26.150106 51.003906 27.166016 C 50.773755 28.390787 50.854404 31.200787 53.679688 32.179688 C 57.059684 33.349686 59.859609 30.429919 59.349609 27.419922 C 59.062324 25.738998 57.931629 24.793713 57.044922 24.326172 C 56.858537 24.200496 56.613816 24.097727 56.332031 24.023438 C 56.160965 23.970514 56.036128 23.94631 55.970703 23.947266 C 55.691121 23.901486 55.388183 23.88112 55.078125 23.888672 z " />
<path
   id="path17375"
   style="fill:#ED4889;"
   d="M 63.974609 46.054688 C 63.472167 46.061167 62.902343 46.161328 62.269531 46.400391 C 61.113064 46.831372 60.296601 47.768254 60.054688 48.732422 C 60.054537 48.733021 60.054837 48.733776 60.054688 48.734375 C 59.645426 49.761011 59.233429 52.437253 61.669922 54.099609 C 64.339919 55.929608 68.219687 53.749059 68.179688 50.539062 C 68.159799 48.742435 67.139416 47.574586 66.388672 46.994141 C 65.969061 46.54397 65.155375 46.039461 63.974609 46.054688 z " />
<path
   id="path17377"
   style="fill:#ED4889;"
   d="M 92.576172 42.550781 C 91.810667 42.543289 90.988359 42.79586 90.380859 43.240234 C 89.598996 43.812153 88.999903 44.793522 88.880859 45.701172 C 88.677874 46.801084 88.756682 49.648257 91.900391 50.349609 C 94.530388 50.939609 97.12078 48.430778 96.300781 45.550781 C 95.65115 43.262951 93.522754 42.605777 93.117188 42.603516 C 92.94256 42.570478 92.761342 42.552594 92.576172 42.550781 z " />
<path
   id="path17379"
   style="fill:#ED4889;"
   d="M 32.150391 42.744141 C 31.526133 42.748008 30.809296 42.919141 30.029297 43.369141 C 29.22358 43.836223 28.687917 44.668089 28.478516 45.476562 C 28.188806 45.916122 27.573174 49.502714 30.699219 50.689453 C 33.699216 51.829452 36.640156 49.0607 36.160156 46.220703 C 35.902111 44.701753 34.913199 43.818293 34.097656 43.361328 C 33.651563 43.032735 32.982734 42.738984 32.150391 42.744141 z " />




</svg>
