<svg id="e38SpjGeb2l1" xmlns="http://www.w3.org/2000/svg" xmlns:xlink="http://www.w3.org/1999/xlink" viewBox="0 0 150 150" shape-rendering="geometricPrecision" text-rendering="geometricPrecision" project-id="991ae64d36004f7e915dd33052d32e97" export-id="bf56904666124f77bbaca95eb793f955" cached="false"><g><path d="M7.851562,142.335938C6.75,114.421875,15.609375,96.304688,32.8125,80.109375L70.242188,118.6875c-16.898438,16.921875-33.28125,25.78125-62.390626,23.648438Zm0,0" fill="#6f8a91"/><path d="M25.82,38.2L46.31,17.71" transform="matrix(2.34375 0 0 2.34375 0 0)" fill="none" stroke="#63452c" stroke-width="5"/><path d="M22.89,38.57L45.15,16.32" transform="matrix(2.34375 0 0 2.34375 0 0)" fill="none" stroke="#865e3c" stroke-width="4"/><path d="M41.507812,95.53125l14.53125-14.671875l6.375,6.515625-14.367187,16.945312-6.539063-8.789062Zm0,0" transform="translate(.000001 0)" fill="#6f8a91"/><path d="M23.460938,124.195312L62.390625,87.375L67.125,92.484375L41.953125,116.34375l-18.492187,7.851562Zm0,0" fill="#53676c"/><path d="M45.42,19.25l4.22-4.16" transform="matrix(2.34375 0 0 2.34375 0.000001 0)" fill="none" stroke="#53676c" stroke-width="4"/><path d="M43.85,17.65l4.22-4.16" transform="matrix(2.34375 0 0 2.34375 0 0)" fill="none" stroke="#6f8a91" stroke-width="4"/><path d="M51.23,3.88c-2.67,2.41-5.57,7.46-2.12,11.1c3.72,3.93,9.58,1.22,12.12-2.09" transform="matrix(2.34375 0 0 2.34375 0-.000001)" fill="none" stroke="#53676c" stroke-width="2"/><path d="M50.04,4.04l9.57,8.89" transform="matrix(2.34375 0 0 2.34375 0 0)" fill="none" stroke="#63452c" stroke-width="2"/><path d="M49.68,4.4l9.57,8.89" transform="matrix(2.34375 0 0 2.34375 0 0.000001)" fill="none" stroke="#865e3c" stroke-width="2"/><path d="M50.3,2.91c-2.67,2.41-5.48,7.68-2.03,11.32c3.72,3.93,9.49,1.31,12.03-2" transform="matrix(2.34375 0 0 2.34375 0.000001 0)" fill="none" stroke="#6f8a91"/></g></svg>
