<?xml version="1.0" encoding="UTF-8" standalone="no"?>
<svg
   width="128"
   height="128"
   style="enable-background:new 0 0 128 128;"
   version="1.1"
   id="svg4700"
   sodipodi:docname="emoji_u1f92e.svg"
   xml:space="preserve"
   inkscape:version="1.2.2 (732a01da63, 2022-12-09)"
   xmlns:inkscape="http://www.inkscape.org/namespaces/inkscape"
   xmlns:sodipodi="http://sodipodi.sourceforge.net/DTD/sodipodi-0.dtd"
   xmlns:xlink="http://www.w3.org/1999/xlink"
   xmlns="http://www.w3.org/2000/svg"
   xmlns:svg="http://www.w3.org/2000/svg"><defs
     id="defs4704"><linearGradient
       inkscape:collect="always"
       id="linearGradient8847"><stop
         style="stop-color:#618c26;stop-opacity:1;"
         offset="0"
         id="stop8843" /><stop
         style="stop-color:#8da12b;stop-opacity:1;"
         offset="1"
         id="stop8845" /></linearGradient><linearGradient
       inkscape:collect="always"
       id="linearGradient6940"><stop
         style="stop-color:#b1c937;stop-opacity:1;"
         offset="0"
         id="stop6936" /><stop
         style="stop-color:#4aa12b;stop-opacity:1;"
         offset="1"
         id="stop6938" /></linearGradient><linearGradient
       inkscape:collect="always"
       xlink:href="#linearGradient6940"
       id="linearGradient6942"
       x1="73.311234"
       y1="117.78163"
       x2="73.311234"
       y2="30.588219"
       gradientUnits="userSpaceOnUse" /><linearGradient
       inkscape:collect="always"
       xlink:href="#linearGradient8847"
       id="linearGradient7011"
       x1="81.371094"
       y1="114.83617"
       x2="81.371094"
       y2="82.445076"
       gradientUnits="userSpaceOnUse" /></defs><sodipodi:namedview
     id="namedview4702"
     pagecolor="#ffffff"
     bordercolor="#000000"
     borderopacity="0.25"
     inkscape:showpageshadow="2"
     inkscape:pageopacity="0.0"
     inkscape:pagecheckerboard="0"
     inkscape:deskcolor="#d1d1d1"
     showgrid="false"
     inkscape:zoom="2.1210937"
     inkscape:cx="21.922652"
     inkscape:cy="114.56354"
     inkscape:window-width="1366"
     inkscape:window-height="697"
     inkscape:window-x="-8"
     inkscape:window-y="-8"
     inkscape:window-maximized="1"
     inkscape:current-layer="svg4700" /><path
     d="M64.22,9.62c-62.41,0-63.88,69.96-63.88,83.8c0,13.86,28.59,25.08,63.88,25.08 c35.28,0,63.88-11.22,63.88-25.08C128.1,79.58,126.62,9.62,64.22,9.62z"
     style="fill:#FCC21B;"
     id="path4688" /><g
     id="g4694"
     transform="translate(0,-9.0830402)"><path
       d="m 98.98,61.36 c -0.4,1.17 -1.54,1.86 -2.72,1.76 -0.21,-0.02 -0.42,-0.06 -0.63,-0.13 -8.11,-2.79 -18.7,-1.77 -18.79,-1.76 -1.21,0.12 -2.3,-0.58 -2.73,-1.68 -0.43,-1.11 -0.04,-2.37 0.91,-3.07 8.51,-6.17 21,-9.13 21.52,-9.24 1.43,-0.33 2.84,0.55 3.17,1.97 0.32,1.41 -0.56,2.83 -1.97,3.16 -0.07,0.01 -5.19,1.22 -10.85,3.61 3.28,0.19 7.04,0.87 10.45,2.03 1.38,0.48 2.11,1.98 1.64,3.35 z"
       style="fill:#2f2f2f"
       id="path4690" /><path
       d="m 29.44,61.36 c 0.4,1.17 1.54,1.86 2.72,1.76 0.21,-0.02 0.42,-0.06 0.63,-0.13 8.11,-2.79 18.7,-1.77 18.79,-1.76 1.21,0.12 2.3,-0.58 2.73,-1.68 0.43,-1.11 0.04,-2.37 -0.91,-3.07 -8.51,-6.17 -21,-9.13 -21.52,-9.24 -1.43,-0.33 -2.84,0.55 -3.17,1.97 -0.32,1.41 0.56,2.83 1.97,3.16 0.07,0.01 5.19,1.22 10.85,3.61 -3.28,0.19 -7.04,0.87 -10.45,2.03 -1.39,0.48 -2.12,1.98 -1.64,3.35 z"
       style="fill:#2f2f2f"
       id="path4692" /></g><path
     d="m 63.790006,58.854648 c -32.052141,0 -39.811339,21.569501 -39.811339,29.465794 0,7.896295 8.001859,14.294018 17.879155,14.294018 9.877297,0 13.138469,-4.476485 21.932181,-4.476485 8.793711,0 12.054885,4.476485 21.932179,4.476485 9.877295,0 17.879148,-6.407331 17.879148,-14.303625 0,-7.886686 -7.759183,-29.456187 -39.811324,-29.456187 z"
     style="fill:#ed6c30;stroke-width:0.840912"
     id="path4698"
     sodipodi:nodetypes="zsssssz" /><path
     style="font-variation-settings:'opsz' 12, 'wght' 400;fill:url(#linearGradient6942);fill-opacity:1;stroke-width:5.66929;stroke-linecap:round"
     d="m 31.798687,90.482804 v 12.765816 c 0,12.49356 -27.2941249,0.84036 -27.2941249,14.0411 0,10.80793 26.3512149,10.71028 66.4248799,10.71028 40.073658,0 52.565998,2.47453 52.565998,-9.37047 0,-11.845 -26.871707,-2.88736 -26.871707,-14.438 V 89.775622 c 0,-12.257827 -8.607735,-19.200737 -31.473297,-19.200737 -22.865561,0 -33.351749,6.707182 -33.351749,19.907919 z"
     id="path4877"
     sodipodi:nodetypes="sssssssss" /><path
     id="path6996"
     style="font-variation-settings:'opsz' 12, 'wght' 400;mix-blend-mode:normal;fill:url(#linearGradient7011);fill-opacity:1;stroke-width:5.66929;stroke-linecap:round"
     d="m 54.496094,83.806641 a 5.0005341,7.5841436 0 0 0 -5,7.583984 5.0005341,7.5841436 0 0 0 5,7.583984 5.0005341,7.5841436 0 0 0 5,-7.583984 5.0005341,7.5841436 0 0 0 -5,-7.583984 z m 21.873047,17.189449 a 5.0005341,7.5841436 0 0 0 -5,7.58399 5.0005341,7.5841436 0 0 0 5,7.58398 5.0005341,7.5841436 0 0 0 5.001953,-7.58398 5.0005341,7.5841436 0 0 0 -5.001953,-7.58399 z" /></svg>
