<?xml version="1.0" encoding="UTF-8" standalone="no"?>
<!-- Generator: Adobe Illustrator 25.2.3, SVG Export Plug-In . SVG Version: 6.00 Build 0)  -->

<svg
   version="1.1"
   id="Layer_3"
   x="0px"
   y="0px"
   viewBox="0 0 128 128"
   style="enable-background:new 0 0 128 128;"
   xml:space="preserve"
   sodipodi:docname="emoji_u1f966.svg"
   inkscape:version="1.2.2 (732a01da63, 2022-12-09)"
   xmlns:inkscape="http://www.inkscape.org/namespaces/inkscape"
   xmlns:sodipodi="http://sodipodi.sourceforge.net/DTD/sodipodi-0.dtd"
   xmlns="http://www.w3.org/2000/svg"
   xmlns:svg="http://www.w3.org/2000/svg"><defs
   id="defs4656" /><sodipodi:namedview
   id="namedview4654"
   pagecolor="#ffffff"
   bordercolor="#000000"
   borderopacity="0.25"
   inkscape:showpageshadow="2"
   inkscape:pageopacity="0.0"
   inkscape:pagecheckerboard="0"
   inkscape:deskcolor="#d1d1d1"
   showgrid="false"
   showguides="true"
   inkscape:zoom="1.4998398"
   inkscape:cx="20.002137"
   inkscape:cy="144.68212"
   inkscape:window-width="1366"
   inkscape:window-height="697"
   inkscape:window-x="-8"
   inkscape:window-y="-8"
   inkscape:window-maximized="1"
   inkscape:current-layer="Layer_3" />
<path
   id="path4629"
   style="fill:#709921;fill-opacity:1"
   d="M 75.544922 3.1074219 C 74.063517 3.1047656 72.380467 3.3271881 70.480469 3.9296875 C 62.880476 6.3396851 62.879998 13.259219 61.25 13.449219 C 59.620002 13.639219 60.190541 10.849216 54.810547 8.4492188 C 52.18055 7.2792199 47.990234 7.9707031 47.990234 7.9707031 C 47.990234 7.9707031 46.749915 3.8493745 39.919922 3.359375 C 33.089929 2.8693755 28 8.4492188 28 8.4492188 C 28 8.4492188 15.600305 5.6604031 7.8203125 18.150391 C -0.78444864 31.961982 8.5667581 41.016345 8.578125 41.027344 L 8.5761719 41.03125 C 8.5649622 41.03524 6.9567437 41.614801 5.8007812 45.830078 C 4.6407824 50.060074 6.4707031 53.519531 6.4707031 53.519531 C 6.4707031 53.519531 6.503482 53.511817 6.5039062 53.511719 C 7.8357159 56.410084 9.6894531 56.669922 9.6894531 56.669922 C 9.6894531 56.669922 9.5000025 60.909535 12 64.519531 C 14.499997 68.129528 15.68954 69.839847 24.769531 72.589844 C 33.849522 75.339841 50.230469 78.429688 50.230469 78.429688 L 54.449219 94.810547 C 54.449219 94.810547 55.57938 98.860705 60.609375 100.9707 C 65.63937 103.0807 69.570312 102.5293 69.570312 102.5293 C 69.570312 102.5293 71.650554 108.28086 78.560547 109.88086 C 84.540541 111.27086 89.310547 108.25977 89.310547 108.25977 C 89.310547 108.25977 94.340319 111.34086 100.82031 109.88086 C 108.3403 108.19086 110.06055 103.56055 110.06055 103.56055 C 110.06055 103.56055 116.21954 102.91031 120.26953 97.070312 C 124.31953 91.230318 121.40039 84.589844 121.40039 84.589844 C 121.40039 84.589844 124.99023 79.270228 123.99023 73.240234 C 123.09264 67.794824 120.93537 65.93375 120.92383 65.923828 C 120.92839 65.923421 120.96094 65.919922 120.96094 65.919922 C 120.96094 65.919922 118.07086 62.840388 115.38086 60.150391 C 114.09028 58.859813 112.75944 57.277151 107.94531 56.855469 C 107.96411 56.847697 113.45373 54.572713 115.40039 44.859375 C 117.35039 35.129385 112.48047 30.269531 112.48047 30.269531 C 112.48047 30.269531 114.38968 24.78062 111.17969 19.890625 C 108.10453 15.198017 103.73294 17.452338 101.61914 15.359375 C 101.61743 15.357564 101.61694 15.355326 101.61523 15.353516 C 101.61354 15.351831 101.61107 15.351299 101.60938 15.349609 C 100.07945 13.724088 100.08017 12.306286 99.800781 11.039062 C 99.560781 9.9890635 98.44976 6.5506233 93.259766 4.890625 C 87.489771 3.0506268 85.469842 4.9800782 83.839844 5.0800781 C 82.617345 5.1550781 79.989136 3.1153906 75.544922 3.1074219 z " />


<path
   id="path4635"
   style="fill:#b7d118;fill-opacity:1"
   d="M 63.783203 50.285156 C 62.731935 50.285156 62.310547 50.519531 62.310547 50.519531 C 62.310547 50.519531 54.970779 60.3893 52.800781 63.279297 C 50.923437 65.779539 47.517639 70.796123 44.140625 72.804688 C 43.798298 72.465302 43.446214 71.977583 43.160156 71.230469 C 42.560157 69.67047 42.319843 64.970855 41.839844 60.880859 C 41.539844 58.320862 41.359375 55.339844 41.359375 55.339844 C 41.359375 55.339844 37.870076 53.779531 35.580078 54.019531 C 35.580077 54.019519 35.580078 54.009766 35.580078 54.009766 C 35.580078 54.009766 31.729295 54.250704 30.279297 54.970703 C 28.829298 55.690702 27.270156 56.549767 26.910156 57.509766 C 26.550157 58.469765 27.150391 62.810084 27.150391 68.580078 C 27.150391 74.350072 26.819528 79.700628 24.019531 83.140625 C 20.409535 87.590621 14.270073 93.850551 9.5800781 98.060547 C 7.5500802 99.880545 6.2098436 100.59031 6.0898438 101.07031 C 5.9698439 101.55031 6.9603916 105.93055 7.9003906 107.81055 C 9.5341506 111.07807 12.413589 113.98944 12.640625 114.2168 C 13.588346 115.38727 14.679859 116.60862 15.720703 117.46094 C 16.394364 118.01258 17.175745 118.63239 18.009766 119.26367 C 18.239177 119.48507 18.757205 119.96248 19.820312 120.68945 C 20.71468 121.30806 21.320538 121.62531 21.644531 121.78711 C 23.008096 122.63442 24.32665 123.31832 25.400391 123.60938 C 28.360388 124.40937 30.639065 125.29078 33.289062 121.80078 C 35.93906 118.31078 37.980945 113.73929 45.210938 106.0293 C 52.44093 98.319305 57.610865 93.629372 63.380859 90.859375 C 69.150854 88.089378 77.460862 86.169687 79.630859 85.929688 C 81.800857 85.689688 84.560547 85.449219 84.560547 85.449219 C 84.560547 85.449219 86.190624 82.160779 85.640625 79.550781 C 85.638652 79.541368 85.634858 79.532817 85.632812 79.523438 L 85.650391 79.519531 C 85.650391 79.519531 84.689843 76.150936 84.089844 74.710938 C 83.489844 73.270939 82.160156 71.580078 82.160156 71.580078 C 82.160156 71.580078 71.090154 74.470313 69.160156 75.070312 C 68.239688 75.356468 65.264997 75.802894 62.355469 76.066406 C 62.379654 75.550393 62.545901 74.929236 63.019531 74.25 C 64.13953 72.640002 69.280705 66.420857 70.970703 64.130859 C 72.660701 61.840862 76.089531 57.399687 76.019531 56.679688 C 75.90005 55.365395 72.802557 53.688793 71.828125 53.082031 C 71.828483 53.081531 71.859375 53.039062 71.859375 53.039062 C 71.859375 53.039062 69.410388 51.360624 66.400391 50.640625 C 65.271642 50.370625 64.413964 50.285156 63.783203 50.285156 z " />








</svg>
