<?xml version="1.0" encoding="UTF-8" standalone="no"?>
<svg
   width="128"
   height="128"
   version="1.1"
   id="svg32049"
   sodipodi:docname="emoji_u1f9e6.svg"
   inkscape:version="1.2.2 (732a01da63, 2022-12-09)"
   xmlns:inkscape="http://www.inkscape.org/namespaces/inkscape"
   xmlns:sodipodi="http://sodipodi.sourceforge.net/DTD/sodipodi-0.dtd"
   xmlns:xlink="http://www.w3.org/1999/xlink"
   xmlns="http://www.w3.org/2000/svg"
   xmlns:svg="http://www.w3.org/2000/svg">
  <sodipodi:namedview
     id="namedview32051"
     pagecolor="#ffffff"
     bordercolor="#000000"
     borderopacity="0.25"
     inkscape:showpageshadow="2"
     inkscape:pageopacity="0.0"
     inkscape:pagecheckerboard="0"
     inkscape:deskcolor="#d1d1d1"
     showgrid="false"
     inkscape:zoom="2.8284271"
     inkscape:cx="92.630988"
     inkscape:cy="61.51829"
     inkscape:window-width="1366"
     inkscape:window-height="697"
     inkscape:window-x="-8"
     inkscape:window-y="-8"
     inkscape:window-maximized="1"
     inkscape:current-layer="svg32049" />
  <linearGradient
     id="a"
     gradientTransform="rotate(12.472 51.024 66.974)"
     gradientUnits="userSpaceOnUse"
     x1="36.532"
     x2="79.042"
     y1="60.028"
     y2="57.085">
    <stop
       offset=".461"
       stop-color="#ffb300"
       id="stop31993" />
  </linearGradient>
  <path
     d="M77.8 55.41c.85-3.85 2.02-9.87 3.58-16.19s5.87-22.83 5.87-22.83L54.21 9.07s-6.25 32.73-8.78 44.17c-1.36 6.14-16.2 13.22-31.7 21.79-18.96 10.49-4.56 27.87 7.01 29.76 5.69.93 11-.82 15.26-4.35l16.24-11.62c3.63-2.54 8.41-4.29 12.85-5 6.52-1.05 13.08-5.53 14.54-12.15 1.82-8.15-2.68-12.41-1.83-16.26z"
     fill="url(#a)"
     id="path31996"
     style="fill:#ffb300;fill-opacity:1" />
  <defs
     id="defs31999">
    <path
       id="b"
       d="M77.8 55.41c.85-3.85 2.02-9.87 3.58-16.19s5.87-22.83 5.87-22.83L54.21 9.07s-6.25 32.73-8.78 44.17c-1.36 6.14-15.39 14.03-31.7 21.79-20.08 9.55-4.82 29.6 7.49 30.62 5.74.47 10.52-1.69 14.78-5.21l16.24-11.62c3.63-2.54 8.41-4.29 12.85-5 6.52-1.05 13.08-5.53 14.54-12.15 1.82-8.15-2.68-12.41-1.83-16.26z" />
    <linearGradient
       id="d"
       gradientTransform="rotate(-15.334,82.852,67.52)"
       gradientUnits="userSpaceOnUse"
       x1="79.591"
       x2="122.102"
       y1="69.455"
       y2="66.512">
      <stop
         offset=".461"
         stop-color="#ffb300"
         id="stop32020" />
    </linearGradient>
    <defs
       id="defs32026">
      <path
         id="e"
         d="M114.32 50.39c-1.04-3.81-2.82-9.67-4.39-16s-5.45-22.94-5.45-22.94L71.84 20.4s9.74 31.86 12.84 43.16c1.66 6.06-7.06 19.59-17.87 34.06-13.31 17.82 9.55 28.43 20.91 23.59 5.3-2.26 8.52-6.4 10.64-11.51l8.95-17.86c2.02-3.94 5.44-7.71 9.04-10.42 5.28-3.97 8.99-10.99 7.2-17.53-2.21-8.03-8.18-9.69-9.23-13.5z" />
    </defs>
    <clipPath
       id="f">
      <use
         xlink:href="#e"
         overflow="visible"
         id="use32028" />
    </clipPath>
    <linearGradient
       id="linearGradient32616"
       gradientTransform="rotate(12.472,51.024,66.974)"
       gradientUnits="userSpaceOnUse"
       x1="36.532001"
       x2="79.042"
       y1="60.028"
       y2="57.084999">
      <stop
         offset=".461"
         stop-color="#ffb300"
         id="stop31993-5" />
    </linearGradient>
  </defs>
  <clipPath
     id="c">
    <use
       xlink:href="#b"
       overflow="visible"
       id="use32001" />
  </clipPath>
  <path
     d="M38.91 100.35s-15.12 22.56-26.66 22.04c-14.38-.64-29.35-15.06-25.57-29.15 2.88-10.75 26.94-18.81 26.94-18.81s-2.12 6.03 6.36 16.01c8.64 10.17 18.93 9.91 18.93 9.91z"
     clip-path="url(#c)"
     fill="#f57c00"
     id="path32004" />
  <path
     id="ellipse32006"
     clip-path="url(#c)"
     d="M 76.956344 58.74597 A 17.98 18.690001 0 0 0 59.339238 77.409742 A 17.98 18.690001 0 0 0 60.400816 83.599402 C 61.230054 83.439352 62.056992 83.301455 62.869732 83.20809 C 69.429746 82.447152 76.182296 78.260977 77.933323 71.711945 C 79.513145 65.865119 77.693212 61.927792 76.956344 58.74597 z "
     transform="rotate(-2.532,77.831315,33.28421)"
     style="fill:#f57c00;fill-opacity:1" />
  <path
     d="M82.77 32.71l-31.08-6.87c-1.56-.35-2.49-2.19-2.06-4.11l2.92-13.21c.43-1.92 2.04-3.2 3.6-2.86l31.08 6.87c1.56.35 2.49 2.19 2.06 4.11l-2.92 13.21c-.42 1.93-2.03 3.21-3.6 2.86z"
     fill="#f57c00"
     id="path32010" />
  <g
     fill="#fbc02d"
     id="g32014">
    <path
       d="M57.99 22.53l-.29-.06a1.792 1.792 0 0 1-1.36-2.13l1.72-7.78c.21-.96 1.17-1.57 2.13-1.36l.29.06c.96.21 1.57 1.17 1.36 2.13l-1.72 7.78c-.22.96-1.17 1.57-2.13 1.36zM64.91 24.06l-.29-.06a1.792 1.792 0 0 1-1.36-2.13l1.72-7.78c.21-.96 1.17-1.57 2.13-1.36l.29.06c.96.21 1.57 1.17 1.36 2.13l-1.72 7.78c-.22.96-1.17 1.57-2.13 1.36zM71.83 25.59l-.29-.06a1.792 1.792 0 0 1-1.36-2.13l1.72-7.78c.21-.96 1.17-1.57 2.13-1.36l.29.06c.96.21 1.57 1.17 1.36 2.13l-1.72 7.78c-.21.96-1.16 1.57-2.13 1.36zM78.76 27.12l-.29-.06a1.792 1.792 0 0 1-1.36-2.13l1.72-7.78c.21-.96 1.17-1.57 2.13-1.36l.29.06c.96.21 1.57 1.17 1.36 2.13l-1.72 7.78c-.22.96-1.17 1.57-2.13 1.36z"
       id="path32012" />
  </g>
  <path
     id="path33785"
     style="opacity:0.2;fill:#000000;fill-opacity:1"
     d="M 82.691406 15.380859 L 69.570312 18.980469 C 68.030318 19.410466 67.198751 21.289459 67.71875 23.189453 L 71.298828 36.240234 C 71.738338 37.846141 73.000645 38.940238 74.316406 38.988281 C 75.700809 43.579404 77.07566 48.19903 78.388672 52.646484 C 79.176499 48.919429 80.121608 44.322287 81.380859 39.220703 C 82.940858 32.900709 87.25 16.390625 87.25 16.390625 L 82.691406 15.380859 z " />
  <path
     d="m 114.32,50.39 c -1.04,-3.81 -2.82,-9.67 -4.39,-16 -1.57,-6.33 -5.45,-22.94 -5.45,-22.94 L 71.84,20.4 c 0,0 9.74,31.86 12.84,43.16 1.66,6.06 -8.16,19.25 -17.87,34.06 -11.88,18.12 8.97,26.78 20.09,23.05 5.47,-1.84 9.34,-5.86 11.47,-10.97 l 8.95,-17.86 c 2.02,-3.94 5.44,-7.71 9.04,-10.42 5.28,-3.97 8.99,-10.99 7.2,-17.53 -2.22,-8.03 -8.19,-9.69 -9.24,-13.5 z"
     fill="url(#d)"
     id="path32023"
     style="fill:#ffb300;stroke:none;fill-opacity:1" />
  <path
     d="m 100.89,108.29 c 0,0 -2.85,27.01 -13.3,31.94 -13.02,6.14 -32.99,0.37 -36.22,-13.86 -2.47,-10.85 15.05,-29.2 15.05,-29.2 0,0 0.94,6.33 13.1,11.2 12.39,4.95 21.37,-0.08 21.37,-0.08 z"
     clip-path="url(#f)"
     fill="#f57c00"
     id="path32031"
     style="stroke:none" />
  <path
     id="ellipse32033"
     clip-path="url(#f)"
     style="stroke:none;fill:#f57c00;fill-opacity:1"
     d="M 116.15031 53.853699 A 18.690001 17.98 0 0 0 105.46948 70.079486 A 18.690001 17.98 0 0 0 110.66734 82.461223 C 116.39452 79.824729 121.26322 74.302157 121.26624 67.885804 C 121.25091 60.577651 117.15906 57.232391 116.15031 53.853699 z "
     transform="rotate(-15.334,107.57454,57.366723)" />
  <path
     d="M 108.13,27.99 77.44,36.41 C 75.89,36.83 74.22,35.64 73.7,33.74 L 70.12,20.69 c -0.52,-1.9 0.31,-3.78 1.85,-4.21 l 30.69,-8.42 c 1.55,-0.42 3.22,0.77 3.74,2.67 l 3.58,13.05 c 0.53,1.91 -0.31,3.79 -1.85,4.21 z"
     fill="#f57c00"
     id="path32037"
     style="stroke:none" />
  <g
     fill="#fbc02d"
     id="g32041"
     style="stroke:none">
    <path
       d="m 81.45,30.55 -0.29,0.08 c -0.95,0.26 -1.93,-0.3 -2.19,-1.25 L 76.86,21.7 c -0.26,-0.95 0.3,-1.93 1.25,-2.19 l 0.29,-0.08 c 0.95,-0.26 1.93,0.3 2.19,1.25 l 2.11,7.68 c 0.26,0.95 -0.3,1.93 -1.25,2.19 z M 88.29,28.67 88,28.75 c -0.95,0.26 -1.93,-0.3 -2.19,-1.25 L 83.7,19.82 c -0.26,-0.95 0.3,-1.93 1.25,-2.19 l 0.29,-0.08 c 0.95,-0.26 1.93,0.3 2.19,1.25 l 2.11,7.68 c 0.26,0.95 -0.3,1.93 -1.25,2.19 z m 6.84,-1.87 -0.29,0.08 c -0.95,0.26 -1.93,-0.3 -2.19,-1.25 l -2.11,-7.68 c -0.26,-0.95 0.3,-1.93 1.25,-2.19 l 0.29,-0.08 c 0.95,-0.26 1.93,0.3 2.19,1.25 l 2.11,7.68 c 0.26,0.94 -0.3,1.93 -1.25,2.19 z m 6.84,-1.88 -0.29,0.08 c -0.95,0.26 -1.93,-0.3 -2.19,-1.25 l -2.11,-7.68 c -0.26,-0.95 0.3,-1.93 1.25,-2.19 l 0.29,-0.08 c 0.95,-0.26 1.93,0.3 2.19,1.25 l 2.11,7.68 c 0.26,0.95 -0.3,1.93 -1.25,2.19 z"
       id="path32039"
       style="stroke:none" />
  </g>
</svg>
