<?xml version="1.0" encoding="UTF-8" standalone="no"?>
<!-- Generator: Adobe Illustrator 24.1.2, SVG Export Plug-In . SVG Version: 6.00 Build 0)  -->

<svg
   version="1.1"
   id="Layer_3"
   x="0px"
   y="0px"
   viewBox="0 0 128 128"
   style="enable-background:new 0 0 128 128;"
   xml:space="preserve"
   sodipodi:docname="emoji_u1f997.svg"
   inkscape:version="1.2.2 (732a01da63, 2022-12-09)"
   xmlns:inkscape="http://www.inkscape.org/namespaces/inkscape"
   xmlns:sodipodi="http://sodipodi.sourceforge.net/DTD/sodipodi-0.dtd"
   xmlns="http://www.w3.org/2000/svg"
   xmlns:svg="http://www.w3.org/2000/svg"><defs
   id="defs17414" /><sodipodi:namedview
   id="namedview17412"
   pagecolor="#ffffff"
   bordercolor="#000000"
   borderopacity="0.25"
   inkscape:showpageshadow="2"
   inkscape:pageopacity="0.0"
   inkscape:pagecheckerboard="0"
   inkscape:deskcolor="#d1d1d1"
   showgrid="false"
   inkscape:zoom="8.484375"
   inkscape:cx="36.773481"
   inkscape:cy="75.668508"
   inkscape:window-width="1366"
   inkscape:window-height="697"
   inkscape:window-x="-8"
   inkscape:window-y="-8"
   inkscape:window-maximized="1"
   inkscape:current-layer="Layer_3" />
<path
   style="fill:#8bc34a;fill-opacity:1"
   d="M53.11,72.74c0,0,6.51-9.54,8.63-12.61c3.05-4.4,7.73-10.13,9.53-12.38S76,41.22,79,41.37  c3,0.15,3.84,3.18,4.13,4.43c0.53,2.25,2.7,10.96,3.9,17.86c1.2,6.9,3.15,18.76,3.15,18.76l-5.33-1.88c0,0-4.4-16.68-5.25-20.86  c-1-4.9-0.58-6.4-1.2-7.2c-0.61-0.78-4.41,7.27-6,10.06c-3.6,6.3-6.68,11.03-6.68,11.03L53.11,72.74z"
   id="path17349" />
<g
   id="g17353"
   style="fill:#689f38;fill-opacity:1">
	<path
   style="fill:#689f38;fill-opacity:1"
   d="M25.86,63.3c-0.47,0-0.89-0.31-1.03-0.78c-0.03-0.1-2.93-10.23-11.58-23.57   c-5.31-8.2-12.1-15.07-12.17-15.14c-0.41-0.42-0.41-1.09,0.01-1.51c0.42-0.41,1.09-0.41,1.51,0.01c0.07,0.07,7.01,7.1,12.45,15.48   c8.84,13.64,11.72,23.74,11.84,24.16c0.16,0.57-0.17,1.15-0.74,1.31C26.06,63.29,25.96,63.3,25.86,63.3z"
   id="path17351" />
</g>
<g
   id="g17357"
   style="fill:#689f38;fill-opacity:1">
	<path
   style="fill:#689f38;fill-opacity:1"
   d="M30.67,63c-0.55,0-1.01-0.42-1.06-0.98c-0.01-0.08-0.75-8.61-2.54-18.05   c-1.61-8.51-5.02-17.44-5.05-17.53c-0.21-0.55,0.06-1.17,0.61-1.38c0.55-0.21,1.17,0.06,1.38,0.61c0.03,0.09,3.51,9.2,5.16,17.89   c1.81,9.56,2.56,18.18,2.57,18.27c0.05,0.59-0.39,1.1-0.97,1.15C30.73,63,30.7,63,30.67,63z"
   id="path17355" />
</g>
<path
   style="fill:#558b2f;fill-opacity:1"
   d="M47.18,73.79l7.05-3c0,0,3.3-0.9,8.86-1.65c5.55-0.75,10.66-0.6,10.66-0.6l-1.35,4.8  c0,0,14.56,2.55,20.41,4.05c5.85,1.5,10.36,4.8,10.36,4.8s4.63-0.65,7.65-1.95c4.35-1.88,9.98-6.3,9.76-5.18  c-0.24,1.19-1.95,2.78-2.85,3.68c-0.9,0.9-2.85,2.78-2.85,2.78s1.95-0.23,3.3-0.83c1.35-0.6,4.01-1.92,3.75-1.2  c-0.6,1.65-4.2,4.73-7.65,5.93c-3.45,1.2-9.01,2.18-9.01,2.18s0.04,2.64-2.4,5.85c-2.85,3.75-12.76,8.41-24.32,7.65  C66.99,100.36,50,96.96,44.1,91.06c-3-3-5.4-3.6-5.4-3.6s-3.3,5.4-9.98,5.55c-4.95,0.11-10.73-6.15-11.33-12.08  C16.61,73.32,47.18,73.79,47.18,73.79z"
   id="path17359" />
<path
   style="fill:#33691e;fill-opacity:1"
   d="M37.12,84.15c0,0,0.83,3.08,4.35,5.7s11.08-2.66,12.76-11.11c1.35-6.8,0.15-8,0.15-8  s-2.85-4.15-9.83-5.43c-4.32-0.79-7.65,0.08-7.65,0.08L37.12,84.15z"
   id="path17361" />
<path
   style="fill:#33691e;fill-opacity:1"
   d="M74.57,69.59c-0.38,1.06-3.03,7.67-6.9,10.28c-3.9,2.63-8.26,3.98-12.68,3.9  c-4.43-0.08-5.03-1.73-5.03-1.73l1.43-0.38c0,0,6.7,0.05,10.91-1.83s6.58-3.62,8.61-6.5c1.43-2.03,2.1-3.6,2.7-4.58  C74,68.11,74.95,68.54,74.57,69.59z"
   id="path17363" />
<path
   style="fill:#8bc34a;fill-opacity:1"
   d="M24.48,91.69c0,0,1.35,0.75,2.63,1.05c1.28,0.3,2.89,0.11,2.89,0.11s-3.83,5.7-4.88,7.35  s-3.38,4.04-4.88,4.49c-1.1,0.33-3.96,0.34-5.7,0.23c-2.25-0.15-5.18-0.3-5.4-1.65c-0.13-0.77,0.2-3.26,3.83-3.45  c2.85-0.15,4.58,1.65,5.03,1.2C19.04,99.96,24.48,91.69,24.48,91.69z"
   id="path17365" />
<path
   style="fill:#040000;"
   d="M16.93,69.29c-1.2-1.58-4.35-1.28-4.35,2.4c0,4.13,1.99,5.37,3.3,5.85c1.43,0.53,1.65-5.48,1.65-5.48  S18.13,70.87,16.93,69.29z"
   id="path17367" />
<path
   style="fill:#f4ff81;fill-opacity:1"
   d="M28.12,58.49c-1.8,0-7.98,0.37-11.18,5.93c-2.55,4.43-2.07,10.96-1.35,14.71  c0.75,3.9,3.94,12.45,12.83,12.38c9.98-0.08,18.29-19.6,8.93-29.64C34.27,58.56,29.92,58.49,28.12,58.49z"
   id="path17369" />
<path
   style="fill:#020200;"
   d="M32.8,70.34c-1.79-1.96-6.5-1.78-7.88,2.6c-1.01,3.19,0.81,7.46,4.03,7.46  C32.8,80.4,36.32,74.19,32.8,70.34z"
   id="path17371" />

<path
   style="fill:#689f38;fill-opacity:1"
   d="M44.63,85.5c-2.07-1.18-4.8-0.98-6.9,3.08c-2.1,4.05-6.23,13.88-7.43,16.36  c-1.2,2.48-3.73,7.16-4.5,7.49c-0.53,0.23-1.43-1.95-5.4-1.58c-3.98,0.38-6.08,4.8-4.8,5.33c1.28,0.53,4.05,0.6,7.05,0.53  c2.7-0.07,5.93-0.3,6.83-0.98c0.9-0.68,4.53-5.2,6.6-8.61c3.15-5.18,6.68-11.26,8.33-14.48C45.27,90.92,47.25,87,44.63,85.5z"
   id="path17375" />
<path
   style="fill:#689f38;fill-opacity:1"
   d="M55.38,93.36c1.34,2,4.43,3.93,13.81-1.8c10.03-6.13,22.66-25.54,23.61-26.77  c1.35-1.73,2.44-3.45,2.85-3c0.55,0.6,0.53,3.68,1.58,7.05c0.87,2.78,6.55,20.38,7.23,22.56c1.25,4,4.46,15.81,5.53,17.02  c1.2,1.35,4.65,0.68,7.08,1.38c2.07,0.6,5,2,6.2,1.2s0.98-4.6-5.3-6.3c-4.38-1.19-4.53-0.78-4.53-0.78s-10.68-44.71-11.93-49.11  c-1.22-4.3-1.88-4.8-3.15-4.88c-2.71-0.16-11.16,8.96-14.56,12.46S72.17,75.17,61.51,82.8C59.88,83.97,53.18,90.08,55.38,93.36z"
   id="path17377" />









<path
   style="fill:#8bc34a;fill-opacity:1"
   d="M45.38,90.56c0.46,2.54,6.9,1.2,9.41,0.3c2.15-0.77,6-2.7,7.4-2.5c1.4,0.2,7.2,11.01,8.41,13.41  c1.2,2.4,4.5,8.51,5.4,10.16c0.79,1.45,1.7,3.15,3.3,3.65c1.6,0.5,3.15,1.25,4.65,1.83c1.48,0.57,4.38,3.59,6.23,2.03  c1.95-1.65-0.35-4.05-1.35-4.95c-1-0.9-2.17-1.75-4.05-2.4c-2.18-0.75-3.28-1.08-3.68-1.28c-0.4-0.2-7.22-15.17-9.31-19.34  c-1.7-3.4-4.1-8.71-5.6-9.81c-1.5-1.1-12.41,1.3-13.51,1.8s-1.63,1.66-3.9,3.5C47.18,88.25,45.18,89.45,45.38,90.56z"
   id="path17409" />
</svg>
