<?xml version="1.0" encoding="UTF-8" standalone="no"?>
<!-- Generator: Adobe Illustrator 25.2.3, SVG Export Plug-In . SVG Version: 6.00 Build 0)  -->

<svg
   version="1.1"
   id="Layer_3"
   x="0px"
   y="0px"
   viewBox="0 0 128 128"
   style="enable-background:new 0 0 128 128;"
   xml:space="preserve"
   sodipodi:docname="emoji_u1fa92.svg"
   inkscape:version="1.2.2 (732a01da63, 2022-12-09)"
   xmlns:inkscape="http://www.inkscape.org/namespaces/inkscape"
   xmlns:sodipodi="http://sodipodi.sourceforge.net/DTD/sodipodi-0.dtd"
   xmlns="http://www.w3.org/2000/svg"
   xmlns:svg="http://www.w3.org/2000/svg"><defs
   id="defs38696" /><sodipodi:namedview
   id="namedview38694"
   pagecolor="#ffffff"
   bordercolor="#000000"
   borderopacity="0.25"
   inkscape:showpageshadow="2"
   inkscape:pageopacity="0.0"
   inkscape:pagecheckerboard="0"
   inkscape:deskcolor="#d1d1d1"
   showgrid="false"
   inkscape:zoom="4.2421875"
   inkscape:cx="45.966851"
   inkscape:cy="63.410681"
   inkscape:window-width="1366"
   inkscape:window-height="697"
   inkscape:window-x="-8"
   inkscape:window-y="-8"
   inkscape:window-maximized="1"
   inkscape:current-layer="Layer_3" />
<g
   id="g38673">
	<path
   style="fill:#26A69A;"
   d="M17.34,121.34l-4.36-3.35c-3.11-3.01-5.12-7.44-2.86-10.06l42.87-54.89   c0.76-0.86,2.78-2.89,4.73-4.29c10-7.16,21.3-15.42,21.3-15.42l12.44,10.75L69.53,62.29c-1.32,0.81-2.76,2.75-2.76,2.75   l-38.7,56.79C25.77,124.91,20.78,124.68,17.34,121.34z"
   id="path38667" />
	
	<path
   style="fill:#26A69A;"
   d="M97.08,72.05l-44.2-42.67c-2.28-2.21-1.91-6.28,0.82-9.1L67.12,6.49c2.73-2.82,6.79-3.32,9.07-1.11   l44.2,42.67c2.28,2.21,1.91,6.28-0.82,9.1l-13.41,13.79C103.42,73.76,99.36,74.26,97.08,72.05z"
   id="path38671" />
</g>
<g
   id="g38691">
	<path
   id="path38675"
   style="fill:#ffffff;fill-opacity:1"
   d="M 65.810547 17.359375 L 61.019531 22.259766 C 60.439532 22.859765 60.110312 23.61086 60.070312 24.380859 C 60.030313 25.110859 60.28 25.760704 60.75 26.220703 L 99.900391 64.150391 C 100.44039 64.67039 101.08906 64.779297 101.53906 64.779297 C 102.36906 64.779297 103.20961 64.409999 103.84961 63.75 L 108.64062 58.849609 L 65.810547 17.359375 z " />
	<path
   id="path38677"
   style="fill:#ffffff;fill-opacity:1"
   d="M 65.849609 17.060547 L 64.400391 19 C 63.400392 20.039999 63.420939 21.69922 64.460938 22.699219 L 103.39062 60.5 C 103.88062 60.98 104.53094 61.240234 105.21094 61.240234 C 105.93094 61.240234 109.16016 59.25 109.16016 59.25 L 86.787109 37.455078 L 72.660156 23.640625 L 72.650391 23.685547 L 65.849609 17.060547 z " />
	
	
	<g
   id="g38685">
		
			<rect
   x="88.66"
   y="2.48"
   transform="matrix(0.6957 -0.7184 0.7184 0.6957 4.4962 76.5996)"
   style="fill:#BAE2FD;"
   width="7.97"
   height="61.02"
   id="rect38683" />
	</g>
	<path
   style="fill:#424242;"
   d="M105.7,60.08c-1.21,0.13-2.82-1.56-3.78-2.49c-1.9-1.84-32.97-31.86-34.72-33.62   c-1.26-1.27-2.92-2.66-2.26-4.37c0.31-0.8,1.37-2.29,1.43-2.56c0.15-0.62-0.09-0.71-0.48-0.36c-0.27,0.24-1.5,1.55-1.87,1.93   c-1.38,1.43-1.34,3.7,0.08,5.08l38.67,37.45c0.7,0.68,1.69,1.01,2.59,1.01c1.55,0,3.37-2,3.82-2.46c0.91-0.94,0.54-1.48-0.69-0.85   C108.18,59.01,106.95,59.95,105.7,60.08z"
   id="path38687" />
	<path
   style="fill:#424242;"
   d="M101.84,63.86c-1.21,0.08-2.73-1.56-3.69-2.49c-1.9-1.84-32.94-31.9-34.72-33.62   c-1.1-1.06-2.99-2.59-2.27-4.37c0.32-0.8,1.37-2.29,1.44-2.56c0.15-0.62-0.09-0.71-0.48-0.36c-0.27,0.24-1.5,1.55-1.87,1.93   c-1.38,1.43-1.34,3.7,0.08,5.08L99,64.92c0.7,0.68,1.6,1.01,2.5,1.01c1.55,0,3.46-2,3.9-2.46c0.91-0.94,0.54-1.48-0.69-0.85   C104.4,62.79,103.23,63.77,101.84,63.86z"
   id="path38689" />
</g>
</svg>
