<?xml version="1.0" encoding="UTF-8" standalone="no"?>
<svg
   width="128"
   height="128"
   style="enable-background:new 0 0 128 128;"
   version="1.1"
   id="svg18136"
   sodipodi:docname="emoji_u1f92b.svg"
   inkscape:version="1.2.2 (732a01da63, 2022-12-09)"
   xmlns:inkscape="http://www.inkscape.org/namespaces/inkscape"
   xmlns:sodipodi="http://sodipodi.sourceforge.net/DTD/sodipodi-0.dtd"
   xmlns="http://www.w3.org/2000/svg"
   xmlns:svg="http://www.w3.org/2000/svg">
  <defs
     id="defs18140" />
  <sodipodi:namedview
     id="namedview18138"
     pagecolor="#ffffff"
     bordercolor="#000000"
     borderopacity="0.25"
     inkscape:showpageshadow="2"
     inkscape:pageopacity="0.0"
     inkscape:pagecheckerboard="0"
     inkscape:deskcolor="#d1d1d1"
     showgrid="false"
     inkscape:zoom="4.2421876"
     inkscape:cx="71.307549"
     inkscape:cy="138.37201"
     inkscape:window-width="1366"
     inkscape:window-height="697"
     inkscape:window-x="-8"
     inkscape:window-y="-8"
     inkscape:window-maximized="1"
     inkscape:current-layer="svg18136" />
  <path
     d="M 64,9.64 C 1.69,9.64 0.21,79.5 0.21,93.33 c 0,13.83 28.56,25.03 63.79,25.03 35.24,0 63.79,-11.21 63.79,-25.03 C 127.79,79.5 126.32,9.64 64,9.64 Z"
     style="fill:#fcc21b"
     id="path18126" />
  <g
     id="g23143"
     transform="matrix(0.92718071,-0.9271807,0.9271807,0.92718071,177.41987,110.36306)"
     style="stroke-width:0.762642" />
  <g
     id="g11270"
     transform="translate(-0.20519794,-1.3257189)">
    <path
       d="m 52.394192,82.332877 c 5.626193,4.469593 17.165422,4.469593 22.791616,0"
       style="clip-rule:evenodd;fill:none;fill-rule:nonzero;stroke:#2f2f2f;stroke-width:5.24183px;stroke-linecap:round;stroke-miterlimit:10"
       id="path33798" />
    <g
       id="g11261">
      <path
         d="m 42.210117,66.470276 c -4.49,0.04 -8.17,-4.27 -8.22,-9.62 -0.05,-5.37 3.55,-9.75 8.04,-9.79 4.48,-0.04 8.17,4.27 8.22,9.64 0.05,5.36 -3.55,9.73 -8.04,9.77 z m 44.109999,0 c 4.48,-0.01 8.11,-4.36 8.1,-9.71 -0.01,-5.37 -3.66,-9.7 -8.14,-9.69 -4.49,0.01 -8.129999,4.36 -8.119999,9.73 0.02,5.35 3.669999,9.68 8.159999,9.67 z"
         style="clip-rule:evenodd;fill:#2f2f2f;fill-rule:nonzero;stroke-linejoin:round;stroke-miterlimit:2"
         id="path18522" />
      <g
         transform="matrix(1.13352,0,0,0.833333,38.546317,11.500277)"
         id="g18530"
         style="clip-rule:evenodd;fill-rule:evenodd;stroke-linejoin:round;stroke-miterlimit:2">
        <ellipse
           cx="42.119999"
           cy="69"
           rx="11.88"
           ry="6"
           style="fill:#fcc21b"
           id="ellipse18528" />
      </g>
      <g
         transform="matrix(1.13352,0,0,0.833333,-5.6236435,11.500277)"
         id="g18534"
         style="clip-rule:evenodd;fill-rule:evenodd;stroke-linejoin:round;stroke-miterlimit:2">
        <ellipse
           cx="42.119999"
           cy="69"
           rx="11.88"
           ry="6"
           style="fill:#fcc21b"
           id="ellipse18532" />
      </g>
    </g>
  </g>
  <g
     id="path27576"
     class="st2">
    <path
       style="color:#000000;fill:#2f2f2f;-inkscape-stroke:none;paint-order:stroke fill markers"
       d="m 64.142578,70.535156 c -2.454961,-0.05632 -5.170546,0.878279 -6.857422,3.220703 -0.878932,1.194173 -1.260045,2.278002 -1.564453,3.414063 -1.076974,4.01932 -1.12825,8.821391 -1.554687,12.148437 l -0.0039,0.03125 -0.0039,0.03125 C 53.652742,93.79745 52.498588,99.95684 52.029297,102.95898 l -0.002,0.01 -0.002,0.01 c -0.110872,0.72796 -0.310722,2.4056 -0.498047,3.94531 -0.148474,-0.006 -0.275619,-0.0104 -0.458985,-0.0332 -0.987856,-0.12304 -2.040518,-0.20704 -3.09375,-0.20704 -3.176767,0 -5.922205,1.84973 -7.390625,3.78321 -1.46842,1.93347 -2.11977,3.93927 -2.480468,5.72265 -1.22997,6.08126 2.341029,11.19931 6.117187,14.44336 3.776158,3.24405 8.189909,5.414 11.371094,6.84766 6.924561,3.12067 14.76561,5.27227 22.365234,1.52148 l 0.0039,-0.002 0.0039,-0.002 c 6.198918,-3.07427 10.232066,-8.77633 12.208984,-16.1543 0.298259,-1.11311 0.393442,-1.85766 0.498047,-2.24805 l 0.03711,-0.14062 0.0293,-0.14063 c 0.867521,-4.25993 1.326483,-8.02814 1.248047,-11.26172 -0.03922,-1.61678 -0.193962,-3.10337 -0.667969,-4.60937 C 90.844888,102.93906 89.984481,101.15122 87.964844,100 87.044173,99.474053 85.986862,99.246052 84.974609,99.121094 84.592506,98.66834 84.252173,98.327536 84.21875,98.292969 l -0.07813,-0.08008 -0.08008,-0.07617 c -1.108122,-1.044266 -2.282678,-1.735608 -3.669922,-2.248047 -0.754946,-0.278873 -1.622551,-0.505857 -2.603516,-0.56836 -0.01722,-0.01893 -0.02158,-0.04383 -0.03906,-0.0625 -1.640849,-1.766511 -3.504133,-2.646552 -5.648438,-3.080078 0.226855,-2.008749 0.523372,-3.909225 0.642578,-5.939453 0.103802,-1.767854 0.165447,-3.437793 0.175782,-4.859375 0.01033,-1.421581 0.04859,-2.358479 -0.201172,-3.726562 l -0.002,-0.01563 -0.0039,-0.01367 C 72.024878,73.995633 69.344043,71.804821 66.480469,70.908203 65.764575,70.684049 64.96859,70.554107 64.142578,70.535156 Z m 0.158203,24.361328 c -0.03408,0.04931 -0.02023,0.05488 -0.05273,0.103516 -0.01211,0.01851 -0.033,0.02623 -0.04492,0.04492 z m -2.390625,6.359376 c 0.07192,0.34238 0.113688,0.66917 0.425781,1.23633 0.346924,0.63045 1.207153,1.47073 2.34961,2.0039 0.992763,0.41597 2.305614,0.69125 3.4375,0.34961 1.404117,-0.42381 2.079196,-1.18715 2.474609,-1.66992 0.269453,-0.32898 0.216147,-0.38111 0.351563,-0.60547 0.03037,0.0568 0.0012,0.0377 0.03516,0.0977 0.637318,1.12489 2.216071,2.21967 3.269531,2.50195 v 0.002 h 0.002 c 1.876759,0.50257 2.655446,0.20956 3.183594,-0.0957 0.363325,0.89037 0.894612,1.77837 1.767578,2.40235 1.240537,0.88669 2.329538,0.99361 3.1875,0.99218 0.03611,0.30932 0.08343,0.38695 0.09375,0.8125 0.05048,2.08087 -0.286763,5.34471 -1.058594,9.13477 l 0.06641,-0.28125 c -0.309507,1.15509 -0.435911,2.00886 -0.5,2.24805 -1.541543,5.75312 -3.419459,8.19893 -7.242188,10.09765 -4.09228,2.01974 -8.173568,1.07791 -14.257812,-1.66406 -2.817358,-1.26969 -6.578378,-3.23837 -9.085938,-5.39258 -2.50756,-2.15421 -3.329838,-3.69375 -2.99414,-5.35351 0.028,-0.13844 0.09911,-0.21128 0.140625,-0.35352 0.139167,0.79868 0.387289,1.59656 0.867187,2.4375 0.915205,1.60374 3.161648,2.86543 4.646484,2.98438 1.424898,0.11418 3.228648,-0.49111 4.279297,-1.41211 1.050649,-0.92101 1.494756,-1.86501 1.798828,-2.62891 0.608146,-1.52781 0.725851,-2.69916 0.908204,-3.88672 0.156627,-1.02002 0.411465,-3.17688 0.697265,-5.52344 0.285801,-2.34655 0.600426,-4.86342 0.664063,-5.28125 l -0.0039,0.0176 c 0.09092,-0.58165 0.338969,-2.25554 0.496094,-3.16992 z"
       id="path13260"
       sodipodi:nodetypes="scsccccccccssssscccscccsccccccscccsscccsscccccscssccccccscsccccssscscsssscccc" />
    <path
       style="color:#000000;fill:#fac036;stroke-width:9.5;-inkscape-stroke:none;paint-order:stroke fill markers"
       d="m 42.759841,117.13042 c 0.507821,-2.51079 2.041546,-5.69769 5.213874,-5.69769 1.523861,0 3.740107,0.28036 4.271066,0.52765 0.19888,0.0926 -0.102369,0.70729 -0.10237,3.54785 -1e-6,2.30748 0.65115,2.84408 1.308134,2.89671 1.229118,0.0985 1.561106,-1.62682 1.912034,-3.91221 0.212353,-1.38293 1.139416,-9.3557 1.359367,-10.79986 0.434916,-2.78224 1.615097,-9.050492 2.155399,-13.771517 0.474667,-3.703335 0.65448,-8.62448 1.430937,-11.522257 0.207056,-0.772741 0.484822,-1.423007 0.807416,-1.854206 1.838976,-2.613077 6.371892,-0.984375 6.928784,1.960089 0.377577,2.068197 -0.130405,12.07779 -1.089894,17.204132 -0.667853,3.651571 -0.58513,4.501959 -0.391945,4.553719 0.527792,0.34848 0.800481,-1.441952 1.645791,-2.664838 1.071311,-1.679968 4.548644,-0.748219 6.07332,0.902648 1.048649,1.109205 0.429341,1.87501 1.202082,2.08207 0.289778,0.0776 0.805558,-0.30179 1.147099,-0.41733 1.147099,-0.417332 3.097898,0.41597 4.172428,1.42858 0.405317,0.41919 0.836516,0.74178 0.87441,1.3731 0.03789,0.63132 0.398382,0.83144 1.029702,0.79355 0.779675,-0.2052 1.559351,-0.4104 2.904712,0.3642 2.066338,1.17484 2.110669,7.19132 0.471316,15.24132 -0.207056,0.77274 -0.317518,1.57136 -0.498692,2.24751 -1.759969,6.5683 -4.715085,10.64228 -9.729604,13.12916 -5.845958,2.88527 -11.807069,1.33766 -18.311478,-1.59366 -5.998549,-2.70335 -16.349557,-8.27769 -14.783888,-16.01872 z"
       id="path13262" />
  </g>
</svg>
