<?xml version="1.0" encoding="UTF-8" standalone="no"?>
<svg
   width="100%"
   height="100%"
   viewBox="0 0 128 128"
   version="1.1"
   xml:space="preserve"
   style="fill-rule:evenodd;clip-rule:evenodd;stroke-linecap:round;stroke-linejoin:round;stroke-miterlimit:1.5;"
   id="svg10"
   sodipodi:docname="emoji_u1fadf.svg"
   inkscape:version="1.3.2 (091e20e, 2023-11-25, custom)"
   xmlns:inkscape="http://www.inkscape.org/namespaces/inkscape"
   xmlns:sodipodi="http://sodipodi.sourceforge.net/DTD/sodipodi-0.dtd"
   xmlns="http://www.w3.org/2000/svg"
   xmlns:svg="http://www.w3.org/2000/svg"><defs
   id="defs10" /><sodipodi:namedview
   id="namedview10"
   pagecolor="#ffffff"
   bordercolor="#000000"
   borderopacity="0.25"
   inkscape:showpageshadow="2"
   inkscape:pageopacity="0.0"
   inkscape:pagecheckerboard="0"
   inkscape:deskcolor="#d1d1d1"
   inkscape:zoom="6.0234375"
   inkscape:cx="63.916991"
   inkscape:cy="64"
   inkscape:window-width="1920"
   inkscape:window-height="991"
   inkscape:window-x="-9"
   inkscape:window-y="-9"
   inkscape:window-maximized="1"
   inkscape:current-layer="svg10" />
    
    
    
    
<path
   d="M 27.223032,89.238407 C 24.817706,92.07715 21.727938,115.44075 13.807962,110.60368 -5.5324235,98.819164 34.536788,79.881761 27.223032,89.238407 Z"
   id="path1-0"
   style="fill:#330080;stroke-width:1.91107" /><path
   d="m 68.602462,93.309762 c -1.56444,1.419371 -0.919108,7.190238 -0.508443,10.103678 0.430221,2.91345 0.938664,5.9016 2.092438,8.79637 3.011546,7.43303 14.431956,11.09351 14.686178,1.75554 0.09778,-3.66048 -9.660415,-21.682765 -16.289729,-20.674264 z"
   id="path2-0"
   style="fill:#330080;stroke-width:1.91107" /><path
   d="M 7.8239803,14.945522 C 6.7679835,16.70106 6.2595406,19.577154 7.5306479,21.426072 8.9190881,23.46175 10.933304,24.526278 12.830187,26.188437 33.578569,44.210718 18.423059,4.6550792 7.8239803,14.945522 Z"
   id="path3-3"
   style="fill:#330080;stroke-width:1.91107" /><path
   d="m 105.91435,78.96664 c 2.24888,2.595956 5.63198,3.660485 8.21331,5.864245 4.51732,3.86592 10.79463,-1.456723 6.82486,-6.443199 -3.93065,-4.949123 -22.058595,-7.507727 -15.05773,0.578954 z"
   id="path4-7"
   style="fill:#330080;stroke-width:1.91107" /><path
   d="M 40.990102,7.1203031 C 33.989234,8.0167482 33.109237,16.719736 34.849676,22.378545 36.766114,28.616309 39.699439,36.3855 34.927898,42.081661 28.005252,50.336426 4.0497696,41.726818 3.3262162,55.360254 2.211553,75.997166 33.324347,62.064916 41.283434,77.752704 49.20341,93.403141 25.208816,105.18766 29.217693,117.56981 c 2.053327,6.34982 12.554628,3.88459 15.468397,-1.45673 5.162651,-9.43135 11.303077,-27.434951 22.703931,-29.321221 12.183074,-2.017001 20.142161,7.937274 26.810585,17.723471 3.676433,5.41602 8.526194,11.9526 16.055064,12.17671 7.50931,0.20543 9.58219,-7.377 6.90309,-13.07316 C 113.54099,95.905717 107.30279,89.481194 99.343702,85.895414 94.14194,83.560921 91.97128,77.26713 94.787271,72.374034 98.326816,66.22965 106.2859,63.260176 113.48233,64.903658 c 5.57331,1.269964 9.21063,-2.054353 8.3893,-6.928773 -0.44977,-2.782715 -5.94487,-6.629958 -18.10839,-3.641808 -6.785753,1.680834 -10.501298,-7.937274 -6.727087,-13.61476 3.343987,-5.023827 9.601747,-4.837068 13.082627,-9.113858 5.26043,-6.443199 3.53954,-16.658937 -4.32176,-20.580885 -7.294205,-3.6231318 -14.959959,0.466899 -19.12528,6.331144 -5.671094,8.030653 -17.873723,12.531555 -27.651471,8.4602 C 50.063852,22.061054 54.972281,5.327413 40.990102,7.1203031 Z"
   id="path5-4"
   style="fill:#330080;stroke-width:1.91107" /></svg>
