<?xml version="1.0" encoding="UTF-8" standalone="no"?>
<!-- Generator: Adobe Illustrator 25.2.3, SVG Export Plug-In . SVG Version: 6.00 Build 0)  -->

<svg
   version="1.1"
   id="Layer_3"
   x="0px"
   y="0px"
   viewBox="0 0 128 128"
   style="enable-background:new 0 0 128 128;"
   xml:space="preserve"
   sodipodi:docname="emoji_u1f9fa.svg"
   inkscape:version="1.2.2 (732a01da63, 2022-12-09)"
   xmlns:inkscape="http://www.inkscape.org/namespaces/inkscape"
   xmlns:sodipodi="http://sodipodi.sourceforge.net/DTD/sodipodi-0.dtd"
   xmlns="http://www.w3.org/2000/svg"
   xmlns:svg="http://www.w3.org/2000/svg"><defs
   id="defs24012">
	
	
	
	
	
	
	
	
	
	
	
	
	
	
	
	
</defs><sodipodi:namedview
   id="namedview24010"
   pagecolor="#ffffff"
   bordercolor="#000000"
   borderopacity="0.25"
   inkscape:showpageshadow="2"
   inkscape:pageopacity="0.0"
   inkscape:pagecheckerboard="0"
   inkscape:deskcolor="#d1d1d1"
   showgrid="false"
   inkscape:zoom="2.1210938"
   inkscape:cx="38.187845"
   inkscape:cy="82.504604"
   inkscape:window-width="1366"
   inkscape:window-height="697"
   inkscape:window-x="-8"
   inkscape:window-y="-8"
   inkscape:window-maximized="1"
   inkscape:current-layer="Layer_3" />
<path
   style="fill:#a15d38"
   d="m 92.25,43.43 c 0,0 3.5,-9.84 6.82,-13.94 3.32,-4.1 7.73,-7.48 12.86,-8.73 -3.54,-4.08 -13.67,-6.2 -20.92,1.56 -7.25,7.76 -9.39,19.31 -9.39,19.31 z"
   id="path23907" /><path
   style="fill:#f7a54b"
   d="m 104.07,15.02 c 0,0 11.9,1.27 16.29,8.73 2.9,4.93 4.62,15.72 0.85,28.42 -3.65,12.31 -1.91,2.69 -1.91,2.69 l -9.4,-5.22 c 0,0 5.17,-19.69 1.92,-26.41 -3.56,-7.38 -10.54,-6.8 -10.54,-6.8 z"
   id="path23909" /><path
   style="fill:#a15d38"
   d="M 19.96,35.4 C 18.96,21.48 23.3,20.81 25.54,18.75 20.33,15.69 14.45,17.56 11.91,19.56 6.33,23.95 11,46.4 11,46.4 l 10.1,-4.13 c -0.01,0 -0.99,-4.74 -1.14,-6.87 z"
   id="path23911" /><path
   style="fill:#894f36"
   d="m 15.84,51.28 -9.17,-1.11 10,55.76 c 0,9.98 20.95,18.06 46.79,18.06 25.84,0 46.79,-8.09 46.79,-18.06 l 9.05,-55.38 z"
   id="path23913" /><g
   id="g23929">
		<path
   style="fill:#e39744"
   d="m 34.73,67.23 2.67,52.81 c 0.01,0.79 -0.75,1.35 -1.5,1.12 l -2.68,-0.8 c -0.62,-0.19 -1.05,-0.75 -1.07,-1.4 L 28.13,66.29 Z"
   id="path23915" />
		<path
   style="fill:#e39744"
   d="m 58.95,69.82 1.92,53.63 c 0.01,0.6 0.5,1.09 1.1,1.09 l 3.76,0.05 c 0.6,0 1.08,-0.49 1.09,-1.09 L 66.63,69.81 h -7.68 z"
   id="path23917" />
		<path
   style="fill:#ce843a"
   d="m 90.13,120.07 0.65,-51.51 7.3,-1.33 -2.88,51.97 c -0.02,0.42 -0.3,0.78 -0.71,0.9 l -3.08,0.94 c -0.64,0.19 -1.28,-0.3 -1.28,-0.97 z"
   id="path23919" />
		<path
   style="fill:#ce843a"
   d="m 13.4,63.47 7.64,50.2 c 0.07,0.48 0.34,0.9 0.74,1.16 l 2.16,1.41 c 0.52,0.34 1.19,-0.07 1.14,-0.68 L 20.5,65.34 Z"
   id="path23921" />
		<path
   style="fill:#e39744"
   d="m 51.79,69.82 0.31,53.21 c -0.02,0.41 -0.39,0.72 -0.8,0.67 l -4.14,-0.42 c -0.34,-0.05 -0.6,-0.34 -0.6,-0.69 L 44.29,69.82 Z"
   id="path23923" />
		<path
   style="fill:#ce843a"
   d="m 75.41,68.56 1.3,54.32 c 0.01,0.51 0.45,0.89 0.95,0.82 l 4.07,-0.55 c 0.41,-0.05 0.71,-0.4 0.73,-0.81 l 0.47,-55.12 z"
   id="path23925" />
		<path
   style="fill:#ce843a"
   d="m 106.7,65.89 -5.43,50.25 c -0.06,0.53 0.75,0.53 1.21,0.26 l 1.75,-1.05 c 0.22,-0.13 0.37,-0.35 0.41,-0.61 L 112.32,64 Z"
   id="path23927" />
	</g><g
   id="g23975">
		<path
   style="fill:#ffba5f"
   d="m 28.9,74.3 c 0.03,0.59 -0.57,1 -1.11,1.01 -2.25,0.06 -5.41,0.01 -10.93,-1.83 C 13.73,72.44 11.78,71.27 10.61,70.14 9.54,69.11 9.25,67.79 9.22,67.22 9.19,66.51 8.88,63.15 8.91,61.8 l 19.7,7.35 c 0.08,1.77 0.29,5.15 0.29,5.15 z"
   id="path23931" />
		<path
   style="fill:#ffba5f"
   d="m 59.26,78.38 c 0,0.59 -0.71,1.21 -1.27,1.41 -1.73,0.64 -6.23,1.59 -11.99,0.99 -5.26,-0.55 -7.97,-1.92 -9.73,-3.02 -0.56,-0.35 -0.95,-0.97 -0.98,-1.56 -0.08,-1.78 -0.12,-2.68 -0.2,-4.46 l 24.14,2.59 c 0.02,1.79 0.02,2.27 0.03,4.05 z"
   id="path23933" />
		<path
   style="fill:#ffba5f"
   d="m 90.58,75.96 c -0.03,0.59 -0.41,1.21 -0.98,1.56 -1.76,1.11 -3.88,2.43 -9.12,3.17 -5.24,0.73 -11.23,0.04 -12.96,-0.58 -0.55,-0.2 -1.25,-0.91 -1.25,-1.51 0.01,-1.79 0.07,-2.62 0.08,-4.41 L 90.76,71.5 c 0.02,0 -0.1,2.68 -0.18,4.46 z"
   id="path23935" />
		<path
   style="fill:#ffba5f"
   d="m 117.47,64.23 c -0.04,0.99 -0.11,1.98 -0.22,2.96 -0.05,0.47 -0.13,0.98 -0.46,1.31 -0.45,0.44 -3.49,3.09 -7.59,4.56 -5.32,1.91 -8.83,2.48 -10.52,2.33 -0.54,-0.05 -1.03,-0.48 -1,-1.07 0.08,-1.43 0.11,-2.37 0.18,-3.57 z"
   id="path23937" />
		<path
   style="fill:#ffba5f;fill-opacity:1"
   d="m 60.01,99.47 c 0.03,0.59 -0.39,1.15 -0.96,1.37 -1.78,0.71 -6.48,1.83 -11.97,1.34 -5.5,-0.49 -7.81,-2.12 -9.69,-3.15 C 36.79,98.7 36.27,98 36.22,97.41 l -0.26,-4.83 c -0.08,-0.92 0.64,-1.23 1.63,-0.86 2.18,0.81 4.1,1.85 8.95,2.27 4.85,0.42 9.17,0.09 11.28,-0.36 0.96,-0.2 1.99,0.53 2.04,1.45 z"
   id="path23939" />
		<path
   style="fill:#ffba5f"
   d="m 90.4,96.88 c -0.03,0.59 -0.41,1.57 -1.5,2.27 -1.81,1.17 -4.22,2.26 -9.69,2.99 -5.47,0.74 -10.15,-0.26 -11.95,-0.88 -0.58,-0.2 -0.96,-0.72 -0.95,-1.31 0.01,-1.79 0.01,-2.68 0.02,-4.46 0,-0.92 0.92,-1.64 1.88,-1.48 2.13,0.35 6.39,0.57 11.22,-0.07 4.83,-0.64 7.04,-1.72 9.18,-2.63 0.97,-0.41 1.85,0.06 1.8,0.98 z"
   id="path23941" />
		<path
   style="fill:#ffba5f"
   d="m 114,86.43 c -0.27,2.26 -0.5,3.38 -1.29,4.08 0,0 -1.72,2 -5.53,3.41 -2.91,1.08 -8.84,2.48 -9.89,2.15 -0.46,-0.15 -0.78,-0.46 -0.75,-1.05 0.09,-1.78 0.13,-2.67 0.22,-4.46 0.05,-0.92 0.86,-1.87 1.67,-1.96 1.93,-0.22 7.32,-1.8 8.75,-2.47 3.06,-1.44 5.84,-3.32 5.84,-3.32 0.52,-0.35 0.88,-0.16 0.98,0.14 0.28,0.84 0.12,2.49 0,3.48 z"
   id="path23943" />
		<path
   style="fill:#ffba5f;fill-opacity:1"
   d="m 60.73,120.32 c 0,0.59 -0.45,1.37 -1.57,1.46 0,0 -4.61,0.74 -10.68,0.09 -5.54,-0.59 -9.97,-2.79 -9.97,-2.79 -0.84,-0.48 -1.24,-1.12 -1.27,-1.71 l -0.19,-4.72 c -0.04,-0.92 0.69,-1.37 1.62,-0.96 2.06,0.9 5.17,1.99 9.8,2.48 5.38,0.57 8.42,0.4 9.83,0.38 1.41,-0.02 2.2,0.31 2.24,1.39 z"
   id="path23945" />
		<path
   style="fill:#ffba5f"
   d="m 90.16,117.28 c -0.03,0.59 -0.45,1.17 -1.01,1.53 -1.76,1.11 -4.8,2.64 -10.03,3.38 -5.23,0.74 -9.86,0 -11.59,-0.63 -0.55,-0.2 -0.91,-0.72 -0.91,-1.31 0.01,-1.79 0.01,-2.68 0.02,-4.46 0,-0.92 0.88,-1.64 1.8,-1.48 2.03,0.35 6.28,0.31 10.89,-0.33 4.61,-0.64 7.02,-1.64 9.07,-2.55 0.93,-0.41 1.85,0.05 1.81,0.97 z"
   id="path23947" />
		<path
   style="fill:#ffba5f"
   d="m 110.03,102.9 c 0.52,-0.27 1.01,0.05 0.99,0.74 -0.04,1.62 -0.3,3.78 -1.99,5.68 -0.79,0.89 -5.95,6.02 -12.82,6.51 -0.81,0.06 -0.75,-1.31 -0.75,-1.31 l 0.21,-3.74 c 0.05,-0.92 0.68,-1.75 1.75,-1.96 0.99,-0.2 3.85,-0.92 7.34,-2.59 1.67,-0.81 3.01,-2.13 5.27,-3.33 z"
   id="path23949" />
		<path
   style="fill:#ffba5f;fill-opacity:1"
   d="m 45.2,87.94 c 0.05,0.59 -0.36,1.23 -1.17,1.43 -1.68,0.41 -6.85,0.35 -12.07,-0.79 -5.22,-1.14 -8.85,-4.03 -8.85,-4.03 -0.58,-0.4 -0.92,-0.97 -1,-1.55 l -0.45,-4.94 c -0.1,-1.09 0.96,-0.87 1.9,-0.38 2.09,1.06 2.93,1.76 7.53,2.74 4.6,0.99 10.19,1.69 12.17,1.5 0.9,-0.09 1.71,0.35 1.82,1.51 z"
   id="path23951" />
		<path
   style="fill:#ffba5f;fill-opacity:1"
   d="m 75.97,88.79 c 0,0.75 -0.87,1.25 -1.46,1.53 -1.84,0.87 -5.72,2.09 -11.25,2.09 -5.52,0 -8.48,-1.14 -10.08,-1.95 C 52.6,90.17 51.9,89.42 51.9,88.74 l -0.04,-4.86 c -0.02,-0.92 1.04,-1.13 2.02,-0.85 2.16,0.63 4.51,1.18 9.38,1.18 4.87,0 7.91,-0.98 10.13,-1.3 2.21,-0.32 2.48,0.59 2.47,1.51 z"
   id="path23953" />
		<path
   style="fill:#ffba5f"
   d="m 104.93,82.32 c 0,0 -0.12,1.13 -1.1,1.9 -1.73,1.36 -4.15,2.68 -8.69,3.82 -5.18,1.31 -9.52,1.4 -11.2,1 -0.54,-0.13 -1.02,-0.59 -1,-1.18 0.05,-1.78 0.15,-4.53 0.15,-4.53 0.03,-0.92 1.02,-1.68 1.92,-1.64 1.99,0.08 6.08,-0.33 10.53,-1.84 4.02,-1.37 6.37,-2.52 8.39,-3.7 0.92,-0.53 1.64,-0.04 1.58,0.88 z"
   id="path23955" />
		<path
   style="fill:#ffba5f"
   d="m 115.97,72.4 c 0,1.65 -0.36,5.1 -0.96,6.27 -0.42,0.81 -1.04,1.07 -1.84,1.44 -0.7,0.33 -3.22,1.53 -3.09,-0.17 l 0.74,-4.73 c 0.11,-1.39 0.77,-1.83 1.93,-2.29 0.59,-0.23 1.21,-0.4 1.78,-0.7 1.56,-0.81 1.44,0.06 1.44,0.18 z"
   id="path23957" />
		<path
   style="fill:#ffba5f;fill-opacity:1"
   d="m 46,108.68 c 0.04,1.09 -1.45,1.53 -2.34,1.62 -2.14,0.21 -7.01,-0.21 -11.65,-1.76 -4.01,-1.34 -6.8,-3.19 -7.25,-3.73 -0.45,-0.54 -0.78,-1.19 -0.83,-1.78 L 23.47,98.8 c -0.09,-0.99 0.69,-1.54 1.6,-1.09 2.05,1 4.34,2.37 8.59,3.65 4.44,1.34 8.34,1.73 10.21,1.67 1.5,-0.05 1.93,0.53 1.97,1.45 0.09,1.8 0.08,2.42 0.16,4.2 z"
   id="path23959" />
		<path
   style="fill:#ffba5f;fill-opacity:1"
   d="m 76.33,109.71 c 0,0.74 -0.53,1.19 -1.16,1.47 -1.97,0.87 -5.8,2.27 -11.7,2.27 -5.3,0 -8.52,-1.22 -10.21,-1.92 -0.64,-0.26 -1.24,-0.76 -1.25,-1.35 v -4.99 c -0.02,-0.92 1.05,-1.32 2.09,-1.04 2.31,0.63 4.31,1.19 9.37,1.1 5.2,-0.09 8.57,-0.6 10.88,-1.2 1.3,-0.34 2.01,0.31 1.99,1.23 z"
   id="path23961" />
		<path
   style="fill:#ffba5f"
   d="m 102.72,102.47 c -0.04,0.59 -0.22,1.47 -0.72,1.9 0,0 -2.97,2.96 -8.18,4.44 -4.66,1.32 -8.79,1.43 -10.3,1.04 -0.48,-0.13 -0.79,-0.59 -0.78,-1.18 0.05,-1.78 0.07,-2.68 0.12,-4.46 0.02,-0.92 0.81,-1.75 1.62,-1.72 1.79,0.08 5.62,-0.63 9.7,-1.88 4.08,-1.25 5.71,-2.76 7.54,-3.95 0.83,-0.54 1.61,-0.23 1.53,0.83 z"
   id="path23963" />
		<path
   style="fill:#ffba5f"
   d="m 111.98,93.46 c 0.54,-0.12 0.78,0.21 0.78,0.61 0,1.99 -0.34,3.85 -0.97,5.48 -0.36,0.92 -3.37,2.86 -4.31,2.87 -0.69,0 -0.81,-0.34 -0.77,-0.93 l 0.75,-4.82 c 0.07,-0.92 0.55,-1.59 1.4,-1.84 0.86,-0.24 2.72,-1.28 3.12,-1.37 z"
   id="path23965" />
		<path
   style="fill:#ffba5f"
   d="m 12.77,88.17 c 0,0 0.13,1.39 0.98,2.19 0.98,0.92 2.06,1.72 3.23,2.39 3.82,2.23 7.17,3.18 11.53,3.66 0.09,0.01 1.8,-0.35 1.77,-0.94 -0.09,-1.78 -0.13,-2.67 -0.22,-4.46 -0.05,-0.92 -0.86,-1.87 -1.67,-1.96 -3.19,-0.36 -6.05,-1.42 -8.96,-2.73 -1.22,-0.55 -2.4,-1.17 -3.54,-1.87 -0.6,-0.37 -1.19,-0.76 -1.76,-1.18 -0.45,-0.33 -1.32,-1.29 -1.61,-1.18 -0.29,0.12 -0.38,0.13 -0.38,0.9 0,1.39 0.63,5.18 0.63,5.18 z"
   id="path23967" />
		<path
   style="fill:#ffba5f"
   d="m 16.29,103.09 c -0.52,-0.27 -0.65,0.52 -0.52,1.09 0.35,1.59 0.52,3.69 1.72,5.44 1.79,2.63 10.23,6.99 12.87,6.74 0.58,-0.05 1.19,-0.71 1.04,-1.44 -0.07,-1.4 -0.14,-2.8 -0.21,-4.2 -0.05,-0.92 -0.98,-1.59 -2.08,-1.88 -1.45,-0.37 -5.86,-2.05 -12.82,-5.75 z"
   id="path23969" />
		<path
   style="fill:#ffba5f"
   d="m 10.41,73.76 c 0,1.7 0.28,4.42 0.94,5.47 0.55,0.88 2.48,2.11 3.78,2.22 0.52,0.04 1.16,-0.32 1.14,-0.91 0,0 -0.45,-3.06 -0.64,-4.26 -0.19,-1.2 -0.33,-1.77 -1.35,-2.06 -1.44,-0.4 -2.43,-1.36 -2.93,-1.56 -0.69,-0.26 -0.94,0.19 -0.94,1.1 z"
   id="path23971" />
		<path
   style="fill:#ffba5f"
   d="m 14.49,93.25 c -0.19,-0.14 -0.47,0.04 -0.5,0.28 -0.18,2.03 0.23,4.08 0.7,6.07 0.25,1.05 1.03,1.68 1.91,2.12 0.77,0.39 1.44,0.55 1.87,0.52 0.42,-0.03 0.91,-0.28 0.77,-0.99 L 18.6,96.9 c 0,0 -0.04,-1.72 -1.33,-2.08 -1.06,-0.3 -1.83,-0.85 -2.78,-1.57 z"
   id="path23973" />
	</g><path
   style="fill:#f7a54b"
   d="M 5.9,60.13 3.46,49.39 c 0,0 101.9,0 120,0 l -2.44,10.74 c 0,7.53 -25.77,13.63 -57.56,13.63 C 31.67,73.76 5.9,67.66 5.9,60.13 Z"
   id="path23977" /><ellipse
   style="fill:#ffcc80"
   cx="63.459999"
   cy="49.389999"
   rx="60"
   ry="11.92"
   id="ellipse23979" /><ellipse
   style="fill:#784d30"
   cx="63.459999"
   cy="47.68"
   rx="49.459999"
   ry="7.6799998"
   id="ellipse23981" /><path
   style="fill:#d68b52"
   d="M 63.46,39.99 C 36.15,39.99 14,43.43 14,47.68 c 0,1.48 2.71,2.86 7.39,4.04 8.07,-2.4 23.89,-4.04 42.07,-4.04 18.19,0 34,1.63 42.07,4.04 4.68,-1.17 7.39,-2.56 7.39,-4.04 0,-4.25 -22.14,-7.69 -49.46,-7.69 z"
   id="path23983" /><path
   style="fill:#894f36"
   d="M 63.46,72.7 C 40.9,72.7 15.78,68.49 6.18,61.48 c 0,0 0.48,2.62 3.34,4.27 6.25,3.61 17.61,6.75 33.63,8.21 0.33,1.12 1.63,3.32 6.74,3.32 4.67,0 6.58,-1.39 7.37,-2.52 2.02,0.05 4.08,0.08 6.21,0.08 25.58,0 44.97,-4.12 53.91,-8.86 0,0 1.06,-0.62 1.73,-1.51 0.67,-0.89 1.25,-2.24 1.25,-2.24 -3.16,2.76 -23.51,10.47 -56.9,10.47 z"
   id="path23985" /><path
   style="fill:#ffcc80"
   d="m 58.03,72.78 c 0,0 0.67,2.55 -10.72,2.44 C 43.47,75.18 41.42,74.04 40.33,71 34.18,53.87 29.31,36.23 26.56,29.94 21.44,18.22 11.17,18.43 11.17,18.43 c 1.28,-1.13 5.06,-2.33 6.36,-2.46 4.74,-0.48 11.36,-1.51 17.07,2.78 8.05,6.05 20.3,52.11 20.57,52.75 0.28,0.64 2.38,0.75 2.86,1.28 z"
   id="path23987" /><g
   id="g23991">
		<path
   style="fill:#f7a54b"
   d="M 11.54,43.41 8.51,44.66 C 7.56,39.53 5.27,24.4 10.25,19.24 c 3.97,-4.11 9.98,-0.75 12.66,3.03 1.64,2.32 3.65,7.68 3.65,7.68 0,0 -3.46,-7.3 -9.41,-9.25 -2.15,-0.7 -4.08,0.22 -4.6,0.77 -3.09,3.2 -2.35,14.36 -1.01,21.94 z"
   id="path23989" />
	</g><path
   style="fill:none;stroke:#f7a54b;stroke-width:2.0181;stroke-miterlimit:10"
   d="M 53.19,73.31"
   id="path24003" /><path
   style="fill:none;stroke:#ffcc80;stroke-width:3.0272;stroke-miterlimit:10"
   d="m 82.01,39.28 c 0,-0.21 6.31,-22.05 19.26,-22.85 18.03,-1.13 10.66,27.44 10.66,27.44"
   id="path24005" />
</svg>
