<?xml version="1.0" encoding="UTF-8" standalone="no"?>
<svg
   width="128"
   height="128"
   style="enable-background:new 0 0 128 128;"
   version="1.1"
   id="svg28508"
   sodipodi:docname="emoji_u1f9d0.svg"
   inkscape:version="1.2.2 (732a01da63, 2022-12-09)"
   xmlns:inkscape="http://www.inkscape.org/namespaces/inkscape"
   xmlns:sodipodi="http://sodipodi.sourceforge.net/DTD/sodipodi-0.dtd"
   xmlns="http://www.w3.org/2000/svg"
   xmlns:svg="http://www.w3.org/2000/svg">
  <defs
     id="defs28512" />
  <sodipodi:namedview
     id="namedview28510"
     pagecolor="#ffffff"
     bordercolor="#000000"
     borderopacity="0.25"
     inkscape:showpageshadow="2"
     inkscape:pageopacity="0.0"
     inkscape:pagecheckerboard="0"
     inkscape:deskcolor="#d1d1d1"
     showgrid="false"
     inkscape:zoom="2.1210937"
     inkscape:cx="53.745857"
     inkscape:cy="104.19153"
     inkscape:window-width="1366"
     inkscape:window-height="697"
     inkscape:window-x="-8"
     inkscape:window-y="-8"
     inkscape:window-maximized="1"
     inkscape:current-layer="svg28508" />
  <path
     d="M64,9.56c-62.41,0-63.88,69.96-63.88,83.8c0,13.86,28.59,25.08,63.88,25.08 c35.28,0,63.88-11.22,63.88-25.08C127.88,79.52,126.4,9.56,64,9.56z"
     style="fill:#FCC21B;"
     id="path28498" />
  <g
     id="g28504"
     transform="translate(-8.1528185,-4.0004274)">
    <path
       d="m 42.21,62.3 c -4.49,0.04 -8.17,-4.27 -8.22,-9.62 -0.05,-5.37 3.55,-9.75 8.04,-9.79 4.48,-0.04 8.17,4.27 8.22,9.64 0.05,5.35 -3.55,9.72 -8.04,9.77 z"
       style="fill:#2f2f2f"
       id="path28500" />
    <path
       d="m 86.32,62.3 c 4.48,-0.01 8.11,-4.36 8.1,-9.71 -0.01,-5.37 -3.66,-9.7 -8.14,-9.69 -4.49,0.01 -8.13,4.36 -8.12,9.73 0.02,5.35 3.67,9.68 8.16,9.67 z"
       style="fill:#2f2f2f"
       id="path28502" />
  </g>
  <path
     d="m 74.266529,26.684862 c 8.89747,-4.348711 14.31733,-4.931312 15.866902,3.63002 m -64.620858,5.054873 c 5.05978,-4.427308 8.948842,5.6628 15.669276,2.236384"
     fill="none"
     fill-rule="evenodd"
     stroke="#7b4600"
     stroke-width="3.78"
     stroke-linecap="round"
     stroke-linejoin="round"
     id="path9211"
     style="fill:none;fill-opacity:1;stroke:#e28100;stroke-opacity:1"
     sodipodi:nodetypes="cccc" />
  <path
     id="path290"
     style="font-variation-settings:'opsz' 12, 'wght' 400;opacity:1;fill:none;fill-opacity:1;stroke:#4d4d4d;stroke-width:3;stroke-linecap:round;stroke-dasharray:none;stroke-opacity:1"
     d="m 78.064271,32.078949 c -9.733669,7.75e-4 -15.202329,8.562609 -15.203018,17.088982 -4.14e-4,8.527166 5.468444,17.090236 15.203018,17.091011 9.735479,4.67e-4 15.205752,-8.563052 15.205337,-17.091011 -6.89e-4,-8.527167 -5.470762,-17.089449 -15.205337,-17.088982 z"
     sodipodi:nodetypes="ccccc" />
  <path
     style="font-variation-settings:'opsz' 12, 'wght' 400;opacity:1;fill:none;fill-opacity:1;stroke:#2f2f2f;stroke-width:6;stroke-linecap:round;stroke-dasharray:none;stroke-opacity:1"
     d="M 40.407034,91.23346 C 56.855437,76.563337 76.717604,70.016695 87.906114,82.747272"
     id="path2916"
     sodipodi:nodetypes="cc" />
  <path
     id="path4422"
     style="font-variation-settings:'opsz' 12, 'wght' 400;opacity:1;fill:#4d4d4d;fill-opacity:1;stroke:#4d4d4d;stroke-width:3;stroke-linecap:round;stroke-dasharray:none;stroke-opacity:1"
     d="m 96.878467,46.380393 a 2.8334606,2.8334603 0 0 0 -2.831858,2.831857 2.8334606,2.8334603 0 0 0 2.831858,2.835762 2.8334606,2.8334603 0 0 0 2.835753,-2.835762 2.8334606,2.8334603 0 0 0 -2.835753,-2.831857 z" />
  <path
     style="font-variation-settings:'opsz' 12, 'wght' 400;opacity:1;fill:none;fill-opacity:1;stroke:#4d4d4d;stroke-width:3;stroke-linecap:round;stroke-dasharray:none;stroke-opacity:1"
     d="m 97.191347,51.863281 c 0,0 -1.563998,5.309493 -1.563998,10.143343 0,4.83385 8.000851,11.16786 8.000851,15.918367 0,4.750508 -3.66886,8.890298 -3.66886,13.692385 0,4.802086 6.39245,9.280914 6.39245,9.280914"
     id="path5151"
     sodipodi:nodetypes="csssc" />
</svg>
