<?xml version="1.0" encoding="UTF-8" standalone="no"?>
<!-- Generator: Adobe Illustrator 24.1.2, SVG Export Plug-In . SVG Version: 6.00 Build 0)  -->

<svg
   version="1.1"
   id="Layer_2"
   x="0px"
   y="0px"
   viewBox="0 0 128 128"
   style="enable-background:new 0 0 128 128;"
   xml:space="preserve"
   sodipodi:docname="emoji_u1f99c.svg"
   inkscape:version="1.2.2 (732a01da63, 2022-12-09)"
   xmlns:inkscape="http://www.inkscape.org/namespaces/inkscape"
   xmlns:sodipodi="http://sodipodi.sourceforge.net/DTD/sodipodi-0.dtd"
   xmlns="http://www.w3.org/2000/svg"
   xmlns:svg="http://www.w3.org/2000/svg"><defs
   id="defs20876"><linearGradient
     id="linearGradient21444"
     gradientUnits="userSpaceOnUse"
     x1="46.8536"
     y1="97.0571"
     x2="65.8573"
     y2="33.6487">
	<stop
   offset="0"
   style="stop-color:#79DA88"
   id="stop21436" />
	<stop
   offset="0"
   style="stop-color:#57CD75"
   id="stop21438" />
	<stop
   offset="0"
   style="stop-color:#19B553"
   id="stop21440" />
	<stop
   offset="0"
   style="stop-color:#01AB46"
   id="stop21442" />
</linearGradient><linearGradient
     id="linearGradient21429"
     gradientUnits="userSpaceOnUse"
     x1="46.8536"
     y1="97.057098"
     x2="65.8573"
     y2="33.648701">
	<stop
   offset="0.1362"
   style="stop-color:#79DA88"
   id="stop20844-4" />
	<stop
   offset="0.3039"
   style="stop-color:#57CD75"
   id="stop20846-0" />
	<stop
   offset="0.6343"
   style="stop-color:#19B553"
   id="stop20848-1" />
	<stop
   offset="0.7914"
   style="stop-color:#01AB46"
   id="stop20850-9" />
</linearGradient></defs><sodipodi:namedview
   id="namedview20874"
   pagecolor="#ffffff"
   bordercolor="#000000"
   borderopacity="0.25"
   inkscape:showpageshadow="2"
   inkscape:pageopacity="0.0"
   inkscape:pagecheckerboard="0"
   inkscape:deskcolor="#d1d1d1"
   showgrid="false"
   inkscape:zoom="4"
   inkscape:cx="60.375"
   inkscape:cy="57.75"
   inkscape:window-width="1366"
   inkscape:window-height="697"
   inkscape:window-x="-8"
   inkscape:window-y="-8"
   inkscape:window-maximized="1"
   inkscape:current-layer="Layer_2" />
<path
   style="fill:#FEBA02;"
   d="M40.01,95.48c0,0,2.44,10.04,2.06,11.45c-0.38,1.41-7.32,2.53-11.36,4.6  c-2.65,1.36-6.92,4.39-4.32,6.84c1.41,1.33,5.35-2.03,17.18-2.71c12.01-0.69,14.13,0.29,13.51-2.25c-0.61-2.53-3.8-2.82-6.48-3.94  c-0.89-0.37-1.92-0.96-2.35-1.6c-0.41-0.61,0.19-10.98,0.19-10.98L40.01,95.48z"
   id="path20840" />
<path
   style="fill:#FEBA02;"
   d="M62.16,102.52c0,0,0.28,10.15,0.28,10.8c0,0.95-2.32,2.09-5.77,2.86  c-3.45,0.77-10.28,2.05-10.37,6.42c-0.06,2.69,13.12-0.95,20.65-0.84s12.36,1.1,12.01-2.06c-0.28-2.53-4.2-3.68-6.31-4.14  c-2.11-0.46-3.07-1.49-3.13-2.75c-0.04-0.82,0.14-10.07,0.14-10.07L62.16,102.52z"
   id="path20842" />
<linearGradient
   id="SVGID_1_"
   gradientUnits="userSpaceOnUse"
   x1="46.8536"
   y1="97.0571"
   x2="65.8573"
   y2="33.6487">
	<stop
   offset="0.1362"
   style="stop-color:#79DA88"
   id="stop20844" />
	<stop
   offset="0.3039"
   style="stop-color:#57CD75"
   id="stop20846" />
	<stop
   offset="0.6343"
   style="stop-color:#19B553"
   id="stop20848" />
	<stop
   offset="0.7914"
   style="stop-color:#01AB46"
   id="stop20850" />
</linearGradient>
<path
   style="fill:#01ab46;fill-opacity:1"
   d="M41.89,8.01l9.06-0.61c0,0,5.04,1.63,9.83,8.57c6.36,9.23,5.52,26.11,5.52,26.11l17.46,46.55  l2.11,15.39c0,0-15.62,2.46-30.92,0.47c-18.02-2.35-36.6-18.68-36.32-43.08c0.28-24.4,19.62-47.96,19.62-47.96L41.89,8.01z"
   id="path20853" />
<path
   style="fill:#FFD51D;"
   d="M21.15,16.93c0,0-6.95,2.16-8.92,9.95S13.55,41.92,15,42.41c0.56,0.19,2.3-3.33,2.3-3.33  s2.44,2.82,3.66,3.47c1.22,0.66,1.83,1.15,2.91,1.08c2.11-0.14,5.21-6.29,5.12-10.42l1.08-20.23L21.15,16.93z"
   id="path20855" />
<path
   style="fill:#FF2B23;"
   d="M29.85,28.09c0,0,8.47-1.41,11.85-4.32s7.32-5.54,8.63-10.79c0.8-3.2,0.84-5.44,0.84-5.44  S39.36,0.69,28.66,6.32S20.49,19.6,20.49,19.6L29.85,28.09z"
   id="path20857" />
<path
   style="fill:#FF600D;"
   d="M29.5,29.22c0,0-6.85,4.04-7.6,4.6s-3.2,1.78-4.32,2.72c-1.78,1.5-3.38,4.88-2.72,5.73  c0.66,0.84,1.6-1.78,4.22-3.38s7.13-4.13,8.35-4.79c1.22-0.66,1.6-1.03,1.6-1.03L29.5,29.22z"
   id="path20859" />

<path
   style="fill:#EC80AF;"
   d="M15.89,20.4c0,0,4.32,0.28,7.32,2.91c1.78,1.56,4.47,4.9,5.13,6.41s2.91-2.67,1.13-5.49  s-3.91-5.65-7.85-7.02C18.78,16.23,16.08,18.62,15.89,20.4z"
   id="path20863" />
<path
   style="fill:#FBD3B3;"
   d="M49.49,25.94c0,0-3.47-8.82-10.61-8.45c-7.2,0.38-8.31,5.73-7.98,8.92c0.38,3.69,2.82,5.73,8.45,5.54  C44.99,31.75,49.49,25.94,49.49,25.94z"
   id="path20865" />

<path
   style="fill:#01AB46;"
   d="M86.38,80.75c0,0,2.25,5.07,10.89,10.7c7.33,4.78,10.89,7.7,15.96,9.48  c5.07,1.78,5.26,2.25,5.07,3.19c-0.19,0.94-8.07,7.04-16.71,6.29c-8.63-0.75-12.76-4.13-15.39-5.91s-7.6-14.36-7.6-14.36  L86.38,80.75z"
   id="path20869" />
<path
   style="fill:#B7D019;"
   d="M66.34,41.84c0,0-11.97,3.52-17.22,11.5c-4.4,6.68-4.01,18.04,0.47,26.47  c5.54,10.42,16.99,17.83,23.09,20.65c6.1,2.82,14.45,4.22,18.11,3.85s-3.28-25.62-9.95-39.14C74.34,51.98,66.34,41.84,66.34,41.84z"
   id="path20871" />
<ellipse
   style="fill:#312f2a;fill-opacity:1;stroke:none;stroke-width:1.5;stroke-linecap:round;stroke-linejoin:round;paint-order:stroke fill markers"
   id="path21567"
   cx="39.149757"
   cy="24.704544"
   rx="2.8726213"
   ry="3.5345519" /></svg>
