<?xml version="1.0" encoding="UTF-8" standalone="no"?>
<svg
   width="128"
   height="128"
   style="enable-background:new 0 0 128 128;"
   version="1.1"
   id="svg46878"
   sodipodi:docname="emoji_u1f441.svg"
   inkscape:version="1.2.2 (732a01da63, 2022-12-09)"
   xmlns:inkscape="http://www.inkscape.org/namespaces/inkscape"
   xmlns:sodipodi="http://sodipodi.sourceforge.net/DTD/sodipodi-0.dtd"
   xmlns="http://www.w3.org/2000/svg"
   xmlns:svg="http://www.w3.org/2000/svg">
  <defs
     id="defs46882" />
  <sodipodi:namedview
     id="namedview46880"
     pagecolor="#ffffff"
     bordercolor="#000000"
     borderopacity="0.25"
     inkscape:showpageshadow="2"
     inkscape:pageopacity="0.0"
     inkscape:pagecheckerboard="0"
     inkscape:deskcolor="#d1d1d1"
     showgrid="false"
     inkscape:zoom="2.1210938"
     inkscape:cx="36.773481"
     inkscape:cy="99.005525"
     inkscape:window-width="1366"
     inkscape:window-height="697"
     inkscape:window-x="-8"
     inkscape:window-y="-8"
     inkscape:window-maximized="1"
     inkscape:current-layer="svg46878" />
  <g
     id="g47070">
    <path
       id="path46868"
       style="fill:#ffffff"
       d="m 97.929688,64.056641 c -0.32836,-0.04309 -0.65672,-0.04484 -0.980469,0.0039 -3.849996,0.609999 -6.105891,5.733153 -6.72589,8.25315 -1.309999,5.319995 -2.222473,15.047166 -6.09247,18.817162 C 68.650875,106.31084 37.929913,103.87053 29.169922,82.560547 27.649923,78.850551 26.839684,72.74906 23.179688,70.539062 21.909689,69.789063 19.090389,70.280001 17.900391,71 16.160392,72.049999 14.52078,74.080001 13.050781,75.5 11.086539,77.382056 9.3627402,79.928409 6.7246094,80.322266 16.370818,94.039957 39.996964,107.75 62.599609,107.75 c 21.730965,0 44.408701,-12.67326 54.699221,-25.841797 -4.89536,-3.226639 -9.64449,-11.366233 -13.07813,-13.988281 -1.63625,-1.233749 -3.9925,-3.56168 -6.291012,-3.863281 z"
       sodipodi:nodetypes="sccccccccsccs" />
    <path
       d="M 121.56,64 C 110.91,42.17 89.9,29.16 68.32,27.38 c -9.27,-0.74 -18.08,0.35 -26.15,3.1 -14.8,5.08 -27.08,15.77 -35.09,31 -2.24,4.23 -5.04,9.1 -5.24,14.04 -0.09,2.29 0.66,4.22 3.03,4.73 3.76,0.82 5.79,-2.46 8.18,-4.75 1.47,-1.42 3.11,-3.45 4.85,-4.5 1.19,-0.72 4.01,-1.21 5.28,-0.46 3.66,2.21 4.47,8.31 5.99,12.02 8.76,21.31 39.48,23.75 54.96,8.57 C 88,87.36 91.26209,79.180681 92.22709,75.260681 93.19209,71.340681 93.1,64.67 96.95,64.06 c 2.59,-0.39 5.4,2.45 7.27,3.86 4.4,3.36 10.96,15.82 17.22,15.33 1.68,-0.12 3.8,-2.71 4.15,-4.19 1.16,-4.89 -3,-12.94 -4.03,-15.06 z"
       style="fill:#2f2f2f"
       id="path46870"
       sodipodi:nodetypes="ccccccccccczccccc" />
    <path
       d="M 57.34,61.27 C 54.9,67.9 44.7,70.61 39.96,65.16 36.24,60.9 37.62,55.12 41.55,51.61 c 7.1,-6.34 18.95,1.09 15.79,9.66"
       style="fill:#ffffff"
       id="path46872" />
  </g>
</svg>
