<?xml version="1.0" encoding="UTF-8" standalone="no"?>
<!-- Generator: Adobe Illustrator 25.2.3, SVG Export Plug-In . SVG Version: 6.00 Build 0)  -->

<svg
   version="1.1"
   id="Layer_5"
   x="0px"
   y="0px"
   viewBox="0 0 128 128"
   style="enable-background:new 0 0 128 128;"
   xml:space="preserve"
   sodipodi:docname="emoji_u1f9ee.svg"
   inkscape:version="1.2.2 (732a01da63, 2022-12-09)"
   xmlns:inkscape="http://www.inkscape.org/namespaces/inkscape"
   xmlns:sodipodi="http://sodipodi.sourceforge.net/DTD/sodipodi-0.dtd"
   xmlns="http://www.w3.org/2000/svg"
   xmlns:svg="http://www.w3.org/2000/svg"><defs
   id="defs21999">
	
	
</defs><sodipodi:namedview
   id="namedview21997"
   pagecolor="#ffffff"
   bordercolor="#000000"
   borderopacity="0.25"
   inkscape:showpageshadow="2"
   inkscape:pageopacity="0.0"
   inkscape:pagecheckerboard="0"
   inkscape:deskcolor="#d1d1d1"
   showgrid="false"
   inkscape:zoom="2.1210938"
   inkscape:cx="60.81768"
   inkscape:cy="81.090239"
   inkscape:window-width="1366"
   inkscape:window-height="697"
   inkscape:window-x="-8"
   inkscape:window-y="-8"
   inkscape:window-maximized="1"
   inkscape:current-layer="Layer_5" />
<g
   id="g21890">
		<g
   id="g21756">
			<rect
   x="19.25"
   y="17.49"
   style="fill:#ad7146"
   width="92.540001"
   height="2.54"
   id="rect21736" />
			<rect
   x="19.25"
   y="37.439999"
   style="fill:#ad7146"
   width="92.540001"
   height="2.54"
   id="rect21738" />
			<rect
   x="19.25"
   y="57.049999"
   style="fill:#ad7146"
   width="92.540001"
   height="2.54"
   id="rect21740" />
			<rect
   x="19.25"
   y="76.379997"
   style="fill:#ad7146"
   width="92.540001"
   height="2.54"
   id="rect21742" />
			<rect
   x="19.25"
   y="95.709999"
   style="fill:#ad7146"
   width="92.540001"
   height="2.54"
   id="rect21744" />
			<path
   style="fill:#d99b61"
   d="m 19.25,114.85 h -4.07 c -1.12,0 -2.03,-0.92 -2.03,-2.03 V 6.03 C 13.15,4.91 14.07,4 15.18,4 h 4.07 c 1.12,0 2.03,0.92 2.03,2.03 v 106.78 c 0.01,1.12 -0.91,2.04 -2.03,2.04 z"
   id="path21746" />
			<path
   style="fill:#d99b61"
   d="m 112.81,114.85 h -4.07 c -1.12,0 -2.03,-0.92 -2.03,-2.03 V 6.03 c 0,-1.12 0.92,-2.03 2.03,-2.03 h 4.07 c 1.12,0 2.03,0.92 2.03,2.03 v 106.78 c 0.01,1.12 -0.91,2.04 -2.03,2.04 z"
   id="path21748" />
			<path
   style="fill:#bf7c4e"
   d="m 13.15,108.09 v 4.72 c 0,1.12 0.92,2.03 2.03,2.03 h 4.07 c 1.12,0 2.03,-0.92 2.03,-2.03 v -4.72 z"
   id="path21750" />
			<path
   style="fill:#bf7c4e"
   d="m 106.71,108.09 v 4.72 c 0,1.12 0.92,2.03 2.03,2.03 h 4.07 c 1.12,0 2.03,-0.92 2.03,-2.03 v -4.72 z"
   id="path21752" />
			<path
   style="fill:#d99b61"
   d="M 118.92,124 H 9.08 c -1.12,0 -2.03,-0.92 -2.03,-2.03 v -8.14 c 0,-1.12 0.92,-2.03 2.03,-2.03 h 109.83 c 1.12,0 2.03,0.92 2.03,2.03 v 8.14 c 0.01,1.11 -0.91,2.03 -2.02,2.03 z"
   id="path21754" />
		</g>
		<g
   id="g21778">
			<rect
   x="19.25"
   y="17.49"
   style="fill:#ad7146"
   width="92.540001"
   height="2.54"
   id="rect21758" />
			<rect
   x="19.25"
   y="37.439999"
   style="fill:#ad7146"
   width="92.540001"
   height="2.54"
   id="rect21760" />
			<rect
   x="19.25"
   y="57.049999"
   style="fill:#ad7146"
   width="92.540001"
   height="2.54"
   id="rect21762" />
			<rect
   x="19.25"
   y="76.379997"
   style="fill:#ad7146"
   width="92.540001"
   height="2.54"
   id="rect21764" />
			<rect
   x="19.25"
   y="95.709999"
   style="fill:#ad7146"
   width="92.540001"
   height="2.54"
   id="rect21766" />
			<path
   style="fill:#bf7c4e;fill-opacity:1"
   d="m 19.25,114.85 h -4.07 c -1.12,0 -2.03,-0.92 -2.03,-2.03 V 6.03 C 13.15,4.91 14.07,4 15.18,4 h 4.07 c 1.12,0 2.03,0.92 2.03,2.03 v 106.78 c 0.01,1.12 -0.91,2.04 -2.03,2.04 z"
   id="path21768" />
			<path
   style="fill:#bf7c4e;fill-opacity:1"
   d="m 112.81,114.85 h -4.07 c -1.12,0 -2.03,-0.92 -2.03,-2.03 V 6.03 c 0,-1.12 0.92,-2.03 2.03,-2.03 h 4.07 c 1.12,0 2.03,0.92 2.03,2.03 v 106.78 c 0.01,1.12 -0.91,2.04 -2.03,2.04 z"
   id="path21770" />
			
			
			<path
   style="fill:#d99b61"
   d="M 118.92,124 H 9.08 c -1.12,0 -2.03,-0.92 -2.03,-2.03 v -8.14 c 0,-1.12 0.92,-2.03 2.03,-2.03 h 109.83 c 1.12,0 2.03,0.92 2.03,2.03 v 8.14 c 0.01,1.11 -0.91,2.03 -2.02,2.03 z"
   id="path21776" />
		</g>
		<g
   id="g21800">
			<path
   style="fill:#1976d2"
   d="m 24.85,90.37 c -1.96,0 -3.56,1.61 -3.56,3.56 v 6.1 c 0,1.95 1.6,3.56 3.56,3.56 1.96,0 3.56,-1.61 3.56,-3.56 v -6.1 c 0,-1.96 -1.61,-3.56 -3.56,-3.56 z"
   id="path21780" />
			<path
   style="fill:#1976d2"
   d="m 32.98,90.37 c -1.96,0 -3.56,1.61 -3.56,3.56 v 6.1 c 0,1.95 1.6,3.56 3.56,3.56 1.96,0 3.56,-1.61 3.56,-3.56 v -6.1 c 0,-1.96 -1.6,-3.56 -3.56,-3.56 z"
   id="path21782" />
			<path
   style="fill:#1976d2"
   d="m 41.12,90.37 c -1.96,0 -3.56,1.61 -3.56,3.56 v 6.1 c 0,1.95 1.6,3.56 3.56,3.56 1.96,0 3.56,-1.61 3.56,-3.56 v -6.1 c 0,-1.96 -1.61,-3.56 -3.56,-3.56 z"
   id="path21784" />
			<path
   style="fill:#1976d2"
   d="m 51.29,90.37 c -1.96,0 -3.56,1.61 -3.56,3.56 v 6.1 c 0,1.95 1.6,3.56 3.56,3.56 1.96,0 3.56,-1.61 3.56,-3.56 v -6.1 c 0,-1.96 -1.61,-3.56 -3.56,-3.56 z"
   id="path21786" />
			<path
   style="fill:#1976d2"
   d="m 59.42,90.37 c -1.96,0 -3.56,1.61 -3.56,3.56 v 6.1 c 0,1.95 1.6,3.56 3.56,3.56 1.96,0 3.56,-1.61 3.56,-3.56 v -6.1 c 0,-1.96 -1.6,-3.56 -3.56,-3.56 z"
   id="path21788" />
			<path
   style="fill:#1976d2"
   d="M 67.56,90.37 C 65.6,90.37 64,91.98 64,93.93 v 6.1 c 0,1.95 1.6,3.56 3.56,3.56 1.96,0 3.56,-1.61 3.56,-3.56 v -6.1 c 0,-1.96 -1.61,-3.56 -3.56,-3.56 z"
   id="path21790" />
			<path
   style="fill:#1976d2"
   d="m 79.25,90.37 c -1.96,0 -3.56,1.61 -3.56,3.56 v 6.1 c 0,1.95 1.6,3.56 3.56,3.56 1.96,0 3.56,-1.61 3.56,-3.56 v -6.1 c 0,-1.96 -1.6,-3.56 -3.56,-3.56 z"
   id="path21792" />
			<path
   style="fill:#1976d2"
   d="m 86.88,90.37 c -1.96,0 -3.56,1.61 -3.56,3.56 v 6.1 c 0,1.95 1.6,3.56 3.56,3.56 1.96,0 3.56,-1.61 3.56,-3.56 v -6.1 c 0,-1.96 -1.61,-3.56 -3.56,-3.56 z"
   id="path21794" />
			<path
   style="fill:#1976d2"
   d="m 94.51,90.37 c -1.96,0 -3.56,1.61 -3.56,3.56 v 6.1 c 0,1.95 1.6,3.56 3.56,3.56 1.96,0 3.56,-1.61 3.56,-3.56 v -6.1 c 0,-1.96 -1.61,-3.56 -3.56,-3.56 z"
   id="path21796" />
			<path
   style="fill:#1976d2"
   d="m 102.14,90.37 c -1.96,0 -3.56,1.61 -3.56,3.56 v 6.1 c 0,1.95 1.6,3.56 3.56,3.56 1.96,0 3.56,-1.61 3.56,-3.56 v -6.1 c -0.01,-1.96 -1.61,-3.56 -3.56,-3.56 z"
   id="path21798" />
		</g>
		<g
   id="g21822">
			<path
   style="fill:#689f38"
   d="m 24.85,71.12 c -1.96,0 -3.56,1.61 -3.56,3.56 v 6.1 c 0,1.95 1.6,3.56 3.56,3.56 1.96,0 3.56,-1.61 3.56,-3.56 v -6.1 c 0,-1.96 -1.61,-3.56 -3.56,-3.56 z"
   id="path21802" />
			<path
   style="fill:#689f38"
   d="m 32.98,71.12 c -1.96,0 -3.56,1.61 -3.56,3.56 v 6.1 c 0,1.95 1.6,3.56 3.56,3.56 1.96,0 3.56,-1.61 3.56,-3.56 v -6.1 c 0,-1.96 -1.6,-3.56 -3.56,-3.56 z"
   id="path21804" />
			<path
   style="fill:#689f38"
   d="m 41.12,71.12 c -1.96,0 -3.56,1.61 -3.56,3.56 v 6.1 c 0,1.95 1.6,3.56 3.56,3.56 1.96,0 3.56,-1.61 3.56,-3.56 v -6.1 c 0,-1.96 -1.61,-3.56 -3.56,-3.56 z"
   id="path21806" />
			<path
   style="fill:#689f38"
   d="m 49.25,71.12 c -1.96,0 -3.56,1.61 -3.56,3.56 v 6.1 c 0,1.95 1.6,3.56 3.56,3.56 1.96,0 3.56,-1.61 3.56,-3.56 v -6.1 c 0,-1.96 -1.6,-3.56 -3.56,-3.56 z"
   id="path21808" />
			<path
   style="fill:#689f38"
   d="m 62.47,71.12 c -1.96,0 -3.56,1.61 -3.56,3.56 v 6.1 c 0,1.95 1.6,3.56 3.56,3.56 1.96,0 3.56,-1.61 3.56,-3.56 v -6.1 c 0,-1.96 -1.6,-3.56 -3.56,-3.56 z"
   id="path21810" />
			<path
   style="fill:#689f38"
   d="m 70.41,71.12 c -1.96,0 -3.56,1.61 -3.56,3.56 v 6.1 c 0,1.95 1.6,3.56 3.56,3.56 1.96,0 3.56,-1.61 3.56,-3.56 v -6.1 c 0,-1.96 -1.61,-3.56 -3.56,-3.56 z"
   id="path21812" />
			<path
   style="fill:#689f38"
   d="m 78.34,71.12 c -1.96,0 -3.56,1.61 -3.56,3.56 v 6.1 c 0,1.95 1.6,3.56 3.56,3.56 1.96,0 3.56,-1.61 3.56,-3.56 v -6.1 c 0,-1.96 -1.61,-3.56 -3.56,-3.56 z"
   id="path21814" />
			<path
   style="fill:#689f38"
   d="m 86.27,71.12 c -1.96,0 -3.56,1.61 -3.56,3.56 v 6.1 c 0,1.95 1.6,3.56 3.56,3.56 1.96,0 3.56,-1.61 3.56,-3.56 v -6.1 c 0,-1.96 -1.61,-3.56 -3.56,-3.56 z"
   id="path21816" />
			<path
   style="fill:#689f38"
   d="m 94.2,71.12 c -1.96,0 -3.56,1.61 -3.56,3.56 v 6.1 c 0,1.95 1.6,3.56 3.56,3.56 1.96,0 3.56,-1.61 3.56,-3.56 v -6.1 c 0,-1.96 -1.6,-3.56 -3.56,-3.56 z"
   id="path21818" />
			<path
   style="fill:#689f38"
   d="m 102.14,71.12 c -1.96,0 -3.56,1.61 -3.56,3.56 v 6.1 c 0,1.95 1.6,3.56 3.56,3.56 1.96,0 3.56,-1.61 3.56,-3.56 v -6.1 c -0.01,-1.96 -1.61,-3.56 -3.56,-3.56 z"
   id="path21820" />
		</g>
		<g
   id="g21844">
			<path
   style="fill:#ffca28"
   d="m 24.85,51.72 c -1.96,0 -3.56,1.61 -3.56,3.56 v 6.1 c 0,1.95 1.6,3.56 3.56,3.56 1.96,0 3.56,-1.61 3.56,-3.56 v -6.1 c 0,-1.97 -1.61,-3.56 -3.56,-3.56 z"
   id="path21824" />
			<path
   style="fill:#ffca28"
   d="m 32.98,51.72 c -1.96,0 -3.56,1.61 -3.56,3.56 v 6.1 c 0,1.95 1.6,3.56 3.56,3.56 1.96,0 3.56,-1.61 3.56,-3.56 v -6.1 c 0,-1.97 -1.6,-3.56 -3.56,-3.56 z"
   id="path21826" />
			<path
   style="fill:#ffca28"
   d="m 41.12,51.72 c -1.96,0 -3.56,1.61 -3.56,3.56 v 6.1 c 0,1.95 1.6,3.56 3.56,3.56 1.96,0 3.56,-1.61 3.56,-3.56 v -6.1 c 0,-1.97 -1.61,-3.56 -3.56,-3.56 z"
   id="path21828" />
			<path
   style="fill:#ffca28"
   d="m 49.25,51.72 c -1.96,0 -3.56,1.61 -3.56,3.56 v 6.1 c 0,1.95 1.6,3.56 3.56,3.56 1.96,0 3.56,-1.61 3.56,-3.56 v -6.1 c 0,-1.97 -1.6,-3.56 -3.56,-3.56 z"
   id="path21830" />
			<path
   style="fill:#ffca28"
   d="m 57.39,51.72 c -1.96,0 -3.56,1.61 -3.56,3.56 v 6.1 c 0,1.95 1.6,3.56 3.56,3.56 1.96,0 3.56,-1.61 3.56,-3.56 v -6.1 c 0,-1.97 -1.61,-3.56 -3.56,-3.56 z"
   id="path21832" />
			<path
   style="fill:#ffca28"
   d="m 65.53,51.72 c -1.96,0 -3.56,1.61 -3.56,3.56 v 6.1 c 0,1.95 1.6,3.56 3.56,3.56 1.96,0 3.56,-1.61 3.56,-3.56 v -6.1 c 0,-1.97 -1.61,-3.56 -3.56,-3.56 z"
   id="path21834" />
			<path
   style="fill:#ffca28"
   d="m 73.66,51.72 c -1.96,0 -3.56,1.61 -3.56,3.56 v 6.1 c 0,1.95 1.6,3.56 3.56,3.56 1.96,0 3.56,-1.61 3.56,-3.56 v -6.1 c 0,-1.97 -1.61,-3.56 -3.56,-3.56 z"
   id="path21836" />
			<path
   style="fill:#ffca28"
   d="m 81.8,51.72 c -1.96,0 -3.56,1.61 -3.56,3.56 v 6.1 c 0,1.95 1.6,3.56 3.56,3.56 1.96,0 3.56,-1.61 3.56,-3.56 v -6.1 c 0,-1.97 -1.61,-3.56 -3.56,-3.56 z"
   id="path21838" />
			<path
   style="fill:#ffca28"
   d="m 89.93,51.72 c -1.96,0 -3.56,1.61 -3.56,3.56 v 6.1 c 0,1.95 1.6,3.56 3.56,3.56 1.96,0 3.56,-1.61 3.56,-3.56 v -6.1 c 0,-1.97 -1.6,-3.56 -3.56,-3.56 z"
   id="path21840" />
			<path
   style="fill:#ffca28"
   d="m 102.14,51.72 c -1.96,0 -3.56,1.61 -3.56,3.56 v 6.1 c 0,1.95 1.6,3.56 3.56,3.56 1.96,0 3.56,-1.61 3.56,-3.56 v -6.1 c -0.01,-1.97 -1.61,-3.56 -3.56,-3.56 z"
   id="path21842" />
		</g>
		<g
   id="g21866">
			<path
   style="fill:#f57c00"
   d="m 24.85,32.1 c -1.96,0 -3.56,1.61 -3.56,3.56 v 6.1 c 0,1.95 1.6,3.56 3.56,3.56 1.96,0 3.56,-1.61 3.56,-3.56 v -6.1 c 0,-1.97 -1.61,-3.56 -3.56,-3.56 z"
   id="path21846" />
			<path
   style="fill:#f57c00"
   d="m 32.9,32.1 c -1.96,0 -3.56,1.61 -3.56,3.56 v 6.1 c 0,1.95 1.6,3.56 3.56,3.56 1.96,0 3.56,-1.61 3.56,-3.56 v -6.1 c 0,-1.97 -1.61,-3.56 -3.56,-3.56 z"
   id="path21848" />
			<path
   style="fill:#f57c00"
   d="m 43.07,32.1 c -1.96,0 -3.56,1.61 -3.56,3.56 v 6.1 c 0,1.95 1.6,3.56 3.56,3.56 1.96,0 3.56,-1.61 3.56,-3.56 v -6.1 c 0,-1.97 -1.61,-3.56 -3.56,-3.56 z"
   id="path21850" />
			<path
   style="fill:#f57c00"
   d="m 56.37,32.1 c -1.96,0 -3.56,1.61 -3.56,3.56 v 6.1 c 0,1.95 1.6,3.56 3.56,3.56 1.96,0 3.56,-1.61 3.56,-3.56 v -6.1 c 0,-1.97 -1.6,-3.56 -3.56,-3.56 z"
   id="path21852" />
			<path
   style="fill:#f57c00"
   d="m 64.17,32.1 c -1.96,0 -3.56,1.61 -3.56,3.56 v 6.1 c 0,1.95 1.6,3.56 3.56,3.56 1.96,0 3.56,-1.61 3.56,-3.56 v -6.1 c 0,-1.97 -1.61,-3.56 -3.56,-3.56 z"
   id="path21854" />
			<path
   style="fill:#f57c00"
   d="m 71.97,32.1 c -1.96,0 -3.56,1.61 -3.56,3.56 v 6.1 c 0,1.95 1.6,3.56 3.56,3.56 1.96,0 3.56,-1.61 3.56,-3.56 v -6.1 c 0,-1.97 -1.61,-3.56 -3.56,-3.56 z"
   id="path21856" />
			<path
   style="fill:#f57c00"
   d="m 79.76,32.1 c -1.96,0 -3.56,1.61 -3.56,3.56 v 6.1 c 0,1.95 1.6,3.56 3.56,3.56 1.96,0 3.56,-1.61 3.56,-3.56 v -6.1 c 0,-1.97 -1.6,-3.56 -3.56,-3.56 z"
   id="path21858" />
			<path
   style="fill:#f57c00"
   d="M 87.56,32.1 C 85.6,32.1 84,33.71 84,35.66 v 6.1 c 0,1.95 1.6,3.56 3.56,3.56 1.96,0 3.56,-1.61 3.56,-3.56 v -6.1 c 0,-1.97 -1.61,-3.56 -3.56,-3.56 z"
   id="path21860" />
			<path
   style="fill:#f57c00"
   d="m 95.36,32.1 c -1.96,0 -3.56,1.61 -3.56,3.56 v 6.1 c 0,1.95 1.6,3.56 3.56,3.56 1.96,0 3.56,-1.61 3.56,-3.56 v -6.1 c 0,-1.97 -1.61,-3.56 -3.56,-3.56 z"
   id="path21862" />
			<path
   style="fill:#f57c00"
   d="m 103.15,32.1 c -1.96,0 -3.56,1.61 -3.56,3.56 v 6.1 c 0,1.95 1.6,3.56 3.56,3.56 1.96,0 3.56,-1.61 3.56,-3.56 v -6.1 c 0,-1.97 -1.6,-3.56 -3.56,-3.56 z"
   id="path21864" />
		</g>
		<g
   id="g21888">
			<path
   style="fill:#d82521"
   d="m 24.85,12.16 c -1.96,0 -3.56,1.61 -3.56,3.56 v 6.1 c 0,1.95 1.6,3.56 3.56,3.56 1.96,0 3.56,-1.61 3.56,-3.56 v -6.1 c 0,-1.97 -1.61,-3.56 -3.56,-3.56 z"
   id="path21868" />
			<path
   style="fill:#d82521"
   d="m 32.48,12.16 c -1.96,0 -3.56,1.61 -3.56,3.56 v 6.1 c 0,1.95 1.6,3.56 3.56,3.56 1.96,0 3.56,-1.61 3.56,-3.56 v -6.1 c -0.01,-1.97 -1.61,-3.56 -3.56,-3.56 z"
   id="path21870" />
			<path
   style="fill:#d82521"
   d="m 40.1,12.16 c -1.96,0 -3.56,1.61 -3.56,3.56 v 6.1 c 0,1.95 1.6,3.56 3.56,3.56 1.96,0 3.56,-1.61 3.56,-3.56 v -6.1 c 0,-1.97 -1.61,-3.56 -3.56,-3.56 z"
   id="path21872" />
			<path
   style="fill:#d82521"
   d="m 47.73,12.16 c -1.96,0 -3.56,1.61 -3.56,3.56 v 6.1 c 0,1.95 1.6,3.56 3.56,3.56 1.96,0 3.56,-1.61 3.56,-3.56 v -6.1 c 0,-1.97 -1.61,-3.56 -3.56,-3.56 z"
   id="path21874" />
			<path
   style="fill:#d82521"
   d="m 55.36,12.16 c -1.96,0 -3.56,1.61 -3.56,3.56 v 6.1 c 0,1.95 1.6,3.56 3.56,3.56 1.96,0 3.56,-1.61 3.56,-3.56 v -6.1 c 0,-1.97 -1.61,-3.56 -3.56,-3.56 z"
   id="path21876" />
			<path
   style="fill:#d82521"
   d="m 65.53,12.16 c -1.96,0 -3.56,1.61 -3.56,3.56 v 6.1 c 0,1.95 1.6,3.56 3.56,3.56 1.96,0 3.56,-1.61 3.56,-3.56 v -6.1 c 0,-1.97 -1.61,-3.56 -3.56,-3.56 z"
   id="path21878" />
			<path
   style="fill:#d82521"
   d="m 73.66,12.16 c -1.96,0 -3.56,1.61 -3.56,3.56 v 6.1 c 0,1.95 1.6,3.56 3.56,3.56 1.96,0 3.56,-1.61 3.56,-3.56 v -6.1 c 0,-1.97 -1.61,-3.56 -3.56,-3.56 z"
   id="path21880" />
			<path
   style="fill:#d82521"
   d="m 86.88,12.16 c -1.96,0 -3.56,1.61 -3.56,3.56 v 6.1 c 0,1.95 1.6,3.56 3.56,3.56 1.96,0 3.56,-1.61 3.56,-3.56 v -6.1 c 0,-1.97 -1.61,-3.56 -3.56,-3.56 z"
   id="path21882" />
			<path
   style="fill:#d82521"
   d="m 95.02,12.16 c -1.96,0 -3.56,1.61 -3.56,3.56 v 6.1 c 0,1.95 1.6,3.56 3.56,3.56 1.96,0 3.56,-1.61 3.56,-3.56 v -6.1 c 0,-1.97 -1.61,-3.56 -3.56,-3.56 z"
   id="path21884" />
			<path
   style="fill:#d82521"
   d="m 103.15,12.16 c -1.96,0 -3.56,1.61 -3.56,3.56 v 6.1 c 0,1.95 1.6,3.56 3.56,3.56 1.96,0 3.56,-1.61 3.56,-3.56 v -6.1 c 0,-1.97 -1.6,-3.56 -3.56,-3.56 z"
   id="path21886" />
		</g>
	</g>
</svg>
