<?xml version="1.0" encoding="UTF-8" standalone="no"?>
<svg
   width="100%"
   height="100%"
   viewBox="0 0 128 128"
   version="1.1"
   xml:space="preserve"
   style="fill-rule:evenodd;clip-rule:evenodd;stroke-linejoin:round;stroke-miterlimit:2;"
   id="svg51372"
   sodipodi:docname="emoji_u1f601.svg"
   inkscape:version="1.2.2 (732a01da63, 2022-12-09)"
   xmlns:inkscape="http://www.inkscape.org/namespaces/inkscape"
   xmlns:sodipodi="http://sodipodi.sourceforge.net/DTD/sodipodi-0.dtd"
   xmlns="http://www.w3.org/2000/svg"
   xmlns:svg="http://www.w3.org/2000/svg"><defs
   id="defs51376" /><sodipodi:namedview
   id="namedview51374"
   pagecolor="#ffffff"
   bordercolor="#000000"
   borderopacity="0.25"
   inkscape:showpageshadow="2"
   inkscape:pageopacity="0.0"
   inkscape:pagecheckerboard="0"
   inkscape:deskcolor="#d1d1d1"
   showgrid="false"
   inkscape:zoom="2.9996795"
   inkscape:cx="70.174162"
   inkscape:cy="78.341702"
   inkscape:window-width="1366"
   inkscape:window-height="697"
   inkscape:window-x="-8"
   inkscape:window-y="-8"
   inkscape:window-maximized="1"
   inkscape:current-layer="svg51372" />
    <path
   d="M63.89,9.64C1.58,9.64 0.1,79.5 0.1,93.33C0.1,107.16 28.66,118.36 63.89,118.36C99.13,118.36 127.68,107.15 127.68,93.33C127.68,79.5 126.21,9.64 63.89,9.64Z"
   style="fill:rgb(252,194,27);fill-rule:nonzero;"
   id="path51358" />
    <path
   d="m 31.96,51.85 c -0.772,1.274 -2.451,1.692 -3.73,0.93 -1.276,-0.758 -1.708,-2.428 -0.96,-3.71 0.18,-0.31 4.6,-7.62 14.37,-7.62 9.78,0 14.2,7.31 14.39,7.62 0.243,0.418 0.371,0.892 0.371,1.375 0,1.499 -1.232,2.733 -2.731,2.735 -0.92,0 -1.83,-0.47 -2.34,-1.32 C 51.2,51.64 48.21,46.9 41.64,46.9 35.07,46.89 32.1,51.64 31.96,51.85 Z M 100,52.79 c -0.43,0.26 -0.91,0.38 -1.37,0.38 -0.94,0 -1.85,-0.49 -2.36,-1.34 -0.11,-0.2 -3.08,-4.94 -9.66,-4.94 -6.69,0 -9.66,4.89 -9.69,4.94 -0.496,0.802 -1.374,1.292 -2.317,1.292 -1.495,0 -2.724,-1.229 -2.724,-2.724 0,-0.469 0.121,-0.93 0.351,-1.338 0.18,-0.31 4.6,-7.62 14.38,-7.62 9.77,0 14.18,7.31 14.36,7.62 0.76,1.3 0.32,2.97 -0.97,3.73 z"
   style="fill:#2f2f2f;fill-rule:nonzero"
   id="path51360" />
    <path
   d="m 96.462,62.716 c -3.09,-2.09 -6.98,-0.71 -10.42,0 -9.58,1.98 -18,2.06 -22.04,2.06 -4.04,0 -12.46,-0.08 -22.04,-2.06 -3.44,-0.71 -7.33,-2.09 -10.42,0 -3.92,2.65 -1.03,12.15 5.14,18.57 3.73,3.88 12.61,11.41 27.32,11.41 14.71,0 23.59,-7.53 27.32,-11.41 6.17,-6.42 9.05,-15.92 5.14,-18.57 z"
   style="fill:#ffffff;fill-rule:nonzero"
   id="path51362" />
    
    
    
<path
   d="m 96.462,62.716 c -3.09,-2.09 -6.98,-0.71 -10.42,0 -9.58,1.98 -18,2.06 -22.04,2.06 -4.04,0 -12.46,-0.08 -22.04,-2.06 -3.44,-0.71 -7.33,-2.09 -10.42,0 -3.92,2.65 -1.03,12.15 5.14,18.57 3.73,3.88 12.61,11.41 27.32,11.41 14.71,0 23.59,-7.53 27.32,-11.41 6.17,-6.42 9.05,-15.92 5.14,-18.57 z"
   style="fill:none;fill-rule:nonzero;stroke:#2f2f2f;stroke-width:6;stroke-dasharray:none;stroke-opacity:1"
   id="path51495" /><path
   style="font-variation-settings:'opsz' 12, 'wght' 400;fill:none;stroke:#2f2f2f;stroke-width:5.34337;stroke-linecap:round;stroke-dasharray:none;stroke-opacity:1;paint-order:stroke fill markers"
   d="M 44.497691,63.219451 V 85.296413"
   id="path52586" /><path
   style="font-variation-settings:'opsz' 12, 'wght' 400;fill:none;stroke:#2f2f2f;stroke-width:5.34337;stroke-linecap:round;stroke-dasharray:none;stroke-opacity:1;paint-order:stroke fill markers"
   d="M 64.148253,67.215679 V 89.292641"
   id="path52588" /><path
   style="font-variation-settings:'opsz' 12, 'wght' 400;fill:none;stroke:#2f2f2f;stroke-width:5.34337;stroke-linecap:round;stroke-dasharray:none;stroke-opacity:1;paint-order:stroke fill markers"
   d="M 83.501857,64.052873 V 86.129835"
   id="path52590" /></svg>
