<?xml version="1.0" encoding="UTF-8" standalone="no"?>
<svg
   width="128"
   height="128"
   style="enable-background:new 0 0 128 128;"
   version="1.1"
   id="svg2882"
   sodipodi:docname="emoji_u1f630.svg"
   inkscape:version="1.2.2 (732a01da63, 2022-12-09)"
   xmlns:inkscape="http://www.inkscape.org/namespaces/inkscape"
   xmlns:sodipodi="http://sodipodi.sourceforge.net/DTD/sodipodi-0.dtd"
   xmlns="http://www.w3.org/2000/svg"
   xmlns:svg="http://www.w3.org/2000/svg">
  <defs
     id="defs2886" />
  <sodipodi:namedview
     id="namedview2884"
     pagecolor="#ffffff"
     bordercolor="#000000"
     borderopacity="0.25"
     inkscape:showpageshadow="2"
     inkscape:pageopacity="0.0"
     inkscape:pagecheckerboard="0"
     inkscape:deskcolor="#d1d1d1"
     showgrid="false"
     inkscape:zoom="2.9996795"
     inkscape:cx="89.84293"
     inkscape:cy="63.00673"
     inkscape:window-width="1366"
     inkscape:window-height="697"
     inkscape:window-x="-8"
     inkscape:window-y="-8"
     inkscape:window-maximized="1"
     inkscape:current-layer="svg2882" />
  <g
     id="g2850"
     transform="translate(0.12,1)">
    <linearGradient
       id="SVGID_1_"
       gradientUnits="userSpaceOnUse"
       x1="63.790001"
       x2="63.790001"
       y1="65.666603"
       y2="3.2762001">
      <stop
         offset="0"
         style="stop-color:#FCC21B"
         id="stop2837" />
      <stop
         offset="0.1512"
         style="stop-color:#E5BF34"
         id="stop2839" />
      <stop
         offset="0.4726"
         style="stop-color:#ABB973"
         id="stop2841" />
      <stop
         offset="0.9352"
         style="stop-color:#4FAFD8"
         id="stop2843" />
      <stop
         offset="1"
         style="stop-color:#42ADE7"
         id="stop2845" />
    </linearGradient>
    <path
       d="M 63.79,8.64 C 1.48,8.64 0,78.5 0,92.33 c 0,13.83 28.56,25.03 63.79,25.03 35.24,0 63.79,-11.21 63.79,-25.03 0,-13.83 -1.47,-83.69 -63.79,-83.69 z"
       style="fill:url(#SVGID_1_)"
       id="path2848" />
  </g>
  <path
     d="m 119.52,69.7 c -1.51,4.55 -4.85,7.13 -7.49,7.67 -2.96,0.59 -5.52,-0.1 -7.2,-1.95 -2.14,-2.33 -2.57,-6.12 -1.24,-10.67 2.41,-8.17 2.82,-22.96 2.83,-23.1 0.01,-0.57 0.35,-1.06 0.89,-1.24 0.52,-0.21 1.11,-0.05 1.49,0.37 12.9,14.41 12.27,24.3 10.72,28.92 z"
     style="fill:#b2ebf2;fill-opacity:1"
     id="path2854" />
  <g
     id="g3076"
     transform="translate(6.3925046,-9.782689)">
    <g
       fill="#2f2f2f"
       id="g2231"
       transform="translate(-6.4825046,7.1680132)">
      <path
         d="m 42.005,65.79 c -4.49,0.04 -8.17,-4.27 -8.22,-9.62 -0.05,-5.37 3.55,-9.75 8.04,-9.79 4.48,-0.04 8.17,4.27 8.22,9.64 0.05,5.36 -3.56,9.73 -8.04,9.77 z m 44.11,0 c 4.48,-0.01 8.11,-4.36 8.1,-9.71 -0.01,-5.37 -3.66,-9.7 -8.14,-9.69 -4.49,0.01 -8.13,4.36 -8.12,9.73 0.01,5.35 3.67,9.68 8.16,9.67 z"
         id="path2229" />
    </g>
    <g
       id="g2434"
       transform="translate(-6.6816251,7.1680132)">
      <path
         d="m 96.465611,44.712655 c 0,0 -8.4564,-2.066079 -12.908672,-8.272904"
         fill="none"
         fill-rule="evenodd"
         stroke="#7b4600"
         stroke-width="3.78"
         stroke-linecap="round"
         stroke-linejoin="round"
         id="path9211"
         style="fill:none;fill-opacity:1;stroke:#6e9d62;stroke-opacity:1"
         sodipodi:nodetypes="cc" />
      <path
         d="m 31.93263,44.712655 c 0,0 8.4564,-2.066079 12.908672,-8.272904"
         fill="none"
         fill-rule="evenodd"
         stroke="#7b4600"
         stroke-width="3.78"
         stroke-linecap="round"
         stroke-linejoin="round"
         id="path2430"
         style="fill:none;fill-opacity:1;stroke:#6e9d62;stroke-opacity:1"
         sodipodi:nodetypes="cc" />
    </g>
    <path
       id="path35140"
       style="font-variation-settings:'opsz' 12, 'wght' 400;fill:#ed6c30;fill-opacity:1;stroke:none;stroke-width:5;stroke-linecap:round"
       d="m 57.518669,83.068031 c -14.52434,-3.9e-4 -26.298162,8.814162 -26.297381,17.539499 7.82e-4,8.72466 11.774148,3.92053 26.297381,3.92014 14.522312,-3.9e-4 26.294243,4.80397 26.295025,-3.92014 7.83e-4,-8.724784 -11.771606,-17.539108 -26.295025,-17.539499 z"
       sodipodi:nodetypes="sssss" />
  </g>
</svg>
