<svg id="engSV0UXfF21" xmlns="http://www.w3.org/2000/svg" xmlns:xlink="http://www.w3.org/1999/xlink" viewBox="0 0 150 150" shape-rendering="geometricPrecision" text-rendering="geometricPrecision" project-id="f318bab2df6f4406b81bcf3d83446442" export-id="3ad3da611b9a40ac9e7d0d32df6f5026" cached="false"><g transform="translate(0 0.000001)"><path d="M49.640625,140.015625l2.835937-37.382813-9.796874-15.984374-12.28125-9.820313L11.414062,86.625l-.890624-.726562L24.632812,71.484375L13.476562,60.210938l-3.375-22.734376l1.335938-.421874L21.46875,56.4375l10.523438,8.835938-2.53125-21.46875l1.171874-.46875L39.984375,71.0625l7.289063,6.726562l8.179687,9.070313.539063-30.421875L44.039062,31.265625l.585938-.9375L58.945312,42.539062L66.09375,19.171875L78.304688,5.0625l1.265624.515625L72,24L68.625,38.320312L80.835938,26.109375l6.304687-11.789063.84375.351563L85.453125,24l15.585937-2.53125.023438,1.101562-16.453125,6.890626-16.429687,17.90625-.9375,31.054687L84.445312,62.25L99.773438,52.21875l10.523437-22.734375l1.546875.539063-3.023438,18.421874l30.960938-.421874-.515625,1.6875L115.78125,53.71875L97.148438,65.414062L116.625,72.46875l19.78125-5.90625.375,1.054688-15,7.148437l17.695312,12.820313-.539062.867187L120,77.929688l-13.054688-3.796876l7.78125,14.484376-1.03125.257812-12.210937-14.320312-10.523437-3.375-20.625,25.6875L76.242188,140.25L63,141.046875l-13.359375-1.03125Zm0,0" transform="translate(0 0.000001)" fill="#855c52"/></g></svg>
