<?xml version="1.0" encoding="UTF-8" standalone="no"?>
<!-- Generator: Adobe Illustrator 25.2.3, SVG Export Plug-In . SVG Version: 6.00 Build 0)  -->

<svg
   version="1.1"
   id="Layer_3"
   x="0px"
   y="0px"
   viewBox="0 0 128 128"
   style="enable-background:new 0 0 128 128;"
   xml:space="preserve"
   sodipodi:docname="emoji_u1f95e.svg"
   inkscape:version="1.2.2 (732a01da63, 2022-12-09)"
   xmlns:inkscape="http://www.inkscape.org/namespaces/inkscape"
   xmlns:sodipodi="http://sodipodi.sourceforge.net/DTD/sodipodi-0.dtd"
   xmlns="http://www.w3.org/2000/svg"
   xmlns:svg="http://www.w3.org/2000/svg"><defs
   id="defs14877" /><sodipodi:namedview
   id="namedview14875"
   pagecolor="#ffffff"
   bordercolor="#000000"
   borderopacity="0.25"
   inkscape:showpageshadow="2"
   inkscape:pageopacity="0.0"
   inkscape:pagecheckerboard="0"
   inkscape:deskcolor="#d1d1d1"
   showgrid="false"
   inkscape:zoom="1"
   inkscape:cx="-28"
   inkscape:cy="143"
   inkscape:window-width="1366"
   inkscape:window-height="697"
   inkscape:window-x="-8"
   inkscape:window-y="-8"
   inkscape:window-maximized="1"
   inkscape:current-layer="Layer_3" />
<path
   style="fill:#D17020;"
   d="M87.7,110.45c0,0-28.85,4.11-29.55,5.05c-0.6,0.79-1.12,1.46,1.92,4.12  c2.84,2.48,14.05,10.1,37.68,2.95c13.66-4.13,20.21-17.15,18.02-20.86s-5.68-2.4-5.68-2.4L87.7,110.45z"
   id="path14828" />
<path
   style="fill:#d17020;fill-opacity:1"
   d="M64.54,112.52c0,0-7.28-0.02-6.51,3.14c0.28,1.17,7.92,3.32,13.05,3.64  c5.24,0.33,14.01,0.39,25.59-4.2c9.74-3.86,13.83-7.17,16.69-11.7c1.38-2.19,0.11-4.93,0.11-4.93L64.54,112.52z"
   id="path14830" />
<path
   style="fill:#FCE9C5;"
   d="M8.75,69.52c0,0-1.54,1.21-2.97,5.84c-1.07,3.45-2.97,8.7-0.31,14.6  c1.89,4.19,11.79,24.78,55.55,26.53c46.09,1.84,58.52-22.47,60.01-28.23c2.23-8.67-1.05-13.13-2.49-14.18  C117.08,73.02,8.75,69.52,8.75,69.52z"
   id="path14832" />
<path
   style="fill:#FFA828;"
   d="M14.66,66.58c-0.26,0.39-7.35,4.86-7.35,4.86s-3.68,8.01,2.89,16.68S30.94,107.03,61.28,109  c30.33,1.97,53.71-10.9,57.52-23.37c3.81-12.47-3.84-14.94-3.84-14.94L14.66,66.58z"
   id="path14834" />
<path
   style="fill:#d17020;fill-opacity:1"
   d="M77.95,93.5c-0.13,1.44,1.21,5.21,5.6,8.32c3.31,2.35,6.23,3.2,6.61,3.49  c0.05,1.08,0.29,6.9-0.49,8.61c-0.79,1.71-6.07,2.42-6.07,2.42h8.14c0,0,5.12,1.84,5.12-3.15s1.07-10.31,1.86-11.88  c0.43-0.85,3.79-2.68,6.03-5.66c1.9-2.54,2.52-5.23,2.75-6.36s0.95-3.59-0.79-4.73C104.76,83.3,77.95,93.5,77.95,93.5z"
   id="path14836" />
<path
   style="fill:#FCE9C5;"
   d="M8.62,48.2c0,0-4.86,4.86-4.33,14.31s11.16,32.7,57.52,34.27c45.69,1.55,59.81-23.1,61.45-30.33  c1.5-6.61-0.38-11.75-3.4-15.82s-71.58-7.29-71.58-7.29L8.62,48.2z"
   id="path14838" />
<path
   style="fill:#FFA828;"
   d="M12.3,45.57c0,0-6.48,2.45-6.04,10.51c0.53,9.72,15.63,32.57,57.38,32.43  c37.16-0.12,57.52-20.35,57.78-30.99c0.26-10.51-8.01-11.03-8.01-11.03L12.3,45.57z"
   id="path14840" />
<path
   style="fill:#d17020;fill-opacity:1"
   d="M92.4,66.06L64.82,70c0,0,2.01,5.12,9.45,8.67c8.27,3.94,15.23,3.15,15.63,5.78  c0.39,2.63,0.78,10.45,0.78,10.45l3.16-0.6l7.98-19.73l4.03-5.04c0,0,2.56-7.14-0.33-9.76C102.64,57.13,92.4,66.06,92.4,66.06z"
   id="path14842" />
<path
   style="fill:#FCE9C5;"
   d="M26.35,18.52c-0.39,0-10.64,1.44-10.64,1.44S7,24.66,6.65,37.3C6.25,51.48,19.39,71.05,62.33,71.31  c43.99,0.27,58.94-17.04,59.88-29.02c1.12-14.27-6.96-20.1-6.96-20.1L26.35,18.52z"
   id="path14844" />
<path
   style="fill:#FFA828;"
   d="M10.46,31.52c0.15,15.23,16.41,30.33,53.44,31.65c36.14,1.28,55.94-16.28,55.81-30.99  C119.59,18.52,97.79,5.26,63.25,5.13C28.18,5,10.33,18.13,10.46,31.52z"
   id="path14846" />
<path
   style="fill:#D0701C;"
   d="M85.37,75.82c0.1,3.05,7.4,4.36,7.84,6.75c0.44,2.4,0.66,12.04,0.66,12.04s-1.99,0.83-4.2,1.29  c-2.5,0.52-5.23,0.75-4.82,2.18c1.01,3.47,8.42,5.25,8.42,5.25s0.35,5.37,0.22,7.62c-0.3,5.27-1.75,6.17-1.75,6.17l3.64,2.97  l4.57-5.65c0,0-0.22-5.08-0.29-6.75c-0.07-1.67-0.22-5.15-0.22-5.15s3.66-2.71,6.13-7.47c1.84-3.55,1.86-6.1-0.46-5.01  c-2.32,1.09-5.98,3.11-5.98,3.11s-0.48-8.92,0.31-11.24c0.8-2.32,7.19-11.25,6.24-12.78s-6.75,1.81-10.24,2.76  C91.97,72.84,85.29,73.64,85.37,75.82z"
   id="path14848" />
<path
   style="fill:#d17020;fill-opacity:1"
   d="M46.8,5.2c0,0-8.71,0.91-9.52,6.53c-0.82,5.62,0.27,6.44-3.36,8.53s-13.82,7.51-14.37,9.5  s-1.69,7.72,11.19,9.18c8.91,1.01,11.6-0.11,16.87,3.7s6.41,10.76,14.95,13.72c5.66,1.96,9.63,0.36,14.35,2.63  c4.72,2.27,9.17,6.67,14.38,5.66c4.4-0.85,7.28-14.06,7.28-14.34s0.45-15.23,0.45-15.23s-1.96-2.63-0.61-5.3  c0.92-1.83,7.8-6.5,8.8-9.25c0.94-2.58,0.53-5.39-0.74-6.39s-14.95,1.59-15.22,1.22s-16.51-3.81-18.87-4.54  C70.02,10.1,46.8,5.2,46.8,5.2z"
   id="path14850" />
<path
   style="fill:#CF701E;"
   d="M95.6,28.51c-0.65,5.77,6.81,5.99,7.08,13.61c0.18,5.26-3.45,8.44-4.99,12.06  c-1.54,3.63-3.63,6.8-6.98,7.53c-3.36,0.73-9.36-4.11-14.53-6.02c-5.17-1.9-8.01,1.12-15.74-3.25c-4.56-2.57-9.55-12.96-15.72-14.77  c-2.81-0.83-8.94-0.67-14.07-1.36c-6.13-0.83-11.13-2.62-11.24-5.44c-0.27-7.44,17.51-10.7,19.23-13.33  c1.72-2.63-2.29-10.95,8.53-12.79c14.42-2.45,21.23,3.63,30.2,5.26s24.27,0.05,28.12,3.08C112.38,18.53,96.24,22.89,95.6,28.51z"
   id="path14852" />










<path
   style="fill:#fade62"
   d="m 48.894141,16.193203 c 0,0 0.48,-1.44 2.82,-1.81 2.34,-0.37 8.15,-0.37 10.7,-0.96 2.56,-0.59 6.87,-2.77 9.1,-2.29 2.24,0.48 4.52,5.35 5.09,6.26 2.41,3.81 4.33,6.51 4.59,7.95 0.27,1.44 -11.87,6.5 -12.45,6.5 -0.58,0 -9,5.8 -11.29,1.12 -2.29,-4.68 -8.46,-16.93 -8.56,-16.77 z"
   id="path16550" /><path
   style="fill:#f5ad02"
   d="m 67.684141,27.743203 c -2.82,0.59 -9.049632,2.237092 -9.049632,2.237092 -2.455346,0.456946 -3.003859,2.15867 -2.904402,3.473874 0,0 1.459172,2.462376 2.483715,2.462376 1.720327,0 7.370319,-1.503342 11.460319,-2.563342 3.73,-0.97 11.28,-2.74 11.6,-3.43 0.32,-0.69 0.67,-4.97 -0.28,-5.14 -0.58,-0.1 -3.82,0.77 -5.63,1.2 -2.55,0.6 -4.86,1.18 -7.68,1.76 z"
   id="path16552"
   sodipodi:nodetypes="cccccsccc" /><path
   style="fill:#fdc641;fill-opacity:1"
   d="m 47.894141,20.083203 c 0.22,0.68 2.13,4.79 3.67,7.24 1.54,2.45 5.22,8.44 6.28,8.55 0.97,0.1 0.87,-1.56 0.95,-2.63 0.09,-1.23 0.06,-2.35 -0.2,-3.2 -0.27,-0.85 -2.56,-4.47 -3.78,-6.39 -1.22,-1.92 -4.79,-8.25 -5.59,-7.99 -0.8,0.27 -1.7,3.25 -1.33,4.42 z"
   id="path16554" /></svg>
