<?xml version="1.0" encoding="UTF-8" standalone="no"?>
<svg
   width="100%"
   height="100%"
   viewBox="0 0 128 128"
   version="1.1"
   xml:space="preserve"
   style="fill-rule:evenodd;clip-rule:evenodd;stroke-linejoin:round;stroke-miterlimit:2;"
   id="svg51372"
   sodipodi:docname="emoji_u1f601.svg"
   inkscape:version="1.2.2 (732a01da63, 2022-12-09)"
   xmlns:inkscape="http://www.inkscape.org/namespaces/inkscape"
   xmlns:sodipodi="http://sodipodi.sourceforge.net/DTD/sodipodi-0.dtd"
   xmlns="http://www.w3.org/2000/svg"
   xmlns:svg="http://www.w3.org/2000/svg"><defs
   id="defs51376" /><sodipodi:namedview
   id="namedview51374"
   pagecolor="#ffffff"
   bordercolor="#000000"
   borderopacity="0.25"
   inkscape:showpageshadow="2"
   inkscape:pageopacity="0.0"
   inkscape:pagecheckerboard="0"
   inkscape:deskcolor="#d1d1d1"
   showgrid="false"
   inkscape:zoom="1.4998398"
   inkscape:cx="43.337962"
   inkscape:cy="60.006408"
   inkscape:window-width="1366"
   inkscape:window-height="697"
   inkscape:window-x="-8"
   inkscape:window-y="-8"
   inkscape:window-maximized="1"
   inkscape:current-layer="svg51372" />
    <path
   d="M63.89,9.64C1.58,9.64 0.1,79.5 0.1,93.33C0.1,107.16 28.66,118.36 63.89,118.36C99.13,118.36 127.68,107.15 127.68,93.33C127.68,79.5 126.21,9.64 63.89,9.64Z"
   style="fill:rgb(252,194,27);fill-rule:nonzero;"
   id="path51358" />
    <path
   d="m 31.96,53.033544 c -0.772,1.274 -2.451,1.692 -3.73,0.93 -1.276,-0.758 -1.708,-2.428 -0.96,-3.71 0.18,-0.31 4.6,-7.62 14.37,-7.62 9.78,0 14.2,7.31 14.39,7.62 0.243,0.418 0.371,0.892 0.371,1.375 0,1.499 -1.232,2.733 -2.731,2.735 -0.92,0 -1.83,-0.47 -2.34,-1.32 -0.13,-0.22 -3.12,-4.96 -9.69,-4.96 -6.57,-0.01 -9.54,4.74 -9.68,4.95 z m 68.04,0.94 c -0.43,0.26 -0.91,0.38 -1.37,0.38 -0.94,0 -1.85,-0.49 -2.36,-1.34 -0.11,-0.2 -3.08,-4.94 -9.66,-4.94 -6.69,0 -9.66,4.89 -9.69,4.94 -0.496,0.802 -1.374,1.292 -2.317,1.292 -1.495,0 -2.724,-1.229 -2.724,-2.724 0,-0.469 0.121,-0.93 0.351,-1.338 0.18,-0.31 4.6,-7.62 14.38,-7.62 9.77,0 14.18,7.31 14.36,7.62 0.76,1.3 0.32,2.97 -0.97,3.73 z"
   style="fill:#2f2f2f;fill-rule:nonzero"
   id="path51360" />
    
    
    
    
<path
   id="path51495"
   style="fill:#ffffff;fill-rule:nonzero;stroke:none;stroke-width:6;stroke-dasharray:none;stroke-opacity:1;fill-opacity:1"
   d="m 30.703125,65.336236 c -1.839754,0 -3.662109,1.224801 -3.662109,3.847656 0,7.263303 12.261552,25.927735 36.960937,25.927735 24.699385,0 36.960937,-18.664432 36.960937,-25.927735 0,-2.622855 -1.822355,-3.847656 -3.662109,-3.847656 -2.777035,0 -22.758025,3.388672 -33.298828,3.388672 -10.540802,0 -30.521793,-3.388672 -33.298828,-3.388672 z" /><path
   style="color:#000000;clip-rule:nonzero;fill:#e6e6e6;fill-rule:nonzero;stroke-width:6;stroke-linecap:round;stroke-linejoin:miter;-inkscape-stroke:none"
   d="M 27.336253,80.341914 H 100.17736"
   id="path41414" /><path
   id="path41416"
   style="color:#000000;clip-rule:nonzero;fill:#e6e6e6;fill-rule:nonzero;stroke-width:1;stroke-linecap:round;stroke-linejoin:miter;-inkscape-stroke:none"
   d="M 29.708984 76.927734 C 30.520965 78.30763 31.51843 79.735674 32.703125 81.160156 L 95.300781 81.160156 C 96.485477 79.735674 97.482942 78.30763 98.294922 76.927734 L 29.708984 76.927734 z " /></svg>
