<svg id="eoqrgWe7PdN1" xmlns="http://www.w3.org/2000/svg" xmlns:xlink="http://www.w3.org/1999/xlink" viewBox="0 0 150 150" shape-rendering="geometricPrecision" text-rendering="geometricPrecision" project-id="41088c0a186e4389ac14c3db9f2b2091" export-id="5992034ad4d045fda463a27693c62353" cached="false"><g><path d="M56.95,48.75c-6.93-1.93-11.46-3.61-14.85-5.82-1.79-1.17-3.16-2.43-4.22-3.8m-2.16-3.96c-.57-1.55-2.3-2.35-3.85-1.78s-2.35,2.3-1.78,3.85c1.55,4.21,4.46,7.71,8.68,10.46c3.58,2.33,8.08,4.21,13.77,5.96" transform="matrix(2.34375 0 0 2.34375-.000001 0)" fill="none" stroke="#3584e4" stroke-width="3" stroke-linecap="round"/><path d="M28.65,57.99c1.45-5.09,2.35-9.65-.17-13.71-1.48-2.38-3.19-4.26-3.38-6.29m.01-4.95c1.02-3.01,6.24-8.09,11.99-4.77c5.51,3.18,4.09,12.4,19.5,14.6" transform="matrix(2.34375 0 0 2.34375 0 0)" fill="none" stroke="#3584e4" stroke-width="3" stroke-linecap="round"/><path d="M23.27,55.78c1.17-4.13,1.81-6.51-1.8-11.59-2.43-3.41-2.78-10.51-1.8-13.29c1.95-4.78,6.14-7.97,10.99-9.3m6.2.39c2.47.79,5,3.22,6.07,4.96c3.92,6.35,8.44,8.98,13.03,10.15" transform="matrix(2.34375 0 0 2.34375 0 0)" fill="none" stroke="#3584e4" stroke-width="3" stroke-linecap="round"/><path d="M18.36,50.63c.06-1.97-1.72-4.83-2.6-6.61-.89-1.78-3.3-10.04-.89-15.63m2.84-4.73c3.32-4.28,8.57-8.2,14.88-8.29c5.79-.09,9.43,2.09,12.26,5.2m3.3,4.07c1.78,2.79,2.67,3.94,4.57,5.21" transform="matrix(2.34375 0 0 2.34375 0.000001 0.000001)" fill="none" stroke="#3584e4" stroke-width="3" stroke-linecap="round"/><path d="M39.39,58.52c.72.58,2.2,1.57,2.65,1.71" transform="matrix(2.34375 0 0 2.34375 0 0)" fill="none" stroke="#3584e4" stroke-width="3" stroke-linecap="round"/><path d="M33.15,60.59c1.71-3.19.46-5.94,2.38-7.19c2.72-1.76,9.21,3.5,12.94,4.09" transform="matrix(2.34375 0 0 2.34375 0 0)" fill="none" stroke="#3584e4" stroke-width="3" stroke-linecap="round"/><path d="M9.14,31.12c.49-8.07,5.55-16.27,14.29-19.31m6.12-1.98c3.63-.34,7.36.25,10.56,1.84" transform="matrix(2.34375 0 0 2.34375 0 0.000001)" fill="none" stroke="#3584e4" stroke-width="3" stroke-linecap="round"/><path d="M8.26,16.39C12.89,8.83,20.71,4.45,31.7,4.89" transform="matrix(2.34375 0 0 2.34375 0 0.000001)" fill="none" stroke="#3584e4" stroke-width="3" stroke-linecap="round"/></g></svg>
