<?xml version="1.0" encoding="UTF-8" standalone="no"?><!DOCTYPE svg PUBLIC "-//W3C//DTD SVG 1.1//EN" "http://www.w3.org/Graphics/SVG/1.1/DTD/svg11.dtd"><svg width="100%" height="100%" viewBox="0 0 534 534" version="1.1" xmlns="http://www.w3.org/2000/svg" xmlns:xlink="http://www.w3.org/1999/xlink" xml:space="preserve" xmlns:serif="http://www.serif.com/" style="fill-rule:evenodd;clip-rule:evenodd;stroke-linecap:round;stroke-linejoin:round;stroke-miterlimit:1.5;"><path d="M266.667,53.503c-260.042,-0 -265.25,264.162 -265.25,321.829c-0,57.75 119.125,104.5 266.166,104.5c147,-0 266.167,-46.75 266.167,-104.5c0,-57.667 -7.083,-321.829 -267.083,-321.829Z" style="fill:#fcc21b;fill-rule:nonzero;"/><path d="M217.944,201.679c0,-0 -50.654,-8.56 -87.636,24.713" style="fill:none;stroke:#333;stroke-width:20.83px;"/><path d="M343.516,276.629c-18.803,-6.768 -61.762,18.286 -86.559,18.286c-24.797,-0 -24.283,-1.881 -52.135,-1.881c-27.853,0 -50.417,28.528 -50.417,63.738c0,35.21 22.564,63.737 50.417,63.737c27.852,0 41.229,-14.949 61.845,-14.949c20.616,0 33.993,14.949 61.845,14.949c27.852,0 50.416,-28.57 50.416,-63.78c0,-35.167 -5.033,-69.164 -35.412,-80.1Z" style="fill:#ed6c30;fill-rule:nonzero;"/><path d="M119.084,321.079c32.018,-2.794 14.136,38.413 15.521,52.562c0.298,3.142 1.996,6.725 3.964,4.218c0.81,-1.033 61.909,-64.38 61.909,-64.38c6.632,-6.979 16.237,-8.66 23.207,-2.064c6.969,6.596 5.841,16.293 -0.791,23.273l-45.516,49.349l62.716,-64.557c6.632,-6.979 16.237,-8.66 23.206,-2.064c6.97,6.596 5.841,16.294 -0.791,23.273l-61.455,66.509l51.181,-52.692c6.632,-6.979 16.237,-8.66 23.207,-2.064c6.97,6.596 5.841,16.294 -0.791,23.273l-50.015,54.437l31.357,-31.773c6.632,-6.98 16.237,-8.66 23.207,-2.065c6.97,6.596 4.426,14.926 -2.196,21.941c-0,0 -67.141,71.372 -74.669,78.048c-18.822,16.69 -67.199,26.819 -97.35,-1.091c-37.127,-34.388 -15.37,-78.807 -10.474,-95.454c3.846,-13.027 9.548,-26.668 12.073,-40.427c2.207,-12.045 3.054,-37.429 12.5,-38.252Z" style="fill:#fac036;stroke:#212121;stroke-width:12.5px;stroke-linecap:butt;stroke-miterlimit:2;"/><path d="M315.389,201.679c0,-0 50.654,-8.56 87.636,24.713" style="fill:none;stroke:#333;stroke-width:20.83px;"/></svg>