<?xml version="1.0" encoding="UTF-8" standalone="no"?>
<!-- Generator: Adobe Illustrator 25.2.3, SVG Export Plug-In . SVG Version: 6.00 Build 0)  -->

<svg
   version="1.1"
   id="Layer_3"
   x="0px"
   y="0px"
   viewBox="0 0 128 128"
   style="enable-background:new 0 0 128 128;"
   xml:space="preserve"
   sodipodi:docname="emoji_u1f96d.svg"
   inkscape:version="1.2.2 (732a01da63, 2022-12-09)"
   xmlns:inkscape="http://www.inkscape.org/namespaces/inkscape"
   xmlns:sodipodi="http://sodipodi.sourceforge.net/DTD/sodipodi-0.dtd"
   xmlns="http://www.w3.org/2000/svg"
   xmlns:svg="http://www.w3.org/2000/svg"><defs
   id="defs16827" /><sodipodi:namedview
   id="namedview16825"
   pagecolor="#ffffff"
   bordercolor="#000000"
   borderopacity="0.25"
   inkscape:showpageshadow="2"
   inkscape:pageopacity="0.0"
   inkscape:pagecheckerboard="0"
   inkscape:deskcolor="#d1d1d1"
   showgrid="false"
   inkscape:zoom="4.2421875"
   inkscape:cx="89.812155"
   inkscape:cy="71.896869"
   inkscape:window-width="1366"
   inkscape:window-height="697"
   inkscape:window-x="-8"
   inkscape:window-y="-8"
   inkscape:window-maximized="1"
   inkscape:current-layer="Layer_3" />
<radialGradient
   id="SVGID_1_"
   cx="75.4235"
   cy="-61.6127"
   r="183.9634"
   gradientUnits="userSpaceOnUse">
	<stop
   offset="0.38728461"
   style="stop-color:#F33A1F"
   id="stop16793" />
	
	<stop
   offset="0.94563073"
   style="stop-color:#FD9124"
   id="stop16797" />
	
	
	
	
	
	
</radialGradient>
<path
   style="fill:url(#SVGID_1_);"
   d="M4.03,89.43c-1.2,6.01,5.66,29.12,41.45,33.74c18.39,2.37,36.45-4.16,50.75-15.11  S119.3,83,122.31,70.11c4.63-19.85-0.69-49.82-40.06-51.59C41.99,16.71,28.46,58.8,20.02,71.17C9.86,86.08,5.12,84,4.03,89.43z"
   id="path16812" />

<path
   style="fill:#FFEBC9;"
   d="M26.04,76.62c2.36,3.93,9.35-1.14,14.27-6.07c7.1-7.12,10.33-13.64,12.22-16.95  c1.89-3.31,4.45-10.44-0.71-11.59c-5.37-1.19-6.96,5.45-9.72,10.34s-6.6,10.71-9.68,14.5C29.15,70.88,24.64,74.29,26.04,76.62z"
   id="path16816" />
<path
   style="fill:#6D4C41;"
   d="M102.36,24.98c-0.68,2.97,2.05,5.05,3.94,6.54s6.15,2.05,7.57,1.02c1.42-1.02-0.16-4.02,0.87-5.83  c1.02-1.81,2.84-4.02,0.63-5.52c-1.85-1.26-4.34-1.73-6.62-1.26s-2.29,2.21-3.23,2.68C104.56,23.09,102.59,23.96,102.36,24.98z"
   id="path16818" />
<path
   style="fill:#518E30;"
   d="M100.14,25.88c-2.52,1.1-9.94,6.95-27.26,8.28c-19.1,1.47-41.53-0.8-45.27-1.33  c-3.74-0.53-10.12-0.78-10.03-2.38c0.13-2.4,2.61-1.63,7.61-3.07c6.01-1.74,12.15-4.14,16.83-6.94C49.2,16.13,63.82,5.35,78.21,5.08  c15.76-0.29,20.83,4.67,24.7,8.81s3.93,8.48,2.86,10.22C104.71,25.85,103.21,24.55,100.14,25.88z"
   id="path16820" />
<path
   style="fill:#366918;"
   d="M50.46,24.92c0.37,0.46,7.35,0.72,11.24,0.59c8.88-0.29,15.91-2.65,24.66-3.63s16.38,0,16.67-0.34  c0.53-0.62-4.84-7.92-22.41-5.95c-6.47,0.73-14.79,4.02-20.53,6.31C56.43,23.39,50.11,24.48,50.46,24.92z"
   id="path16822" />
</svg>
