<?xml version="1.0" encoding="UTF-8" standalone="no"?>
<!-- Generator: Adobe Illustrator 25.2.3, SVG Export Plug-In . SVG Version: 6.00 Build 0)  -->

<svg
   version="1.1"
   id="Layer_5"
   x="0px"
   y="0px"
   viewBox="0 0 128 128"
   style="enable-background:new 0 0 128 128;"
   xml:space="preserve"
   sodipodi:docname="emoji_u1fa93.svg"
   inkscape:version="1.2.2 (732a01da63, 2022-12-09)"
   xmlns:inkscape="http://www.inkscape.org/namespaces/inkscape"
   xmlns:sodipodi="http://sodipodi.sourceforge.net/DTD/sodipodi-0.dtd"
   xmlns="http://www.w3.org/2000/svg"
   xmlns:svg="http://www.w3.org/2000/svg"><defs
   id="defs37955">
	
	
	
	
	
	
	
		
	
</defs><sodipodi:namedview
   id="namedview37953"
   pagecolor="#ffffff"
   bordercolor="#000000"
   borderopacity="0.25"
   inkscape:showpageshadow="2"
   inkscape:pageopacity="0.0"
   inkscape:pagecheckerboard="0"
   inkscape:deskcolor="#d1d1d1"
   showgrid="false"
   showguides="false"
   inkscape:zoom="2.1210938"
   inkscape:cx="92.876611"
   inkscape:cy="99.948435"
   inkscape:window-width="1366"
   inkscape:window-height="697"
   inkscape:window-x="-8"
   inkscape:window-y="-8"
   inkscape:window-maximized="1"
   inkscape:current-layer="Layer_5" />
<g
   id="g38657"><path
     style="fill:#ffcc80"
     d="M 97.66,113.81 C 91.95,87.49 81.91,84 70.23,70.55 62.12,61.21 60.07,57.08 55,46.98 49.93,36.88 46.6,30.24 46.6,30.24 L 65.87,19.38 c 0,0 12.01,27.56 22.87,38.42 5.46,5.46 23.05,22.9 35.2,56.04 1.15,3.14 0,11.75 -13.21,9.91 -10.92,-1.53 -12.19,-5.91 -13.07,-9.94 z"
     id="path37934" /><path
     id="path37938"
     style="fill:#f44336"
     d="M 57.382812,4 C 55.892814,3.985 53.999998,4.3047663 52,5.0097656 50.050002,5.6897649 14.720931,21.68094 8.4609375,23.960938 4.990941,25.220936 3.8204687,24.700237 3.7304688,27.740234 c -0.050139,1.548025 0.2596038,4.329033 1.1289062,7.740235 1.4229534,6.643892 5.400853,16.520169 14.623047,24.162109 0.0053,0.0045 0.01028,0.0092 0.01563,0.01367 0.407816,0.340887 0.824453,0.676094 1.251953,1.003906 -0.0033,-0.0046 -0.01221,-0.01489 -0.01563,-0.01953 2.567605,1.969291 5.507416,3.764674 8.875,5.279297 0.809999,0.37 2.950626,1.380155 4.140625,-0.08984 3.899996,-4.789995 14.179693,-24.719611 19.929688,-26.099609 1.839998,-0.44 3.709533,-0.741251 5.519531,-1.28125 7.649992,-2.269998 10.570548,-6.129846 11.810547,-8.339844 0.719999,-1.279999 0.759608,-2.418518 -0.400391,-4.478516 C 69.343095,23.37315 60.820923,5.9790829 60.501953,5.328125 60.455639,5.217912 60.414594,5.1063014 60.349609,5 59.95961,4.3650006 58.872811,4.015 57.382812,4 Z" /><path
     id="path37942"
     style="fill:#e0e0e0"
     d="M 18.662109 19.679688 C 14.007569 21.703096 10.139451 23.349594 8.4609375 23.960938 C 4.9909445 25.220934 3.8204686 24.70024 3.7304688 27.740234 C 3.7322107 28.600352 3.8222613 29.863691 4.0253906 31.369141 C 4.2081978 32.587387 4.4711972 33.957233 4.859375 35.480469 C 6.282327 42.124354 10.260237 52.000646 19.482422 59.642578 C 19.487722 59.647078 19.492697 59.65178 19.498047 59.65625 C 19.905862 59.997137 20.3225 60.332345 20.75 60.660156 C 20.746034 60.654722 20.739752 60.647277 20.734375 60.640625 C 20.720934 60.623994 20.706077 60.606147 20.695312 60.591797 C 23.26251 62.536917 26.210214 64.339536 29.619141 65.910156 C 30.148857 66.152126 31.247508 66.663266 32.277344 66.580078 C 32.383312 66.571064 32.488036 66.555933 32.591797 66.533203 C 32.924486 66.46205 33.242914 66.322566 33.523438 66.070312 C 33.524093 66.069715 33.524735 66.068958 33.525391 66.068359 C 33.603349 65.998063 33.678346 65.917485 33.75 65.830078 C 33.946883 65.588266 34.170441 65.283395 34.398438 64.96875 C 34.552542 64.753333 34.707778 64.534426 34.880859 64.28125 C 35.265913 63.718011 35.706357 63.042682 36.158203 62.34375 C 36.347801 62.049545 36.548622 61.734339 36.748047 61.419922 C 37.497024 60.245445 38.267027 59.01612 39.021484 57.806641 C 39.206933 57.508661 39.386603 57.221958 39.576172 56.917969 C 33.908206 54.47827 29.64824 51.448001 24.269531 44.429688 C 19.499541 38.2097 18.696018 31.64015 18.089844 24.810547 C 17.962649 23.377481 18.384455 21.032795 18.662109 19.679688 z " /><ellipse
     transform="rotate(-23.716978)"
     style="fill:#ffcc80;stroke-width:0.999953"
     cx="40.699036"
     cy="29.075182"
     rx="10.429505"
     ry="2.2498932"
     id="ellipse37946" /></g>
</svg>
