<?xml version="1.0" encoding="UTF-8" standalone="no"?>
<!-- Generator: Adobe Illustrator 25.2.3, SVG Export Plug-In . SVG Version: 6.00 Build 0)  -->

<svg
   version="1.1"
   id="Layer_2"
   x="0px"
   y="0px"
   viewBox="0 0 128 128"
   style="enable-background:new 0 0 128 128;"
   xml:space="preserve"
   sodipodi:docname="emoji_u1f93f.svg"
   inkscape:version="1.2.2 (732a01da63, 2022-12-09)"
   xmlns:inkscape="http://www.inkscape.org/namespaces/inkscape"
   xmlns:sodipodi="http://sodipodi.sourceforge.net/DTD/sodipodi-0.dtd"
   xmlns="http://www.w3.org/2000/svg"
   xmlns:svg="http://www.w3.org/2000/svg"><defs
   id="defs7176" /><sodipodi:namedview
   id="namedview7174"
   pagecolor="#ffffff"
   bordercolor="#000000"
   borderopacity="0.25"
   inkscape:showpageshadow="2"
   inkscape:pageopacity="0.0"
   inkscape:pagecheckerboard="0"
   inkscape:deskcolor="#d1d1d1"
   showgrid="false"
   inkscape:zoom="2.9996795"
   inkscape:cx="37.003953"
   inkscape:cy="71.340954"
   inkscape:window-width="1366"
   inkscape:window-height="697"
   inkscape:window-x="-8"
   inkscape:window-y="-8"
   inkscape:window-maximized="1"
   inkscape:current-layer="Layer_2" />
<radialGradient
   id="SVGID_1_"
   cx="60.5283"
   cy="14.7923"
   r="72.9624"
   gradientUnits="userSpaceOnUse">
	<stop
   offset="0.5011"
   style="stop-color:#5C727D"
   id="stop7135" />
	<stop
   offset="0.8408"
   style="stop-color:#484D4F"
   id="stop7137" />
</radialGradient>

<path
   style="fill:#4485f6"
   d="m 69.84032,111.80348 c 0,0 11.03,-0.87 21.17,-10.41 15.45,-14.530004 20.07,-39.620004 21.4,-50.350004 1.6,-12.93 -2.17,-23.8 -2.17,-23.8 l 8.24,-2.75 c 0,0 3.77,10.8 2.17,29.41 -1.26,14.65 -8.24,40.51 -22.66,53.670004 -12.9,11.77 -29.29,13.5 -29.29,13.5 z"
   id="path7142" />
<path
   style="fill:#484d4f"
   d="m 110.58032,58.253476 c 0,0 1.98,0.59 3.32,0.92 2.17,0.53 6.15,1.46 6.51,2.25 0.74,1.65 -1.47,11.02 -3.07,11.14 -1.6,0.11 -5.26,-0.8 -6.64,-1.72 -1.38,-0.92 -0.12,-12.59 -0.12,-12.59 z"
   id="path7144" />
<path
   style="fill:#1664c0"
   d="m 84.35032,105.04348 c 0,0 -1.67,-1.13 -3.1,0 -1.41,1.11 -0.9,2.93 -0.06,4.48 0.84,1.55 3.88,5.97 4.78,6.75 0.9,0.78 2.24,0.82 3.06,0.33 1.57,-0.94 1.04,-2.73 1.04,-2.73 0,0 1.43,1.27 3.12,0.33 1.78,-0.99 1.17,-2.83 1.17,-2.83 0,0 1.76,0.94 3.29,-0.23 1.42,-1.09 1.07,-2.64 1.07,-2.64 0,0 1.63,0.62 3.09,-0.94 1.29,-1.38 0.49,-2.96 0.49,-2.96 0,0 1.33,0.49 2.38,-0.75 1.2,-1.43 0.33,-2.99 -0.33,-3.65 -0.66,-0.660004 -5.21,-5.280004 -7.06,-6.050004 -0.64,-0.27 -1.69,-0.32 -2.44,0.36 -1.19,1.07 -0.26,2.6 -0.26,2.6 0,0 -1.44,-0.95 -2.64,0.13 -1.25,1.13 -0.38,2.920004 -0.38,2.920004 0,0 -1.53,-1.440004 -3.05,-0.360004 -1.2,0.860004 -0.48,2.690004 -0.48,2.690004 0,0 -1.47,-1.27 -2.93,-0.18 -1.43,1.07 -0.76,2.73 -0.76,2.73 z"
   id="path7146" />
<path
   style="fill:#7fdafb"
   d="m 99.97032,9.3734758 c -0.24,1.7000002 6.29,16.3300002 6.61,17.0900002 0.52,1.24 3.76,4.79 8.9,2.49 4.39,-1.96 3.33,-6.82 3.14,-7.53 -0.72,-2.68 -5.17,-16.5600002 -6.81,-16.8900002 -1.37,-0.28 -11.65,3.46 -11.84,4.84 z"
   id="path7148" />
<path
   id="path7150"
   style="fill:#5c727f;stroke-width:0.999998"
   d="m 66.551148,122.4566 c 0.118816,0.45156 0.512396,0.78907 1.04293,0.66869 0.530533,-0.12036 7.625809,-2.10312 7.959128,-2.21422 0.33332,-0.11109 0.550038,-0.56386 0.375662,-1.22609 l -2.299312,-8.732 c -0.118897,-0.45154 -0.513056,-0.78889 -1.04359,-0.66852 -0.530533,0.12037 -7.625809,2.10313 -7.959128,2.21422 -0.33332,0.11111 -0.550087,0.56389 -0.375662,1.22609 z"
   sodipodi:nodetypes="sssssssss" />

<path
   style="fill:#4383f4"
   d="m 11.292942,45.098932 c 0,0 1.08,-7.01 4.409999,-10.13 2.5,-2.34 5.72,-3.28 9.42,-3.55 3.7,-0.28 59.89,-0.26 64.24,-0.18 5.08,0.09 9.38,2.9 11.549999,5.55 2.54,3.1 3.49,9.01 3.49,10.58 0,1.57 -9.129999,-9.01 -9.129999,-9.01 l -17.24,-1.7 -53.18,-0.81 z"
   id="path7154" />

<path
   style="fill:#5c727d;stroke-width:0.999999"
   d="m 57.948853,83.466533 c -3.452633,0 -4.839464,-6.081834 -7.049727,-10.776837 -2.210263,-4.695003 -5.243957,-10.357898 -3.178156,-12.293684 2.065801,-1.935786 4.420526,-1.661308 10.083421,-1.791324 5.807357,-0.144462 8.841051,0.144462 10.227883,2.759217 1.300155,2.455848 -1.43017,7.237527 -3.178156,11.470253 -1.935785,4.680556 -3.871571,10.632375 -6.905265,10.632375 z"
   id="path7158" />
<linearGradient
   id="SVGID_2_"
   gradientUnits="userSpaceOnUse"
   x1="60.6284"
   y1="76.6649"
   x2="61.0103"
   y2="46.1064">
	<stop
   offset="0.1909"
   style="stop-color:#27A0E2"
   id="stop7160" />
	<stop
   offset="0.4261"
   style="stop-color:#80C7EE;stop-opacity:0.8729"
   id="stop7162" />
	<stop
   offset="0.746"
   style="stop-color:#FFFFFF;stop-opacity:0.7"
   id="stop7164" />
</linearGradient>

<path
   style="fill:#1565c4"
   d="m 14.672941,62.368932 0.55,-4.9 c 0,0 4.29,6.21 8.78,8.41 5,2.44 10.13,3.51 16.88,0.36 6.15,-2.86 8.52,-11.11 11.35,-13.83 0.96,-0.92 2.62,-2.2 5.78,-2.11 2.12,0.06 4.05,0.9 4.92,1.67 3.8,3.39 6.02,11.89 10.52,14.38 5.68,3.14 12.49,3.12 18.12,-0.39 5.64,-3.51 8.23,-7.21 8.23,-7.21 l -0.28,7.76 -8.97,9.06 -16.72,-2.11 -6.1,-6.38 -7.12,-9.06 c 0,0 -7.21,0 -7.39,0.28 -0.18,0.28 -6.56,9.8 -6.56,9.8 l -6.75,6.47 c 0,0 -11,1.02 -11.92,0.28 -0.92,-0.74 -10.07,-5.55 -10.07,-5.55 z"
   id="path7169" />
<path
   style="fill:#81d7ff"
   d="m 98.202941,37.298932 c -3.38,-1.87 -8.19,-2.8 -14.88,-2.69 -6.68,0.11 -55.19,-0.32 -58.21,-0.22 -3.02,0.11 -6.58,1.19 -8.84,2.8 -4.599999,3.29 -5.919999,9.7 -6.139999,16.82 -0.2700004,8.51 4.619999,24 22.299999,24.1 12.78,0.07 16.37,-8.43 19.58,-13.67 1.48,-2.41 2.65,-5.07 5.86,-4.98 3.45,0.1 4.27,2.56 5.36,4.49 3.1,5.53 6.12,14.42 20.08,14.34 15.52,-0.08 21.469999,-15.08 21.769999,-24.77 0.25,-8.72 -3.11,-14.13 -6.879999,-16.22 z m 1.4,16.71 c -0.43,7.65 -4.43,18.62 -16.06,19.08 -10.89,0.43 -13.8,-6.04 -15.42,-8.3 -1.62,-2.26 -4.5,-6.78 -6.05,-8.1 -2.16,-1.83 -7.19,-1.2 -8.7,0.1 -1.92,1.64 -4.03,5.14 -6.28,8.36 -3.77,5.39 -6.24,7.52 -13.89,7.84 -7.65,0.32 -13.91,-4.2 -16.39,-11.53 -2.92,-8.63 -1.29,-16.06 3.67,-19.73 2.4,-1.77 4.64,-2.48 7.01,-2.59 2.37,-0.11 55.84,-0.32 61.77,0.22 5.93,0.54 10.769999,7 10.34,14.65 z"
   id="path7171" />
</svg>
