<?xml version="1.0" encoding="UTF-8" standalone="no"?>
<svg
   width="128px"
   height="128px"
   version="1.1"
   xml:space="preserve"
   style="fill-rule:evenodd;clip-rule:evenodd;"
   id="svg10"
   sodipodi:docname="face with open eyes and hand over mouth.svg"
   inkscape:version="1.2.2 (732a01da63, 2022-12-09)"
   xmlns:inkscape="http://www.inkscape.org/namespaces/inkscape"
   xmlns:sodipodi="http://sodipodi.sourceforge.net/DTD/sodipodi-0.dtd"
   xmlns="http://www.w3.org/2000/svg"
   xmlns:svg="http://www.w3.org/2000/svg"><defs
     id="defs14" /><sodipodi:namedview
     id="namedview12"
     pagecolor="#ffffff"
     bordercolor="#000000"
     borderopacity="0.25"
     inkscape:showpageshadow="2"
     inkscape:pageopacity="0.0"
     inkscape:pagecheckerboard="0"
     inkscape:deskcolor="#d1d1d1"
     showgrid="false"
     inkscape:zoom="4.2421875"
     inkscape:cx="68.714549"
     inkscape:cy="74.254144"
     inkscape:window-width="1366"
     inkscape:window-height="697"
     inkscape:window-x="-8"
     inkscape:window-y="-8"
     inkscape:window-maximized="1"
     inkscape:current-layer="svg10" /><path
     d="M63.8,9.47C1.28,9.47 -0.2,79.55 -0.2,93.42C-0.2,107.3 28.45,118.53 63.8,118.53C99.15,118.53 127.79,107.3 127.79,93.42C127.79,79.55 126.31,9.47 63.8,9.47Z"
     style="fill:#fcc21b;fill-rule:nonzero;"
     id="path2" /><g
     transform="matrix(1,0,0,1,-0.204753,0)"
     id="g8"><path
       d="M42.21,66.47C37.72,66.51 34.04,62.2 33.99,56.85C33.94,51.48 37.54,47.1 42.03,47.06C46.51,47.02 50.2,51.33 50.25,56.7C50.3,62.06 46.7,66.43 42.21,66.47ZM86.32,66.47C90.8,66.46 94.43,62.11 94.42,56.76C94.41,51.39 90.76,47.06 86.28,47.07C81.79,47.08 78.15,51.43 78.16,56.8C78.18,62.15 81.83,66.48 86.32,66.47Z"
       style="fill:#2f2f2f;fill-rule:nonzero;"
       id="path6" /></g><g
     id="g23143"
     transform="matrix(1.2665524,-0.33937168,0.33937168,1.2665524,-103.94569,5.8918815)"
     style="stroke-width:0.762642"><path
       class="st23"
       d="m 97.3,119.7 c -2.9,0 -5.1,-0.7 -6.6,-1.3 -4.1,-1.7 -9,-4.6 -10.8,-12.5 -0.9,-3.7 -0.5,-8 0.8,-11 0.9,-2.1 2,-3.5 2.9,-4.7 0.8,-1.1 1.5,-2.1 2.1,-3.4 0.6,-1.5 1.9,-4.7 5.3,-4.8 v 0 c 1.5,0 2.8,0.7 3.7,1.8 1.1,1.4 1.4,3.3 1,5.1 -0.2,0.6 -0.4,1.2 -0.6,1.7 0.1,-0.1 0.1,-0.1 0.2,-0.2 0.1,-0.2 1.7,-1.8 2.2,-2.5 0.9,-1.1 7.4,-8.1 8.8,-9.6 1.4,-1.5 2.8,-1.8 3.8,-1.8 1.3,0 2.5,0.5 3.6,1.5 1.4,1.3 1.7,3 1.2,4.7 0.1,0 0.1,-0.1 0.1,-0.1 1,-0.9 2.1,-1.3 3.4,-1.3 1.7,0 3.3,0.9 4.2,2.2 1.4,2 0.7,4.6 -0.8,6.3 1.4,0.2 2.7,1.1 3.6,2.5 1.6,2.5 -0.1,5.5 -1.9,6.8 -0.2,0.1 -0.6,0.4 -1.4,0.9 1.1,0.5 1.9,1.4 2.4,2.5 1.1,2.6 -0.7,5.1 -2.7,6.4 -0.1,0 -5.1,3 -9.2,4.6 0,0 -2.5,1 -5.7,3.2 -2.9,2 -6.1,3 -9.6,3 z"
       id="path23139"
       style="fill:#fac036;stroke-width:0.762642" /><path
       class="st22"
       d="m 110,78.6 c 0.8,0 1.6,0.4 2.2,1 1.5,1.4 0.5,3.4 -0.3,4.4 -0.6,0.8 -9.4,9.1 -9.4,9.1 -0.1,1.1 0.5,1.3 1,1.3 0.2,0 0.4,0 0.4,0 2.5,-2.2 11,-9 12.4,-10.2 0.6,-0.6 1.4,-0.8 2.1,-0.8 1,0 2,0.5 2.6,1.4 1,1.5 -0.1,3.4 -0.9,4.2 -0.8,0.8 -9.6,6.8 -12.9,9 -0.7,1.5 1.1,1.8 1.1,1.8 4,-2.6 9.8,-6.5 11.1,-7.3 0.6,-0.4 1.2,-0.6 1.7,-0.6 1.1,0 2.1,0.7 2.7,1.6 0.9,1.5 -0.4,3.4 -1.4,4.1 -0.6,0.5 -9.6,5.5 -12.2,6.9 -0.5,0.6 -0.6,1 -0.4,1.3 0.2,0.5 0.8,0.6 0.8,0.6 4.4,-2.2 6.9,-3.7 8,-4.3 0.6,-0.3 1.2,-0.5 1.7,-0.5 1.1,0 2,0.6 2.4,1.7 0.7,1.7 -0.8,3.3 -1.9,3.9 -0.8,0.5 -5.4,3 -9,4.5 0,0 -2.6,1.1 -6,3.4 -2.8,2 -5.8,2.6 -8.4,2.6 -2.3,0 -4.3,-0.5 -5.8,-1.1 -4.4,-1.8 -8.1,-4.5 -9.6,-11.1 -0.7,-3.2 -0.5,-7.1 0.7,-9.8 1.6,-3.7 3.7,-5 5,-8.2 0.8,-2.1 1.7,-3.5 3.4,-3.5 0,0 0,0 0,0 1.9,0 3.3,2.1 2.7,4.4 -0.5,2.2 -2,3 -3.6,5.8 0.4,1.2 1.1,1.6 1.7,1.6 0.9,0 1.8,-0.9 1.8,-0.9 1.1,-1.1 2.1,-2.2 3,-3.1 0.1,-0.1 1.7,-1.9 2.3,-2.6 1,-1.1 7.3,-8.1 8.8,-9.6 0.7,-0.7 1.5,-1 2.2,-1 m 0,-4 c -1.3,0 -3.3,0.4 -5.2,2.4 -1.1,1.2 -5.1,5.5 -7.3,8 C 97.2,84.2 96.8,83.4 96.3,82.7 95,81 93.1,80.1 91,80.1 v 0 h -0.1 c -4.7,0.1 -6.4,4.4 -7.1,6 -0.4,1.1 -1,1.9 -1.8,3 -0.9,1.2 -2.1,2.8 -3.1,5.1 -1.5,3.4 -1.8,8.2 -0.9,12.3 2,8.8 7.5,12.1 12,13.9 1.6,0.6 4.1,1.4 7.3,1.4 3.8,0 7.5,-1.2 10.7,-3.3 3,-2.1 5.3,-3 5.3,-3 4.2,-1.7 9.4,-4.7 9.5,-4.8 2.8,-1.6 5.1,-5.1 3.6,-8.8 -0.2,-0.6 -0.6,-1.2 -0.9,-1.7 2.4,-2.2 3.6,-5.9 1.7,-8.9 -0.6,-1 -1.4,-1.8 -2.4,-2.4 0.8,-2 0.9,-4.4 -0.5,-6.4 -1.3,-1.9 -3.6,-3.1 -5.9,-3.1 -0.5,0 -1.1,0.1 -1.6,0.2 -0.3,-1.1 -0.9,-2.1 -1.8,-2.9 -1.5,-1.4 -3.2,-2.1 -5,-2.1 z"
       id="path23141"
       style="fill:#2f2f2f;stroke-width:0.762642" /></g></svg>
