<?xml version="1.0" encoding="UTF-8" standalone="no"?>
<svg
   width="128"
   height="128"
   style="enable-background:new 0 0 128 128;"
   version="1.1"
   id="svg36"
   sodipodi:docname="face holding back tears.svg"
   inkscape:version="1.2.2 (732a01da63, 2022-12-09)"
   xmlns:inkscape="http://www.inkscape.org/namespaces/inkscape"
   xmlns:sodipodi="http://sodipodi.sourceforge.net/DTD/sodipodi-0.dtd"
   xmlns="http://www.w3.org/2000/svg"
   xmlns:svg="http://www.w3.org/2000/svg">
  <defs
     id="defs40" />
  <sodipodi:namedview
     id="namedview38"
     pagecolor="#ffffff"
     bordercolor="#000000"
     borderopacity="0.25"
     inkscape:showpageshadow="2"
     inkscape:pageopacity="0.0"
     inkscape:pagecheckerboard="0"
     inkscape:deskcolor="#d1d1d1"
     showgrid="false"
     inkscape:zoom="4"
     inkscape:cx="80.875"
     inkscape:cy="86"
     inkscape:window-width="1366"
     inkscape:window-height="697"
     inkscape:window-x="-8"
     inkscape:window-y="-8"
     inkscape:window-maximized="1"
     inkscape:current-layer="svg36" />
  <path
     d="m 64,9.56 c -62.41,0 -63.88,69.96 -63.88,83.8 0,13.86 28.59,25.08 63.88,25.08 35.28,0 63.88,-11.22 63.88,-25.08 0,-13.84 -1.48,-83.8 -63.88,-83.8 z"
     style="fill:#fcc21b"
     id="path14" />
  <path
     d="M 39.802709,81.125434 C 27.931763,81.217137 18.202345,71.335311 18.070151,59.068998 17.93795,46.756827 27.455867,36.714496 39.326812,36.622789 c 11.844507,-0.0917 21.600364,9.790122 21.732557,22.102291 0.132204,12.289242 -9.412153,22.308643 -21.25666,22.400354 z"
     style="fill:#ffffff;stroke-width:1"
     id="path16" />
  <path
     d="M 88.514556,81.124403 C 100.35979,81.101472 109.95758,71.128161 109.93115,58.862129 109.90458,46.550244 100.25402,36.622785 88.408797,36.64571 76.537132,36.668642 66.912885,46.641951 66.939327,58.953837 66.965797,71.219868 76.64289,81.14733 88.514556,81.124403 Z"
     style="fill:#ffffff;stroke-width:1"
     id="path18" />
  <g
     id="g51030"
     transform="translate(0.18526661)">
    <path
       d="M 39.578469,76.962897 C 29.651786,77.039584 21.515885,68.776231 21.405341,58.518933 21.294795,48.223292 29.253834,39.825726 39.180519,39.749039 c 9.904575,-0.07669 18.062583,8.186664 18.173126,18.482305 0.110558,10.276472 -7.870601,18.654863 -17.775176,18.731553 z"
       style="fill:#2f2f2f;fill-opacity:1;stroke-width:1"
       id="path384" />
    <path
       id="path2834"
       style="font-variation-settings:'opsz' 12, 'wght' 400;fill:#ffffff;fill-opacity:1;stroke-width:5.66929;stroke-linecap:round"
       d="m 35.348918,43.764408 c -7.664644,-5.95e-4 -11.071716,5.85972 -11.071245,11.172443 4.17e-4,5.312177 3.40739,11.171644 11.071245,11.171046 7.663184,-1.68e-4 11.069108,-5.859335 11.069525,-11.171046 4.72e-4,-5.312256 -3.405554,-11.172274 -11.069525,-11.172443 z"
       sodipodi:nodetypes="ccccc" />
    <path
       id="path2841"
       style="font-variation-settings:'opsz' 12, 'wght' 400;fill:#ffffff;fill-opacity:1;stroke-width:5.66932;stroke-linecap:round"
       d="m 48.37432,62.527555 c 2.450035,-2.07e-4 3.53912,1.963836 3.538972,3.884011 -1.36e-4,1.919977 -1.089189,3.883713 -3.538972,3.883504 -2.449568,-5.7e-5 -3.538287,-1.963695 -3.53842,-3.883504 -1.51e-4,-1.920007 1.088599,-3.88395 3.53842,-3.884011 z"
       sodipodi:nodetypes="ccccc" />
  </g>
  <g
     id="g51035"
     transform="translate(-0.18525454)">
    <path
       d="M 88.81947,76.962897 C 78.892787,77.039584 70.756883,68.776231 70.64634,58.518933 70.535794,48.223292 78.494833,39.825726 88.421518,39.749039 c 9.904578,-0.07669 18.062602,8.186664 18.173132,18.482305 0.11051,10.276472 -7.870594,18.654863 -17.77518,18.731553 z"
       style="fill:#2f2f2f;fill-opacity:1;stroke-width:1"
       id="path1994" />
    <path
       id="path2845"
       style="font-variation-settings:'opsz' 12, 'wght' 400;fill:#ffffff;fill-opacity:1;stroke-width:5.66929;stroke-linecap:round"
       d="m 84.58992,43.764408 c -7.664645,-5.95e-4 -11.071718,5.85972 -11.071248,11.172443 4.19e-4,5.312177 3.407391,11.171644 11.071248,11.171046 7.663181,-1.68e-4 11.069109,-5.859335 11.069524,-11.171046 4.67e-4,-5.312256 -3.405556,-11.172274 -11.069524,-11.172443 z"
       sodipodi:nodetypes="ccccc" />
    <path
       id="path2849"
       style="font-variation-settings:'opsz' 12, 'wght' 400;fill:#ffffff;fill-opacity:1;stroke-width:5.66932;stroke-linecap:round"
       d="m 97.615316,62.527555 c 2.450044,-2.07e-4 3.539134,1.963836 3.538994,3.884011 -1.5e-4,1.919977 -1.08922,3.883713 -3.538994,3.883504 -2.449566,-5.7e-5 -3.53828,-1.963695 -3.538416,-3.883504 -1.44e-4,-1.920007 1.088597,-3.88395 3.538416,-3.884011 z"
       sodipodi:nodetypes="ccccc" />
  </g>
  <path
     style="font-variation-settings:'opsz' 12, 'wght' 400;fill:#fcc21b;fill-opacity:1;stroke-width:5.66929;stroke-linecap:round"
     d="M 35.017373,25.570679 18.878695,47.345583 c 0,0 4.644965,-0.02042 17.998603,-3.723237 9.920537,-2.750867 15.235273,-6.850764 15.235273,-6.850764 L 48.177095,22.125218 Z"
     id="path2050"
     sodipodi:nodetypes="ccsccc" />
  <path
     style="font-variation-settings:'opsz' 12, 'wght' 400;fill:#fcc21b;fill-opacity:1;stroke-width:5.66929;stroke-linecap:round"
     d="m 92.98263,25.570679 16.13868,21.774904 c 0,0 -4.64497,-0.02042 -17.998602,-3.723237 -9.920539,-2.750867 -15.235276,-6.850764 -15.235276,-6.850764 l 3.935477,-14.646364 z"
     id="path2780"
     sodipodi:nodetypes="ccsccc" />
  <path
     d="m 52.767404,87.893208 c 6.863287,4.395274 15.601903,4.395274 22.465192,0"
     style="fill:none;stroke:#2f2f2f;stroke-width:5.99999;stroke-linecap:round;stroke-linejoin:round;stroke-miterlimit:10"
     id="path22-3" />
  <path
     id="path14782"
     style="font-variation-settings:'opsz' 12, 'wght' 400;fill:#b2ebf2;fill-opacity:1;stroke-width:5.66929;stroke-linecap:round"
     d="M 25.21875 62.953125 C 24.261434 62.953125 21.814095 64.663351 19.402344 66.537109 C 22.465456 75.10507 30.470814 81.197089 39.802734 81.125 C 48.611582 81.056794 56.144841 75.49592 59.375 67.595703 C 59.17374 67.590985 58.962508 67.587891 58.724609 67.587891 C 57.344287 67.587891 57.387732 64.794922 54.232422 64.794922 C 50.790266 64.794922 51.223165 65.890625 48.976562 65.890625 C 46.846835 65.890625 46.537892 64.052734 43.714844 64.052734 C 41.59691 64.052734 40.207489 66.328126 38.441406 66.328125 C 36.675322 66.328125 35.723032 63.419922 33.492188 63.419922 C 31.261346 63.419922 30.718853 65.244142 29.138672 65.244141 C 27.558491 65.244141 27.356643 62.953125 25.21875 62.953125 z " />
  <path
     id="path16246"
     style="font-variation-settings:'opsz' 12, 'wght' 400;fill:#b2ebf2;fill-opacity:1;stroke-width:5.66929;stroke-linecap:round"
     d="M 102.74219 65.013672 C 99.346058 65.013672 99.384539 66.921875 97.167969 66.921875 C 95.066707 66.921875 95.295079 65.400391 92.509766 65.400391 C 90.420152 65.400391 89.437782 67.451172 87.695312 67.451172 C 85.95284 67.451172 85.20883 65.992187 83.007812 65.992188 C 80.806797 65.992188 80.516085 67.257813 78.957031 67.257812 C 77.397978 67.257812 74.912281 66.212906 73.341797 66.212891 C 71.936371 66.212877 70.671731 66.668286 68.820312 67.978516 C 72.19526 75.73808 79.754354 81.141916 88.513672 81.125 C 96.839623 81.108882 104.05031 76.173388 107.59375 68.984375 C 106.24649 68.949177 105.8414 65.013672 102.74219 65.013672 z " />
</svg>
