<?xml version="1.0" encoding="UTF-8" standalone="no"?>
<!DOCTYPE svg PUBLIC "-//W3C//DTD SVG 1.1//EN" "http://www.w3.org/Graphics/SVG/1.1/DTD/svg11.dtd">
<svg width="100%" height="100%" viewBox="0 0 128 128" version="1.1" xmlns="http://www.w3.org/2000/svg" xmlns:xlink="http://www.w3.org/1999/xlink" xml:space="preserve" xmlns:serif="http://www.serif.com/" style="fill-rule:evenodd;clip-rule:evenodd;">
    <path id="path33786" d="M64,9.64C1.69,9.64 0.21,79.5 0.21,93.33C0.21,107.16 28.77,118.36 64,118.36C99.24,118.36 127.79,107.15 127.79,93.33C127.79,79.5 126.32,9.64 64,9.64Z" style="fill:rgb(252,194,27);fill-rule:nonzero;"/>
    <g id="g33820" transform="matrix(-0.0374117,-0.588119,-0.588119,0.0374117,95.8931,85.3518)">
        <rect id="rect33818" x="0.03" y="0" width="127.94" height="128" style="fill:none;"/>
    </g>
    <path id="path24208" d="M63.79,82.856C55.896,82.856 52.404,87.495 52.405,92.459C52.407,97.422 55.898,100.83 63.79,100.83C71.682,100.83 75.173,97.422 75.175,92.459C75.176,87.495 71.684,82.856 63.79,82.856Z" style="fill:rgb(237,108,48);"/>
    <g id="g24827" transform="matrix(1,0,0,1,0.00237347,8.27555)">
        <g id="g24819">
            <g id="ellipse24815" transform="matrix(0.1106,-0.9939,0.9939,0.1106,29.1513,127.363)">
                <ellipse cx="85.74" cy="47.39" rx="16.61" ry="15.5" style="fill:white;"/>
            </g>
            <path id="path24817" d="M92.42,47.36C92.19,50.66 89.28,53.18 85.93,52.98C82.57,52.79 80.03,49.94 80.26,46.64C80.48,43.33 83.38,40.82 86.74,41.02C90.1,41.21 92.65,44.06 92.42,47.36" style="fill:rgb(47,47,47);"/>
        </g>
        <g id="g24825">
            <g id="ellipse24821" transform="matrix(0.9972,-0.0752,0.0752,0.9972,-3.4436,3.3101)">
                <ellipse cx="42.25" cy="47.4" rx="15.5" ry="16.61" style="fill:white;"/>
            </g>
            <path id="path24823" d="M48.81,46.13C49.19,49.42 46.8,52.43 43.47,52.85C40.13,53.28 37.11,50.95 36.73,47.67C36.33,44.38 38.72,41.37 42.06,40.94C45.39,40.52 48.42,42.85 48.81,46.13" style="fill:rgb(47,47,47);"/>
        </g>
        <g transform="matrix(0.193007,-0.111433,0.111433,0.193007,-56.3895,10.3514)">
            <path d="M304.392,422.333C306.825,424.5 309.15,421.792 309.15,421.792C309.15,421.792 348.071,378.458 350.617,376.508C354.204,373.754 361.921,369.383 369.95,377.258C373.283,380.525 378.804,387.858 369.217,400.133C367.158,402.779 306.525,469.917 302.971,473.537C302.971,473.537 274.904,502.229 257.783,513.2C253.025,516.258 247.675,519.475 241.392,521.8C235.142,524.121 228.037,525.783 220.508,525.979C212.996,526.258 205.158,524.988 197.708,522.479C190.275,519.95 183.287,516.146 176.942,511.725C175.375,510.6 173.808,509.471 172.317,508.258L168.025,504.917C165.1,502.567 162.283,500.083 159.579,497.483C154.308,492.471 149.437,487.054 145.012,481.283C140.717,475.633 137.546,469.492 134.108,463.917C128.175,454.3 125.392,441.983 124.225,432.483C121.612,411.083 130.362,389.008 130.362,389.008L134.375,381.583C148.408,360.692 182.037,324.779 182.037,324.779C192.892,312.025 204.483,312.871 209.204,316.092C222.804,325.363 219.162,337.908 209.546,349.279L177.683,384.042C176.067,387.804 180.879,391.938 183.983,389.292C193.712,380.95 214.137,358.154 214.137,358.154C223.312,348.925 274.887,293.333 278.358,289.942C285.317,283.133 294.246,279.483 301.217,284.35C308.333,289.313 310.5,297.221 303.958,306.075C302.183,308.471 250.079,366.337 250.079,366.337C247.029,369.692 250.833,374.212 254.187,370.954C254.187,370.954 319.021,299.871 321.954,296.542C328.571,288.979 339.467,287.083 346.104,292.996C352.587,298.771 352.679,308.537 345.95,316.358C343.8,318.837 298.158,369.517 279.875,390.246C278.642,391.629 277.721,393.467 279.625,395.162C279.637,395.175 281.571,397.167 283.933,394.517C288.892,388.95 338.529,334.592 341.3,331.65C347.646,324.896 356.292,321.567 363.467,327.804C370.029,333.496 371.317,343.7 364.121,351.108L304.037,417.863C304.037,417.863 302.108,420.3 304.392,422.333Z" style="fill:rgb(250,192,54);fill-rule:nonzero;stroke:rgb(33,33,33);stroke-width:13.46px;"/>
        </g>
        <g transform="matrix(0.503832,-0.0375287,0.0375287,0.503832,61.7166,42.1364)">
            <path d="M119.5,69C113,66.58 106.12,67.12 103.05,70.67C99.07,75.26 99.55,77.26 92.74,83.39C84.23,85.9 85.21,75.85 85.21,75.85C85.36,71.81 87.86,57.06 88.34,54.42C89.17,50.23 92.12,30.27 93.01,24.34C94.04,17.36 92.65,12.38 88.01,10.92C83.51,9.51 80.51,11.51 78.76,14.12C77.77,22.23 71.7,52.63 71.61,53.95C71.296,53.905 77.605,20.086 78.305,17.276C78.595,16.146 78.443,16.672 78.76,14.11C78.98,12.33 79.12,10.94 79.18,10.07C79.57,3.86 75.33,-0.25 69.61,0.39C64.44,0.98 62.2,6.92 61.08,13.38C60.54,16.5 57.73,36.79 54.3,51.27C51.53,55.5 48.05,51.9 48.05,51.9C39.62,34.77 37.61,24.74 35.87,19.76C33.47,12.94 28.87,9.99 25.4,11.16C21.19,12.57 19.69,16.55 20.32,20.11C20.49,21.13 21.14,23.73 22.06,27.17C22.668,29.445 22.78,29.577 23.51,32.117C24.4,35.237 31.64,56.18 32.21,57.3C32.22,57.29 32.25,57.28 32.26,57.27C31.73,57.66 24.07,34.6 22.06,27.17C20.38,25.4 18.15,24.94 15.17,25.79C11.07,26.93 10.54,34.1 11.46,37.51C12.55,41.53 15.15,53.11 18.26,64.11C18.71,76.67 18.9,76.63 20.4,87.05C23.25,106.82 27.45,115.8 35.72,120.26C49.27,127.5 68.61,131.93 83.75,121.41C87.2,119.02 90.46,114.94 93.49,112C93.96,111.55 101.03,97.75 102.04,96.5C105.56,92.11 108.5,89.38 110.88,87.53C113.25,85.67 115.21,83.63 116.37,82.63C123.75,76.25 124.33,70.8 119.5,69Z" style="fill:rgb(250,192,54);fill-rule:nonzero;stroke:rgb(33,33,33);stroke-width:6.02px;"/>
        </g>
    </g>
</svg>
