<?xml version="1.0" encoding="UTF-8" standalone="no"?>
<svg
   width="128px"
   height="128px"
   version="1.1"
   xml:space="preserve"
   style="fill-rule:evenodd;clip-rule:evenodd;stroke-linecap:round;stroke-miterlimit:10;"
   id="svg33822"
   sodipodi:docname="face with peeking eye.svg"
   inkscape:version="1.2.2 (732a01da63, 2022-12-09)"
   xmlns:inkscape="http://www.inkscape.org/namespaces/inkscape"
   xmlns:sodipodi="http://sodipodi.sourceforge.net/DTD/sodipodi-0.dtd"
   xmlns="http://www.w3.org/2000/svg"
   xmlns:svg="http://www.w3.org/2000/svg"><defs
     id="defs33826" /><sodipodi:namedview
     id="namedview33824"
     pagecolor="#ffffff"
     bordercolor="#000000"
     borderopacity="0.25"
     inkscape:showpageshadow="2"
     inkscape:pageopacity="0.0"
     inkscape:pagecheckerboard="0"
     inkscape:deskcolor="#d1d1d1"
     showgrid="false"
     inkscape:zoom="2.9996795"
     inkscape:cx="24.835987"
     inkscape:cy="82.34213"
     inkscape:window-width="1366"
     inkscape:window-height="697"
     inkscape:window-x="-8"
     inkscape:window-y="-8"
     inkscape:window-maximized="1"
     inkscape:current-layer="svg33822" /><path
     d="M 64,9.64 C 1.69,9.64 0.21,79.5 0.21,93.33 c 0,13.83 28.56,25.03 63.79,25.03 35.24,0 63.79,-11.21 63.79,-25.03 C 127.79,79.5 126.32,9.64 64,9.64 Z"
     style="fill:#fcc21b;fill-rule:nonzero"
     id="path33786" /><g
     transform="matrix(-0.0374117,-0.588119,-0.588119,0.0374117,95.8931,85.3518)"
     id="g33820"><rect
       x="0.03"
       y="0"
       width="127.94"
       height="128"
       style="fill:none;"
       id="rect33818" /></g><path
     id="path24208"
     style="font-variation-settings:'opsz' 12, 'wght' 400;fill:#ed6c30;fill-opacity:1;stroke-width:5.6693;stroke-linecap:round"
     d="m 63.79,82.85625 c -7.894461,0 -11.386297,4.639023 -11.38473,9.60238 0.0016,4.96336 3.493052,8.37141 11.38473,8.37141 7.891679,0 11.383163,-3.40805 11.384729,-8.37141 0.0016,-4.963357 -3.490266,-9.60238 -11.384729,-9.60238 z"
     sodipodi:nodetypes="szszs" /><g
     id="g24827"
     transform="translate(0.00237347,8.2755455)"><g
       id="g24819"><ellipse
         cx="85.739998"
         cy="47.389999"
         rx="16.610001"
         ry="15.5"
         style="fill:#ffffff"
         transform="matrix(0.1106,-0.9939,0.9939,0.1106,29.1513,127.3626)"
         id="ellipse24815" /><path
         d="m 92.42,47.36 c -0.23,3.3 -3.14,5.82 -6.49,5.62 -3.36,-0.19 -5.9,-3.04 -5.67,-6.34 0.22,-3.31 3.12,-5.82 6.48,-5.62 3.36,0.19 5.91,3.04 5.68,6.34"
         style="fill:#2f2f2f"
         id="path24817" /></g><g
       id="g24825"><ellipse
         cx="42.25"
         cy="47.400002"
         rx="15.5"
         ry="16.610001"
         style="fill:#ffffff"
         transform="matrix(0.9972,-0.0752,0.0752,0.9972,-3.4436,3.3101)"
         id="ellipse24821" /><path
         d="m 48.81,46.13 c 0.38,3.29 -2.01,6.3 -5.34,6.72 -3.34,0.43 -6.36,-1.9 -6.74,-5.18 -0.4,-3.29 1.99,-6.3 5.33,-6.73 3.33,-0.42 6.36,1.91 6.75,5.19"
         style="fill:#2f2f2f"
         id="path24823" /></g></g><path
     d="m 110.78911,55.285774 c -0.62421,-0.664364 -1.5806,-1.016601 -2.54703,-1.046706 -2.33303,-0.153292 -3.21364,2.237685 -3.41987,3.68231 -0.19619,1.122477 -0.22252,14.9066 -0.22252,14.9066 -0.83546,0.941339 -1.46971,0.599126 -1.85984,0.183903 l -0.31211,-0.332176 c -0.12369,-3.792698 -1.10896,-16.157284 -1.2048,-18.256224 0.0301,-0.96643 -0.42805,-1.786828 -0.9742,-2.368148 -0.780251,-0.830459 -1.975753,-1.270757 -3.191316,-1.066774 -2.025936,0.339959 -2.745456,2.735979 -2.785623,4.024523 -0.04014,1.288569 2.204477,14.303034 2.952385,18.760083 0.543008,3.246787 -2.856101,3.431872 -4.10636,1.682697 -3.156272,-4.426146 -7.678609,-10.9819 -8.723177,-12.372682 -0.469267,-0.674526 -1.021997,-1.136986 -1.552162,-1.345647 -1.16636,-0.459053 -2.518815,-0.134148 -3.530602,0.56975 -1.580281,1.214899 -0.994766,3.77204 -0.226567,4.931594 0.427531,0.780561 7.883866,9.83811 10.056464,12.407609 0.279778,0.844854 0.218869,1.310726 -0.118396,1.545355 -0.420721,0.446701 -1.098641,0.302352 -1.098641,0.302352 -3.747335,-4.16894 -5.772171,-6.802735 -6.688133,-7.897991 -0.511037,-0.568455 -1.063747,-1.030938 -1.593898,-1.23961 -1.16636,-0.459056 -2.371048,-0.198448 -3.254234,0.800981 -1.451677,1.510423 -0.528899,3.832933 0.387062,4.928187 0.639603,0.864025 4.473798,5.43453 7.66499,8.527392 0,0 1.891392,2.131539 3.936204,6.338401 1.623639,3.568961 4.24229,5.870309 6.808058,7.351647 2.269717,1.31042 4.528258,1.9565 6.350356,2.21902 5.36761,0.73061 10.55722,0.17422 15.7978,-5.484258 2.51398,-2.759038 4.53863,-6.72164 4.89275,-10.069786 0.52914,-4.562885 -0.80254,-7.042238 -0.26222,-10.940778 0.407,-2.528149 0.3165,-4.422485 -1.36109,-5.391067 v 0 c -1.87498,-1.082526 -4.45303,0.192179 -5.17135,2.803747 -0.76003,2.455908 0.26443,4.099995 0.24806,7.774726 -1.07843,0.956301 -1.99711,0.95221 -2.58921,0.610365 -0.88815,-0.512772 -1.26353,-1.913701 -1.26353,-1.913701 -0.45879,-1.712238 -0.81887,-3.36751 -1.19425,-4.768433 -0.0417,-0.155657 -0.17585,-1.407085 -0.0627,-2.451541 0.13322,-1.68874 1.03063,-12.382401 1.1059,-14.798472 0.0351,-1.127501 -0.33996,-2.025928 -0.88614,-2.60724"
     style="fill:#fac036;fill-opacity:1;stroke:#2f2f2f;stroke-width:9.5;stroke-dasharray:none;stroke-opacity:1;paint-order:stroke fill markers"
     id="path33983"
     sodipodi:nodetypes="ccccsccssscccsccccccsccccsccccssccscscsc" /><path
     class="st22"
     d="m 35.716089,39.977447 c 0.906134,-0.242798 1.933666,-0.03253 2.795365,0.464973 2.123897,1.130488 1.598224,3.699319 0.995588,5.074784 -0.436803,1.088232 -7.885246,13.160145 -7.885246,13.160145 0.22058,1.276283 0.96088,1.320719 1.527213,1.16897 l 0.453067,-0.121399 c 2.163974,-3.250611 9.727863,-13.532474 10.9494,-15.31657 0.497502,-0.861699 1.342936,-1.33103 2.135803,-1.543478 1.132668,-0.303497 2.417083,-0.04066 3.369831,0.796641 1.587913,1.395503 0.918624,3.881418 0.255288,5.030349 -0.663336,1.148932 -8.809823,10.61571 -11.87993,14.109119 -0.337621,1.911448 1.792228,1.704953 1.792228,1.704953 3.741576,-4.158923 9.127406,-10.336609 10.357075,-11.637289 0.558202,-0.635165 1.177103,-1.043797 1.743436,-1.195545 1.245934,-0.333847 2.591049,0.155522 3.543797,0.992825 1.474646,1.425853 0.578824,3.972467 -0.341395,5.068831 -0.527852,0.748432 -9.20437,9.143242 -11.724408,11.518069 -0.384235,0.831349 -0.376103,1.314766 -0.05852,1.593866 0.378282,0.505634 1.088232,0.436803 1.088232,0.436803 4.316041,-3.827256 6.692463,-6.285 7.756298,-7.298447 0.588551,-0.521898 1.207452,-0.93053 1.773786,-1.082279 1.245934,-0.333847 2.447432,0.07261 3.234346,1.197141 1.308812,1.713086 0.09541,3.980599 -0.968428,4.994047 -0.754385,0.809131 -5.205911,5.036886 -8.828267,7.828477 0,0 -2.611087,2.035026 -5.764111,5.672051 -2.564474,3.115127 -5.780377,4.705219 -8.725311,5.494311 C 30.706091,88.786839 28.289009,88.8275 26.40791,88.603146 20.877879,87.899733 15.867568,85.964471 12.165486,78.944114 10.401428,75.532028 9.4443221,71.053927 9.98408,67.631529 c 0.689328,-4.676464 2.673382,-6.786276 3.174658,-10.805357 0.26879,-2.621398 0.863294,-4.48028 2.788828,-4.996225 v 0 c 2.152067,-0.576645 4.375146,1.37706 4.393589,4.164293 0.10136,2.643616 -1.354842,4.004995 -2.317318,7.662059 0.817264,1.237801 1.73153,1.47842 2.41113,1.296322 1.0194,-0.273148 1.765653,-1.565696 1.765653,-1.565696 0.912087,-1.57978 1.710907,-3.129211 2.45716,-4.421759 0.08292,-0.143617 1.34889,-2.668013 1.816042,-3.642978 0.79882,-1.549431 5.810142,-11.390134 7.053897,-13.54438 0.580419,-1.005315 1.395503,-1.587913 2.18837,-1.800361"
     id="path23141"
     style="clip-rule:evenodd;fill:#fac036;fill-opacity:1;fill-rule:evenodd;stroke:#2f2f2f;stroke-width:9.5;stroke-linecap:round;stroke-linejoin:round;stroke-miterlimit:1.5;stroke-dasharray:none;stroke-opacity:1;paint-order:stroke fill markers"
     sodipodi:nodetypes="ccccsccssscccsccccccsccccsccccssccscscsc" /></svg>
