<?xml version="1.0" encoding="UTF-8" standalone="no"?><!DOCTYPE svg PUBLIC "-//W3C//DTD SVG 1.1//EN" "http://www.w3.org/Graphics/SVG/1.1/DTD/svg11.dtd"><svg width="100%" height="100%" viewBox="0 0 534 534" version="1.1" xmlns="http://www.w3.org/2000/svg" xmlns:xlink="http://www.w3.org/1999/xlink" xml:space="preserve" xmlns:serif="http://www.serif.com/" style="fill-rule:evenodd;clip-rule:evenodd;"><path d="M265.833,39.458c-260.5,0 -266.666,292 -266.666,349.792c-0,57.833 119.375,104.625 266.666,104.625c147.292,0 266.625,-46.792 266.625,-104.625c0,-57.792 -6.166,-349.792 -266.625,-349.792Z" style="fill:#fcc21b;fill-rule:nonzero;"/><path d="M304.392,422.333c2.433,2.167 4.758,-0.541 4.758,-0.541c0,-0 38.921,-43.334 41.467,-45.284c3.587,-2.754 11.304,-7.125 19.333,0.75c3.333,3.267 8.854,10.6 -0.733,22.875c-2.059,2.646 -62.692,69.784 -66.246,73.404c-0,0 -28.067,28.692 -45.188,39.663c-4.758,3.058 -10.108,6.275 -16.391,8.6c-6.25,2.321 -13.355,3.983 -20.884,4.179c-7.512,0.279 -15.35,-0.991 -22.8,-3.5c-7.433,-2.529 -14.421,-6.333 -20.766,-10.754c-1.567,-1.125 -3.134,-2.254 -4.625,-3.467l-4.292,-3.341c-2.925,-2.35 -5.742,-4.834 -8.446,-7.434c-5.271,-5.012 -10.142,-10.429 -14.567,-16.2c-4.295,-5.65 -7.466,-11.791 -10.904,-17.366c-5.933,-9.617 -8.716,-21.934 -9.883,-31.434c-2.613,-21.4 6.137,-43.475 6.137,-43.475l4.013,-7.425c14.033,-20.891 47.662,-56.804 47.662,-56.804c10.855,-12.754 22.446,-11.908 27.167,-8.687c13.6,9.271 9.958,21.816 0.342,33.187l-31.863,34.763c-1.616,3.762 3.196,7.896 6.3,5.25c9.729,-8.342 30.154,-31.138 30.154,-31.138c9.175,-9.229 60.75,-64.821 64.221,-68.212c6.959,-6.809 15.888,-10.459 22.859,-5.592c7.116,4.963 9.283,12.871 2.741,21.725c-1.775,2.396 -53.879,60.262 -53.879,60.262c-3.05,3.355 0.754,7.875 4.108,4.617c0,0 64.834,-71.083 67.767,-74.412c6.617,-7.563 17.513,-9.459 24.15,-3.546c6.483,5.775 6.575,15.541 -0.154,23.362c-2.15,2.479 -47.792,53.159 -66.075,73.888c-1.233,1.383 -2.154,3.221 -0.25,4.916c0.012,0.013 1.946,2.005 4.308,-0.645c4.959,-5.567 54.596,-59.925 57.367,-62.867c6.346,-6.754 14.992,-10.083 22.167,-3.846c6.562,5.692 7.85,15.896 0.654,23.304l-60.084,66.755c0,-0 -1.929,2.437 0.355,4.47Z" style="fill:#fac036;fill-rule:nonzero;stroke:#2f2f2f;stroke-width:12.5px;"/><g><path d="M175.022,276.958c-18.708,0.167 -34.042,-17.791 -34.25,-40.083c-0.208,-22.375 14.792,-40.625 33.5,-40.792c18.667,-0.166 34.042,17.792 34.25,40.167c0.208,22.333 -14.792,40.542 -33.5,40.708Zm183.792,0c18.666,-0.041 33.791,-18.166 33.75,-40.458c-0.042,-22.375 -15.25,-40.417 -33.917,-40.375c-18.708,0.042 -33.875,18.167 -33.833,40.542c0.083,22.291 15.291,40.333 34,40.291Z" style="fill:#2f2f2f;fill-rule:nonzero;"/></g></svg>