<?xml version="1.0" encoding="UTF-8" standalone="no"?>
<svg
   width="100%"
   height="100%"
   viewBox="0 0 128 128"
   version="1.1"
   xml:space="preserve"
   style="fill-rule:evenodd;clip-rule:evenodd;stroke-linejoin:round;stroke-miterlimit:2;"
   id="svg1951"
   sodipodi:docname="headstone.svg"
   inkscape:version="1.2.2 (732a01da63, 2022-12-09)"
   xmlns:inkscape="http://www.inkscape.org/namespaces/inkscape"
   xmlns:sodipodi="http://sodipodi.sourceforge.net/DTD/sodipodi-0.dtd"
   xmlns="http://www.w3.org/2000/svg"
   xmlns:svg="http://www.w3.org/2000/svg"><defs
   id="defs1955" /><sodipodi:namedview
   id="namedview1953"
   pagecolor="#ffffff"
   bordercolor="#000000"
   borderopacity="0.25"
   inkscape:showpageshadow="2"
   inkscape:pageopacity="0.0"
   inkscape:pagecheckerboard="0"
   inkscape:deskcolor="#d1d1d1"
   showgrid="false"
   inkscape:zoom="2.9996795"
   inkscape:cx="58.839618"
   inkscape:cy="76.674857"
   inkscape:window-width="1366"
   inkscape:window-height="697"
   inkscape:window-x="-8"
   inkscape:window-y="-8"
   inkscape:window-maximized="1"
   inkscape:current-layer="svg1951" />
    <g
   id="g4534"
   transform="matrix(0.96837577,0,0,0.96837577,2.0234449,3.6672411)"
   style="stroke-width:1.03266">
        <path
   d="M 19.078,44.562551 C 19.069402,25.378055 31.02254,1.595 64,1.595 c 32.97746,0 44.84809,23.680352 44.857,42.967551 L 108.89,115.963 H 19.11 Z"
   style="fill:#86a8b4;stroke-width:1.03266"
   id="path1936"
   sodipodi:nodetypes="szsccs" />
    </g>
    <g
   transform="matrix(0.437556,0,0,0.437556,35.9964,19.7503)"
   id="g1941">
        <path
   d="M64,6.11C95.15,6.11 124,26.63 124,64C124,82.907 116.531,97.561 105.094,107.392C110.066,108.049 112.74,109.954 112.74,110.97C112.74,111.52 111.75,112.68 109.01,113.61C108.5,113.78 108.08,114.17 107.85,114.65C107.62,115.14 107.6,115.7 107.79,116.21C107.87,116.43 107.91,116.6 107.91,116.73C107.91,119.02 101.87,122.33 92.42,122.33C87.109,122.33 82.879,121.284 80.19,119.962C74.961,121.24 69.517,121.89 64,121.89C58.53,121.89 53.131,121.267 47.942,120.034C45.245,121.326 41.078,122.34 35.88,122.34C26.42,122.34 20.39,119.03 20.39,116.75C20.39,116.61 20.43,116.44 20.51,116.22C20.7,115.71 20.68,115.15 20.45,114.66C20.22,114.17 19.8,113.8 19.29,113.62C16.56,112.69 15.56,111.53 15.56,110.97C15.56,109.983 18.085,108.177 22.789,107.484C11.416,97.717 4,83.104 4,64C4,26.11 32.85,6.11 64,6.11ZM84.799,101.149C82.278,101.891 79.478,101.665 77,100.33C73.09,98.23 68.68,97.04 64,97.04C59.32,97.04 54.91,98.23 51,100.33C48.624,101.613 45.948,101.874 43.504,101.235L43.88,110.49C43.91,111.34 44.48,112.12 45.3,112.36C49.449,113.614 51.351,115.491 51.37,116.692C55.441,117.483 59.671,117.89 64,117.89C68.431,117.89 72.766,117.454 76.937,116.606C77.061,115.405 78.971,113.627 83,112.4C83.81,112.15 84.38,111.33 84.42,110.48L84.799,101.149ZM100.431,106.04C101.321,105.352 102.188,104.635 103.03,103.89C114.13,94.07 120,80.27 120,64C120,47.65 114.13,33.83 103.03,24.04C92.86,15.06 78.99,10.11 64,10.11C48.93,10.11 35.07,14.99 24.96,23.85C13.86,33.58 8,47.46 8,64C8,80.46 13.86,94.32 24.96,104.07C25.848,104.851 26.765,105.6 27.71,106.319C27.93,105.995 28.065,105.607 28.08,105.2L30.315,47.268C29.859,47.684 29.474,48.077 29.2,48.39C28.84,48.8 28.63,49.03 28.63,49.03L28.33,49.37C27.11,50.74 25.01,50.87 23.64,49.65C22.6,48.73 22.28,47.29 22.71,46.05C22.71,46.05 22.75,45.94 22.82,45.73C22.9,45.52 22.99,45.2 23.17,44.82C23.5,44.04 24.06,42.95 24.99,41.74C25.9,40.53 27.24,39.23 29.02,38.2C29.92,37.71 30.91,37.24 31.99,36.95C32.55,36.82 33.03,36.69 33.73,36.61C34.03,36.57 34.47,36.52 34.6,36.52L35.36,36.48C36.5,36.5 37.64,36.66 38.73,36.95C39.81,37.23 40.8,37.7 41.7,38.2C43.48,39.23 44.82,40.53 45.73,41.74C46.2,42.34 46.57,42.92 46.86,43.44C47.15,43.94 47.39,44.45 47.58,44.88C47.69,45.1 47.74,45.26 47.78,45.38L47.98,45.98C48.55,47.75 47.58,49.65 45.81,50.22C44.45,50.65 43,50.16 42.15,49.11C42.15,49.11 42.09,49.03 41.97,48.89C41.91,48.82 41.84,48.73 41.76,48.62C41.67,48.51 41.58,48.39 41.5,48.33L41.35,48.18L42.59,78.714C48.194,72.732 55.72,69.07 64,69.07C72.423,69.07 80.066,72.86 85.697,79.024L86.96,47.925C86.794,48.092 86.647,48.249 86.52,48.39C86.16,48.8 85.95,49.03 85.95,49.03L85.65,49.37C84.43,50.74 82.33,50.87 80.96,49.65C79.92,48.73 79.6,47.29 80.03,46.05C80.03,46.05 80.07,45.94 80.14,45.73C80.22,45.52 80.31,45.2 80.49,44.82C80.82,44.04 81.38,42.95 82.31,41.74C83.22,40.53 84.56,39.23 86.34,38.2C87.24,37.71 88.23,37.24 89.31,36.95C89.87,36.82 90.35,36.69 91.05,36.61C91.35,36.57 91.78,36.52 91.92,36.52L92.68,36.48C93.82,36.5 94.96,36.66 96.05,36.95C97.13,37.23 98.12,37.7 99.02,38.2C100.8,39.23 102.14,40.53 103.05,41.74C103.52,42.34 103.89,42.92 104.18,43.44C104.47,43.94 104.71,44.45 104.9,44.88C105.01,45.1 105.06,45.26 105.1,45.38L105.3,45.98C105.87,47.75 104.9,49.65 103.13,50.22C101.78,50.65 100.33,50.16 99.48,49.11C99.48,49.11 99.42,49.03 99.3,48.89C99.24,48.82 99.17,48.73 99.09,48.62C99,48.51 98.91,48.39 98.83,48.33L98.21,47.71C98.141,47.641 98.069,47.571 97.994,47.5L100.22,105.21C100.231,105.506 100.306,105.787 100.431,106.04ZM48.37,22.74C42.41,23.67 37.01,26.7 33.25,30.83C31.8,32.48 29.01,30.83 30.25,28.73C32.79,24.56 37.24,21.09 42.63,19.69C44.59,19.18 46.56,18.97 48.47,19.06C50.91,19.21 50.69,22.42 48.51,22.72C48.46,22.73 48.42,22.73 48.37,22.74ZM79.63,22.74C79.58,22.73 79.54,22.73 79.49,22.72C77.31,22.42 77.09,19.21 79.53,19.06C81.44,18.97 83.41,19.18 85.37,19.69C90.76,21.09 95.21,24.56 97.75,28.73C98.99,30.83 96.2,32.48 94.75,30.83C90.99,26.7 85.59,23.67 79.63,22.74Z"
   style="fill-opacity:0.5;fill-rule:nonzero;"
   id="path1939" />
    </g>
    <g
   transform="matrix(1.23278,0,0,1.23278,-10.6194,-20.664744)"
   id="g1947">
        <text
   x="34.952999"
   y="88.596115"
   style="font-weight:700;font-size:12px;font-family:ComicNeue-Bold, 'Comic Neue';fill-opacity:0.6"
   id="text1945">2017<tspan
   x="56.949001"
   y="88.596115"
   id="tspan1943">-</tspan>2020</text>
    </g>
    <path
   d="m 18.322,124.82818 c -7.13,0 -12.918,-4.32564 -12.918,-12.09178 0,-7.76614 5.788,-12.09179 12.918,-12.09179 1.947,0 3.797091,0.39529 5.45,1.127 0.859158,0.38033 1.859959,0.3031 2.646,-0.19844 2.12605,-1.35656 4.704,-2.131368 7.469,-2.131368 3.095,0 5.955833,0.972258 8.218,2.634018 0.734948,0.53989 1.707226,0.68614 2.582,0.38191 1.332321,-0.46336 2.777,-0.70671 4.28,-0.70671 1.55,0 3.035748,0.26105 4.4,0.75819 1.029791,0.37526 2.195411,0.11321 2.929,-0.66085 2.684425,-2.832518 6.603,-4.61936 10.96,-4.61936 3.831,0 7.329343,1.375019 9.924,3.64682 0.64044,0.56074 1.523997,0.79819 2.383,0.62902 0.738106,-0.14536 1.506,-0.21529 2.291,-0.21529 1.721,0 3.354043,0.36869 4.797,1.04556 0.74811,0.35093 1.622328,0.35251 2.374,0.008 1.620415,-0.74177 3.447,-1.14571 5.371,-1.14571 0.775,0 1.534377,0.0655 2.27,0.19563 0.714382,0.12635 1.44764,-0.0301 2.041,-0.42309 2.25968,-1.496847 5.025,-2.362571 8.002,-2.362571 7.73,0 14.006,4.628271 14.006,13.110191 0,8.48192 -6.268,13.1102 -13.992,13.1102 z"
   style="fill:#bdcf46;stroke-width:1"
   id="path1949"
   sodipodi:nodetypes="szssssssssssssssssssszss" />
</svg>
