<?xml version="1.0" encoding="UTF-8" standalone="no"?>
<svg
   width="128px"
   height="128px"
   version="1.1"
   xml:space="preserve"
   style="fill-rule:evenodd;clip-rule:evenodd;stroke-linecap:round;stroke-miterlimit:10;"
   id="svg8653"
   sodipodi:docname="melting face.svg"
   inkscape:version="1.2.2 (732a01da63, 2022-12-09)"
   xmlns:inkscape="http://www.inkscape.org/namespaces/inkscape"
   xmlns:sodipodi="http://sodipodi.sourceforge.net/DTD/sodipodi-0.dtd"
   xmlns="http://www.w3.org/2000/svg"
   xmlns:svg="http://www.w3.org/2000/svg"><defs
     id="defs8657" /><sodipodi:namedview
     id="namedview8655"
     pagecolor="#ffffff"
     bordercolor="#000000"
     borderopacity="0.25"
     inkscape:showpageshadow="2"
     inkscape:pageopacity="0.0"
     inkscape:pagecheckerboard="0"
     inkscape:deskcolor="#d1d1d1"
     showgrid="false"
     inkscape:zoom="1"
     inkscape:cx="196.5"
     inkscape:cy="28"
     inkscape:window-width="1366"
     inkscape:window-height="697"
     inkscape:window-x="-8"
     inkscape:window-y="-8"
     inkscape:window-maximized="1"
     inkscape:current-layer="svg8653" /><g
     transform="matrix(1.04244,0,0,1.04244,-5.38775,-10.328)"
     id="g8634"><path
       d="m 116.288,82.062 c 0.56611,12.995794 13.93499,22.69512 5.67489,27.3577 -8.26009,4.66259 -14.94726,-0.68571 -19.66981,0.21464 -4.670387,0.89041 -7.000284,7.10199 -15.732125,8.07531 -7.760928,0.8651 -11.450033,-7.57977 -19.621259,-7.07463 -9.163675,0.56649 -15.408446,6.12445 -26.163718,5.54535 -7.252038,-0.39048 -8.664153,-4.9963 -14.270869,-5.16633 -4.256386,-0.12907 -15.991093,6.50801 -19.8955928,2.07201 -3.9045,-4.436 3.2799182,-9.94102 3.5064838,-13.15305 0.287434,-4.074969 -3.945,-4.544 -4.028,-8.5855 -0.083,-4.0415 4.967388,-4.768775 5.540153,-8.567972"
       style="fill:#fcc21b"
       id="path8632"
       sodipodi:nodetypes="czssssssssc" /></g><g
     id="g4534"
     transform="matrix(1,0,0,1,0,-1.8)"><g
       transform="matrix(0.860529,0,0,0.785977,6.21629,12.5383)"
       id="g8638"><path
         d="M 69.554265,6.0165872 C 7.5862649,-1.1184128 0,78.5 0,92.33 c 0,13.83 28.56,25.03 63.79,25.03 35.24,0 63.79,-11.21 63.79,-25.03 0,-13.83 4.29426,-79.138413 -58.025735,-86.3134128 z"
         style="fill:#fcc21b;fill-rule:nonzero"
         id="path8636"
         sodipodi:nodetypes="csssc" /></g><g
       transform="matrix(0.858607,0.0574837,-0.0574837,0.858607,9.60276,4.29839)"
       id="g8642"><path
         d="m 85.844657,70.422069 c 4.466972,0.341552 8.427102,-3.710211 8.836917,-9.044502 0.411385,-5.354228 -2.88761,-9.957273 -7.354584,-10.298825 -4.476941,-0.342336 -8.447039,3.708642 -8.858423,9.06287 -0.399847,5.335075 2.899149,9.938121 7.37609,10.280457 z"
         style="fill:#2f2f2f"
         id="path8640"
         sodipodi:nodetypes="scccs" /></g><g
       transform="matrix(0.858607,0.0574837,-0.0574837,0.858607,9.60276,0.207378)"
       id="g8646"><path
         d="m 51.441294,60.700696 c -4.34736,-1.123461 -6.786457,-6.239055 -5.450071,-11.419699 1.341562,-5.199963 5.952522,-8.498969 10.299882,-7.375509 4.3377,1.120872 6.786457,6.239055 5.444895,11.439018 -1.338974,5.190303 -5.947346,8.47965 -10.294706,7.35619 z"
         style="fill:#2f2f2f"
         id="path8644"
         sodipodi:nodetypes="scccs" /></g><g
       transform="matrix(0.84863,0.142605,-0.142605,0.84863,21.0935,-0.899181)"
       id="g8650"><path
         d="M 35.122855,74.595128 C 44.419059,89.173465 64.310452,92.247782 81.41485,86.160494"
         style="fill:none;fill-rule:nonzero;stroke:#2f2f2f;stroke-width:6px"
         id="path8648"
         sodipodi:nodetypes="cc" /></g></g></svg>
