<?xml version="1.0" encoding="UTF-8" standalone="no"?>
<!-- Generator: Adobe Illustrator 25.2.3, SVG Export Plug-In . SVG Version: 6.00 Build 0)  -->

<svg
   version="1.1"
   id="Layer_2"
   x="0px"
   y="0px"
   viewBox="0 0 128 128"
   style="enable-background:new 0 0 128 128;"
   xml:space="preserve"
   sodipodi:docname="emoji_u1fad7.svg"
   inkscape:version="1.2.2 (732a01da63, 2022-12-09)"
   xmlns:inkscape="http://www.inkscape.org/namespaces/inkscape"
   xmlns:sodipodi="http://sodipodi.sourceforge.net/DTD/sodipodi-0.dtd"
   xmlns="http://www.w3.org/2000/svg"
   xmlns:svg="http://www.w3.org/2000/svg"><defs
   id="defs39698" /><sodipodi:namedview
   id="namedview39696"
   pagecolor="#ffffff"
   bordercolor="#000000"
   borderopacity="0.25"
   inkscape:showpageshadow="2"
   inkscape:pageopacity="0.0"
   inkscape:pagecheckerboard="0"
   inkscape:deskcolor="#d1d1d1"
   showgrid="false"
   inkscape:zoom="2"
   inkscape:cx="87.5"
   inkscape:cy="101"
   inkscape:window-width="1366"
   inkscape:window-height="697"
   inkscape:window-x="-8"
   inkscape:window-y="-8"
   inkscape:window-maximized="1"
   inkscape:current-layer="Layer_2" />
<path
   style="opacity:0.7;fill:#E0E0E0;"
   d="M32.09,3.96c0,0-12.32,3.36-18.24,21.12c-6.18,18.53,2.39,28.36,2.39,28.36l70.09,32.58  l4.23-1.41l8.74-5.52l9.82-16.58l5.36-22.96l-4.9-14.46L32.09,3.96z"
   id="path39677" />
<path
   style="fill:#CFCFCF;"
   d="M39.57,11.47c-6.23-2.05-15.83,6.93-18.35,18.26s-0.28,20.6,5.34,22.66  c5.62,2.06,14.14-6.74,17.14-17.14C46.69,24.86,46.13,13.62,39.57,11.47z"
   id="path39679" />


<path
   style="fill:#C8C8C8;"
   d="M109.54,25.06l-2.65,2.63c0,0,4.33,0.14,5.22,7.62c0.81,6.75-0.31,14.58-2.88,22.06  c-2.86,8.34-7.83,16.8-13.49,21.92c-4.34,3.93-7.65,2.86-7.65,2.86l-1.76,3.88c0,0,5.17,2.25,11.97-3.95  c6.73-6.13,11.55-15.13,14.3-23.53c3.3-10.12,3.79-17.92,2.86-24.05C114.55,28.49,112.46,26.09,109.54,25.06z"
   id="path39685" />
<path
   style="fill:#1d9cda;fill-opacity:0.90196079"
   d="M23.99,51.59c-0.33,0.65,0.75,0.94,6.55,3.73c4.83,2.33,19.64,9.16,32.94,15  c10.98,4.82,22.49,10.18,23.29,10.76c2.16,1.57,2.92,3.33,2.92,9.5c0,7.6-0.53,24.56-0.53,27.28c0,3.4-0.45,8.39,3.74,8.62  c4.2,0.23,3.97-4.99,3.97-7.71s0-23.28-2.27-34.98c-0.54-2.76-1.46-6.47-6.68-9.61c-2.24-1.34-5.4-2.5-9.4-4.07  c-16.28-6.42-37.57-15.55-46.08-18.61C29.07,50.3,25.06,49.45,23.99,51.59z"
   id="path39687" />

<path
   style="fill:#C8C8C8;"
   d="M83.36,49.85c-4.09,10.12-5.13,21.63-3.25,28.66c1.82,6.8,6.21,7.52,6.21,7.52l1.76-3.88  c0,0-2.43,0.29-3.89-3.79c-1.46-4.09-1.46-18.4,2.72-28.02c5.79-13.3,12.82-19.11,16.05-20.79c3.46-1.8,5.94-0.81,5.94-0.81  l0.67-3.65c0,0-4.78-2.22-11.44,2.83C91.81,32.73,86.99,40.86,83.36,49.85z"
   id="path39691" />

</svg>
