<?xml version="1.0" encoding="UTF-8" standalone="no"?>
<svg
   width="128px"
   height="128px"
   version="1.1"
   xml:space="preserve"
   style="fill-rule:evenodd;clip-rule:evenodd;stroke-linejoin:round;stroke-miterlimit:2;"
   id="svg22433"
   sodipodi:docname="saluting face.svg"
   inkscape:version="1.2.2 (732a01da63, 2022-12-09)"
   xmlns:inkscape="http://www.inkscape.org/namespaces/inkscape"
   xmlns:sodipodi="http://sodipodi.sourceforge.net/DTD/sodipodi-0.dtd"
   xmlns="http://www.w3.org/2000/svg"
   xmlns:svg="http://www.w3.org/2000/svg"><defs
     id="defs22437" /><sodipodi:namedview
     id="namedview22435"
     pagecolor="#ffffff"
     bordercolor="#000000"
     borderopacity="0.25"
     inkscape:showpageshadow="2"
     inkscape:pageopacity="0.0"
     inkscape:pagecheckerboard="0"
     inkscape:deskcolor="#d1d1d1"
     showgrid="false"
     inkscape:zoom="2.8726213"
     inkscape:cx="5.7438828"
     inkscape:cy="72.407734"
     inkscape:window-width="1366"
     inkscape:window-height="697"
     inkscape:window-x="-8"
     inkscape:window-y="-8"
     inkscape:window-maximized="1"
     inkscape:current-layer="svg22433" /><path
     d="M 63.79,9.64 C 1.48,9.64 0,79.5 0,93.33 c 0,13.83 28.56,25.03 63.79,25.03 35.24,0 63.79,-11.21 63.79,-25.03 0,-13.83 -1.47,-83.69 -63.79,-83.69 z"
     style="fill:#fcc21b;fill-rule:nonzero"
     id="path22421" /><path
     d="m 42.21,68.47 c -4.49,0.04 -8.17,-4.27 -8.22,-9.62 -0.05,-5.37 3.55,-9.75 8.04,-9.79 4.48,-0.04 8.17,4.27 8.22,9.64 0.05,5.36 -3.55,9.73 -8.04,9.77 z m 44.11,0 c 4.48,-0.01 8.11,-4.36 8.1,-9.71 -0.01,-5.37 -3.66,-9.7 -8.14,-9.69 -4.49,0.01 -8.13,4.36 -8.12,9.73 0.02,5.35 3.67,9.68 8.16,9.67 z"
     style="fill:#2f2f2f;fill-rule:nonzero"
     id="path22423" /><g
     transform="matrix(0.680022,0,0,0.187061,20.4786,68.834999)"
     id="g22427"
     style="stroke:none;stroke-width:1.00096;stroke-dasharray:none;stroke-opacity:1"><path
       d="m 34.793,96.38 c 14.42,17.508 43.994,17.508 58.414,0 2.31,-2.803 3.558,-11.895 2.787,-20.29 -0.771,-8.395 -3.272,-12.934 -5.581,-10.13 -13.04,15.832 -39.786,15.832 -52.826,0 -2.309,-2.804 -4.81,1.735 -5.581,10.13 -0.771,8.395 0.477,17.487 2.787,20.29 z"
       style="fill:#2f2f2f;stroke:none;stroke-width:1.00096;stroke-dasharray:none;stroke-opacity:1"
       id="path22425" /></g><path
     id="rect22134-7"
     style="font-variation-settings:'opsz' 12, 'wght' 400;clip-rule:evenodd;fill:#fac036;fill-opacity:1;fill-rule:evenodd;stroke:#2f2f2f;stroke-width:9.49997;stroke-linecap:round;stroke-linejoin:miter;stroke-miterlimit:2;stroke-dasharray:none;stroke-opacity:1;paint-order:stroke fill markers"
     d="m 16.224189,32.465016 c -4.225207,1.132141 -5.013189,3.550563 -4.461369,5.609987 0.551821,2.059423 2.443444,3.759848 6.668652,2.627706 L 60.765103,29.359447 c 4.225208,-1.132141 5.013326,-3.5506 4.461505,-5.610024 -0.551821,-2.059422 -2.44358,-3.75981 -6.668788,-2.62767 z"
     sodipodi:nodetypes="sssssss" /><path
     style="font-variation-settings:'opsz' 12, 'wght' 400;clip-rule:evenodd;fill:#fac036;fill-opacity:1;fill-rule:evenodd;stroke:#2f2f2f;stroke-width:3.5;stroke-linecap:round;stroke-linejoin:miter;stroke-miterlimit:2;stroke-dasharray:none;stroke-opacity:1;paint-order:normal"
     d="m 19.779686,30.567793 c 0,0 8.240925,-2.558836 11.580196,-3.453591 3.33927,-0.894755 6.63608,0.818921 7.464741,3.911524 0.828659,3.092601 -0.99439,6.298208 -4.478877,7.231873 -3.484487,0.933666 -11.871485,2.366485 -11.871485,2.366485"
     id="path22727-6"
     sodipodi:nodetypes="czzzc" /></svg>
